<?xml version="1.0" encoding="utf-8"?>
<!-- Generator: Adobe Illustrator 16.0.0, SVG Export Plug-In . SVG Version: 6.00 Build 0)  -->
<!DOCTYPE svg PUBLIC "-//W3C//DTD SVG 1.1//EN" "http://www.w3.org/Graphics/SVG/1.1/DTD/svg11.dtd">
<svg version="1.1" id="Calque_1" xmlns="http://www.w3.org/2000/svg" xmlns:xlink="http://www.w3.org/1999/xlink" x="0px" y="0px"
	 width="198.425px" height="198.425px" viewBox="0 0 198.425 198.425" enable-background="new 0 0 198.425 198.425"
	 xml:space="preserve">
<path fill="#FFFFFF" d="M184.986,61.613h-4.4l-58.438-40.357L98.761,36.213L75.063,21.452L16.909,61.613h-4.398l62.482-43.151
	l23.75,14.795l23.456-15.003L184.986,61.613z M57.808,115.94h-2.963c-0.392,0-0.744-0.121-1.018-0.351
	c-0.237-0.199-0.422-0.453-0.539-0.74l-3.694-9.146H34.362l-3.691,9.139c-0.1,0.277-0.29,0.537-0.554,0.748
	c-0.293,0.232-0.656,0.355-1.029,0.353h-2.94l14.147-34.573h3.367L57.808,115.94z M35.692,102.425h12.573L41.982,86.83
	L35.692,102.425L35.692,102.425z M69.149,116.314c-2.287,0-4.293-0.415-5.963-1.232c-1.662-0.816-3.147-1.954-4.37-3.346
	l-0.374-0.423l0.959-1.505c0.464-0.588,0.951-0.697,1.287-0.697c0.333,0,0.658,0.146,1.025,0.461l0.801,0.694
	c0.298,0.262,0.655,0.543,1.071,0.848c0.395,0.29,0.865,0.563,1.397,0.814c0.593,0.274,1.212,0.489,1.848,0.641
	c0.686,0.173,1.481,0.259,2.366,0.259c1.209,0,2.298-0.184,3.235-0.545c0.929-0.359,1.722-0.853,2.356-1.465
	c0.632-0.615,1.126-1.358,1.448-2.18c0.342-0.877,0.515-1.811,0.509-2.751c0-1.019-0.201-1.854-0.598-2.488
	c-0.424-0.668-0.989-1.235-1.655-1.662c-0.779-0.497-1.616-0.898-2.491-1.194c-0.982-0.34-1.992-0.672-3.028-0.998
	c-1.053-0.329-2.09-0.703-3.111-1.12c-1.023-0.414-1.979-0.975-2.84-1.666c-0.871-0.71-1.58-1.599-2.08-2.605
	c-0.526-1.043-0.793-2.348-0.793-3.879c0-1.197,0.231-2.37,0.687-3.485c0.459-1.122,1.146-2.136,2.019-2.978
	c0.876-0.851,1.97-1.542,3.248-2.052c1.273-0.508,2.739-0.766,4.356-0.766c1.803,0,3.45,0.293,4.895,0.872
	c1.451,0.58,2.791,1.478,3.98,2.667l0.39,0.389l-0.816,1.563c-0.475,0.897-1.445,1.178-2.558,0.174
	c-0.376-0.326-0.778-0.622-1.2-0.885c-0.496-0.318-1.133-0.619-1.895-0.895c-0.733-0.265-1.666-0.399-2.772-0.399
	c-1.103,0-2.079,0.157-2.903,0.467c-0.811,0.305-1.495,0.722-2.034,1.241c-0.531,0.507-0.95,1.12-1.228,1.8
	c-0.282,0.689-0.426,1.426-0.424,2.17c0,0.971,0.199,1.769,0.592,2.373c0.435,0.661,1.002,1.223,1.666,1.652
	c0.724,0.479,1.562,0.888,2.49,1.217c0.984,0.349,1.995,0.693,3.034,1.035c1.058,0.347,2.102,0.735,3.104,1.152
	c1.047,0.438,2,0.996,2.833,1.661c0.863,0.693,1.57,1.559,2.078,2.542c0.529,1.014,0.798,2.273,0.798,3.746
	c0.008,1.431-0.25,2.852-0.764,4.188c-0.497,1.293-1.259,2.468-2.237,3.449c-0.973,0.974-2.175,1.748-3.572,2.306
	C72.524,116.033,70.92,116.314,69.149,116.314L69.149,116.314z M97.831,115.94h-3.908V84.9H82.236v-3.533h27.211V84.9H97.831V115.94
	z M138.626,115.94h-3.611c-0.378,0-0.711-0.067-0.991-0.203c-0.297-0.141-0.567-0.389-0.801-0.737l-10.576-13.369
	c-0.093-0.129-0.196-0.25-0.312-0.36c-0.066-0.063-0.145-0.112-0.229-0.147c-0.126-0.051-0.258-0.084-0.393-0.1
	c-0.24-0.029-0.483-0.042-0.727-0.04h-3.574v14.959h-3.908V81.367h9.214c3.954,0,6.983,0.796,9.003,2.367
	c2.076,1.614,3.13,3.996,3.13,7.077c0,1.356-0.24,2.617-0.713,3.75c-0.472,1.129-1.17,2.149-2.054,2.996
	c-0.881,0.847-1.955,1.546-3.192,2.078c-0.799,0.343-1.668,0.612-2.599,0.811L138.626,115.94L138.626,115.94z M117.417,97.705h4.976
	c1.384,0,2.636-0.166,3.722-0.494c1.063-0.32,1.967-0.781,2.688-1.37c0.696-0.562,1.253-1.278,1.627-2.092
	c0.373-0.815,0.563-1.757,0.563-2.797c0-2.12-0.654-3.636-1.998-4.633c-1.396-1.034-3.509-1.558-6.273-1.558h-5.305V97.705
	L117.417,97.705z M156.076,116.291c-2.427,0-4.679-0.424-6.693-1.262c-1.98-0.811-3.765-2.035-5.234-3.591
	c-1.449-1.539-2.589-3.418-3.384-5.584c-0.791-2.153-1.19-4.58-1.19-7.213c0-2.616,0.399-5.034,1.19-7.188
	c0.795-2.166,1.935-4.045,3.384-5.585c1.453-1.543,3.214-2.755,5.232-3.602c2.018-0.845,4.271-1.273,6.695-1.273
	c2.424,0,4.68,0.424,6.701,1.26c2.031,0.84,3.799,2.053,5.252,3.604c1.449,1.548,2.588,3.43,3.383,5.596
	c0.791,2.153,1.19,4.571,1.19,7.188c0,2.633-0.399,5.06-1.19,7.213c-0.795,2.166-1.935,4.045-3.385,5.584
	c-1.453,1.545-3.221,2.753-5.25,3.592C160.755,115.867,158.5,116.291,156.076,116.291L156.076,116.291z M156.076,84.55
	c-1.854,0-3.576,0.323-5.113,0.959c-1.502,0.617-2.852,1.555-3.953,2.749c-1.102,1.196-1.971,2.682-2.577,4.415
	c-0.616,1.748-0.929,3.756-0.929,5.968c0,2.229,0.313,4.239,0.928,5.979c0.609,1.728,1.479,3.209,2.578,4.403
	c1.1,1.191,2.449,2.126,3.951,2.735c1.537,0.63,3.261,0.947,5.115,0.947c1.87,0,3.6-0.317,5.139-0.947
	c1.5-0.607,2.845-1.541,3.938-2.733c1.095-1.194,1.954-2.677,2.558-4.403c0.607-1.742,0.918-3.754,0.918-5.981
	c0-2.212-0.311-4.221-0.918-5.97c-0.604-1.733-1.461-3.219-2.558-4.415c-1.095-1.194-2.439-2.132-3.938-2.747
	C159.673,84.873,157.945,84.55,156.076,84.55z"/>
<path fill="#FFFFFF" d="M98.354,57.577h0.666v15.699h-1.924V61.639l-4.818,8.557c-0.182,0.336-0.486,0.524-0.852,0.524H91.26
	c-0.366,0-0.669-0.188-0.855-0.531l-4.972-8.613v11.7h-1.936V57.577h1.239c0.157,0,0.288,0.021,0.401,0.062
	c0.166,0.062,0.301,0.184,0.418,0.372l5.783,9.963l5.615-9.946c0.126-0.208,0.273-0.335,0.447-0.394
	c0.109-0.038,0.24-0.058,0.393-0.058h0.442L98.354,57.577z M107.902,73.276h-2.061v-6.412l-5.848-9.287h1.84
	c0.203,0,0.381,0.054,0.529,0.161c0.131,0.093,0.233,0.22,0.313,0.377l4.186,6.709l0.012,0.021v-0.001l4.219-6.771
	c0.156-0.308,0.475-0.5,0.82-0.495h1.84l-5.85,9.287V73.276L107.902,73.276z M8.098,107.076l-5.741-8.621l5.741-8.623l5.741,8.623
	L8.098,107.076z M190.328,107.076l-5.74-8.621l5.74-8.623l5.74,8.623L190.328,107.076z M7.348,64.298h68.807v2.5H7.348V64.298z"/>
<g>
	<path fill="#FFFFFF" d="M121.742,64.298h68.879v2.5h-68.879V64.298z"/>
</g>
<g>
	<path fill="#FFFFFF" d="M7.348,130.089h183.62v2.5H7.348V130.089z"/>
</g>
<g>
	<path fill="#FFFFFF" d="M98.748,1.571L76.582,16.738h43.833L98.748,1.571z"/>
</g>
<g>
	<path fill="#FFFFFF" d="M75.296,179.888L12.51,136.529h4.4l58.439,40.357l23.385-14.957l23.697,14.762l58.154-40.162h4.4
		l-62.484,43.15l-23.749-14.795L75.296,179.888z"/>
</g>
<g>
	<path fill="#FFFFFF" d="M120.916,181.687H77.082l21.666,15.167L120.916,181.687L120.916,181.687z"/>
</g>
</svg>
