<?xml version="1.0" encoding="iso-8859-1"?>
<!-- Generator: Adobe Illustrator 17.0.0, SVG Export Plug-In . SVG Version: 6.00 Build 0)  -->
<!DOCTYPE svg PUBLIC "-//W3C//DTD SVG 1.1//EN" "http://www.w3.org/Graphics/SVG/1.1/DTD/svg11.dtd">
<svg version="1.1" id="Layer_1" xmlns="http://www.w3.org/2000/svg" xmlns:xlink="http://www.w3.org/1999/xlink" x="0px" y="0px"
	 width="62px" height="62px" viewBox="0 0 62 62" style="enable-background:new 0 0 62 62;" xml:space="preserve">
<g>
	<path style="fill:#026936;" d="M27.388,12.28c1.969-0.362,3.54-1.908,4.53-3.174c-1.015-1.624-2.307-3.039-3.6-4.18
		c-0.367,1.631-1.176,3.915-2.924,5.379C26.173,10.869,26.885,11.531,27.388,12.28z"/>
	<path style="fill:#026936;" d="M27.891,13.241c0.17,0.453,0.257,0.934,0.22,1.437c0.087,0.563,0.103,1.043,0.068,1.466
		c1.949,0.816,4.248,0.436,5.619,0.063c0.044-0.41,0.063-0.785,0.057-1.096c-0.052-1.825-0.599-3.507-1.396-5.031
		C31.416,11.356,29.861,12.766,27.891,13.241z"/>
	<path style="fill:#026936;" d="M20.813,7.941c-0.083-0.038,1.798,0.589,3.667,1.743c1.881-1.39,2.645-3.961,2.94-5.505
		c-2.366-1.885-4.476-2.831-4.505-2.531C23.6,3.334,20.813,7.941,20.813,7.941z"/>
	<path style="fill:#026936;" d="M29.601,22.569c2.389-0.434,3.562-3.038,4.016-5.233c-0.783,0.19-1.754,0.353-2.797,0.353
		c-0.95,0-1.951-0.136-2.899-0.514c-0.281,0.597-0.761,0.979-1.42,1.197c0.34,1.767,1.505,3.285,2.51,4.303
		C29.206,22.637,29.401,22.613,29.601,22.569z"/>
	<path style="fill:#026936;" d="M22.446,21.344c1.011,1.274,3.026,1.69,5.298,1.499c-0.971-1.104-1.947-2.59-2.261-4.322
		c-1.284-0.132-1.434-2.038-0.439-3.886C24.298,14.645,20.193,17.947,22.446,21.344z"/>
	<path style="fill:#026936;" d="M57.599,29.28c-1.393,1.189-3.348,2.686-5.792,2.013c-0.611-0.493-1.369-0.887-2.314-1.148
		c-13.791-4.01-27.838-4.184-29.544-6.28c-1.703-2.094-2-4.661,0.129-5.402c4.341-1.834,2.539-9.416-0.468-10.724
		c0.681-0.35,3.83-6.364,1.192-6.191c-8.598-0.7-10.514,7.236-10.299,8.718c0.21,1.481-4.601,5.231-5.962,6.626
		c-1.361,1.396-0.933,3.4,0.768,3.968c1.704,0.566,6.243-2.139,6.428-0.351c2.125,16.567,2.897,14.66,3.54,16.445
		c0.643,1.787-2.99,13.842-3.257,14.762c-0.338,1.144,0.52,4.309,0.52,4.309s-0.503,0.657-0.82,1.679
		c-0.32,1.024-0.223,2.823,1.117,3.123c1.022-1.044,2.183-1.951,2.642-2.707c-0.187-0.493-0.819-1.255-0.819-1.255
		s-0.493-4.937,0.18-6.231c0.67-1.298,5.856-7.478,5.856-7.478l2.809,8.464c0,0-0.294,5.719-0.672,6.647
		c-1.925-0.004-2.704,2.754-1.883,2.754c0.826,0,3.795,0.008,4.276,0.008c0.481,0,0.191-1.028,0.329-1.979
		c0.054-0.447,1.355-6.731,1.196-7.471c-0.16-0.739,0.321-6.737,0.321-6.737s1.988,0.937,9.025,0.986
		c7.035,0.044,8.683,0.04,8.727,1.573c0.045,1.533,0.226,3.812-0.12,4.837c-0.348,1.024-1.523,5.669-2.042,6.508
		c-1.38-0.154-2.465,2.465-1.572,2.465c0.895,0,3.35-0.036,3.798-0.036c0.445,0,0.301-1.945,0.301-1.945s2.367-4.638,3.049-5.659
		c0.684-1.022,1.173-6.177,1.173-6.177l4.264,5.256c0,0,0.333,5.626,0.333,6.2c-1.451,0.154-2.512,2.553-1.807,2.553
		c0.707,0,3.67,0.102,4.213,0.102c0.547,0,0.273-2.651,0.273-2.651s0.263-4.571,0.263-6.448c0-1.877-3.589-5.47-4.046-6.974
		c-0.256-0.857,0.019-2.397,0.361-3.791h0.011c0.105-0.393,0.207-0.801,0.304-1.232c0.41-1.906,0.628-4.115,0.135-6.026
		C55.684,33.662,59.857,32.915,57.599,29.28z"/>
</g>
</svg>
