<?xml version="1.0" encoding="iso-8859-1"?>
<!-- Generator: Adobe Illustrator 17.0.0, SVG Export Plug-In . SVG Version: 6.00 Build 0)  -->
<!DOCTYPE svg PUBLIC "-//W3C//DTD SVG 1.1//EN" "http://www.w3.org/Graphics/SVG/1.1/DTD/svg11.dtd">
<svg version="1.1" id="Layer_1" xmlns="http://www.w3.org/2000/svg" xmlns:xlink="http://www.w3.org/1999/xlink" x="0px" y="0px"
	 width="62px" height="62px" viewBox="0 0 62 62" style="enable-background:new 0 0 62 62;" xml:space="preserve">
<g>
	<path style="fill:#026936;" d="M44.945,28.893c0.294-4.042-11.024-7.787-11.024-7.787s-0.236-3.12,1.366-4.238
		c-1.075-1.971-3.026,5.125-3.026,5.125s-1.073-1.48-2.634,0c-0.585,0-0.78-5.716-2.341-5.619c0.683,2.365,0.39,5.716,0.39,5.716
		s-8.585,2.663-9.951,5.913c-1.366,3.252,2.732,15.375,13.073,15.869C41.139,44.365,44.654,32.932,44.945,28.893z"/>
	<path style="fill:#026936;" d="M43.225,24.104c0.733,0.296,1.918,2.177,2.454,2.177c0.535,0,7.317-5.371,7.805-6.85
		c0.486-1.48,0.003-1.8-0.631-2.883C51.194,17.535,42.493,23.807,43.225,24.104z"/>
	<path style="fill:#026936;" d="M44.953,13.763c1.262,0.986,4.043,4.486,4.043,4.486h0.195c1.043-0.613,2.829-2.168,3.61-2.121
		c0.78,0.049-7.367-14.291-16.195-12.418c7.122,2.663,7.852,6.357,5.854,7.54c-2,1.183-5.658-1.281-7.512-3.745
		C34.264,13.615,43.691,12.778,44.953,13.763z"/>
	<path style="fill:#026936;" d="M50.746,33.75c-1.139,0.561-2.224,1.012-3.064,1.192c-0.855,0.179-1.338,0.058-1.686-0.092
		c-0.18-0.083-0.227-0.105-0.416-0.216c-0.145-0.08-0.221-0.123-0.221-0.123l-1.331,2.855c0,0,0.084,0.032,0.233,0.092
		c0.099,0.04,0.5,0.197,0.903,0.291c0.407,0.103,0.934,0.162,1.514,0.133c0.578-0.039,1.18-0.186,1.762-0.4
		c1.154-0.439,2.248-1.121,3.358-1.877c0.556-0.379,1.116-0.782,1.674-1.195c0.63-0.473,1.096-0.838,1.678-1.409
		c0.553-0.527,1.024-1.061,1.465-1.625c0.454-0.551,0.851-1.124,1.216-1.683c0.738-1.124,1.331-2.217,1.794-3.169
		C60.555,24.612,61,23.275,61,23.275s-0.623,1.264-1.788,3.003c-0.585,0.864-1.305,1.845-2.152,2.815
		c-0.424,0.484-0.877,0.97-1.363,1.421c-0.477,0.459-1.008,0.909-1.52,1.278c-0.466,0.36-1.157,0.775-1.678,1.049
		C51.91,33.162,51.317,33.47,50.746,33.75z"/>
	<path style="fill:#026936;" d="M59.375,36.015c-0.253,0.256-0.624,0.444-1.001,0.678c-0.358,0.249-0.828,0.41-1.279,0.625
		c-0.46,0.21-0.985,0.354-1.5,0.542c-1.065,0.308-2.213,0.579-3.381,0.758c-2.329,0.371-4.703,0.484-6.405,0.4
		c-0.416-0.04-0.814-0.056-1.127-0.105c-0.265-0.049-0.7-0.108-0.607-0.12c-0.008,0-0.017,0.012-0.029,0.034
		c-0.006,0.029-0.142-0.077-0.183-0.099c-0.119-0.074-0.183-0.109-0.183-0.109l-1.57,2.726c0,0,0.07,0.032,0.201,0.083
		c0.09,0.034,0.098,0.049,0.293,0.109c0.189,0.058,0.413,0.117,0.666,0.166c0.608,0.12,0.816,0.052,1.282,0.071
		c0.422-0.003,0.85-0.058,1.341-0.098c1.905-0.219,4.334-0.742,6.687-1.528c1.177-0.382,2.326-0.862,3.372-1.361
		c0.512-0.287,1.017-0.52,1.465-0.816c0.442-0.308,0.883-0.547,1.229-0.873c0.355-0.306,0.694-0.557,0.924-0.875
		c0.229-0.3,0.488-0.508,0.591-0.773c0.247-0.474,0.387-0.745,0.387-0.745s-0.178,0.242-0.495,0.665
		C59.931,35.604,59.634,35.769,59.375,36.015z"/>
	<path style="fill:#026936;" d="M47.872,51.334c-0.169-0.488-0.293-1.035-0.546-1.524c-0.215-0.511-0.471-1.012-0.765-1.488
		c-1.13-1.947-2.683-3.554-3.774-4.724c-0.265-0.287-0.509-0.545-0.725-0.773c-0.195-0.219-0.404-0.451-0.404-0.484
		c-0.025-0.032-0.047-0.058-0.073-0.08c-0.041-0.079-0.079-0.145-0.105-0.197c-0.061-0.111-0.093-0.169-0.093-0.169l-2.639,1.688
		c0,0,0.041,0.051,0.122,0.148c0.038,0.049,0.089,0.111,0.15,0.182c0.099,0.105,0.221,0.231,0.352,0.366
		c0.306,0.316,0.521,0.451,0.799,0.671c0.267,0.197,0.564,0.416,0.89,0.656c1.264,0.927,2.93,2.116,4.238,3.64
		c0.343,0.373,0.646,0.77,0.918,1.183c0.311,0.394,0.489,0.838,0.733,1.25c0.189,0.428,0.352,0.859,0.489,1.278
		c0.087,0.426,0.195,0.828,0.247,1.215c0.021,0.391,0.035,0.75,0.053,1.066c0.011,0.317-0.058,0.593-0.073,0.822
		c-0.055,0.462-0.087,0.727-0.087,0.727s0.081-0.256,0.218-0.698c0.058-0.229,0.175-0.496,0.229-0.822
		c0.041-0.33,0.093-0.699,0.148-1.106c0.021-0.411-0.017-0.856-0.026-1.338C48.084,52.351,47.997,51.846,47.872,51.334z"/>
	<path style="fill:#026936;" d="M38.121,46.234c-0.081-0.319-0.154-0.614-0.218-0.876c-0.023-0.117-0.041-0.228-0.064-0.33
		c-0.026-0.114-0.038-0.203-0.023-0.185c0.009-0.006-0.015-0.015,0-0.172c0.003-0.103,0.006-0.163,0.006-0.163l-3.119,0.105
		c0,0,0.011,0.055,0.029,0.16c0.008,0.052,0.055,0.346,0.163,0.718c0.058,0.206,0.113,0.323,0.163,0.436
		c0.052,0.122,0.113,0.254,0.174,0.393c0.125,0.253,0.265,0.536,0.419,0.847c0.607,1.201,1.378,2.743,1.915,4.392
		c0.279,0.819,0.474,1.66,0.611,2.462c0.119,0.807,0.16,1.571,0.145,2.233c-0.04,0.656-0.09,1.216-0.183,1.595
		c-0.076,0.385-0.119,0.61-0.119,0.61s0.09-0.209,0.247-0.568c0.175-0.362,0.349-0.896,0.541-1.561
		c0.163-0.671,0.297-1.472,0.358-2.347c0.038-0.872,0.032-1.811-0.07-2.743C38.917,49.37,38.453,47.539,38.121,46.234z"/>
	<path style="fill:#026936;" d="M16.327,26.28c0.538,0,1.724-1.882,2.454-2.177c0.73-0.297-7.968-6.568-9.626-7.553
		c-0.636,1.083-1.12,1.403-0.633,2.883C9.01,20.91,15.792,26.28,16.327,26.28z"/>
	<path style="fill:#026936;" d="M12.815,18.249h0.195c0,0,2.781-3.5,4.044-4.486c1.262-0.986,10.689-0.148,10.004-6.258
		c-1.853,2.465-5.51,4.928-7.512,3.745c-2-1.183-1.268-4.879,5.853-7.54C16.573,1.838,8.427,16.178,9.207,16.129
		C9.988,16.081,11.776,17.636,12.815,18.249z"/>
	<path style="fill:#026936;" d="M4.166,29.691c0.369,0.559,0.765,1.134,1.216,1.683C5.823,31.937,6.297,32.47,6.85,33
		c0.582,0.567,1.046,0.936,1.675,1.404c0.561,0.416,1.117,0.819,1.674,1.198c1.113,0.755,2.207,1.438,3.361,1.876
		c0.582,0.216,1.181,0.362,1.759,0.4c0.579,0.031,1.111-0.028,1.514-0.129c0.405-0.096,0.806-0.249,0.905-0.293
		c0.152-0.06,0.23-0.092,0.23-0.092l-1.331-2.853c0,0-0.076,0.041-0.221,0.122c-0.189,0.108-0.233,0.132-0.413,0.214
		c-0.351,0.152-0.834,0.274-1.688,0.094c-0.841-0.18-1.924-0.628-3.065-1.194c-0.564-0.277-1.155-0.585-1.758-0.905
		c-0.518-0.274-1.212-0.691-1.675-1.049c-0.515-0.368-1.046-0.819-1.52-1.278c-0.489-0.451-0.94-0.939-1.363-1.421
		c-0.848-0.97-1.57-1.951-2.155-2.815C1.623,24.538,1,23.274,1,23.274s0.442,1.337,1.372,3.246
		C2.838,27.472,3.433,28.567,4.166,29.691z"/>
	<path style="fill:#026936;" d="M17.454,41.773c0.463-0.018,0.675,0.049,1.279-0.071c0.253-0.049,0.477-0.108,0.666-0.166
		c0.195-0.06,0.204-0.079,0.293-0.109c0.134-0.051,0.204-0.083,0.204-0.083l-1.57-2.726c0,0-0.064,0.035-0.186,0.109
		c-0.041,0.022-0.172,0.123-0.183,0.098c-0.012-0.021-0.018-0.034-0.027-0.034c0.098,0.012-0.34,0.071-0.605,0.12
		c-0.314,0.049-0.71,0.065-1.126,0.105c-1.707,0.083-4.075-0.029-6.405-0.4c-1.171-0.179-2.316-0.45-3.384-0.758
		c-0.514-0.188-1.04-0.333-1.497-0.542c-0.454-0.22-0.921-0.376-1.282-0.625c-0.372-0.231-0.747-0.422-1.001-0.678
		c-0.256-0.246-0.553-0.413-0.685-0.641c-0.314-0.425-0.495-0.668-0.495-0.668s0.143,0.271,0.39,0.748
		c0.099,0.262,0.361,0.471,0.591,0.773C2.657,36.539,3,36.79,3.354,37.101c0.346,0.328,0.788,0.561,1.226,0.872
		c0.448,0.296,0.953,0.53,1.465,0.818c1.049,0.498,2.195,0.976,3.372,1.36c2.354,0.785,4.782,1.309,6.689,1.529
		C16.6,41.714,17.032,41.77,17.454,41.773z"/>
	<path style="fill:#026936;" d="M23.136,43.729c0.079-0.097,0.121-0.148,0.121-0.148l-2.639-1.688c0,0-0.032,0.059-0.088,0.169
		c-0.032,0.052-0.069,0.118-0.11,0.197c-0.026,0.022-0.047,0.046-0.073,0.08c0.003,0.032-0.207,0.265-0.399,0.484
		c-0.218,0.23-0.462,0.491-0.727,0.773c-1.09,1.17-2.645,2.778-3.777,4.724c-0.294,0.479-0.55,0.976-0.764,1.488
		c-0.25,0.49-0.372,1.036-0.547,1.525c-0.122,0.511-0.209,1.018-0.276,1.484c-0.009,0.48-0.041,0.927-0.024,1.337
		c0.053,0.407,0.102,0.778,0.149,1.107c0.049,0.325,0.166,0.595,0.227,0.821c0.137,0.447,0.218,0.699,0.218,0.699
		s-0.032-0.265-0.087-0.727c-0.015-0.231-0.082-0.505-0.07-0.822c0.017-0.314,0.032-0.675,0.052-1.063
		c0.05-0.385,0.163-0.792,0.245-1.215c0.145-0.417,0.302-0.847,0.489-1.277c0.244-0.413,0.422-0.859,0.736-1.254
		c0.268-0.413,0.573-0.808,0.914-1.18c1.308-1.525,2.975-2.713,4.238-3.642c0.326-0.238,0.628-0.459,0.893-0.656
		c0.277-0.22,0.488-0.356,0.799-0.671c0.131-0.139,0.247-0.262,0.352-0.368C23.048,43.841,23.097,43.78,23.136,43.729z"/>
	<path style="fill:#026936;" d="M24.19,44.671c0.017,0.162-0.012,0.166,0,0.172c0.017-0.018,0.003,0.071-0.023,0.185
		c-0.021,0.102-0.041,0.213-0.067,0.33c-0.064,0.262-0.134,0.557-0.213,0.876c-0.337,1.304-0.8,3.134-0.979,5.003
		c-0.099,0.932-0.11,1.873-0.067,2.741c0.061,0.879,0.198,1.677,0.358,2.347c0.187,0.668,0.358,1.204,0.54,1.563
		c0.157,0.36,0.244,0.568,0.244,0.568s-0.043-0.223-0.116-0.611c-0.098-0.374-0.143-0.938-0.185-1.592
		c-0.014-0.664,0.028-1.429,0.143-2.233c0.14-0.805,0.332-1.646,0.614-2.464c0.534-1.651,1.305-3.191,1.916-4.392
		c0.152-0.311,0.293-0.594,0.419-0.847c0.059-0.139,0.117-0.271,0.172-0.393c0.047-0.111,0.102-0.231,0.162-0.437
		c0.108-0.37,0.16-0.662,0.166-0.714c0.02-0.103,0.029-0.162,0.029-0.162l-3.119-0.103C24.185,44.508,24.185,44.565,24.19,44.671z"
		/>
</g>
</svg>
