<?xml version="1.0" encoding="iso-8859-1"?>
<!-- Generator: Adobe Illustrator 17.0.0, SVG Export Plug-In . SVG Version: 6.00 Build 0)  -->
<!DOCTYPE svg PUBLIC "-//W3C//DTD SVG 1.1//EN" "http://www.w3.org/Graphics/SVG/1.1/DTD/svg11.dtd">
<svg version="1.1" id="Layer_1" xmlns="http://www.w3.org/2000/svg" xmlns:xlink="http://www.w3.org/1999/xlink" x="0px" y="0px"
	 width="62px" height="62px" viewBox="0 0 62 62" style="enable-background:new 0 0 62 62;" xml:space="preserve">
<g>
	<path style="fill:#026936;" d="M38.294,57.452c2.069-0.004,2.787,2.865,1.894,2.865s-3.953,0.008-4.472,0.008
		c-0.519,0-0.439-1.062-0.355-2.06c0.084-0.998-1.47-10.762-1.79-11.725c-0.316-0.965-2.12,0.048-9.693,0.102
		c-7.577,0.048-9.211-2.089-9.258-0.492c-0.051,1.594-0.94,3.546-0.562,4.612c0.374,1.064,1.026,5.967,1.588,6.839
		c1.484-0.156,2.446,2.511,1.486,2.511c-0.963,0-3.343,0.043-3.823,0.043c-0.482,0-0.242-1.231-0.205-1.936
		c0.043-0.699-1.431-4.584-2.165-5.652c-0.728-1.066-0.96-6.579-0.96-6.579S5.22,50.84,5.088,51.611
		c-0.129,0.774-0.018,6.422-0.018,7.019c1.562,0.158,2.259,2.307,1.498,2.307C5.807,60.936,3.196,61,2.614,61
		C2.028,61,2.24,58.836,2.4,58.407c0.156-0.436-0.835-5.104-0.835-7.053c0-1.952,3.671-7.409,3.671-8.953
		c0-1.54-1.25-4.679-1.061-7.907c0.289-4.826,3.292-7.276,8.067-7.314c8.964-0.079,8.64,3.405,17.368,2.06
		c10.405-1.606,17.604-3.409,15.903-8.175c0,0-0.923-1.888-0.708-2.878c0.217-0.988,0.708-1.5,0.708-1.5S32.659,6.797,24.454,4.959
		c0.999-2.542,13.063,2.755,13.063,2.755s-2.713-3.886-11.206-6.359c9.065-3.038,21.344,14.414,21.344,14.414
		s7.384,2.693,12.743,12.727c0.285,2.757-1.172,3.353-2.621,2.98c-1.445-0.374-2.58-1.604-4.345-1.272
		c-1.57,0.291-7.971,8.586-7.873,10.082c0.101,1.496,1.9,8.125,2.192,9.069c0.363,1.189-0.577,3.87-0.558,4.482
		c0.02,0.616,0.538,0.683,0.882,1.749c0.34,1.062,0.236,2.932-1.207,3.253c-1.098-1.089-2.194-2.172-2.652-2.625
		c-0.456-0.452,0.632-1.208,0.694-1.5c0.057-0.294,0.339-3.629-0.38-4.98c-0.724-1.349-4.086-5.807-4.086-5.807
		s-2.996,4.222-2.873,6.507C37.752,51.977,38.099,56.987,38.294,57.452z"/>
</g>
</svg>
