<?xml version="1.0" encoding="iso-8859-1"?>
<!-- Generator: Adobe Illustrator 17.0.0, SVG Export Plug-In . SVG Version: 6.00 Build 0)  -->
<!DOCTYPE svg PUBLIC "-//W3C//DTD SVG 1.1//EN" "http://www.w3.org/Graphics/SVG/1.1/DTD/svg11.dtd">
<svg version="1.1" id="Layer_1" xmlns="http://www.w3.org/2000/svg" xmlns:xlink="http://www.w3.org/1999/xlink" x="0px" y="0px"
	 width="62px" height="62px" viewBox="0 0 62 62" style="enable-background:new 0 0 62 62;" xml:space="preserve">
<g>
	<path style="fill:#026936;" d="M51.704,33.791c-0.77-2.109-0.941-4.923-1.21-6.332c-0.271-1.408,0.111-9.107-1.874-11.107
		c-1.982-1.999-5.784-2.553-6.197-3.161c-0.261-0.383-0.067-1.395,0.112-2.097c1.741-0.86,2.947-2.666,2.947-4.773
		C45.481,3.383,43.156,1,40.289,1c-0.11,0-0.211,0.026-0.321,0.032c-0.107-0.004-0.208-0.03-0.316-0.03
		c-2.869,0-5.196,2.383-5.196,5.321c0,2.107,1.209,3.913,2.947,4.773c0.183,0.701,0.372,1.714,0.114,2.097
		c-0.413,0.606-4.216,1.161-6.199,3.161c-0.113,0.115-0.217,0.254-0.316,0.401c-0.099-0.147-0.203-0.286-0.316-0.401
		c-1.983-1.999-5.785-2.553-6.199-3.161c-0.259-0.383-0.069-1.395,0.112-2.097c1.738-0.86,2.947-2.666,2.947-4.773
		c0-2.938-2.327-5.321-5.194-5.321c-0.11,0-0.211,0.027-0.318,0.032c-0.106-0.005-0.211-0.032-0.319-0.032
		c-2.869,0-5.194,2.383-5.194,5.321c0,2.107,1.208,3.913,2.947,4.773c0.179,0.701,0.371,1.714,0.112,2.097
		c-0.412,0.606-4.215,1.161-6.197,3.161c-1.983,1.999-1.603,9.699-1.873,11.107c-0.272,1.408-0.441,4.223-1.213,6.332
		c-0.77,2.109-0.112,3.999,0.772,4.996c0.881,1,2.095,0.558,2.755-0.775c0.66-1.334-1.489-2.209-0.992-3.666
		c0.495-1.461,3.247-15.382,3.745-14.468c0.175,0.319,0.934,4.676,0.909,10.08c-0.041,10.172-1.019,24.473-1.019,25.491
		c0,1.553-2.534,3.442-1.873,4.999c0.66,1.553,4.614-0.428,4.848-2.889c0.236-2.463,0.882-9.221,0.882-9.221l1.653-10.439
		l0.056,0.333l0.054-0.333l1.654,10.439c0,0,0.647,6.758,0.881,9.221c0.234,2.461,4.188,4.442,4.849,2.889
		c0.66-1.556-1.874-3.446-1.874-4.999c0-1.018-0.976-15.319-1.019-25.493c-0.023-5.403,0.737-9.761,0.909-10.08
		c0.264-0.485,1.161,3.193,2.018,6.977c-0.016,0.251-0.037,0.465-0.063,0.603c-0.27,1.408-0.441,4.222-1.211,6.332
		c-0.77,2.109-0.112,4,0.769,4.999c0.607,0.685,1.366,0.678,1.998,0.182c0.632,0.501,1.394,0.508,2-0.182
		c0.879-0.999,1.538-2.889,0.768-4.999c-0.768-2.109-0.943-4.923-1.211-6.332c-0.028-0.138-0.045-0.352-0.061-0.603
		c0.858-3.784,1.754-7.461,2.019-6.977c0.173,0.319,0.932,4.676,0.909,10.08c-0.041,10.174-1.021,24.475-1.021,25.493
		c0,1.553-2.534,3.442-1.874,4.999c0.659,1.553,4.612-0.428,4.849-2.889c0.234-2.463,0.881-9.221,0.881-9.221l1.656-10.439
		l0.052,0.333l0.056-0.333l1.653,10.439c0,0,0.648,6.758,0.884,9.221c0.233,2.461,4.186,4.442,4.846,2.889
		c0.66-1.556-1.873-3.446-1.873-4.999c0-1.018-0.978-15.319-1.019-25.493c-0.026-5.403,0.737-9.761,0.907-10.08
		c0.5-0.915,3.252,13.007,3.747,14.468c0.499,1.458-1.654,2.33-0.992,3.666c0.66,1.333,1.876,1.777,2.753,0.777
		C51.816,37.79,52.474,35.9,51.704,33.791z M31.234,34.346c0.175,0.517,0.013,0.959-0.234,1.378
		c-0.247-0.422-0.41-0.861-0.234-1.378c0.052-0.158,0.133-0.467,0.234-0.878C31.101,33.879,31.183,34.189,31.234,34.346z"/>
</g>
</svg>
