<?xml version="1.0" encoding="iso-8859-1"?>
<!-- Generator: Adobe Illustrator 17.0.0, SVG Export Plug-In . SVG Version: 6.00 Build 0)  -->
<!DOCTYPE svg PUBLIC "-//W3C//DTD SVG 1.1//EN" "http://www.w3.org/Graphics/SVG/1.1/DTD/svg11.dtd">
<svg version="1.1" id="Layer_1" xmlns="http://www.w3.org/2000/svg" xmlns:xlink="http://www.w3.org/1999/xlink" x="0px" y="0px"
	 width="62px" height="62px" viewBox="0 0 62 62" style="enable-background:new 0 0 62 62;" xml:space="preserve">
<g>
	<path style="fill:#026936;" d="M54.084,31.675c0,0,1.987-0.809,6.916-0.162c-0.377-2.966-10.393-2.599-11.363-3.129
		c-0.97-0.531-15.436-8.793-19.455-4.854c-4.02,3.938,10.556,13.056,11.574,13.808c1.022,0.754-2.409,6.314,3.647,8.741
		c-0.377-3.721-0.377-4.37,0.267-5.017c0,0,8.038,9.331,2.842,10.898c-4.449,1.132-11.629,0.321-11.629,0.321
		s-6.485-9.278-9.597-7.982c1.716,3.183,3.859,8.651,3.859,8.651s-3.002,1.439-7.074,4.997c2.947,1.887,10.451-3.236,14.256-2.103
		c11.415,4.101,19.669-4.045,20.636-12.407C59.927,35.075,54.084,31.675,54.084,31.675z"/>
	<path style="fill:#026936;" d="M30.491,38.764c4.504-3.365-8.741-14.352-9.651-15.236c-0.909-0.883,3.223-5.934-2.458-9.15
		c-0.12,3.741-0.206,4.383-0.93,4.939c0,0-6.736-10.327-1.376-11.183C20.635,7.607,27.645,9.37,27.645,9.37
		s5.203,10.065,8.457,9.197c-1.282-3.384-2.684-9.087-2.684-9.087s3.166-1.025,7.672-4.009c-2.673-2.267-10.786,1.81-14.408,0.177
		C15.91,0.056,6.653,7.027,4.594,15.184c-2.061,8.158,3.281,12.307,3.281,12.307S5.802,28.031,1,26.728
		c-0.018,2.992,9.958,3.965,10.849,4.62C12.74,32.004,25.986,42.13,30.491,38.764z"/>
</g>
</svg>
