<?xml version="1.0" encoding="iso-8859-1"?>
<!-- Generator: Adobe Illustrator 17.0.0, SVG Export Plug-In . SVG Version: 6.00 Build 0)  -->
<!DOCTYPE svg PUBLIC "-//W3C//DTD SVG 1.1//EN" "http://www.w3.org/Graphics/SVG/1.1/DTD/svg11.dtd">
<svg version="1.1" id="Layer_1" xmlns="http://www.w3.org/2000/svg" xmlns:xlink="http://www.w3.org/1999/xlink" x="0px" y="0px"
	 width="62px" height="62px" viewBox="0 0 62 62" style="enable-background:new 0 0 62 62;" xml:space="preserve">
<path style="fill:#026936;" d="M24.406,21.858c-1.142-1.136-6.838-7.126-11.265-8.183c-1.366-3.607-2.974-3.695-2.974-3.695
	s2.575-6.686-7.562-6.335c6.319,3.351,5.059,4.186,4.182,6.512c-3.608,1.039-1.982,6.232-2.736,7.215
	c-0.752,0.982-3.538,2.024-2.976,3.869c0.564,1.845,6.437,2.551,7.402,2.992c3.7,1.581,1.446,8.181,2.654,10.641
	c1.208,2.463,1.691,8.183,1.691,8.183s-1.29,4.402-1.428,5.729c-0.245,1.752,0.015,2.954-0.188,4.188
	c-0.782,1.023-1.437,2.599-1.437,2.599l3.693,0.064c0,0,0.352-1.808,0-2.635c0.08-0.971,1.97-8.844,3.477-8.669
	c0.744-0.266,1.913,8.842,0.866,8.842c-1.256,0.44-1.367,2.724-1.367,2.724l3.321,0.056c0,0-0.107-1.814,0.557-1.955
	c0.484-1.057,0.256-4.37,0.224-4.784c-0.032-0.415-0.403-5.367-0.403-5.367s4.184-3.254,5.47-2.814
	c5.553,1.494,15.328-2.023,16.251-2.724c-0.542,0.204,2.011,5.98,1.93,6.949c-0.081,0.967-2.476,5.403-2.912,6.527
	c-1.341,0.811-0.469,2.445-0.469,2.445l2.996,0.092c0,0,0.037-1.844,0.546-1.852c0.509-0.008,0.971-3.613,1.608-4.748
	c0.638-1.138,3.059-5.131,1.93-5.6c-1.13-0.469,6.113,8.415,6.678,9.472c0.322,0.601,0.121,2.728-0.114,4.438
	c-0.822,0.537-0.37,2.335-0.37,2.335h2.333c0,0,0.146-1.628,0.612-1.83c0.119-0.365,0.353-1.072,0.353-1.072
	s-0.196-7.612-4.024-12.054c1.606-5.541-0.888-15.042-0.888-15.042s3.139,1.669,2.736,3.078c-0.403,3.874,2.414,2.873,2.172,6.777
	c-0.566,3.168,2.656,4.312,4.024,5.275c0-1.406-0.562-4.045-2.465-5.011c0.293-4.488-2.121-5.63-2.04-7.129
	c0.245-7.391-3.754-5.771-5.952-6.422c-1.998-1.495-19.218-0.442-19.218-0.442S26.358,22.909,24.406,21.858"/>
</svg>
