<?xml version="1.0" encoding="iso-8859-1"?>
<!-- Generator: Adobe Illustrator 17.0.0, SVG Export Plug-In . SVG Version: 6.00 Build 0)  -->
<!DOCTYPE svg PUBLIC "-//W3C//DTD SVG 1.1//EN" "http://www.w3.org/Graphics/SVG/1.1/DTD/svg11.dtd">
<svg version="1.1" id="Layer_1" xmlns="http://www.w3.org/2000/svg" xmlns:xlink="http://www.w3.org/1999/xlink" x="0px" y="0px"
	 width="62px" height="62px" viewBox="0 0 62 62" style="enable-background:new 0 0 62 62;" xml:space="preserve">
<g>
	<path style="fill:#026936;" d="M61,40.071c0,0-4.291-10.154-7.759-16.112c0.272-3.153,0.463-9.708-2.184-12.457
		c-0.968-1.008-2.242-1.432-3.705-1.229c-2.437,0.341-4.233,1.321-5.332,2.916c-0.709,1.02-0.989,2.107-1.095,3.014
		c-3.042-0.701-5.451-0.908-5.451-0.908s-0.166-6.983-1.07-7.408c-0.476-0.223-3.959,3.181-6.997,6.627l0.006-0.014
		c0,0-0.008,0.014-0.008,0.016c-0.848,0.966-1.664,1.928-2.363,2.822c-0.86,0.797-1.962,1.705-3.468,2.687
		C11.789,29.98,10.16,43.084,8.992,46.466C7.826,49.85,1,54.067,1,54.067l6.911,0.056c0,0,6.168-12.939,7.566-19.1
		c1.07,3.016-6.321,19.044-6.321,19.044s4.017,0.127,4.428,0c0.411-0.13,5.307-17.642,5.195-22.834
		c1.386,4.768-2.847,22.89-2.847,22.89s6.251,0,7.36,0c-3.784-3.059-2.043-8.421-2.454-17.345
		c-0.272-5.894,1.716-11.698,3.098-14.971c2.225,0.331,6.689-0.58,6.689-0.58s-0.276,2.414,0.104,5.533
		c-0.902-0.056-2.652,0.016-4.229,1.177c-1.536,1.143-2.491,2.998-2.82,5.511c-0.197,1.504,0.214,2.828,1.19,3.828
		c1.904,1.956,5.69,2.416,8.811,2.416c2.095,0,3.892-0.209,4.613-0.299c6.577,4.043,16.977,7.39,16.977,7.39L61,40.071z
		 M26.262,35.834c-0.54-0.556-0.74-1.229-0.621-2.111c0.252-1.924,0.925-3.312,1.997-4.113c1.488-1.111,3.323-0.779,3.339-0.775
		l0.04-0.233c0.601,3.016,1.879,6.352,4.542,8.774c0.077,0.068,0.166,0.129,0.243,0.201C32.584,37.768,27.995,37.617,26.262,35.834z
		 M50.115,20.025c-2.014-1.546-4.723-2.601-7.263-3.324c0.048-0.669,0.227-1.542,0.771-2.324c0.779-1.117,2.119-1.821,3.994-2.083
		c0.854-0.12,1.503,0.086,2.039,0.645c1.477,1.532,1.797,5.233,1.741,8.354C50.978,20.806,50.554,20.361,50.115,20.025z"/>
</g>
</svg>
