<?xml version="1.0" encoding="iso-8859-1"?>
<!-- Generator: Adobe Illustrator 17.0.0, SVG Export Plug-In . SVG Version: 6.00 Build 0)  -->
<!DOCTYPE svg PUBLIC "-//W3C//DTD SVG 1.1//EN" "http://www.w3.org/Graphics/SVG/1.1/DTD/svg11.dtd">
<svg version="1.1" id="Layer_1" xmlns="http://www.w3.org/2000/svg" xmlns:xlink="http://www.w3.org/1999/xlink" x="0px" y="0px"
	 width="62px" height="62px" viewBox="0 0 62 62" style="enable-background:new 0 0 62 62;" xml:space="preserve">
<g>
	<path style="fill:#026936;" d="M59.043,22.962c0,0,1.024-0.286,0.955-0.754c-0.445,0.277-1.497-0.626-1.497-0.626
		s-0.519-2.993-0.556-4.102c-0.036-1.112-0.145-2.179-0.145-2.179s0.628,0.737,1.429,0.023c-1.575-0.778-1.48-1.828-1.308-2.503
		c0.171-0.679,1.422-5.469-1.182-7.877c-1.707-1.498-2.659-0.154-2.659-0.154s-0.251-0.444-0.566-0.42
		c-0.316,0.019-0.545,0.362-0.545,0.362s-0.182-0.554-0.465-0.475c-0.283,0.075-0.36,0.349-0.36,0.349s-0.309-1.668-3.765-3.133
		c-3.462-1.464-8.008,0.864-8.958,1.699c-0.955,0.83-1.319,1.091-1.01,2.079c0.111,0.347,0.291,0.472,0.481,0.497
		c-0.723,1.609-0.191,4.185-0.029,4.477c0.167,0.289,0.022,0.96-0.204,1.299c-0.494,0.744-1.044,1.088-1.22,1.587
		c-0.251,0.699,1.075,0.821,1.075,0.821l0.004,0.267c0,0-0.427,0.414-0.338,0.739c0.124,0.435,0.977,0.281,0.977,0.281
		s-0.821,0.306-0.781,0.709c0.038,0.401,0.378,0.578,0.378,0.578s-0.788,1.575,0.382,1.925c1.17,0.349,4.003-1.567,4.315,0.114
		c0.222,0.87,0.392,2.283,0.269,3.163c-0.094,0.06-0.192,0.114-0.3,0.132c-8.188-2-16.192,9.367-20.227,9.662
		c-3.683,0.27-21.68,3.206-21.68,3.206V61c0,0,40.692,0,41.942,0c1.249,0,0.298-6.13,0.396-9.375
		c0.098-3.243,6.691-12.817,7.621-12.92C52.403,38.608,51.55,61,51.55,61h4.281c0,0,0.145-25.674,0.045-33.077
		c1.562,0.553,2.368-0.38,2.314-0.798c-1.173,0.739-1.42-0.675-1.42-0.675s1.951,0.613,2.012-0.601
		c-1.591,0.522-1.961-2.471-1.961-2.471s3.088,3.238,3.665-0.156C59.479,24.361,59.043,22.962,59.043,22.962z M33.518,36.617
		c1.715,3.358-0.567,8.203-0.712,9.928c-0.149,1.725-5.262,2.217-9.128,1.919c-3.035-0.231-10.43-7.324-14.135-10.203
		c3.004-0.82,13.114-2.132,15.472-2.223c2.553-0.103,8.21-6.409,9.876-5.888C36.555,30.677,31.61,32.769,33.518,36.617z
		 M49.668,21.852c0-1.47,0.465-2.889,2.252-2.938c0.701-0.154,1.05,2.28,1.518,4.609C51.808,22.581,49.919,21.935,49.668,21.852z"/>
</g>
</svg>
