<?xml version="1.0" encoding="utf-8"?>
<!-- Generator: Adobe Illustrator 16.0.0, SVG Export Plug-In . SVG Version: 6.00 Build 0)  -->
<!DOCTYPE svg PUBLIC "-//W3C//DTD SVG 1.1//EN" "http://www.w3.org/Graphics/SVG/1.1/DTD/svg11.dtd">
<svg version="1.1" id="Calque_1" xmlns="http://www.w3.org/2000/svg" xmlns:xlink="http://www.w3.org/1999/xlink" x="0px" y="0px"
	 width="100px" height="25px" viewBox="0 0 100 25" enable-background="new 0 0 100 25" xml:space="preserve">
<g>
	<path d="M12.357-0.032C5.544-0.032,0,5.589,0,12.5c0,6.909,5.544,12.531,12.357,12.531c6.815,0,12.359-5.622,12.359-12.531
		C24.716,5.589,19.172-0.032,12.357-0.032z M15.432,12.94h-2.011c0,3.258,0,7.268,0,7.268h-2.979c0,0,0-3.972,0-7.268H9.026v-2.568
		h1.416V8.711c0-1.189,0.557-3.049,3.006-3.049l2.207,0.008v2.493c0,0-1.341,0-1.602,0s-0.631,0.132-0.631,0.7v1.509h2.27
		L15.432,12.94z"/>
</g>
<g>
	<path d="M37.454-0.032c-6.826,0-12.359,5.61-12.359,12.532c0,6.921,5.533,12.531,12.359,12.531c6.824,0,12.357-5.61,12.357-12.531
		C49.811,5.579,44.278-0.032,37.454-0.032z M44.554,8.806c0.008,0.16,0.012,0.32,0.012,0.481c0,4.911-3.686,10.573-10.427,10.573
		c-2.07,0-3.996-0.615-5.617-1.67c0.287,0.034,0.578,0.052,0.874,0.052c1.716,0,3.297-0.594,4.551-1.591
		c-1.603-0.03-2.957-1.104-3.423-2.581c0.224,0.044,0.453,0.066,0.69,0.066c0.333,0,0.658-0.045,0.965-0.13
		c-1.676-0.342-2.94-1.843-2.94-3.644c0-0.016,0-0.031,0.001-0.047c0.494,0.278,1.059,0.446,1.66,0.465
		c-0.983-0.666-1.631-1.803-1.631-3.093c0-0.681,0.181-1.319,0.497-1.868c1.808,2.249,4.507,3.728,7.554,3.882
		c-0.063-0.272-0.096-0.556-0.096-0.846c0-2.052,1.641-3.716,3.665-3.716c1.055,0,2.007,0.451,2.675,1.173
		c0.834-0.167,1.62-0.476,2.328-0.901c-0.274,0.867-0.855,1.595-1.611,2.055c0.741-0.09,1.447-0.29,2.104-0.585
		C45.892,7.628,45.271,8.283,44.554,8.806z"/>
</g>
<g>
	<g>
		<g>
			<path d="M62.547,15.009c1.364,0,2.476-1.126,2.476-2.509c0-0.546-0.177-1.051-0.468-1.462c-0.45-0.632-1.181-1.046-2.006-1.046
				c-0.827,0-1.558,0.414-2.008,1.045c-0.293,0.412-0.468,0.917-0.469,1.463C60.072,13.883,61.184,15.009,62.547,15.009z
				 M67.95,9.431V7.328V7.015L67.64,7.016l-2.073,0.006l0.009,2.416L67.95,9.431z M62.549-0.032c-6.815,0-12.36,5.621-12.36,12.532
				c0,6.909,5.545,12.531,12.36,12.531c6.813,0,12.357-5.622,12.357-12.531C74.906,5.589,69.361-0.032,62.549-0.032z M69.577,11.038
				v5.834c0,1.521-1.219,2.755-2.717,2.755h-8.625c-1.498,0-2.717-1.234-2.717-2.755v-5.834v-2.91c0-1.52,1.219-2.754,2.717-2.754
				h8.624c1.499,0,2.718,1.235,2.718,2.754V11.038z M66.392,12.5c0,2.148-1.724,3.897-3.843,3.897c-2.121,0-3.845-1.749-3.845-3.897
				c0-0.517,0.101-1.012,0.283-1.462h-2.099v5.834c0,0.755,0.603,1.365,1.347,1.365h8.623c0.744,0,1.348-0.61,1.348-1.365v-5.834
				h-2.099C66.288,11.488,66.392,11.983,66.392,12.5z"/>
		</g>
	</g>
</g>
<g>
	<g>
		<g>
			<path d="M84.51,10.304c0,0,3.496-0.001,3.504-0.001c0.81,0,1.473-0.601,1.485-1.425c0.014-0.832-0.642-1.577-1.462-1.59
				l-3.48,0.004c-0.821-0.008-1.495,0.651-1.509,1.482C83.035,9.605,83.69,10.291,84.51,10.304z M91.099,14.193h-6.961
				c-0.82,0-1.485,0.674-1.485,1.507c0,0.832,0.665,1.505,1.485,1.505h6.961c0.82,0,1.485-0.673,1.485-1.505
				C92.584,14.867,91.919,14.193,91.099,14.193z M87.642-0.032c-6.826,0-12.358,5.61-12.358,12.532
				c0,6.921,5.532,12.531,12.358,12.531c6.825,0,12.358-5.61,12.358-12.531C100,5.579,94.467-0.032,87.642-0.032z M94.696,19.716
				c-0.954,0.998-2.303,1.532-3.898,1.545H84.56c-0.039,0-0.078,0.001-0.117,0.001c-1.789,0-3.17-0.511-4.103-1.519
				c-0.935-1.011-1.234-2.374-1.234-4.27c0.002-0.131-0.01-0.258-0.002-0.385l0.003-6.663c0.077-1.653,0.806-2.675,1.354-3.259
				c0.886-0.946,2.139-1.426,3.722-1.426h0.045L88.3,3.737l0.038,0.001c2.663,0.075,4.583,1.954,4.602,4.569
				c0.07,0.786,0.026,1.512-0.124,2.167c0.895,0.027,2,0.185,2.716,1.123c0.632,0.829,0.636,1.771,0.642,3.074
				c0.001,0.267,0.008,0.945,0.008,0.945C96.163,17.305,95.65,18.722,94.696,19.716z"/>
		</g>
	</g>
</g>
</svg>
