<?xml version="1.0" encoding="utf-8"?>
<!-- Generator: Adobe Illustrator 16.0.0, SVG Export Plug-In . SVG Version: 6.00 Build 0)  -->
<!DOCTYPE svg PUBLIC "-//W3C//DTD SVG 1.1//EN" "http://www.w3.org/Graphics/SVG/1.1/DTD/svg11.dtd">
<svg version="1.1" id="Calque_1" xmlns="http://www.w3.org/2000/svg" xmlns:xlink="http://www.w3.org/1999/xlink" x="0px" y="0px"
	 width="27.075px" height="27.755px" viewBox="0 0 27.075 27.755" enable-background="new 0 0 27.075 27.755" xml:space="preserve">
<g>
	<g>
		<path fill="#FFFFFF" d="M26.086,14.742c-0.192-2.219-1.212-4.351-2.92-5.903c-0.996-0.908-2.151-1.617-3.393-2.132
			c-0.16,0.241-0.345,0.468-0.555,0.675c-0.277,0.275-0.589,0.51-0.928,0.698c0.359,0.118,0.705,0.252,1.035,0.406
			c0.338,0.157,0.468,0.566,0.281,0.885c-0.164,0.283-0.524,0.395-0.822,0.255c-2.259-1.056-4.782-0.857-5.889-0.692
			c-0.326,0.048-0.637-0.157-0.713-0.473V8.458c-0.088-0.359,0.155-0.715,0.523-0.771c0.201-0.031,0.445-0.062,0.717-0.087
			c-0.083-0.07-0.162-0.143-0.238-0.219c-0.391-0.387-0.699-0.837-0.915-1.342c-0.022-0.053-0.045-0.109-0.065-0.163
			c-0.337,0.056-0.671,0.126-0.997,0.208C9.311,4.992,7.035,4.989,5.681,5.121c-0.589,0.056-0.937,0.678-0.68,1.205l1.147,2.326
			C4.874,9.75,3.911,11.094,3.37,12.593l-1.398-0.006c-0.47-0.002-0.853,0.375-0.853,0.841v3.104c0,0.313,0.176,0.6,0.456,0.745
			l1.815,0.936c0.759,2.07,2.331,3.848,4.403,5.072v2.748c0,0.541,0.444,0.98,0.991,0.98h2.543c0.394,0,0.75-0.232,0.909-0.588
			l0.637-1.449c0.549,0.067,1.107,0.102,1.679,0.102c0.9,0,1.775-0.084,2.616-0.244v1.199c0,0.541,0.444,0.98,0.991,0.98h2.531
			c0.365,0,0.703-0.199,0.875-0.519c1.348-2.505,2.813-5.018,3.894-7.64C26.007,17.527,26.205,16.117,26.086,14.742z M7.955,14.053
			c-0.705,0-1.274-0.563-1.274-1.261c0-0.697,0.569-1.261,1.274-1.261s1.274,0.563,1.274,1.261
			C9.229,13.49,8.66,14.053,7.955,14.053z M14.946,7.542c0.388,0.151,0.813,0.236,1.257,0.236c0.219,0,0.431-0.02,0.635-0.059
			c0.866-0.16,1.617-0.645,2.118-1.32c0.416-0.56,0.662-1.252,0.662-2.003c0.003-1.869-1.528-3.382-3.415-3.382
			c-1.889,0-3.417,1.513-3.417,3.382c0,0.484,0.102,0.944,0.289,1.361C13.434,6.569,14.111,7.214,14.946,7.542z"/>
	</g>
</g>
</svg>
