<svg xmlns="http://www.w3.org/2000/svg" viewBox="0 0 56 56">
  <circle cx="28" cy="28" r="28" fill="#556080"/>
  <path fill="#8697cb" d="M51 19c0-2.945-.406-5.793-1.15-8.501C44.718 4.101 36.84 0 28 0 12.536 0 0 12.536 0 28c0 8.84 4.101 16.718 10.499 21.85A32.036 32.036 0 0 0 19 51c17.673 0 32-14.327 32-32z"/>
  <path fill="#955ba5" d="M0 28c0 3.81.764 7.441 2.143 10.752A28.472 28.472 0 0 0 10.5 40C26.24 40 39 27.24 39 11.5c0-3.497-.633-6.845-1.785-9.94A27.919 27.919 0 0 0 28 0C12.536 0 0 12.536 0 28z"/>
  <path fill="#cc66a1" d="M1.571 18.75c.251.373.526.732.85 1.056 3.71 3.71 10.833 2.602 15.91-2.475s6.185-12.2 2.475-15.91c-.132-.132-.279-.245-.419-.365-8.788 2.479-15.82 9.135-18.816 17.694z"/>
</svg>
