<svg xmlns="http://www.w3.org/2000/svg" viewBox="0 0 153.071 130.394"><path fill="#3b8000" d="M41.953 77.289c-5.868-3.613-11.169-8.253-17.551-10.855-6.382-2.602-14.509-2.658-19.359 2.238-2.767 2.794-4.041 6.771-4.436 10.683-1.055 10.454 3.67 20.943 10.982 28.489 7.311 7.546 16.975 12.435 26.927 15.805 26.364 8.929 56.017 7.741 81.582-3.27 7.566-3.259 14.859-7.403 20.768-13.146 5.907-5.743 10.368-13.204 11.517-21.362.809-5.75-.439-12.368-5.186-15.712-5.968-4.205-14.112-1.436-20.976 1.054a183.388 183.388 0 0 1-44.239 10.051c-13.076 1.306-28.389 3.192-40.029-3.975z"/><path fill="#336e00" d="M35.959 87.618c4.453 13.47 17.021 23.376 30.834 26.614 13.813 3.237 28.569.401 41.335-5.788 7.845-3.803 15.717-9.788 17.155-18.387.451-2.702-3.254-5.344-5.843-6.241-2.588-.896-5.404-.764-8.141-.621-25.02 1.311-50.319 3.114-75.34 4.423z"/><path fill="#408a00" d="M29.277 14.844s8.789 51.13 6.647 75.113c0 0 30.834 33.404 80.084 2.141 0 0-1.519-41.116 8.877-71.735l-95.608-5.519z"/><path fill="#403125" d="M116.096 76.912c-40.547 23.453-69.18 7.452-79.922-.843.159 5.141.106 9.892-.25 13.887 0 0 30.834 33.404 80.084 2.141 0 .001-.22-6.033.088-15.185z"/><path d="M72.008 17.311c-.765 1.535-1.098 3.269-.736 4.782a76.948 76.948 0 0 0 12 7.328c12.77 6.279 19.947 20.115 17.255 34.088-2.993 15.541-10.407 30.36-21.178 41.782 10.606-.783 22.915-4.468 36.659-13.193 0 0-1.519-41.116 8.877-71.735l-52.877-3.052z" opacity=".1"/><path fill="#336e00" d="M147.196 70.159c-3.657-2.577-8.132-2.53-12.628-1.538 1.806 1.18 3.386 2.703 4.538 4.509 4.046 6.339 3.502 14.844.131 21.567-3.37 6.723-9.179 11.91-15.342 16.22-14.918 10.432-32.497 16.456-50.624 18.637 16.025.231 32.104-2.833 46.826-9.174 7.566-3.259 14.859-7.403 20.768-13.146 5.907-5.743 10.368-13.204 11.517-21.362.809-5.75-.44-12.369-5.186-15.713z"/><path d="M35.924 89.957s2.435 2.638 7.029 5.737c-1.961-3.908-3.143-8.307-3.742-12.644-1.139-8.241-.574-16.639-1.604-24.894-.635-5.091-1.875-10.108-2.183-15.23-.307-5.121.415-10.517 3.345-14.728 2.931-4.211 8.465-6.873 13.353-5.316-.208-2.323-.89-4.658-1.94-6.832l-20.906-1.207c.001.001 8.79 51.131 6.648 75.114z" opacity=".1"/><path fill="#4ea800" d="M40.228 4.01C34.952 5.7 28.993 9.311 29.277 14.844c.151 2.951 2.206 5.543 4.724 7.09 2.518 1.547 5.462 2.22 8.358 2.808 22.938 4.657 46.609 5.472 69.877 2.934 5.18-.566 11.451-2.242 12.649-7.313 1.171-4.958-3.518-9.282-7.993-11.718-11.304-6.15-24.682-7.316-37.316-7.591C66.64.772 52.682.02 40.228 4.01z"/><path fill="#489c00" d="M45.092 5.45c-4.582 1.467-9.756 4.603-9.51 9.408.131 2.563 1.917 4.813 4.102 6.157 2.186 1.344 4.743 1.928 7.258 2.438C66.86 27.496 87.415 28.204 107.619 26c4.497-.491 9.943-1.946 10.983-6.35 1.018-4.306-3.054-8.06-6.94-10.175-9.815-5.341-21.432-6.353-32.403-6.592-11.233-.245-23.353-.897-34.167 2.567z"/><path fill="#439100" d="M111.662 9.475c-7.224-3.93-15.422-5.513-23.622-6.172 2.657 1.338 5.104 3.041 6.803 5.447 2.466 3.491 2.815 8.795-.256 11.767-1.872 1.811-4.566 2.429-7.122 2.928-6.703 1.308-13.469 2.274-20.263 2.96 13.434 1.228 27.002 1.057 40.417-.406 4.497-.491 9.943-1.946 10.983-6.35 1.018-4.304-3.053-8.058-6.94-10.174z"/><path fill="#489c00" d="M4.923 94.631C2.837 87.014 3.51 78.333 8.186 71.969c2.553-3.474 6.434-6.006 10.593-7.054-5.027-.722-10.235.223-13.736 3.757-2.767 2.794-4.041 6.771-4.436 10.683-.993 9.842 3.139 19.713 9.727 27.132-2.331-3.707-4.256-7.639-5.411-11.856z"/><path fill="#ffbe28" d="M81.478 108.242H67.672a5.312 5.312 0 0 1-5.306-5.306V91.332a5.313 5.313 0 0 1 5.306-5.307h13.806a5.313 5.313 0 0 1 5.306 5.307v11.603a5.313 5.313 0 0 1-5.306 5.307zM67.672 88.595a2.74 2.74 0 0 0-2.736 2.738v11.603a2.74 2.74 0 0 0 2.736 2.736h13.806a2.74 2.74 0 0 0 2.737-2.736V91.332a2.741 2.741 0 0 0-2.737-2.738H67.672z"/><path fill="#ffbe28" d="M74.574 98.417a1.284 1.284 0 0 1-.038-2.57l14.133-.431a1.28 1.28 0 0 1 1.322 1.246 1.286 1.286 0 0 1-1.245 1.324l-14.132.43-.04.001z"/><circle cx="56.909" cy="95.416" r="1.5" fill="#33271d"/><circle cx="47.273" cy="90.764" r="1.5" fill="#33271d"/><path fill="#469600" d="M50.862 61.717c.073 5.486 1.885 11.298 6.263 14.604 3.418 2.581 7.927 3.288 12.206 3.087 4.636-.217 9.425-1.519 12.776-4.731 2.918-2.797 4.475-6.839 4.669-10.875.194-4.037-.894-8.064-2.655-11.701-1.49-3.076-3.543-5.995-6.45-7.792-3.422-2.116-7.289-2.236-11.181-2.016-2.531.143-5.543-.163-7.961.733-6.238 2.309-7.742 13.077-7.667 18.691z"/></svg>