<svg xmlns="http://www.w3.org/2000/svg" viewBox="0 0 700 700"><radialGradient id="a" cx="355.793" cy="296.883" r="360.29" gradientUnits="userSpaceOnUse"><stop offset="0" stop-color="#e5174c"/><stop offset="1" stop-color="#5f1d2d"/></radialGradient><path d="M692.056 404.725c-1.88.802-3.735-3.209-1.329-4.412 2.406-1.203 1.003-9.023 0-10.628-1.002-1.604-2.005.4-4.211 2.406-2.206 2.005-4.412 1.403-4.211 0 .2-1.403 2.607-2.006 5.614-4.211 3.009-2.206 1.604-3.009 0-5.415s-2.005-2.206-2.275-2.206-5.345 2.206-9.556 5.014c-4.211 2.808-3.811-1.203-1.805-3.208 2.005-2.006 5.816-1.605 10.026-4.412 4.211-2.808-2.606-4.011-5.815-7.42-3.209-3.409-3.409-3.409-7.477-6.217-4.066-2.807-4.556 1.404-10.17 4.814-2.76 1.675-4.347 2.307-5.919 3.241.018-.349.019-.709.005-1.078 2.351-1.679 5.214-4.033 10.325-6.775 8.222-4.412 5.815-5.615 3.811-8.021-2.006-2.406-3.008-5.214-4.612-7.42-1.605-2.206-3.209-2.406-4.412-1.604-1.203.803-7.62 6.217-14.639 11.23-1.463 1.044-2.468 1.763-3.157 2.247-.459.277-.916.565-1.364.861-.179-.008.523-.794.109-1.103-.568-.427.379-1.562 2.26-3.469 1.447-.426 3.086-.97 4.802-2.114 1.67-1.112 1.389-1.942.313-2.788 3.315-2.818 7.434-5.511 12.077-8.072 5.815-3.209-1.604-2.607-2.808-4.412-1.203-1.805-2.808-2.206-5.414-4.211-2.607-2.006-3.81 2.808-6.818 5.414-1.11.962-3.262 2.446-5.853 4.274-.78-.605-1.703-1.219-3.293-2.316 4.189-3.729 7.622-6.794 8.544-7.574 2.607-2.205 4.011-3.81 4.211-5.013s-2.607-5.214-5.414-8.223c-2.808-3.008-9.426-5.013-11.431-7.018-2.006-2.005.401-4.411 0-7.219-.401-2.808-2.006-2.808-4.412-4.813-2.406-2.006-4.011-3.209-6.417-6.936-2.406-3.727 0-1.486 0-5.497s-3.208-4.412-3.609-5.615c-.401-1.204-5.214-3.61-6.818-5.615-1.604-2.005-4.412-4.011-7.219-8.823-2.808-4.813-2.808-4.011-4.412-8.021-1.604-4.011-2.808-4.011-7.219-6.818-4.412-2.807 0-2.406-8.423-6.417-8.423-4.011-3.609-3.61-3.609-9.625 0-6.016-32.62-34.893-34.625-36.898-2.006-2.005-9.091-9.091-9.76-10.161-.669-1.068-1.337-1.872-5.214-4.545-3.878-2.674-2.808-2.005-6.417-5.348-3.61-3.342-2.139-4.145-5.348-8.288-3.208-4.145-4.946-3.343-6.952-4.145-2.005-.802-7.688-5.715-7.888-6.217-.201-.501-6.217-4.913-6.217-4.913l-5.715-4.211s-1.505-1.504-3.811-2.506c-2.306-1.003-4.312-3.208-5.214-4.011-.902-.802-6.217-1.905-7.521-3.911-1.303-2.005-1.203-1.404-3.709-1.604-2.507-.201-5.114-2.106-6.317-3.81-1.203-1.705-1.604-1.003-4.211-.502-2.607.502-5.415-1.504-7.62-2.908-2.206-1.404-2.708-.501-4.212 1.003-1.504 1.504-1.203 1.103-4.512 1.805-1.261.268-2.242.419-3.039.598-1.178-.408-1.689.302-2.767 1.379-1.338 1.338-1.07.981-4.014 1.606-.506.107-.945.19-1.358.267-.545-.552-.874-.917-1.757-1.043-1.036-.148-4.839 2.107-6.818.702-3.108-2.206-1.805-.301-4.913.802-2.826 1.003-6.552 2.239-6.918 2.106-2.206-.802-2.406 2.105-4.812.702-2.407-1.404-2.808.201-4.713 1.203-1.905 1.003-6.785 1.671-9.592.869-2.808-.802-4.412-2.005-6.952-.935-2.54 1.07-6.149-.535-7.754-1.872-1.605-1.336-2.14-.802-6.149-2.407-4.012-1.604-4.145-1.203-6.418-2.673-2.271-1.47-2.54-1.337-5.881-2.272-3.342-.936-3.879-1.471-6.285-3.61-2.406-2.138-2.539-2.406-5.614-3.476-3.075-1.069-5.749-1.872-8.823-3.877-3.076-2.005-13.102-4.679-15.508-7.085-2.406-2.407-12.567-1.137-14.171-2.136-1.604-.998-13.035-.004-15.642 1.719-2.607 1.723-8.021.082-10.628 1.887-2.607 1.805-9.024 3.008-11.631 4.211-2.607 1.203-10.227 3.61-11.832 5.214-1.604 1.604-6.417 3.208-7.821 2.808-1.404-.401-8.222 5.214-11.832 5.615-3.609.401-15.04 6.016-16.845 7.821-1.805 1.805-3.61 3.008-7.821 4.211-4.211 1.203-6.618 5.214-10.428 6.217-3.811 1.002-4.011.802-6.217 2.607-2.206 1.805-12.232 6.417-13.436 7.62-1.204 1.203-7.019 5.548-10.628 6.752-3.61 1.203-2.808 1.604-5.08 4.278-2.273 2.674-1.604 2.54-6.417 4.412-4.813 1.872-30.014 19.252-34.425 19.853-4.412.602-18.048 12.233-19.051 14.84-1.003 2.607-12.032 8.823-13.235 10.227-1.203 1.404-20.053 10.161-24.064 13.903-4.011 3.745-6.952 4.546-5.481 6.016 1.469 1.471 3.476 5.081 1.47 3.877-2.005-1.203-3.61-2.005-6.016-2.139-2.406-.134-7.085 4.011-11.364 6.684-4.277 2.674-7.186 7.654-8.589 10.161-1.404 2.507 2.105 4.312 5.715 7.32 1.012.843 2.294 1.901 3.651 3.028-.681.619-1.087 1.512-.594 2.521.183.374.356.722.531 1.074-2.202-1.966-5.363-4.296-7.499-6.723-2.206-2.506-3.609-4.111-4.211-4.011-.602.101-2.407 1.805-3.509 3.209-1.103 1.403-2.507 2.005-1.404 3.008 1.103 1.002 6.216 9.024 5.414 9.024-.802 0-7.62-8.422-9.325-9.525-1.705-1.103-1.303-.902-2.306 0-1.002.902-.902 3.108.201 4.211 1.103 1.103 4.612 4.813 6.016 7.987 1.404 3.174-1.404.736-2.407 0-1.002-.736-4.412-7.185-5.214-8.087-.802-.902-1.203-1.103-2.005 0-.802 1.103-6.317 5.816-6.317 5.816s1.705 1.303 2.808 2.607c1.103 1.303 3.911 5.614 4.312 7.52.401 1.905-2.206.702-3.309-.701-1.103-1.404-4.713-5.114-5.916-5.716-1.203-.602-4.709 1.261-3.509 3.71 4.712 9.626 6.918 12.634 12.935 18.249 6.016 5.614 6.417 4.011 7.019 2.406.602-1.605-2.005-5.615-5.013-10.026-3.008-4.412.401-3.009 2.807-1.204 2.407 1.806 3.409 8.021 6.618 13.837 3.209 5.815 7.019 6.618 18.65 9.426 11.631 2.808 14.038.802 15.04-1.605 1.002-2.406-1.203-3.609-4.612-8.823s-7.42-8.223-12.634-14.038 2.005-2.205 5.615.803c3.609 3.008 22.66 30.28 27.072 30.08 4.412-.201 6.618 1.203 8.222-4.612 1.604-5.815-.401-4.211-3.409-13.637-.901-2.825-1.188-4.292-1.102-4.884.335.074.664.145.98.209.815.886 1.956 2.699 2.729 4.073 1.805 3.209 1.203 7.62 2.808 13.637 1.604 6.016 3.81 5.614 7.42 4.612 3.609-1.003 11.029.602 20.254 1.403 4.17.363 6 .274 6.758.069 1.177-.029 2.338-.344 4.015-.829 1.797.763 3.705-1.053 8.278-.443 6.016.802 9.826-.602 18.449-1.203 3.061-.213 4.222-.655 4.587-1.315 3.399-1.189 14.259-3.9 20.152-7.61 6.75-4.25 13.878-3.316 16.647-3.241h.001c.501.098.891.109 1.216.037 6.076.172 30.094.484 45.886-8.212 17.25-9.5 37.716-1.901 51.333-10.167 4.478-2.718 10.228-2.233 16.178-.3.334.248.674.492 1.018.728 2.349 1.615 4.056 1.94 6.61 2.392 9.573 4.621 18.477 11.118 22.195 12.18 4.621 1.32 23.327 2.917 39.362 1.081a97.104 97.104 0 0 0 3.385-.449c5.213-.584 11.94-.68 19.92 2.702 9.834 4.167 15.271 8.413 27.969 15.123a20.746 20.746 0 0 0 3.799 1.867c12.776 5.947 30.988 11.202 41.722 14.756 4.623 2.495 8.214 5.039 11.388 8.78l.001.001c.43 1.853 2.965 3.771 6.137 6.942 2.384 2.384 28.523 18.866 34.091 21.457.77.577 2.524 1.482 4.619 2.434 7.882 4.579 14.033 10.239 19.646 11.805 2.686.749 14.135 8.001 15.241 8.623 0 0 3.246 1.787 3.264 1.78 2.733 1.429 12.55 5.35 14.183 5.84 1.123.337 1.617.423 2.751.679l.017.004c.89.202 2.173.509 4.451 1.122 5.214 1.404 13.436 5.014 15.441 2.607 2.006-2.407 5.214-2.607 5.214-1.003 0 1.604-1.805 3.609-.802 6.054 1.003 2.442 4.411-.64 8.222-.84 3.811-.2 4.412-.802 8.423-3.209 4.011-2.406 6.617-4.011 11.831-7.019 5.214-3.008 7.019-3.008 11.631-6.217 4.612-3.208 9.225-4.211 17.046-6.817 7.82-2.607.802 2.406-2.206 3.208-3.008.803-18.851 8.824-22.861 10.829s-14.237 9.626-12.633 10.026c1.604.401 11.029-2.606 20.254-3.81 9.225-1.203 18.048-5.815 25.267-9.826 7.22-4.011 10.428-4.612 11.029-6.017.598-1.41-3.212-2.814-5.091-2.011zM76.27 271.865c-.298 0-1.536-1.315-2.982-2.911.395-.378 1.021-.301 1.93.434.802 1.382 1.331 2.477 1.052 2.477zm17.841-.356c.49.544.553.938.371 1.213-.182-.279-.369-.557-.544-.838-.3-.481-.5-.868-.642-1.198.335.319.612.597.815.823zM92.045 289.8c1.122.175 2.529.927 3.396 1.322 1.663.759 2.225 2.032 2.653 5.125-1.792-2.247-3.78-4.148-6.049-6.447zm24.374-13.62c-.764-1.27-.787-2.563.183-3.741.151.408.269.765.345 1.031.211.738.389 2.688-.528 2.71zm3.393 3.136l-.011-.048c-.999-4.079 2.251-2.436 4.017-1.592.177.912.369 1.866.6 2.851 1.413 6.038-.756 1.582-4.606-1.211zm18.008.578c-3.212-6.244-3.212-3.211-6.244-7.314-3.033-4.104-6.245-7.851-8.742-11.852-1.691-2.711-.354-2.61 1.404-1.214 2.914 6.17 2.132 5.804 7.399 10.903 5.749 5.565 6.417 6.101 6.952 9.977.056.407.073.775.07 1.124l-.839-1.624zm11.365-9.51a25.547 25.547 0 0 0-.503-1.221c-1.277-2.873-2.666-6.195-3.959-9.283.289-.157.599-.311.946-.459 2.974-1.264 2.974 3.405 4.282 8.995.744 3.179.372 3.087-.766 1.968zm14.444 17.419c-1.378-3.904-2.282-5.782-2.905-7.379 1.466 2.661 3.189 5.234 5.438 7.199.165.722.342 1.48.559 2.321 1.071 4.163-.237 5.947-3.092-2.141zm35.384 4.043c-1.6-1.263-2.647-2.33-4.053-3.664-.815-.883-1.331-1.356-2.261-2.06-1.274-1.108-2.887-2.425-5.104-4.088-3.005-2.254-4.423-3.842-5.437-5.34-.223-.734-.477-1.621-.789-2.718-2.18-7.676-5.27-15.509-2.454-12.213 2.216 4.178 4.396 9.878 8.537 13.264 1.063 2.958.519 3.632 4.946 6.369 2.809 1.736 3.952 1.94 4.822 2.475.412.407.822.815 1.232 1.225.447.621.983 1.521 1.768 2.918 2.191 3.902 4.006 5.7 4.714 7.087-2.008-1.094-4.471-2.109-5.921-3.255zm114.277-29.923c-.176-.567-.328-1.241-.637-2.786a66.132 66.132 0 0 1-.408-2.276c.455.607.878 2.574 1.363 3.867.15.4.299.83.447 1.287a16.02 16.02 0 0 0-.765-.092zm8.347-99.29a183.973 183.973 0 0 1-4.032 6.058c-.786-3.296 1.587-4.165 4.033-6.059l-.001.001zm15.639-5.482c.243-.68.636-.908 1.099-.825 1.34 1.812 2.624 4.699 3.022 7.41.487 3.322-.21 5.689-.814 7.021-.79-.869-1.963-2.3-3.306-4.506-2.499-4.105-1.33-5.381-.001-9.1zm2.181 38.515c-.634-1.254-1.361-4.187-2.181-8.398-1.489-7.641-1.201-4.891-.238-7.18.872 1.109 1.726 3.316 2.153 5.452.719 3.602.952 5.916.266 10.126zm10.989 36.415c-.389 7.85-2.465 8.386-6.57 19.981-3.512 9.928-2.189 9.268-2.407 12.79-3.273 9.886-.968 7.656-2.079 14.137-.566 3.306-.377 6.032-.186 8.663a51.19 51.19 0 0 1-3.698-3.496c-.121-.991-.242-2.083-.194-3.192.032-.73.058-1.414.089-2.079.659-2.523.711-3.948.544-5.228.271-1.512.682-3.223 1.329-5.358 1.784-5.888.535-6.066.179-10.17-.19-2.186.13-5.34.817-9.099.23-.898.468-1.805.718-2.728 2.607-9.625 3.208-8.222 4.612-14.037 1.404-5.815 1.003-7.621 3.811-12.233 2.753-4.522 2.807 3.097 3.754 5.854-.294 1.553-.587 3.529-.719 6.195zm3.68-32.659c-.016.183-.031.365-.048.547-.682 7.314-4.136 9.098-5.741 6.629-.289-.444-.482-.786-.601-1.087.324-.913.691-2.061 1.081-3.587.255-.999.429-1.868.559-2.65.07-.254.14-.505.211-.786.888-3.483.757-5.316.883-6.837.239-.506.556-1.044 1.004-1.659 2.041-2.8 2.868 2.757 2.652 9.43zm.556 37.749c.609-1.112 1.424-2.117 1.954-4.238.333-1.331.718-2.308 1.16-3.091-.16 1.161-.323 2.79-1.134 5.553-1.288 4.389-.553 5.248.444 6.788-.102.389-.209.789-.337 1.226-.92 3.134-.92 4.665-.512 5.81a24.569 24.569 0 0 1-1.023-1.854c-1.815-3.635.479-4.246-.552-10.194zm1.807 26.206c.7-.91 1.467-1.178 2.572.202a35.866 35.866 0 0 1-2.572-.202zm-1.323-6.513a9.177 9.177 0 0 1-.405-.939c1.221-1.889 1.978-4.437 3.522-3.044.415.955.791 2.203 1.028 3.983 1.068 8.022-2.006 4.278-4.145 0zm7.443-71.525c-1.428 4.817-3.746 8.14-5.352 1.929-.617-2.384-1.06-4.035-1.19-5.43.109-1.87.899-3.523 2.726-6.124 1.817-2.59 3.665-3.638 5.05-3.698.732.285 1.171.986 1.13 1.905-.224 4.991-.937 6.602-2.364 11.418zm24.777 55.884c-1.47 6.818-4.946 13.636-1.337 10.695l.506-.409c-.094.126-.177.245-.276.376-3.619 4.75-3.805 10.418-7.289 9.09 1.05-1.63 1.097-2.04-2.748-3.843a53.65 53.65 0 0 0-2.153-.95c.115-.556.33-1.218.653-2.037 1.784-4.52 4.314-4.163-.757-6.541-.38-.178-.738-.338-1.085-.49 1.371-2.196 2.68-3.237 4.325.659 2.541 6.016 3.367 10.138 4.357 7.409.991-2.729 1.281-.189 0-7.141-1.22-6.621-1.028-13.83 2.109-13.695-1.392 5.746-4.034 11.107-.981 8.618 2.016-1.643 3.766-2.973 4.897-2.814-.066.336-.138.688-.221 1.073zm15.775 32.071c-2.808 4.292-6.217 10.508-8.022 7.901-.083-.12-.162-.226-.241-.333 1.194-2.373 2.859-5.305 5.058-8.878 5.427-8.818 4.136-9.167 7.494-18.62.181.874.324 1.999.324 3.566-.001 6.418-1.806 12.073-4.613 16.364zm9.287-34.921c.489-2.435.522-4.479.114-6.827-.326-1.878.468-3.896 1.605-5.89.108.124.216.269.32.455 1.614 2.857.05 7.768-2.039 12.262zm11.867 7.434c-.232 3.279-.799 6.72-1.276 10.075-1.492-3.41-2.108-3.839-.248-10.014 1.428-4.742 2.428-5.524 3.514-7.244 1.776.528-1.577 1.355-1.99 7.183zm5.364-18.828c.221-3.937-.581-6.253 1.141-9.963.633.402 1.084 1.209 1.084 2.549 0 3.855-.982 5.835-2.225 7.414zm3.295 43.655a41.505 41.505 0 0 0-.367-1.088 48.141 48.141 0 0 0 1.365-1.605c.169-.211.48-.769.86-1.499.049 5.527-.03 9.858-1.858 4.192zm11.946 7.121c1.379-2.705 3.333-6.875 3.762-7.589.188-.315.971-1.104 1.998-2.07a134.15 134.15 0 0 1 4.699-3.01c8.742-5.353 4.461-3.925 6.602-6.245 1.902-2.06 2.681-2.008 4.583-1.971-1.583 2.045-2.938 3.891-2.842 4.472.114.685.163 2.214-.075 3.516-3.12 1.89-5.988 3.778-6.958 4.747-2.228 2.229-3.316 6.988-11.769 8.15zm21.591 7.656c-.401.284-.794.585-1.141.906-1.27 1.172-2.383 2.026-3.976 3.229-1.524.698-3.414 1.249-5.827 1.542-.494.06-.98.144-1.465.231 3.056-3.537 3.126-2.742 6.985-6.252 3.773-3.43 3.765-1.426 6.928-1.741-.463.648-.943 1.358-1.504 2.085zm4.373-59.937c1.107-1.521 2.706-3.54 5.072-6.415 6.065-7.375 3.296-6.537 5.472-10.348.414-.726.665-.471 1.761 1.192-.204.37-.435.738-.717 1.106-2.606 3.409-1.103.702-4.211 5.815-3.108 5.114-.902 5.314-4.311 7.019-1.042.52-2.129 1.162-3.066 1.631zm6.091 15.469c-.372-1.47-1.474-2.566-1.439-4.044.686.459 1.511.977 2.022 1.182.639.255 1.52.997 2.076 1.503-1.228 1.946-2.237 3.018-2.659 1.359zm2.632 59.16l.035-.051c1.147-1.606 2.065-2.422 2.978-2.848 3.231-.446-.422.857-3.013 2.899zm4.87-101.327c-.027.375-.048.737-.064 1.093-.485-1.24-.372-2.204.098-3.043.037.443.032 1.062-.034 1.95zm.871-3.036c.661-.693 1.499-1.352 2.319-2.088-.884.994-1.662 1.792-2.319 2.088zm45.178 115.604c.202.373-.102.772-.779 1.168.029-.323.274-.715.779-1.168zm-41.831-75.754c1.678-3.332 4.625-5.353 6.291-10.824 1.417-4.655 2.41-6.213 4.576-9.14.401.614.881 1.344 1.46 2.2 2.349 3.472 1.108 3.126-1.395 6.221a31.264 31.264 0 0 0-2.025 1.688c-4.269 3.904-2.718 4.902-3.311 6.833-1.372 1.781-2.47 2.493-4.063 4.444-1.581.931-2.589.677-1.533-1.422zm7.246 10.96c-1.423.281-1.122.041-2.829 1.053-2.284 1.353-1.038 2.064.39 2.515-.678.656-1.208.656-1.494-.473-.452-1.785-1.85-3.081-1.573-4.958.382.529 1.284.675 3.302-.118 4.996-1.962 2.319-1.784 3.033-3.924.504-1.514-.324-1.784-.288-2.944 3.808-3.33 5.331-4.994 7.214-9.313.135-.308.276-.607.423-.9.283-.251.553-.491.858-.759 4.281-3.747 1.605-1.25 1.427.356-.179 1.605-5.709 8.832-6.513 10.615-.436.969-.312 1.691.028 2.144-.729 1.061-1.321 2.105-2.373 3.918-.543.935-1.083 1.893-1.605 2.788zm15.049-11.851c.065.573-1.108 2.271-1.108 3.18 0 1.517-.535.982-4.103 5.441a28.91 28.91 0 0 1-.936 1.117c.08-.239.183-.5.338-.809 1.512-3.002 3.94-5.062 5.809-8.929zm-10.296 64.463c-.634.06-1.229.148-1.804.255-.258-1.143.002-2.549 1.463-4.185.105-.119.205-.224.309-.335.472-.011.957-.018 1.459-.018 8.207 0 8.207-.357 9.1.892.891 1.25-4.818 2.855-10.527 3.391zm13.759-36.265c-.933.451-2.523.254-4.567-.082l1.845-2.5c1.334.441 2.979 1.108 3.26 1.772-.172.252-.35.518-.538.81zm12.407-14.7c-2.429 3.852-2.378 2.141-5.59 6.779a1.03 1.03 0 0 0-.029.041c-.811-.037-1.671-.767-4.679.108a58.18 58.18 0 0 1-1.283.357c.669-.917 1.291-1.775 1.829-2.529 3.568-4.994 13.201-10.226 9.752-4.756zm2.736 93.483a3.448 3.448 0 0 1-.715-.001c1.576-.194 2.728-.414 3.975-.809-.812.464-1.906.688-3.26.81zm26.147-40.13c1.858-3.012.876-1.515 7.786-8.609.442-.375.912-.772 1.438-1.214 7.207-6.066 8.516-7.967 10.656-9.871 2.141-1.903 6.81-2.379 4.951 1.428a2.916 2.916 0 0 0-.234.601l-.249.252c-5.41 5.463-7.15 7.15-9.326 9.39-.773.649-1.725 1.405-3.229 2.602-4.639 3.688-4.163 5.115-7.732 6.66-2.894 1.254-4.692.629-4.061-1.239zm-2.563 26.471c3.185-2.125 5.441-2.486 8.003-4.081.291-.073.579-.147.883-.218 7.137-1.665-.476 1.784-5.828 6.223-.647.537-1.197.986-1.68 1.37-3.062.197-4.794-1.015-1.378-3.294zm.678 29.835c-2.249 1.204-3.122 1.722-3.778 2.171.052-.124.101-.244.139-.356.354-1.035 1.07-2.808 4.278-3.743 1.238-.361 1.896-.221 2.21.215-.5.371-1.309.888-2.849 1.713zm13.024-6.6c-2.318 1.248-2.854 1.248-6.779 2.855-.184.075-.34.142-.496.208a32.26 32.26 0 0 1 2.377-2.401c3.535-3.255 4.802-2.431 5.112-.774a6.398 6.398 0 0 0-.214.112zm-.011-31.816c-.032-.271-.01-.462.074-.617.186-.158.372-.308.558-.455.704-.365 2.047-.833 4.302-2.406 1.414-.388 2.374-.08 2.38 1.112-2.335 2.716-1.918 3.329-5.102 4.913-3.926 1.953-2.068-1.309-2.212-2.547zm11.557 61.621c-5.14 2.753-3.909 2.323-7.197 4.535-.056-.582-.025-1.359.112-2.407.164-1.251.362-2.358.59-3.337a140.913 140.913 0 0 1 6.572-4.042c1.776.613 3.739.284 4.248 2.384-.677.525-.841 1.001-4.325 2.867zm4.085-36.887a48.488 48.488 0 0 1 5.14-1.482c.15-.035.283-.064.422-.095-1.836 1.895-3.936 1.709-5.562 1.577zm20.379-48.54c2.406-2.14 7.654-2.674 5.565 1.605-.807 1.651.769-.023-3.198 3.921-1.529-.762-2.882-1.47-3.589-2.177-.472-.471-.664-.968-.706-1.489a40.745 40.745 0 0 1 1.928-1.86zm-9.899 43.053c.053-.304.086-.585.06-.807-.142-1.213.648-1.026 3.171-2.42-.207.21-.42.42-.619.631-1.089 1.158-1.935 1.987-2.612 2.596zm7.693 30.542c-1.203.803-1.403 1.003-3.008 2.006-.386.241-.701.423-.995.582-.872-.539-1.218-1.39-1.397-2.677 2.605-1.009 4.741-2.532 6.002-3.319 1.604-1.003 2.006.802 2.006.802s-1.403 1.805-2.608 2.606zm12.76-47.232c-1.476 1.279-5.015 3.592-8.849 6.423 1.939-2.005 4.178-4.177 7.653-6.45 1.263-.826 2.224-1.48 2.993-2.021-.524.722-1.106 1.45-1.797 2.048zm8.37-3.243c-.657-.415-1.414-.889-2.305-1.574-.096-.074-.187-.122-.278-.176.701-.468 1.611-1.009 3.178-1.852 3.073-1.654 1.779.778-.595 3.602zm2.4 66.72c-.031-.212-.034-.391-.052-.586a29.571 29.571 0 0 0 3.375-2.056 23.686 23.686 0 0 1 3.866-2.172c1.505-.105 2.582.47 3.35 1.53-3.307 1.56-7.267 3.521-10.314 5.043a51.317 51.317 0 0 0-.225-1.759zm7.153 12.7c-3.477 5.482-2.273 0-4.68-1.337-.726-.403-1.144-.98-1.407-1.772a72.51 72.51 0 0 1 1.901-.277c2.81-.366 5.575-1.094 8.259-2.028-.882 1.252-2.279 2.585-4.073 5.414zm12.605-20.119a1.78 1.78 0 0 0-.373-.603 22.191 22.191 0 0 1-.712-.744c4.418-1.444 3.189.003 1.085 1.347z" fill="url(#a)"/><radialGradient id="b" cx="356.012" cy="296.882" r="360.089" gradientUnits="userSpaceOnUse"><stop offset="0" stop-color="#e5174c"/><stop offset="1" stop-color="#5f1d2d"/></radialGradient><path d="M618.737 467.68c-5.213-8.531-.803-14.094-5.213-16.32-4.412-2.227-2.006-3.338-4.412-2.227-2.406 1.113-4.412.371-7.621 6.678-.087.17-.159.317-.24.479-3.323-7.881-.042-13.078-4.06-15.271-4.412-2.406-2.006-3.609-4.412-2.406-2.406 1.203-4.412.401-7.62 7.22-3.209 6.818-2.406 6.417-1.604 11.229.802 4.814 0 7.355-1.604 1.739-1.604-5.615-4.813-16.578-4.813-16.578s-2.175-.996-3.215.31c-1.676-3.083-3.61-6.302-4.784-8.11-2.406-3.709-7.754-9.645-10.428-11.623-2.672-1.978-6.684-5.193-8.555-4.451-.088.035-.177.086-.266.137-2.548-3.355-5.667-6.871-7.513-8.349-2.673-2.139-6.684-5.615-8.556-4.813-.425.182-.862.578-1.271 1.11-3.398-5.459-9.922-16.566-13.411-18.502-1.961-1.088-4.373-1.938-7.071-2.728-3.214-5.494-6.921-11.364-9.263-12.769-4.011-2.406-9.894-3.743-16.311-5.615-6.417-1.87-6.149-4.277-12.032-2.673-5.883 1.605-12.032 5.348-12.032 5.348l-2.903 2.903c-2.903 2.903-21.349 12.817-24.849 13.941h-1.393s-1.729.073-2.173.863c-1.974.398-3.799.792-5.233 1.789-.227.069-.41.189-.522.375-2.28 1.982-12.596 1.516-14.464 2.319-1.868.804-8.632-1.179-12.032-.602-1.906.286-3.313.167-4.61.327-6.239.184-16.024-.18-17.381-2.132-.268-1.604-3.476-1.871-4.278-1.337-.602.401-1.505.953-2.596 1.656-1.291.694-2.82 1.599-4.659 2.704-.422.23-.839.465-1.238.698-3.815 1.982-2.78-.48-1.639-2.552.786-.968 1.193-1.618 1.132-2.021l.014-.028c.417-.945-3.649-1.676-6.075-2.023l-.981-.307s-.292.025-.753.082h-.003s-1.469-.021-3.419.618c-2.636.638-5.572 1.801-5.719 3.845-2.145 2.539-3.805 1.84-5.245.366-.239-.846-.534-1.438-.904-1.702-.974-.695-1.374-1.675-2.244-2.046l-.012-.012c-2.256-2.058-14.238-3.006-21.539.453-5.395 2.556-7.788.876-9.418-1.453l-.744-1.487s-.004-.831-.799-1.067c-1.851-3.171-11.905-3.618-12.892-3.144l-.005.001a.558.558 0 0 0-.264.067c-1.089.246-3.504-.49-5.606-2.756-.055-.443-.116-.763-.512-.561-1.039-1.286-2.595-2.511-4.131-3.494.027-.265-.04-.356-.268-.166-1.881-1.172-3.684-1.968-4.407-2.048l-.014-.002c-.04-.033-.111-.046-.219-.034-1.727-.29-8.371-2.161-12.714-5.617-.124-.341-.319-.564-.682-.564-2.121-1.887-6.216-5.327-10.055-8.766-.564-1.07-1.618-1.912-2.816-2.575-3.092-2.895-5.567-5.495-5.97-6.789l-.008.003a12.387 12.387 0 0 0-.401-2.5c-.802-3.113-5.08-4.642-7.486-5.476-2.407-.835-5.08-2.107-7.219-3.81-2.14-1.703-3.208-.971-4.546-3.377-1.337-2.406-4.278-1.069-9.091 0s-1.337.268-5.08 1.337c-3.744 1.069-4.651 2.095-9.432 2.04-1.273-1.107-3.005-2.735-6.344-4.714-7.219-4.278-5.882-.268-11.765 1.872-5.881 2.139-6.952 7.485-8.824 6.652-1.871-.835-2.339-4.915-4.946-3.11-2.607 1.805-8.422 6.618-13.035 12.927-4.612 6.311-1.891 3.255-.487-1.207 1.403-4.462-2.005.011-5.615 1.31-1.128.406-2.13.725-3.087 1.016-.813-3.109.115-4.535 1.369-8.843 1.403-4.824-2.005.012-5.615 1.416-1.816.706-3.319 1.182-4.803 1.647.632-1.955.232-2.931-.612-3.052-1.403-.2-7.62 2.206-11.029 3.686-3.409 1.479-7.019 3.133-9.625 5.739-1.948 1.949-5.52 6.08-7.87 9.007-.352-.632-1.132-1.142-1.757-2.607-1.303-3.061-2.005-.649-6.618-1.483-4.343-.786-3.887-.173-5.745 1.372a7.192 7.192 0 0 1-.47-.975c-1.303-3.309-2.005-.702-6.618-1.604-4.612-.902-3.81-.1-6.116 1.805-2.306 1.905-2.105 3.71-4.412 7.018-2.306 3.31-.902 2.608-1.905 8.322-1.002 5.716-2.105 3.911-4.311 6.818-2.436 2.667-8.181 2.414-6.628 6.543-.38.698-.039 1.201.788 1.524.311.491.689 1.023 1.162 1.614 3.946 4.933 6.049 8.672 7.456 11.936.088.651.315 1.236.677 1.66a73.044 73.044 0 0 1 1.117 3.153c1.5 4.5 11.5 19.5 17.75 24.5 2.63 2.104 6.717 6.206 10.834 10.549.233.313.521.602.835.884 5.384 5.715 10.656 11.642 12.625 13.854l.005.005c.096.378.285.732.604 1.06 1.805 1.853 4.531 6.49 7.279 0 2.747-6.492 6.357-12.984 6.959-18.176.273-2.361 1.146-5.235 1.727-7.4 1.012-1.109 2.013-2.112 2.799-2.911.776-.79 1.701-1.467 2.544-2.056-1.232 7.067-5.544 15.193-8.273 22.999-3.208 9.178-3.81 11.878-6.016 15.889 0 0-.401 1.003 3.409 5.214 3.81 4.212 3.609 2.607 6.079 4.212 2.471 1.603 3.948 1.805 6.956 4.211 3.008 2.406 2.406 3.811 4.211 7.42 1.805 3.609 4.612 3.81 4.612 3.81l5.816 4.011 3.008 3.209c.361 3.343 2.223 13.832 20.163 20.096.211.124.303.156.33.116 16.33 5.72 15.356 6.703 22.098 8.537.612.196 1.197.35 1.673.434.631.156 1.21.381 1.754.652-.394 1.654.253 3.12 1.843 3.12 2.42 0 3.387 8.485 7.634 8.249 2.934 3.84 6.968 7.755 13.992 10.389 17 6.375 36.75 13.75 41.625 15.625 4.859 1.869 33.289 8.047 42.273 9.095a.222.222 0 0 0 .068.009l.024.003c8.885 1.018 11.758 2.858 14.572 3.688 2.814.83 35.939 4.501 61.105 2.437 8.601-.705 19.134-1.777 29.935-3.315.13.018.262.002.396-.056 10.967-1.571 81.182-24.105 81.182-24.105s23.377-9.103 23.835-9.353c5.423-1.703 19.974-8.231 31.33-15.044a6.067 6.067 0 0 0 1.118-.454c2.807-1.484 21.739-6.933 25.668-12.242 5.213-7.047 14.84-9.643 15.24-13.354.4-3.709 8.021-9.273 12.834-10.385 4.813-1.113 7.621 1.482 11.631-3.711 4.012-5.191 9.225 4.082 4.012-5.191-5.22-9.269-2.411-5.189-7.626-13.72zm-520.77-86.304a34.421 34.421 0 0 1-1.926 1.634c.166-.833.335-1.681.516-2.553.122-.587.237-1.126.347-1.64.835-.861 1.744-1.726 2.86-2.538a16.398 16.398 0 0 0 2.711-2.485c-.824 2.391-2.04 5.355-4.508 7.582zm20.313-17.938c-.35.391-.682.767-1.001 1.13.127-.831.5-1.164 1.001-1.13zm-9.887 26.37c-.1.357-.219.689-.339 1.002-.134-.568.009-.909.339-1.002zm1.124 32.899c-.313.266-.591.48-.832.64a18.82 18.82 0 0 1-.568-.711c.438-.707 1.397-1.75 2.504-2.891-.373 1-.74 1.989-1.104 2.962zm9.37-24.768c-.724-.67-1.454-1.342-2.063-2.035-.686-.78-1.102-1.429-1.315-1.938.926.342 1.727.403 2.204-.072.062-.062.126-.15.19-.235a39.2 39.2 0 0 0 1.908 1.309c-.302.998-.611 1.988-.924 2.971zM125.813 375c-.363-.746-.699-1.672-.967-2.89-.011-.052-.015-.09-.026-.141.77.634 1.315.159 1.315-2.324 0-.364.042-.759.104-1.167.336.156.696.399 1.06.726-.443 2.18-.926 4.169-1.486 5.796zm88.784 58.099c-.653.071-1.313.2-1.956.427-.214.075-.46.175-.722.287.161-.916.229-1.634.228-2.204 1.453-1.141 1.862-1.848 2.549-3.031a266.5 266.5 0 0 1-.099 4.521zm77.88 5.722s.843 5.065 1.189 9.696l-.364 1.059c-1.081 3.164-1.308 5.093-.608 6.548-.775.62-1.768-.122-2.356-2.33-.238-.894-.369-1.371-.471-1.572a47.547 47.547 0 0 1-.551-3.565c.323-1.301.583-3.628 1.289-7.161 1.338-6.686 1.872-2.675 1.872-2.675zm-9.892-4.011c1.337-4.546 3.208-8.823 5.08-12.834.811-1.738 1.521-1.717 2.066-1.136a122.128 122.128 0 0 0-1.241 4.747c-1.229 5.23-4.267 6.708-6.827 11.572.318-.615.632-1.365.922-2.349zm6.534 18.628a7.74 7.74 0 0 1-2.523 3.031c-.642.459-1.151.725-1.577.858-.099-.272-.2-.542-.272-.829-.648-2.596-1.47-.998-1.762-.288-.448-.845-.876-1.982-1.737-2.95-.141-.159-.279-.28-.418-.419.117-.748.38-1.548.976-2.126 1.895-1.839 2.741-2.473 3.653-1.907.472 1.358.72 1.32 1.082 1.111.754.965 1.777 2.433 2.578 3.519zm-8.115-14.93c-.832 1.866-1.482 3.475-1.92 4.954-.01-.397-.006-.791.025-1.164.199-2.384 1.283-2.853 2.375-4.799-.162.322-.323.656-.48 1.009zm-6.685 9.088c.536-3.955 1.337-7.664 1.337-9.586 0-1.92 1.337-7.971 1.337-12.174 0-3.239 2.06-6.179 3.006-7.36.078 2.663.178 6.43.178 8.108 0 2.737-1.604 7.425-3.208 12.506-1.604 5.08-1.337 7.219 1.069 9.101.172.135.318.228.451.299.094 1.012.335 2.04.723 3.134-1.359-.692-2.677-.595-4.114-.235-2.139.536 0 0-.268 2.406-.205 1.838-1.498 2.579-2.218 1.877-.038-4.576 1.27-4.843 1.707-8.076zm-13.659-34.175c0-1.376.321-2.702.766-3.884.093-.123.162-.219.189-.27 0 0 2.812.494 2.812 1.978 0 1.422-1.479 3.993-4.431 9.653.332-2.455.664-5.213.664-7.477zm-11.896 17.086c.733-1.022 1.78-2.313 3.339-3.923 6.417-6.62 1.872 1.275 2.406 4.216.037.205.059.421.07.643a243.995 243.995 0 0 1-3.79 6.567c-3.829 6.449-2.56 6.49-1.28 6.492a10.88 10.88 0 0 0-1.008 3.47c-1.07-1.751-2.46 3.011-1.989 6.056.096.624.103 1.397.04 2.263-1.93 1.047-4.676 1.046-4.876.446-.267-.802 1.604-2.406 3.605-5.349 2.001-2.94-.664-5.347 0-9.357a7.167 7.167 0 0 0 .07-1.896c.916-3.187 1.942-6.993 2.766-8.363.191-.319.411-.758.647-1.265zm-17.708 7.003c-.686 1.229-1.189 4.215-.878 6.393.534 3.743-1.604 12.298-4.011 16.738-2.406 4.439-.802 10.801 2.941 12.405.385.165.719.265 1.027.329.061 1.383.119 2.753.171 4.088-1.298-.795-2.519-1.59-3.337-2.23-2.674-2.091-5.081 1.29-6.008 3.149-.927 1.861-4.152 8.189-3.083 14.717.782 4.772-.436 1-1.043-2.004.295-6.003 1.671-13.613 1.368-17.61.802-2.66 2.909-6.43 4.074-7.925 1.458-1.872 2.018-9.894 3.088-12.834 1.069-2.94-.802-6.953-1.07-10.161-.267-3.209 2.139-6.684 3.208-8.823 1.07-2.139 2.941-11.497 4.279-13.903 1.336-2.406 4.01-10.695 4.545-12.201.536-1.505 8.556-11.328 8.953-12.131 0 0 2.812.534 2.812 2.139s-1.604 4.547-4.813 11.23c-2.407 5.014-3.008 6.718-5.528 11.57-2.315 2.153-6.35 6.114-6.581 8.041-.116.983-.078 4.642-.114 9.023zm28.29 55.834c-.268 1.732-3.209 10.633-3.476 15.826-.267 5.193-.802-1.73-1.336-2.967-.536-1.236-2.674-3.463-2.941-4.578a8.362 8.362 0 0 1-.174-1.165 64.157 64.157 0 0 1 .017-2.088c.102-1.066.37-2.177.959-3.05 1.337-1.978.535-6.924.535-6.924l-.639-.322c.452-5.901-1.922-1.438-3.395-1.929-.198-.066-.433-.14-.692-.216-1.83-.996-3.755-2.102-4.899-2.93-2.674-1.934-5.081 1.193-6.008 2.912-.184.342-.46.852-.773 1.487.649-2.473.073-6.334.073-6.334s-.642-.346-1.602-.881c.975-2.286 2.634-4.961 3.618-6.13.477-.566.856-1.745 1.19-3.163.012.189.002.317.002.317s.452.665 1.564 2.645c0 2.995 1.438 5.884 3.799 6.991.587.979.462.513.298.142 2.318.909 3.093.009 4.251-1.156 2.03-.689 3.993-1.45 3.993-1.45s.138-.378.354-.987c2.262-.273 2.076 1.889 2.076 1.889s1.069 1.449 4.011 6.631c.203.357.377.66.539.938.264 1.67.696 3.779 1.077 5.533-1.23-.089-2.288.098-2.421.959zm.669-30.4l-.157 1.326c-.089.744-.163 1.396-.227 1.994-.868.026-1.528-.108-1.622-.368-.192-.534.731-1.462 2.006-2.952zm1.501-9.634c.01-.327.035-.662.098-1.015.664-3.709-2.001-5.193-2.001-5.193s-1.188 2.061-2.787 6.077a123.549 123.549 0 0 0-.296-3.396c-.198-1.95-.263-3.439-.246-4.646.855-1.105 1.08-1.292 2.794-3.229 2.406-2.719.802.99 2.941 2.227 1.146.662 1.072.604 1.734-.522 1.024 2.528.43.749.778-1.213.72-1.025 1.88-2.45 3.86-4.346.376-.03.718.128 1.091.5.312.313.832 1.04 1.408 1.888-.093.551-.128 1.061-.048 1.467.335 1.702-.377 4.083-1.678 6.777-.307-.661-.578-1.356-.751-2.11-.802-3.475-1.872 0-1.872 0s-2.139 2.406-3.744 4.011c-.527.527-.937 1.468-1.281 2.723zm7.967 51.554c-1.07-2.94 1.872-6.15 2.673-13.102.613-5.311-1.894-.169-3.707 4.701 1.033-7.771-1.624-2.876-3.221-3.368a22.168 22.168 0 0 0-1.391-.374c.218-.493.421-.939.565-1.227.392-.783.645-1.575 2.011-4.354 1.894-.604 3.628-1.227 3.628-1.227s.486-1.235 1.069-2.818c.217 1.177.442 2.417 1.046 2.518 1.605.268 1.069-2.14 3.209-7.232.104-.247.208-.475.313-.7-.131 1.985-.023 2.922-.023 5.32 0 2.294.301 4.539.656 6.673-1.261 4.085-3.188 11.222-4.06 13.586-1.777 4.813-1.698 4.546-2.768 1.604zm9.276 53.61c.026-.086.08-.262.158-.486l1.122.89-1.28-.404zm5.059-53.274c-.155.448-.293.87-.407 1.249a82.69 82.69 0 0 1-.327 1.064c.011-.26.023-.519.036-.777.268-5.079-1.872-9.191-1.872-9.191s-1.465 5.794-2.563 10.329c-.213-.856-.355-1.628-.355-2.165 0-2.227-2.589-4.945-2.589-4.945s-.62 3.709-.085 7.912c.23 1.81-.036 4.955-.478 8.597-1.442 2.184-3.022 4.24-3.022 3.367 0-1.604 0-3.477 4.011-25.135.23-1.242.425-2.324.591-3.274.082.46.161.914.235 1.359.534 3.217 1.871 8.41 1.871 8.41s1.337-2.969 1.872-3.957c.536-.99.802-1.978 4.011-7.666s2.139 1.978 3.743 2.226c.018.003.032.001.049.003-1.21 1.917-2.56 4.745-3.548 7.712-.518 1.556-.894 3.223-1.173 4.882zm8.626-3.166l.057-.284c4.011-20.029-2.139 2.723-3.915 7.174-1.489 3.728-1.678 4.151-2.327 2.596 1.825-6.237 4.74-14.921 5.15-19.223.218-2.283-.405-2.577-1.382-1.637.315-1.11.739-2.691 1.673-4.746.652-1.436 1.329-2.474 1.985-3.27 3.541-.111 2.327 5.747 2.804 8.851.441 2.876-2.226 7.398-4.045 10.539zm7.03 14.973a52.1 52.1 0 0 0-.004 4.657c-.04-.742-.263-5.231-.017-9.527.042-.748.02-1.469-.042-2.159l.185-.377c.242-.483.695-1.138 1.249-1.891-.78 2.723-1.149 5.659-1.31 8.144-.122.254-.152.603-.061 1.153zm1.583 14.915s-.698-5.172.079-9.884a61.258 61.258 0 0 0 1.603 3.609c-.972 3.557-1.682 6.275-1.682 6.275zm1.872-66.274c-2.246 1.483-2.951.915-3.619-.254-.313-5.361-.566-12.061-.247-15.418.156-1.636.721-4.887 1.469-8.721 1.065-2.602 2.258-5.111 3.466-7.508 1.872-3.709 3.208 1.236 3.208 1.236s-2.673 10.387-5.08 15.73c-2.407 5.342-1.604 4.053-.535 7.277 1.069 3.225 1.07.732 2.674 1.473 1.512.699 1.362-1.239 2.459-6.639-.458 4.106-.641 7.601-.176 9.183.146.496.259 1.12.349 1.833a7.723 7.723 0 0 1-.225-.666c-1.069-3.709 0 .002-3.743 2.474zm4.764 69.674c.053.122.091.227.136.34-.158.187-.193.043-.136-.34zm2.6-36.951a827.996 827.996 0 0 1-4.572 8.55c.997-3.195 1.818-6.166 2.021-8.138.225-2.18-.447-2.395-1.479-1.421-.149-1.445-.639-3.643-1.285-6.147.987-.293 2.152-.629 3.566-1.087a5.657 5.657 0 0 1 1.211-.253c.709 1.862 1.517 3.975 2.288 6.049-.451.306-1.023 1.074-1.75 2.447zm47.082-46.144c-.729 3.369-2.077 8.576-2.863 13.744-.082-14.776-.029-29.073.396-30.433.176-.559.314-1.739.445-3.121.976-.876 1.955-1.439 2.603-3.1.064.358.13.732.197 1.14 1.005 6.032 1.306 10.703 1.262 14.809-.768 2.461-1.592 4.885-2.04 6.961zm17.111 17.802a219.464 219.464 0 0 0-.417 5.688c-.94-4.043-1.356-8.09-.274-10.835.963-2.445 1.451-8.114 1.807-14.625.55 7.877-.509 13.053-1.116 19.772zm86.771-45.206c-2.045-4.142-3.482-7.123-3.906-10.943v-.002c1.744 2.952 4.168 6.426 4.168 7.251a33.954 33.954 0 0 1-.262 3.694zm18.041 14.79c-1.902-3.681-3.467-6.325-4.48-8.94.883 1.306 1.84 2.836 2.586 4.328a96.62 96.62 0 0 1 2.868 6.322c-.316-.5-.637-1.058-.974-1.71zm19.878 40.159l-.114-.653s-.412-1.223-1.527 1.21c-.087.031-.175.059-.262.091a3.327 3.327 0 0 0-.326-.994c-1.336-2.473-4.545 1.978-4.277-6.182.266-8.16 1.336-5.934 1.603-10.139.268-4.203 2.139-.988-.268-5.441-2.406-4.451-.268-3.215-5.08-8.16-1.963-2.016-3.433-3.085-4.689-4.031-1.018-2.11-1.958-4.016-2.821-6.46-1.603-4.545-7.753-16.309-6.417-17.379.729-.583 2.253-1.556 3.79-1.46 2.494 5.166 2.845 6.938 4.257 9.549 1.869 3.461 5.613 8.902 5.613 8.902l.182.215c.192.482.39.98.597 1.511 4.116 10.517 7.643 21.809 9.248 26.2a18.95 18.95 0 0 1-.399 1.748c-1.605 5.688 1.336 9.795 1.336 9.795s.569.585 1.306 1.171c-.589.156-1.172.326-1.752.507zm8.977-13.218c.938-.506 1.933-1.312 2.892-2.354 1.198 3.238 2.233 6.123 3.039 8.307-5.402-2.458-8.829-4.393-5.931-5.953zm18.97 12.397l-.221-.042c-3.167-1.55-4.609-2.841-2.415-3.933 1.253-.625 2.609-1.738 3.846-3.224 1.692 1.832 3.463 3.355 3.463 3.355s-3.341 1.131-4.673 3.844zm.601-31.833c2.409 2.015 4.552 3.945 3.974 6.638-.332-.351-.725-.769-1.195-1.283-3.742-4.09-3.445-.446-2.779-5.355zm13.584 22.807c-1.872 3.314-3.477 5.452-4.011 6.788-.382.953-1.028 2.719-1.372 4.333-.992-.284-1.986-.559-2.986-.813.665-1.35 1.149-2.431 1.149-2.718 0-.803 2.675-3.953 2.139-7.591-.534-3.64-1.336-7.916-2.139-10.057-.802-2.139-.535-6.417-1.604-12.834-1.07-6.417.802-8.556-2.407-18.716-3.208-10.161-3.744-16.577-4.546-18.449-.471-1.098-2.229-4.678-4.142-8.313.066-2.056.423-2.658 1.491.47 2.406 7.049 5.615 15.209 7.621 19.66 2.004 4.451 0 4.08 2.807 12.611 1.023 3.105 1.778 6.011 2.481 8.633-.165 2.326-.23 4.646-.098 5.709.267 2.14 1.872 7.753 2.94 9.091 1.07 1.337 2.675 2.675 2.675 5.348.002 2.674 1.873 3.534.002 6.848zm6.72-6.763a4.633 4.633 0 0 1-.279.809c-.554 1.229-1.323 2.486-2.128 3.718.238-2.239.124-4.957-.971-9.023-.146-.541-.288-1.043-.429-1.537 2.349 1.822 4.39 3.588 3.807 6.033zm5.847 12.749c-.302 1.005-.754 2.009-1.25 3.001a5.846 5.846 0 0 0-.063-.818c-.535-3.367-1.336-7.322-2.139-9.301-.803-1.978-.535-5.936-1.603-11.869-1.07-5.935.801-7.914-2.408-17.31a101.725 101.725 0 0 1-1.704-5.499c1.261-2.56 2.245-3.437 2.751-1.92.802 2.406.18 5.214 3.698 18.048.338 1.23.638 2.412.919 3.567-.128 1.911-.168 3.718-.049 4.597.208 1.537 1.222 5.003 2.164 7.058.504 4.77.326 8.303-.316 10.446zm16.333 7.718c-.708 2.186-2.247 4.369-3.231 6.401-1.193-.913-4.709-12.944-4.961-16.88.048-.222.096-.448.148-.714 1.068-5.349 1.87-16.579 1.87-16.579s-1.571-6.813-2.515-11.725c1.03-1.694 1.833-2.153 2.272-.934.801 2.225.18 4.822 3.697 16.691.37 1.247.698 2.443 1.001 3.607-1.096 2.199-1.973 5.251-.711 8.402 1.106 2.768 2.139 6.316 2.917 9.251-.102.972-.267 1.802-.487 2.48zm5.348 14.838c0 1.238-3.475-1.484-2.941-3.461.079-.292.136-.57.184-.844.988.322 1.994.725 2.959 1.098a24.126 24.126 0 0 0-.202 3.207zm2.716-17.064c.068-.286.142-.602.225-.987.72-3.334 1.319-9.134 1.633-12.564.289.691.552 1.384.75 2.073 1.338 4.649 4.278 13.205 4.278 13.205l-.803 3.209s-2.406 4.813-4.545-.803a339.277 339.277 0 0 1-1.538-4.133zm6.643 16.075c-.563 0-2.303-1.093-3.481-2.512.051-.182.092-.379.114-.606.239-2.394-1.227-2.929-1.517-3.228l-.023-.15c.112-.132.634-.276 1.94-.633a37.908 37.908 0 0 0 5.105-1.787c.712 2.49 1.207 4.486 1.335 4.959.269.991-2.672 3.957-3.473 3.957zm15.773-4.205s-2.406 4.451-4.545-.742a404.676 404.676 0 0 1-3.479-8.813 10.282 10.282 0 0 1 1.719-.589c1.666-.416 3.089-.354 4.407-.324a463.818 463.818 0 0 0 2.701 7.501l-.803 2.967z" fill="url(#b)"/></svg>