<svg xmlns="http://www.w3.org/2000/svg" viewBox="0 0 198.425 198.425">
  <path fill="#214f66" d="M184.986 61.613h-4.4l-58.438-40.357-23.387 14.957-23.698-14.761-58.154 40.161h-4.398l62.482-43.151 23.75 14.795 23.456-15.003 62.787 43.359zM57.808 115.94h-2.963c-.392 0-.744-.121-1.018-.351a1.905 1.905 0 0 1-.539-.74l-3.694-9.146H34.362l-3.691 9.139c-.1.277-.29.537-.554.748a1.642 1.642 0 0 1-1.029.353h-2.94L40.295 81.37h3.367l14.146 34.57zm-22.116-13.515h12.573L41.982 86.83l-6.29 15.595zm33.457 13.889c-2.287 0-4.293-.415-5.963-1.232a14.078 14.078 0 0 1-4.37-3.346l-.374-.423.959-1.505c.464-.588.951-.697 1.287-.697.333 0 .658.146 1.025.461l.801.694c.298.262.655.543 1.071.848.395.29.865.563 1.397.814a9.883 9.883 0 0 0 1.848.641c.686.173 1.481.259 2.366.259 1.209 0 2.298-.184 3.235-.545.929-.359 1.722-.853 2.356-1.465a6.195 6.195 0 0 0 1.448-2.18 7.444 7.444 0 0 0 .509-2.751c0-1.019-.201-1.854-.598-2.488a5.433 5.433 0 0 0-1.655-1.662A11.46 11.46 0 0 0 72 100.543c-.982-.34-1.992-.672-3.028-.998a38.936 38.936 0 0 1-3.111-1.12 11.322 11.322 0 0 1-2.84-1.666 7.894 7.894 0 0 1-2.08-2.605c-.526-1.043-.793-2.348-.793-3.879 0-1.197.231-2.37.687-3.485a8.727 8.727 0 0 1 2.019-2.978c.876-.851 1.97-1.542 3.248-2.052 1.273-.508 2.739-.766 4.356-.766 1.803 0 3.45.293 4.895.872 1.451.58 2.791 1.478 3.98 2.667l.39.389-.816 1.563c-.475.897-1.445 1.178-2.558.174a9.515 9.515 0 0 0-1.2-.885c-.496-.318-1.133-.619-1.895-.895-.733-.265-1.666-.399-2.772-.399-1.103 0-2.079.157-2.903.467-.811.305-1.495.722-2.034 1.241a5.221 5.221 0 0 0-1.228 1.8 5.687 5.687 0 0 0-.424 2.17c0 .971.199 1.769.592 2.373a5.69 5.69 0 0 0 1.666 1.652c.724.479 1.562.888 2.49 1.217.984.349 1.995.693 3.034 1.035 1.058.347 2.102.735 3.104 1.152 1.047.438 2 .996 2.833 1.661a7.925 7.925 0 0 1 2.078 2.542c.529 1.014.798 2.273.798 3.746a11.485 11.485 0 0 1-.764 4.188 9.933 9.933 0 0 1-2.237 3.449c-.973.974-2.175 1.748-3.572 2.306-1.391.554-2.995.835-4.766.835zm28.682-.374h-3.908V84.9H82.236v-3.533h27.211V84.9H97.831v31.04zm40.795 0h-3.611c-.378 0-.711-.067-.991-.203-.297-.141-.567-.389-.801-.737l-10.576-13.369a2.542 2.542 0 0 0-.312-.36.748.748 0 0 0-.229-.147 1.524 1.524 0 0 0-.393-.1 5.675 5.675 0 0 0-.727-.04h-3.574v14.959h-3.908V81.367h9.214c3.954 0 6.983.796 9.003 2.367 2.076 1.614 3.13 3.996 3.13 7.077 0 1.356-.24 2.617-.713 3.75a8.903 8.903 0 0 1-2.054 2.996c-.881.847-1.955 1.546-3.192 2.078-.799.343-1.668.612-2.599.811l12.333 15.494zm-21.209-18.235h4.976c1.384 0 2.636-.166 3.722-.494 1.063-.32 1.967-.781 2.688-1.37a5.802 5.802 0 0 0 1.627-2.092c.373-.815.563-1.757.563-2.797 0-2.12-.654-3.636-1.998-4.633-1.396-1.034-3.509-1.558-6.273-1.558h-5.305v12.944zm38.659 18.586c-2.427 0-4.679-.424-6.693-1.262a15.035 15.035 0 0 1-5.234-3.591c-1.449-1.539-2.589-3.418-3.384-5.584-.791-2.153-1.19-4.58-1.19-7.213 0-2.616.399-5.034 1.19-7.188.795-2.166 1.935-4.045 3.384-5.585 1.453-1.543 3.214-2.755 5.232-3.602 2.018-.845 4.271-1.273 6.695-1.273 2.424 0 4.68.424 6.701 1.26 2.031.84 3.799 2.053 5.252 3.604 1.449 1.548 2.588 3.43 3.383 5.596.791 2.153 1.19 4.571 1.19 7.188 0 2.633-.399 5.06-1.19 7.213-.795 2.166-1.935 4.045-3.385 5.584-1.453 1.545-3.221 2.753-5.25 3.592-2.022.837-4.277 1.261-6.701 1.261zm0-31.741c-1.854 0-3.576.323-5.113.959a11.13 11.13 0 0 0-3.953 2.749c-1.102 1.196-1.971 2.682-2.577 4.415-.616 1.748-.929 3.756-.929 5.968 0 2.229.313 4.239.928 5.979.609 1.728 1.479 3.209 2.578 4.403a11.014 11.014 0 0 0 3.951 2.735c1.537.63 3.261.947 5.115.947 1.87 0 3.6-.317 5.139-.947a10.88 10.88 0 0 0 3.938-2.733c1.095-1.194 1.954-2.677 2.558-4.403.607-1.742.918-3.754.918-5.981 0-2.212-.311-4.221-.918-5.97-.604-1.733-1.461-3.219-2.558-4.415a11.017 11.017 0 0 0-3.938-2.747c-1.542-.636-3.27-.959-5.139-.959z"/>
  <path fill="#214f66" d="M98.354 57.577h.666v15.699h-1.924V61.639l-4.818 8.557c-.182.336-.486.524-.852.524h-.166c-.366 0-.669-.188-.855-.531l-4.972-8.613v11.7h-1.936V57.577h1.239c.157 0 .288.021.401.062.166.062.301.184.418.372l5.783 9.963 5.615-9.946c.126-.208.273-.335.447-.394.109-.038.24-.058.393-.058h.442l.119.001zm9.548 15.699h-2.061v-6.412l-5.848-9.287h1.84c.203 0 .381.054.529.161.131.093.233.22.313.377l4.186 6.709.012.021v-.001l4.219-6.771a.905.905 0 0 1 .82-.495h1.84l-5.85 9.287v6.411zm-99.804 33.8l-5.741-8.621 5.741-8.623 5.741 8.623-5.741 8.621zm182.23 0l-5.74-8.621 5.74-8.623 5.74 8.623-5.74 8.621zM7.348 64.298h68.807v2.5H7.348v-2.5zM121.742 64.298h68.879v2.5h-68.879v-2.5zM7.348 130.089h183.62v2.5H7.348v-2.5zM98.748 1.571L76.582 16.738h43.833L98.748 1.571zM75.296 179.888L12.51 136.529h4.4l58.439 40.357 23.385-14.957 23.697 14.762 58.154-40.162h4.4l-62.484 43.15-23.749-14.795-23.456 15.004zM120.916 181.687H77.082l21.666 15.167 22.168-15.167z"/>
</svg>
