<?xml version="1.0" encoding="utf-8"?>
<!-- Generator: Adobe Illustrator 16.0.0, SVG Export Plug-In . SVG Version: 6.00 Build 0)  -->
<!DOCTYPE svg PUBLIC "-//W3C//DTD SVG 1.1//EN" "http://www.w3.org/Graphics/SVG/1.1/DTD/svg11.dtd">
<svg version="1.1" id="Calque_1" xmlns="http://www.w3.org/2000/svg" xmlns:xlink="http://www.w3.org/1999/xlink" x="0px" y="0px"
	 width="45.5px" height="44.99px" viewBox="0 0 45.5 44.99" enable-background="new 0 0 45.5 44.99" xml:space="preserve">
<g>
	<path fill="#FFFFFF" d="M38.372,22.723h-2.216c0-7.23-5.887-13.117-13.117-13.117V7.391C31.499,7.39,38.372,14.27,38.372,22.723
		L38.372,22.723z M23.039,11.217v2.217c5.125,0,9.291,4.164,9.291,9.29h2.216C34.545,16.375,29.386,11.217,23.039,11.217
		L23.039,11.217z M22.596,0.763c-11.986,0-21.731,9.745-21.731,21.732c0,11.986,9.745,21.73,21.731,21.73
		c0.742,0,1.337-0.597,1.337-1.338s-0.596-1.345-1.337-1.345C12.091,41.545,3.547,33,3.547,22.496
		c0-10.507,8.545-19.051,19.049-19.051c10.505,0,19.048,8.543,19.048,19.051c0,4.392-2.332,8.744-5.678,10.582
		c-1.215,0.669-2.533,1.001-3.938,1.015c0.845-0.502,1.572-1.184,2.117-2.032c0.104-0.164,0.248-0.309,0.318-0.481
		c0.436-1.046,0.475-2.242,0.734-3.354c0.324-1.41-6.198-4.179-6.764-2.409c-0.201,0.655-0.521,2.721-0.93,3.267
		c-0.37,0.487-1.267,0.259-1.832-0.222c-1.488-1.267-3.145-3.132-4.601-4.6c-0.038-0.038-0.083-0.084-0.123-0.123
		c-0.038-0.04-0.085-0.084-0.124-0.123c-1.468-1.455-3.333-3.111-4.601-4.601c-0.48-0.564-0.708-1.468-0.22-1.832
		c0.547-0.416,2.612-0.721,3.268-0.928c1.768-0.566-1-7.089-2.416-6.764c-1.104,0.261-2.301,0.298-3.347,0.733
		c-0.181,0.078-0.318,0.215-0.481,0.318c-3.722,2.357-4.203,8.095-0.563,12.364c1.383,1.63,2.825,3.216,4.312,4.755l-0.007,0.008
		c0.04,0.04,0.085,0.077,0.125,0.123c0.044,0.039,0.083,0.078,0.116,0.125l0.014-0.007c1.54,1.485,3.371,3.678,6.339,5.655
		c6.264,4.179,11.066,3.018,13.892,1.464c4.886-2.689,7.068-8.433,7.068-12.929C44.329,10.509,34.577,0.763,22.596,0.763
		L22.596,0.763z"/>
</g>
</svg>
