<svg xmlns="http://www.w3.org/2000/svg" id="Layer_1" viewBox="0 0 255 223.7">
  <style>
    .st0{fill:#E92960;}
  </style>
  <path d="M82.5 121.7l-10.5 24h-3.8l-10.5-24v24h-3.2v-31.4H58l12 28 12-28h3.7v31.4h-3.2v-24zM96 154.5h-3.4l5.5-11-8.5-17H93l6.8 13.5 7-13.6h3.3l-8.4 17-5.5 11zM111.7 136c0-5.4 4.5-10 10-10 3 0 5.5 1.4 7.3 3.5v-3h3v19.3h-3v-3.2c-1.8 2.2-4.4 3.6-7.3 3.6-5.5 0-10-4.7-10-10zm17 0c0-3.8-3.3-7-7-7-4 0-7 3.2-7 7 0 4 3 7.3 7 7.3 3.7 0 7-3.4 7-7.2zM148.2 131c-.3-1.2-1.8-2.2-4-2.2-2.4 0-4 1-4 2.6s1.3 2.3 4.4 3c5 1 7 2.6 7 5.8 0 3.4-2.6 5.8-7.4 5.8-4.4 0-7.3-2.4-7.5-5.8h2.7c.3 1.6 2.3 3 4.8 3 2.8 0 4.7-1.2 4.7-3s-1.3-2.5-4.8-3.2c-4.6-1-6.7-2.5-6.7-5.6 0-3 2.3-5.3 6.7-5.3 3.8 0 6.3 2.2 6.6 5h-2.6zM160.5 129v16.7h-3V129h-2.8v-2.6h3v-7.6h2.8v7.6h4.4v2.6h-4.5zM171.7 129c1.6-1.8 4-3 6.6-3v3c-3.4 0-6.6 2-6.6 6v10.7h-3v-19.3h3v2.6zM180.7 136c0-5.4 4.5-10 10-10s10 4.6 10 10c0 5.5-4.5 10.2-10 10.2s-10-4.7-10-10zm3 0c0 4 3 7.3 7 7.3s7-3.4 7-7.2c0-3.8-3-7-7-7s-7 3.2-7 7z" class="st0"/>
  <g>
    <path d="M77.6 82c-2 4-3.5 7.4-6 11.8L70 96c7 1.8 16.3 5.5 22.8 10.4 6.5 5 8 13.3 6.2 16.2-.5 1-1 1.6-1.7 1.8-3 1.6-1.4-1-1-2 1.2-2.4 1.4-9.4-3.3-13.5-6.7-6-16.2-8-25-9.8-3.5 5-7.7 9.2-12.2 11.3-14.4 7-24.2-8.6-5.6-14.2 5-1.5 12.3-1.7 17.3-.8 2.6-4 4.8-8.2 7.2-13.3-19.8.6-26-21-2.4-26.2 3-.7 3 .7 0 1-14 2-18.7 26 3.4 23.5l6-14.8c10-26.3 24.3-21 24.7-15.5 1.2 14-14 29.2-28.8 31.7zM51 99c-16.7 4.4-9 15.6 3.7 9.6 3.8-1.8 7.3-5 10.7-9.8-4.6-1-10-1-14.4.3zm33.7-31s-3.3 6.2-6 12c12.3-2.7 25-15.5 25-28.3-.2-4.6-8.3-4.6-19 16.3z" class="st0"/>
    <path d="M106.8 103.7c-2 0-3.5-.7-4.4-1.8-2 1.4-4 2.4-6 2.3-5.2-.2-6-6.4-3.4-12.6 2.7-6.3 8.5-11.7 13.2-11.6 5.2.2 6 6.5 3.3 12.7-1 2.4-3 5.6-5.8 8 .6 1.2 1.6 2 3.3 2 4.4 0 8-8.7 9.7-12 .3-.7 1.5-.4 1 .6-1.2 2.6-5 12.4-11 12.4zm-9-12.3C95 97 94.5 102 97 102.7c1.3.3 3-.4 4.7-1.7-.8-1-1-2.4-1-3.4 0-1.6.6-3 2.3-3 1.2 0 2 1 2 2v.8c.7-1 1.4-2.4 2-3.7 2.7-5.6 3-10.5.6-11.3-3-.8-7.2 3.6-9.8 9z" class="st0"/>
    <path d="M134.6 81.4c-1.6 5-7.4 25.2-17 23.2-4-.8-2.3-7-.4-12.3-.8 1-1.7.7-1.2-.2l1.2-2.3c1.4-2.7 2-8 .2-8.5l3.4-.6c2-.2 2.6-.5 2.5 2.8 0 2.3-1 6-2 8.4-1.7 4.5-3.5 9.7-1.7 10.5 3.3 1.4 7-4.4 9.8-11.2-1-2-1-5-.5-6.8 1.8-6 7-6 5.7-3v.2zM139.5 104.6c-3.4 0-6.6-2.3-6.6-6.7-.2-4.2 2.2-9.4 5.2-13 3.5-4 8.8-6.7 11.8-4.5 2.6 2 .6 6.7-3.8 10-2 1.7-6.6 3.2-8.5 3.2-1 2.4-2.2 9.4 2.4 9.4 6 0 10-8 11.4-11.7.6-1.2 2-1.4 1.3 0-2.6 5.6-5.5 13.3-13.2 13.3zm2.8-18.6c-1.8 2.2-3.5 5.2-4 6.5 1 0 4.7-1 7.2-3 5.7-4.8 5.3-13.8-3.2-3.5z" class="st0"/>
  </g>
  <g>
    <path d="M131.6 45.6c-4.3-6.2-9.2-11.8-14.6-16.7-5.4-5-11.4-9.2-17.8-12.2s-13.2-4.7-20-5c-6.8 0-13.7 1.3-20.2 3.6-6.5 2.4-12.8 5.8-18.7 9.8-3 2-5.8 4.2-8.6 6.5l-2 1.7-2 1.7-3.7 3.7c-4.7 5-8.2 10.8-10.2 17-2 6.4-2.7 13.3-2 20.2.6 6.8 2.3 13.7 4.8 20.5 2.4 6.7 5.5 13.3 9 19.7 3.4 6.5 7.3 12.8 11.4 19 4 6 8.5 12 13 18s9.2 11.7 14 17.5c4.8 5.7 9.6 11.4 14.6 17l15 16.8 7.4 8.5c2.5 2.8 5 5.7 7.2 8.8h-.7l19.2-12.7c3.2-2 6.4-4.2 9.5-6.4l9.3-6.7c6.2-4.5 12.3-9 18.3-13.8 6-4.7 12-9.5 17.6-14.4 5.8-5 11.4-10 16.8-15.2 5.4-5.3 10.6-10.7 15.4-16.3 5-5.6 9.5-11.5 13.5-17.6 4-6 7.5-12.5 10-19 2.3-6.6 3.8-13.4 3.6-20-.2-6.6-2-13-5-19-1.6-2.8-3.5-5.6-5.7-8.3l-1-1v-.2h-.2V51s-.2 0 0 0l-.5-.5-2-2.2-1.6-1.8-2-1.8c-2.4-2.4-5-4.6-8-6.5-2.7-2-5.6-3.5-8.6-4.7-6-2.5-12.6-3.3-19.2-2.5-6.7 1-13.4 3.3-19.8 6.7-6.4 3.4-12.5 7.7-18.2 12.4-5.8 5-11.4 10.2-16.6 15.8l-.8-.5c3.6-7 8-13.4 13-19.4 5.2-6 11-11.7 17.6-16.4 6.7-4.7 14.3-8.4 22.7-10.3 4.3-.8 8.7-1.2 13-1 4.5.3 8.8 1.3 13 2.7 4 1.4 8 3.4 11.6 5.7 3.7 2.3 7 5 10 7.8l2.3 2.2 2.2 2.3 2 2 .4.7.6.7 1 1.2c2.7 3.3 5 7 7 10.7 2 3.8 3.8 8 5 12.2 1 4.2 1.5 8.6 1.6 13 0 8.7-2 17.2-5 25-3 7.7-7.2 14.8-11.8 21.4-4.6 6.4-9.7 12.5-15 18.3-5.5 5.7-11.2 11-17 16.3-6 5-12 10-18.2 14.7-6.2 4.6-12.5 9-19 13.4-6.4 4.3-13 8.3-19.6 12.3-3.3 2-6.6 4-10 5.8-3.3 2-6.7 3.7-10 5.5-7 3.7-13.8 7-20.8 10.3h-.4l-.2-.2c-5-5.4-10.7-10.5-16-15.7L83 199l-8-8c-5.4-5.2-10.7-10.5-16-16-5-5.5-10-11.2-15-17-5-5.7-9.6-11.7-14-18-4.6-6-9-12.4-12.8-19-4-6.7-7.4-13.6-10.2-21-2.8-7.3-5-15-6-23-.7-8-.2-16.5 2.3-24.5s7-15.3 12.5-21.4l4.4-4.2 2.3-2 2.2-1.8c3-2.4 6.2-4.8 9.5-7C40.8 12 48 8 55.7 5.7c3.8-1.3 7.8-2.2 11.8-2.7 4-.6 8.2-.7 12.3-.3 4 .4 8 1.2 12 2.5 2 .6 3.7 1.4 5.6 2.2l5.3 2.8c7 4 12.8 9.5 17.7 15.4 2.5 3 4.8 6 6.8 9.4 1 1.6 2 3.2 2.8 5 1 1.6 1.7 3.3 2.5 5l-1 .6z" class="st0"/>
  </g>
</svg>
