<?xml version="1.0" encoding="iso-8859-1"?>
<!-- Generator: Adobe Illustrator 19.0.0, SVG Export Plug-In . SVG Version: 6.00 Build 0)  -->
<svg version="1.1" id="Layer_1" xmlns="http://www.w3.org/2000/svg" xmlns:xlink="http://www.w3.org/1999/xlink" x="0px" y="0px"
	 viewBox="0 0 300 300" style="enable-background:new 0 0 300 300;" xml:space="preserve">
<path style="fill-rule:evenodd;clip-rule:evenodd;fill:#0c0f2f;" d="M255.98,111.351c0,0,0-34.164,0-48.648
	c-9.515,9.406-38.049,37.611-52.826,52.217c14.524,18.047,23.268,40.942,23.268,65.868C226.423,238.803,179.274,286,121.33,286
	S16.237,238.803,16.237,180.788c0-58.015,47.148-105.212,105.093-105.212c22.676,0,43.641,7.302,60.832,19.578
	c14.608-14.103,43.964-42.443,53.99-52.13c-15.298,0-52.527,0-52.527,0V14h95.306h4.832v97.351H255.98z M45.228,180.788
	c0,42.01,34.144,76.188,76.102,76.188c41.958,0,76.102-34.178,76.102-76.188c0-42.01-34.144-76.188-76.102-76.188
	C79.372,104.6,45.228,138.778,45.228,180.788z"/>
</svg>
