<?xml version="1.0" encoding="iso-8859-1"?>
<!-- Generator: Adobe Illustrator 19.0.0, SVG Export Plug-In . SVG Version: 6.00 Build 0)  -->
<svg version="1.1" id="Layer_1" xmlns="http://www.w3.org/2000/svg" xmlns:xlink="http://www.w3.org/1999/xlink" x="0px" y="0px"
	 viewBox="0 0 300 300" style="enable-background:new 0 0 300 300;" xml:space="preserve">
<path style="fill-rule:evenodd;clip-rule:evenodd;fill:#0c0f2f;" d="M162.907,208.394c0,5.257,0,10.324,0,13.051
	c7.613,0,56.214,0,56.214,0v26.944c0,0-48.6,0-56.214,0c0,6.964,0,37.61,0,37.61h-27.536c0,0,0-30.646,0-37.61
	c-7.612,0-56.432,0-56.432,0v-26.944c0,0,48.82,0,56.432,0c0-2.806,0-7.999,0-13.315c-46.981-7.09-83.151-47.579-83.151-96.458
	C52.22,57.815,96.087,14,150,14c53.913,0,97.78,43.815,97.78,97.673C247.78,161.15,210.727,202.051,162.907,208.394z M150,40.944
	c-39.047,0-70.806,31.729-70.806,70.729c0,38.999,31.759,70.729,70.806,70.729c39.048,0,70.806-31.73,70.806-70.729
	C220.806,72.673,189.047,40.944,150,40.944z"/>
</svg>
