<svg xmlns="http://www.w3.org/2000/svg" viewBox="0 0 100 100">
  <g fill="#ffbe28">
    <path d="M98.295 60.34c-3.298-1.659-9.333-10.694-10.63-12.676 4.743-4.107 7.332-9.38 7.332-15.486 0-13.244-14.466-23.981-32.311-23.981-10.271 0-19.417 3.561-25.335 9.107.325-.006.648-.019.975-.019 21.261 0 38.496 13.28 38.496 29.661 0 2.48-.401 4.888-1.145 7.19a43.718 43.718 0 0 0 2.459-.888c5.415 4.974 24.775 9.414 20.159 7.092z"/>
    <path d="M37.35 19.809C17.275 19.809 1 32.348 1 47.816c0 10.752 7.867 20.083 19.404 24.777-2.25 5.375-6.805 15.53-10.139 18.182-5.601 4.455 18.624-6.498 25.378-14.985.566.02 1.134.033 1.707.033 20.076 0 36.35-12.539 36.35-28.007 0-15.468-16.274-28.007-36.35-28.007z"/>
  </g>
</svg>
