<svg xmlns="http://www.w3.org/2000/svg" viewBox="0 0 512 512">
  <path fill="#ffbe28" fill-rule="evenodd" d="M492.936 115.518c-53.693 43.799-101.396 92.199-147.326 142.544v183.871c0 10.209-8.449 18.517-18.827 18.517H24.824C14.446 460.451 6 452.142 6 441.933V135.03c0-10.21 8.446-18.518 18.824-18.518h301.958c10.378 0 18.827 8.308 18.827 18.518v17.19c31.761-32.214 65.018-62.958 99.661-91.91 36.271-30.313 84.194 25.414 47.666 55.208zm-166.683 20.017h-300.9v305.892h300.9V279.483c-22.434 25.063-44.58 50.499-66.937 76.013-11.947 13.636-30.39 18.932-46.52 8.046-40.495-27.309-80.03-85.204-132.6-85.977-41.79-.604-35.486-64.043 6.113-63.439 56.143.818 92.785 40.308 133.459 73.155l4.533 3.663 3.564-3.945c30.769-39.755 63.636-78.128 98.389-114.747v-36.717z" clip-rule="evenodd"/>
</svg>
