<svg xmlns="http://www.w3.org/2000/svg" viewBox="0 0 512 512">
  <path d="M427.251 6H84.757c-9.17 0-16.566 7.346-16.566 16.407v467.158c0 9.071 7.396 16.435 16.566 16.435H338.85c4.078 0 8.022-1.503 11.076-4.208l88.363-78.33c3.51-3.118 5.52-7.569 5.52-12.226V22.407c0-9.061-7.396-16.407-16.558-16.407zm-16.558 396.049h-77.116v70.159l-1.024.922H101.344V38.834h309.349v363.215z"/>
  <path d="M286.407 297.838h-84.228c-4.8 0-8.66 3.869-8.66 8.601v83.402c0 4.77 3.86 8.585 8.66 8.585h84.228c4.781 0 8.668-3.851 8.668-8.585v-83.402c.02-4.732-3.888-8.601-8.668-8.601zm-8.628 83.437h-66.932v-66.269h66.932v66.269zM293.977 170.82v-.611c0-4.197-3.415-7.579-7.645-7.579h-84.097c-4.211 0-7.653 3.381-7.653 7.579v83.268c0 4.209 3.442 7.59 7.653 7.59h84.116c4.21 0 7.662-3.381 7.662-7.59V223.8l-13.523 13.383c-.511.497-1.196.75-1.802 1.192v7.56h-68.801V177.77h68.801v8.189l15.289-15.139z"/>
  <path d="M309.756 165.898l-42.637 42.217-16.331-16.173c-4.409-4.367-11.511-4.367-15.921 0-4.409 4.369-4.409 11.422 0 15.752l24.296 24.079a11.286 11.286 0 0 0 7.956 3.278c2.902 0 5.805-1.098 7.965-3.278l50.604-50.123a11.04 11.04 0 0 0 0-15.771c-4.401-4.347-11.533-4.347-15.932.019zM145.45 86.001h221.11v22.871H145.45V86.001z"/>
</svg>
