<svg xmlns="http://www.w3.org/2000/svg" viewBox="0 0 512 512">
  <path fill="#fff" d="M76.096 328.33l17.544-3.135 29.37 167.276c1.634 9.309 9.507 14.885 18.695 13.243L460.824 448.7c9.188-1.641 14.684-9.606 13.048-18.914l-29.37-167.276 17.543-3.134c9.188-1.642 14.733-9.324 13.048-18.915l-20.506-116.782c-1.634-9.31-9.605-15.45-18.794-13.807l-78.526 14.03c33.29-26.313 48.777-47.7 47.896-69.072-.557-12.992-7.674-30.632-37.608-42.45-31.753-12.364-54.778-4.468-68.725 4.424-22.722 14.533-40.083 43.237-51.07 85.349-1.745 6.422-2.982 12.461-4.268 18.218-3.169-4.962-6.387-10.205-10.211-15.631-24.935-35.695-50.735-56.687-77.023-62.464-16.127-3.518-40.44-2.956-66.05 19.657C65.841 83.45 65.49 102.714 69.389 115.11c6.122 20.144 27.948 34.865 68.174 48.043l-87.718 15.672c-9.188 1.641-14.585 10.17-12.948 19.478l20.505 116.784c1.683 9.591 9.506 14.884 18.694 13.243zm50.96-9.105l125.307-22.389 26.251 149.506-125.309 22.389-26.249-149.506zm310.282 98.76L312.03 440.373l-26.25-149.506 125.307-22.388 26.251 149.506zm1.22-189.326l-15.871 2.836-142.85 25.523-14.364-81.805 9.19-1.641 149.533-26.716 14.362 81.803zM280.59 110.834c8.573-32.953 21.257-55.585 36.498-65.29 3.88-2.438 7.909-4.031 12.363-4.826 7.798-1.393 16.319-.298 25.892 3.52 9.573 3.817 15.855 8.514 16.171 11.949.725 15.58-43.251 51.367-96.38 79.188 1.317-7.219 2.995-15.665 5.456-24.541zm-179.184-6.391c-1.152-3.286 3.149-9.873 11.119-16.825 7.691-6.901 15.32-10.883 23.117-12.276 4.455-.796 8.781-.696 13.256.25 27.778 6.092 54.253 42.384 70.265 69.781-59.648-7.671-113.134-26.045-117.757-40.93zM73.333 209.54l158.723-28.357 14.364 81.805-142.852 25.522-15.871 2.836-14.364-81.806z"/>
</svg>
