<svg xmlns="http://www.w3.org/2000/svg" viewBox="0 0 265 265">
  <path fill="#ffbe28" d="M231.209 124.569c-.003-10.488-3.715-15.515-14.004-18.252-3.414-.908-4.589-2.651-4.507-5.973.123-4.992-.074-9.992.046-14.984.605-25.067-8.9-45.805-27.345-62.383-12.025-10.808-25.727-18.375-42.591-18.195-2.521-.285-5.117.594-7.578-.516h-5.999c-2.288 1.094-4.716.258-7.065.515-5.516-.094-10.915.558-16.166 2.353-31.122 10.64-55.18 42.328-54.141 76.646.176 5.81-.051 11.632.053 17.445.054 3.022-1.199 4.356-4.14 5.108-10.922 2.793-13.988 6.981-14.014 18.418l.001 119.917c.459 10.394 4.883 15.997 13.228 16.009 56.779.079 113.558.03 170.337.059 4.771.002 8.238-2.082 10.881-5.919 2.374-3.447 3.043-7.247 3.038-11.362-.048-39.629-.023-79.258-.034-118.886zm-80.788 56.087c-1.802 2.507-2.368 4.883-2.342 7.78.088 9.481.082 18.963.017 28.444-.048 7.004-2.646 9.58-9.641 9.682-4.49.065-8.986.118-13.473-.021-5.768-.178-8.441-2.856-8.601-8.691-.146-5.319-.031-10.645-.032-15.968-.001-2.828-.048-5.657.009-8.483.107-5.287-.322-10.052-3.482-14.975-5.615-8.749-2.381-20.917 6.014-27.117 8.227-6.076 21.207-5.323 28.577 1.658 7.675 7.27 9.114 19.12 2.954 27.691zm24.232-73.04c-14.142-.155-28.286-.067-42.429-.067s-28.288-.091-42.429.069c-3.193.036-4.392-.7-4.237-4.115.511-11.245-.931-22.591 2.616-33.645 6.702-20.884 26.708-33.641 46.804-32.323 24.951 1.635 41.981 22.194 43.403 42.547.547 7.823.111 15.635.523 23.433.183 3.44-1.082 4.135-4.251 4.101z"/>
</svg>
