<svg xmlns="http://www.w3.org/2000/svg" viewBox="0 0 34.016 34.016">
  <path fill="#53fd19" d="M24.102 1.522a1.5 1.5 0 1 0 0 3h3.271l-7.356 7.357a11.405 11.405 0 0 0-6.994-2.384c-3.072 0-5.96 1.196-8.132 3.368a11.425 11.425 0 0 0-3.368 8.132c0 3.071 1.196 5.959 3.368 8.131a11.425 11.425 0 0 0 8.132 3.368c3.071 0 5.959-1.196 8.131-3.368a11.424 11.424 0 0 0 3.368-8.131c0-2.565-.844-4.996-2.384-6.995l7.356-7.357v3.271a1.5 1.5 0 1 0 3 0V1.522h-8.392zm-5.07 25.483a8.445 8.445 0 0 1-6.01 2.489 8.447 8.447 0 0 1-6.011-2.489c-3.314-3.314-3.314-8.707 0-12.021a8.447 8.447 0 0 1 6.011-2.489c2.27 0 4.405.884 6.01 2.489 3.314 3.314 3.314 8.706 0 12.021z"/>
</svg>
