<svg xmlns="http://www.w3.org/2000/svg" viewBox="0 0 512 512">
  <path d="M437.466 258.611h-25.485c0-83.171-67.711-150.882-150.901-150.882V82.244c97.31 0 176.386 79.134 176.386 176.367zM261.08 126.25v25.484c58.967 0 106.876 47.909 106.876 106.876h25.486c0-73.01-59.351-132.36-132.362-132.36zM255.99 6C118.1 6 6 118.119 6 256.009S118.1 506 255.99 506a15.367 15.367 0 0 0 15.402-15.402c0-8.515-6.868-15.46-15.402-15.46-120.843 0-219.129-98.286-219.129-219.129 0-120.862 98.286-219.148 219.129-219.148 120.862 0 219.148 98.286 219.148 219.148 0 50.511-26.844 100.581-65.339 121.742-13.967 7.692-29.139 11.499-45.288 11.652 9.719-5.759 18.099-13.603 24.376-23.38 1.186-1.875 2.832-3.52 3.655-5.529 5.013-12.035 5.453-25.792 8.456-38.572 3.731-16.225-71.308-48.062-77.814-27.723-2.315 7.539-5.969 31.301-10.676 37.596-4.267 5.606-14.58 2.985-21.084-2.545-17.124-14.579-36.181-36.027-52.922-52.921-.44-.441-.956-.976-1.416-1.416-.44-.46-.975-.976-1.416-1.416-16.894-16.741-38.342-35.798-52.921-52.921-5.53-6.505-8.151-16.895-2.545-21.085 6.295-4.783 30.057-8.285 37.596-10.676 20.339-6.506-11.499-81.545-27.8-77.814-12.704 3.004-26.461 3.444-38.495 8.456-2.086.9-3.654 2.469-5.529 3.655-42.82 27.13-48.348 93.119-6.486 142.234 15.919 18.75 32.507 36.984 49.611 54.701l-.076.077c.46.459.976.899 1.435 1.416.517.459.957.899 1.34 1.435l.153-.076c17.717 17.104 38.782 42.303 72.934 65.09 72.054 48.062 127.291 34.688 159.798 16.818C480.878 373.868 506 307.802 506 256.085 506 118.119 393.824 6 255.99 6zm0 0"/>
</svg>
