<svg xmlns="http://www.w3.org/2000/svg" viewBox="0 0 257 257">
  <g fill="#ffbe28">
    <path d="M244.582 12.321c8.394 1.852 12.746 6.921 12.862 15.272.105 7.497-.098 14.999.074 22.493.086 3.727-1.752 5.101-5.083 5.255-.998.046-1.999.014-2.999.014-79.813 0-159.627-.013-239.44.049-3.281.003-6.204-.353-8.496-2.91V22.498c2.773-8.129 5.98-10.414 14.723-10.482 74.307-.003 148.604-.004 222.901.012 1.819.001 3.665-.283 5.458.293z"/>
    <path d="M244.582 12.321c-2.323.059-4.646.17-6.969.17-73.082.01-146.164.01-219.246.003-1.325 0-2.649-.109-3.974-.167-.24-.218-.304-.413-.193-.585.104-.161.203-.242.299-.242H244.47c.075.269.112.542.112.821z"/>
    <path d="M14.498 11.5a5.756 5.756 0 0 0-.106.827C7.84 12.86 4.643 17.645 1.5 22.498c0-3.666-1.431-8.763.402-10.596s6.93-.402 10.596-.402h2zm-9.33 186.492c1.79-1.372 1.056-3.324 1.072-5.003.077-7.997.077-15.995.018-23.993-.022-2.921.258-5.776 2.486-7.833 2.854-2.635 3.244-5.956 3.487-9.516 2.013-29.427 25.535-51.523 54.613-51.378 29.071.145 52.406 22.335 54.297 51.819.222 3.459.73 6.478 3.259 9.057 2.355 2.402 2.726 5.556 2.709 8.808-.049 9.33.128 18.664-.079 27.99-.092 4.143.976 5.877 5.572 5.855 36.156-.172 72.312-.065 108.469-.119 10.583-.016 16.371-5.839 16.383-16.378.038-34.323.024-68.647.006-102.971-.003-6.51-1.755-8.325-8.324-8.327-80.144-.026-160.288-.015-240.431-.022-2.707 0-5.345.115-7.204 2.51v114.986c1.987.848 1.753 3.504 3.667 4.515zm227.329-23.24c-.069 4.964-1.944 6.757-7.04 6.82-5.66.07-11.322.016-16.982.017-5.494.001-10.99-.073-16.483.024-4.547.08-6.852-2.037-6.878-6.558-.038-6.493.005-12.987-.024-19.48-.021-4.613 2.464-6.671 6.84-6.685 11.322-.036 22.644-.062 33.965.022 4.389.032 6.721 2.25 6.65 6.86-.099 6.326.039 12.655-.048 18.98zm-96.937-58.627c14.977-.069 29.955-.024 44.933-.023 14.645.001 29.29-.025 43.935.014 5.916.016 8.007 1.723 8.088 6.341.086 4.942-2.123 6.874-8.143 6.879-29.456.024-58.913.028-88.369-.003-5.641-.006-7.859-1.986-7.848-6.676.01-4.585 2.038-6.507 7.404-6.532z"/>
    <path d="M113.527 171.086c-.001-1.775.54-4.15-1.78-4.666-3.657-.814-3.363-3.289-3.398-6.006a68.903 68.903 0 0 0-.718-8.946c-2.241-15.462-10.864-26.42-24.976-32.373-14.341-6.05-28.386-4.248-41.002 5.136-12.009 8.934-16.797 21.419-16.871 36.065-.009 1.779 1.132 4.384-1.564 5.138-3.403.952-3.659 3.28-3.654 6.142.042 23.16.093 46.32-.038 69.479-.024 4.305 1.514 5.917 5.833 5.865 13.661-.165 27.324-.061 40.987-.06 13.829 0 27.66-.104 41.487.062 4.323.052 5.809-1.505 5.779-5.858-.159-23.324-.07-46.651-.085-69.978zM76.482 216.22c-.422 5.107-4.554 8.958-9.475 9.19-4.666.22-9.343-3.048-10.043-7.939a75.491 75.491 0 0 1-.012-21.335c.75-5.249 5.268-8.184 10.491-7.803 4.875.356 8.605 3.893 9.033 8.965.264 3.133.049 6.306.052 9.461.001 3.155.212 6.327-.046 9.461zm13.603-50.626h-23.43c-8.807 0-17.614.017-26.421-.015-1.74-.006-3.745.49-3.971-2.396-1.287-16.398 5.807-29.464 20.888-34.529 19.985-6.711 38.932 7.519 39.936 29.633.332 7.306.332 7.306-7.002 7.307z"/>
  </g>
</svg>
