<svg xmlns="http://www.w3.org/2000/svg" viewBox="0 0 258 258">
  <path fill="#ffbe28" d="M.695 105.562v-6.999c2.367-7.096 5.804-9.636 13.412-10.327 21.849-1.985 43.683-4.139 65.53-6.145 6.577-.604 10.345-4.45 12.748-10.369 7.51-18.502 15.068-36.986 22.749-55.419 2.004-4.809 4.521-8.994 10.527-9.212 1.874-.003 3.749-.003 5.622-.002 5.965-.13 8.305 4.046 10.266 8.661 6.056 14.252 11.809 28.63 17.743 42.933 2.106 5.076 4.367 10.087 6.362 15.206 1.886 4.841 5.455 7.563 10.499 8.066 15.054 1.501 30.109 3.017 45.186 4.276 7.955.664 15.886 1.571 23.829 2.337 5.028.485 9.527 2.793 11.109 8.008 1.705 5.619 1.682 11.291-3.093 15.75-7.053 6.587-14.469 12.769-21.658 19.207-9.668 8.659-19.517 17.113-29.257 25.69-5.029 4.429-6.03 9.447-4.432 15.707 4.985 19.521 9.665 39.119 14.232 58.743.915 3.93 1.562 7.839-.215 11.737-3.836 8.415-13.548 9.057-20.086 5.341-17.081-9.708-33.929-19.822-50.842-29.822-1.577-.933-3.216-1.761-4.778-2.709-5.28-3.202-10.371-2.73-15.559.322-14.207 8.358-28.431 16.689-42.615 25.085-4.299 2.545-8.459 5.468-13.007 7.412-9.898 4.231-17.945 1.048-20.268-8.769-.665-2.812-.075-5.614.55-8.401 4.261-19.013 9.144-37.878 13.857-56.777 2.005-8.041.898-14.023-5.606-19.517-12.708-10.734-25.021-21.936-37.548-32.886-3.507-3.065-6.818-6.365-10.567-9.148-2.706-2.007-3.734-4.964-4.69-7.979z"/>
</svg>
