<svg xmlns="http://www.w3.org/2000/svg" viewBox="0 0 205 205" class="couple">
	<path d="M141.07 58.447c15.561 0 28.22-12.549 28.22-27.974S156.631 2.5 141.07 2.5c-15.561 0-28.221 12.549-28.221 27.973.001 15.426 12.66 27.974 28.221 27.974zM171.451 65.457l-60.692-.02-.027 93.648-.041.245h13.406v43.17h33.949v-43.171h13.406l-.001-93.872z"/>
	<path d="M63.93 58.447c15.561 0 28.22-12.549 28.22-27.974C92.149 15.049 79.49 2.5 63.93 2.5c-15.561 0-28.221 12.549-28.221 27.973 0 15.426 12.66 27.974 28.221 27.974zM94.31 65.457l-60.692-.02-.027 93.648-.041.245h13.406v43.17h33.949v-43.171H94.31V65.457z"/>
</svg>