<svg xmlns="http://www.w3.org/2000/svg" viewBox="0 0 205 205" class="mars">
	<path d="M193.862 2.516h-48.848c-4.77 0-8.636 3.74-8.636 8.354s3.866 8.356 8.636 8.356h22.671l-54.49 52.717c-11.046-6.54-24.022-10.318-37.895-10.318-40.141 0-72.8 31.594-72.8 70.432 0 38.835 32.658 70.427 72.8 70.427 40.143 0 72.801-31.592 72.801-70.427 0-16.797-6.119-32.23-16.295-44.348l53.421-51.681V61.03c0 4.614 3.866 8.356 8.636 8.356 4.769 0 8.638-3.742 8.638-8.356V10.87c-.001-4.613-3.87-8.354-8.639-8.354zM75.3 178.612c-26.535 0-48.124-20.884-48.124-46.555S48.762 85.499 75.3 85.499c26.534 0 48.122 20.887 48.122 46.558-.001 25.67-21.589 46.555-48.122 46.555z"/>
</svg>