<?xml version="1.0" encoding="iso-8859-1"?>
<!-- Generator: Adobe Illustrator 19.0.0, SVG Export Plug-In . SVG Version: 6.00 Build 0)  -->
<svg version="1.1" id="Layer_1" xmlns="http://www.w3.org/2000/svg" xmlns:xlink="http://www.w3.org/1999/xlink" x="0px" y="0px"
	 viewBox="0 0 205 205" style="enable-background:new 0 0 205 205;" xml:space="preserve">
<path d="M193.862,2.516h-48.848c-4.77,0-8.636,3.74-8.636,8.354s3.866,8.356,8.636,8.356h22.671l-54.49,52.717
	C102.149,65.403,89.173,61.625,75.3,61.625c-40.141,0-72.8,31.594-72.8,70.432c0,38.835,32.658,70.427,72.8,70.427
	c40.143,0,72.801-31.592,72.801-70.427c0-16.797-6.119-32.23-16.295-44.348l53.421-51.681V61.03c0,4.614,3.866,8.356,8.636,8.356
	c4.769,0,8.638-3.742,8.638-8.356V10.87C202.5,6.257,198.631,2.516,193.862,2.516z M75.3,178.612
	c-26.535,0-48.124-20.884-48.124-46.555c0-25.671,21.586-46.558,48.124-46.558c26.534,0,48.122,20.887,48.122,46.558
	C123.421,157.727,101.833,178.612,75.3,178.612z"/>
</svg>
