<?xml version="1.0" encoding="iso-8859-1"?>
<!-- Generator: Adobe Illustrator 19.0.0, SVG Export Plug-In . SVG Version: 6.00 Build 0)  -->
<svg version="1.1" id="Layer_1" xmlns="http://www.w3.org/2000/svg" xmlns:xlink="http://www.w3.org/1999/xlink" x="0px" y="0px"
	 viewBox="0 0 205 205" style="enable-background:new 0 0 205 205;" xml:space="preserve">
<path d="M164.653,64.453c0-34.162-27.882-61.953-62.153-61.953c-34.27,0-62.152,27.791-62.152,61.953
	c0,31.558,23.795,57.678,54.441,61.475v31.032h-19.51c-4.26,0-7.712,3.441-7.712,7.687c0,4.246,3.452,7.687,7.712,7.687h19.51
	v22.478c0,4.246,3.452,7.688,7.711,7.688c4.259,0,7.712-3.441,7.712-7.688v-22.478h19.508c4.26,0,7.713-3.441,7.713-7.687
	c0-4.246-3.453-7.687-7.713-7.687h-19.508v-31.032C140.858,122.13,164.653,96.011,164.653,64.453z M55.771,64.453
	c0-25.684,20.962-46.579,46.729-46.579c25.767,0,46.73,20.895,46.73,46.579c0,25.683-20.962,46.578-46.73,46.578
	C76.733,111.031,55.771,90.136,55.771,64.453z"/>
</svg>
