<svg xmlns="http://www.w3.org/2000/svg" viewBox="0 0 205 205" class="venus">
	<path d="M164.653 64.453c0-34.162-27.882-61.953-62.153-61.953-34.27 0-62.152 27.791-62.152 61.953 0 31.558 23.795 57.678 54.441 61.475v31.032h-19.51c-4.26 0-7.712 3.441-7.712 7.687s3.452 7.687 7.712 7.687h19.51v22.478c0 4.246 3.452 7.688 7.711 7.688s7.712-3.441 7.712-7.688v-22.478h19.508c4.26 0 7.713-3.441 7.713-7.687s-3.453-7.687-7.713-7.687h-19.508v-31.032c30.646-3.798 54.441-29.917 54.441-61.475zm-108.882 0c0-25.684 20.962-46.579 46.729-46.579s46.73 20.895 46.73 46.579c0 25.683-20.962 46.578-46.73 46.578-25.767 0-46.729-20.895-46.729-46.578z"/>
</svg>