<?xml version="1.0" encoding="iso-8859-1"?>
<!-- Generator: Adobe Illustrator 17.0.0, SVG Export Plug-In . SVG Version: 6.00 Build 0)  -->
<!DOCTYPE svg PUBLIC "-//W3C//DTD SVG 1.1//EN" "http://www.w3.org/Graphics/SVG/1.1/DTD/svg11.dtd">
<svg version="1.1" id="Layer_1" xmlns="http://www.w3.org/2000/svg" xmlns:xlink="http://www.w3.org/1999/xlink" x="0px" y="0px"
	 width="28.346px" height="42.52px" viewBox="0 0 28.346 42.52" style="enable-background:new 0 0 28.346 42.52;"
	 xml:space="preserve">
<path style="fill:#E9A9CC;" d="M21.173,28.218h-5.499v-3.276c5.633-0.739,10-5.559,10-11.391c0-6.341-5.159-11.5-11.5-11.5
	s-11.5,5.159-11.5,11.5c0,5.831,4.367,10.652,10,11.391v3.276H7.174c-0.829,0-1.5,0.671-1.5,1.5c0,0.829,0.671,1.5,1.5,1.5h5.499
	v7.75c0,0.829,0.671,1.5,1.5,1.5s1.5-0.671,1.5-1.5v-7.75h5.499c0.829,0,1.5-0.671,1.5-1.5
	C22.673,28.889,22.001,28.218,21.173,28.218z M5.673,13.552c0-4.687,3.813-8.5,8.5-8.5s8.5,3.813,8.5,8.5s-3.813,8.5-8.5,8.5
	S5.673,18.239,5.673,13.552z"/>
</svg>
