<?xml version="1.0" encoding="utf-8"?>
<!-- Generator: Adobe Illustrator 16.0.0, SVG Export Plug-In . SVG Version: 6.00 Build 0)  -->
<!DOCTYPE svg PUBLIC "-//W3C//DTD SVG 1.1//EN" "http://www.w3.org/Graphics/SVG/1.1/DTD/svg11.dtd">
<svg version="1.1" id="Calque_1" xmlns="http://www.w3.org/2000/svg" xmlns:xlink="http://www.w3.org/1999/xlink" x="0px" y="0px"
	 width="137px" height="43.25px" viewBox="0 0 137 43.25" enable-background="new 0 0 137 43.25" xml:space="preserve">
<g>
	<path fill="#FFFFFF" d="M12.959,35.819c-0.066,0.336-0.163,0.635-0.291,0.896c-0.128,0.262-0.264,0.48-0.409,0.654
		c-0.22,0.265-0.454,0.45-0.704,0.555s-0.506,0.16-0.769,0.166s-0.529-0.026-0.797-0.094c-0.269-0.068-0.532-0.146-0.79-0.232
		c-0.077,0.301-0.182,0.588-0.314,0.862c-0.133,0.273-0.299,0.53-0.498,0.771c-0.259,0.313-0.554,0.567-0.884,0.763
		c-0.33,0.196-0.682,0.314-1.055,0.354s-0.763-0.005-1.169-0.136s-0.814-0.366-1.223-0.706c-0.439-0.364-0.827-0.782-1.164-1.254
		c-0.336-0.472-0.615-0.975-0.834-1.51c-0.219-0.534-0.375-1.087-0.467-1.658S1.48,34.112,1.533,33.55s0.181-1.108,0.384-1.638
		c0.203-0.529,0.491-1.02,0.865-1.471c0.224-0.271,0.454-0.475,0.688-0.614c0.234-0.138,0.463-0.232,0.687-0.283
		c0.225-0.05,0.437-0.066,0.639-0.049c0.201,0.018,0.378,0.047,0.53,0.09c0.153,0.042,0.275,0.087,0.369,0.134
		s0.147,0.074,0.161,0.081l-0.146,0.268c-0.008-0.002-0.053-0.024-0.133-0.065s-0.185-0.083-0.315-0.125
		c-0.13-0.042-0.281-0.074-0.452-0.097c-0.171-0.022-0.353-0.016-0.545,0.02s-0.389,0.111-0.591,0.226
		c-0.201,0.115-0.397,0.286-0.586,0.515C2.8,30.888,2.58,31.296,2.427,31.769s-0.242,0.976-0.267,1.51
		c-0.025,0.535,0.01,1.084,0.104,1.646c0.094,0.563,0.244,1.111,0.449,1.644c0.206,0.533,0.463,1.032,0.772,1.497
		c0.31,0.465,0.668,0.866,1.074,1.202c0.358,0.297,0.708,0.506,1.051,0.628s0.668,0.172,0.978,0.152
		c0.309-0.021,0.597-0.106,0.864-0.257c0.268-0.151,0.505-0.352,0.711-0.602c0.182-0.219,0.334-0.458,0.456-0.714
		s0.218-0.526,0.289-0.808c-0.191-0.063-0.377-0.119-0.557-0.168c-0.179-0.05-0.349-0.079-0.51-0.087
		c-0.16-0.009-0.308,0.009-0.442,0.052s-0.253,0.126-0.355,0.25c-0.072,0.087-0.133,0.175-0.183,0.263
		c-0.05,0.088-0.09,0.169-0.121,0.242c-0.031,0.074-0.061,0.156-0.091,0.248l-0.292-0.089c0.002-0.008,0.015-0.043,0.038-0.105
		s0.057-0.139,0.099-0.23c0.043-0.091,0.097-0.193,0.161-0.304s0.142-0.221,0.231-0.33c0.157-0.189,0.321-0.33,0.493-0.42
		s0.348-0.146,0.528-0.164c0.18-0.018,0.364-0.009,0.552,0.028s0.379,0.084,0.573,0.144c0.036-0.331,0.042-0.668,0.018-1.013
		c-0.024-0.344-0.073-0.686-0.148-1.024c-0.074-0.338-0.175-0.67-0.301-0.996c-0.126-0.325-0.272-0.635-0.439-0.93
		c-0.166-0.295-0.351-0.569-0.555-0.822s-0.425-0.478-0.662-0.675c-0.259-0.214-0.528-0.382-0.809-0.502
		c-0.28-0.121-0.554-0.19-0.821-0.208s-0.518,0.019-0.753,0.11c-0.236,0.091-0.441,0.242-0.615,0.453
		c-0.18,0.216-0.306,0.467-0.379,0.751s-0.089,0.576-0.049,0.876c0.041,0.3,0.139,0.595,0.297,0.886
		c0.158,0.29,0.375,0.55,0.651,0.779c0.259,0.215,0.552,0.366,0.879,0.455c0.327,0.089,0.674,0.084,1.039-0.014l0.06,0.24
		c-0.16,0.096-0.337,0.17-0.53,0.223s-0.394,0.075-0.6,0.066c-0.206-0.009-0.415-0.051-0.625-0.127
		c-0.211-0.076-0.416-0.196-0.614-0.361c-0.328-0.271-0.576-0.577-0.745-0.915s-0.266-0.685-0.291-1.04s0.018-0.706,0.128-1.05
		c0.111-0.345,0.282-0.657,0.514-0.937c0.214-0.258,0.459-0.446,0.736-0.562c0.276-0.116,0.566-0.167,0.87-0.154
		c0.303,0.013,0.612,0.086,0.925,0.219c0.313,0.133,0.616,0.32,0.908,0.562c0.247,0.205,0.479,0.442,0.697,0.711
		c0.218,0.27,0.416,0.561,0.594,0.873c0.177,0.313,0.333,0.641,0.466,0.984c0.133,0.344,0.24,0.697,0.32,1.061
		c0.08,0.363,0.132,0.729,0.156,1.096c0.025,0.368,0.015,0.729-0.03,1.083c0.164,0.06,0.328,0.117,0.493,0.173
		c0.165,0.055,0.329,0.102,0.492,0.141c0.163,0.039,0.325,0.063,0.485,0.071c0.16,0.008,0.317-0.006,0.47-0.044
		c0.153-0.038,0.304-0.104,0.454-0.199s0.294-0.226,0.434-0.394c0.1-0.12,0.183-0.244,0.25-0.371
		c0.067-0.127,0.12-0.242,0.157-0.345c0.038-0.104,0.071-0.222,0.1-0.355L12.959,35.819z"/>
	<path fill="#FFFFFF" d="M12.033,31.594c0.023,0.276,0.035,0.54,0.037,0.79s-0.013,0.481-0.046,0.694
		c-0.033,0.213-0.084,0.406-0.154,0.579c-0.07,0.172-0.167,0.321-0.291,0.446c-0.105,0.105-0.218,0.182-0.339,0.229
		c-0.122,0.047-0.247,0.068-0.377,0.063c-0.129-0.005-0.26-0.04-0.392-0.104c-0.131-0.065-0.258-0.158-0.38-0.279
		c-0.191-0.19-0.345-0.428-0.463-0.714s-0.208-0.588-0.271-0.907c-0.063-0.319-0.102-0.642-0.118-0.969
		c-0.016-0.327-0.02-0.627-0.012-0.901l0.302-0.055c0.047,0.246,0.103,0.522,0.166,0.83c0.063,0.308,0.139,0.615,0.228,0.921
		c0.089,0.307,0.195,0.596,0.319,0.868c0.124,0.271,0.27,0.492,0.438,0.66c0.114,0.113,0.232,0.188,0.355,0.225
		s0.245-0.005,0.366-0.127c0.132-0.133,0.225-0.331,0.278-0.595c0.053-0.264,0.079-0.563,0.077-0.899s-0.026-0.693-0.071-1.071
		c-0.045-0.378-0.101-0.75-0.168-1.114c-0.067-0.365-0.138-0.706-0.212-1.025c-0.074-0.319-0.141-0.586-0.203-0.801l0.451-0.154
		c0.156,0.475,0.296,0.922,0.422,1.341c0.125,0.419,0.239,0.795,0.342,1.126c0.103,0.332,0.201,0.611,0.294,0.838
		c0.093,0.228,0.187,0.389,0.281,0.482c0.039,0.039,0.079,0.062,0.12,0.07c0.042,0.008,0.08-0.005,0.116-0.042
		c0.105-0.1,0.173-0.256,0.204-0.471s0.041-0.453,0.027-0.717c-0.013-0.264-0.042-0.538-0.086-0.822s-0.091-0.547-0.139-0.787
		l0.265-0.034c0.011,0.044,0.033,0.135,0.067,0.273c0.033,0.138,0.067,0.301,0.101,0.489c0.034,0.188,0.062,0.392,0.084,0.613
		c0.023,0.221,0.029,0.437,0.02,0.648c-0.009,0.211-0.04,0.409-0.094,0.593s-0.138,0.334-0.254,0.45
		c-0.072,0.072-0.148,0.124-0.229,0.156s-0.162,0.047-0.242,0.044c-0.08-0.002-0.159-0.02-0.236-0.053
		c-0.078-0.033-0.146-0.08-0.208-0.141c-0.072-0.071-0.139-0.162-0.202-0.271S12.086,31.735,12.033,31.594z"/>
	<path fill="#FFFFFF" d="M14.025,29.565c0.025,0.041,0.052,0.08,0.081,0.117s0.058,0.074,0.089,0.109
		c0.094,0.105,0.198,0.191,0.313,0.259c0.115,0.068,0.234,0.111,0.357,0.129c0.124,0.019,0.248,0.008,0.373-0.03
		c0.125-0.039,0.245-0.108,0.359-0.209c0.382-0.34,0.636-0.798,0.761-1.375c0.125-0.576,0.114-1.303-0.034-2.181l0.266-0.001
		c0.093,0.492,0.138,0.937,0.136,1.334s-0.041,0.751-0.116,1.064s-0.18,0.583-0.315,0.813s-0.289,0.422-0.461,0.575
		c-0.125,0.112-0.274,0.212-0.445,0.302c-0.171,0.09-0.353,0.146-0.543,0.169c-0.191,0.023-0.386,0.001-0.585-0.067
		c-0.2-0.068-0.39-0.205-0.572-0.409c-0.195-0.219-0.345-0.463-0.451-0.732s-0.177-0.544-0.213-0.826s-0.041-0.563-0.015-0.846
		c0.026-0.282,0.073-0.545,0.142-0.789c0.068-0.244,0.153-0.461,0.254-0.653s0.21-0.339,0.327-0.443
		c0.076-0.067,0.164-0.125,0.263-0.171c0.1-0.047,0.203-0.073,0.31-0.08c0.107-0.006,0.216,0.014,0.328,0.061
		c0.112,0.046,0.219,0.127,0.32,0.241c0.138,0.155,0.231,0.332,0.28,0.531c0.049,0.2,0.065,0.41,0.048,0.632
		s-0.063,0.449-0.14,0.681c-0.076,0.232-0.171,0.457-0.286,0.674s-0.244,0.423-0.385,0.617
		C14.328,29.254,14.18,29.423,14.025,29.565z M13.893,29.346c0.177-0.194,0.325-0.398,0.443-0.613
		c0.118-0.214,0.208-0.43,0.272-0.646c0.064-0.216,0.105-0.427,0.125-0.632c0.019-0.205,0.018-0.395-0.002-0.571
		c-0.02-0.175-0.054-0.331-0.102-0.466c-0.047-0.136-0.106-0.243-0.176-0.322c-0.07-0.079-0.147-0.123-0.23-0.132
		c-0.084-0.009-0.155,0.012-0.213,0.064c-0.129,0.114-0.232,0.289-0.311,0.523c-0.079,0.234-0.126,0.504-0.143,0.809
		c-0.016,0.305,0.002,0.629,0.055,0.974C13.663,28.681,13.757,29.018,13.893,29.346z"/>
	<path fill="#FFFFFF" d="M21.552,22.31c-0.131-0.074-0.253-0.161-0.367-0.262c-0.114-0.101-0.218-0.216-0.312-0.346
		c-0.122-0.167-0.209-0.32-0.263-0.457c-0.053-0.137-0.084-0.258-0.091-0.361c-0.007-0.104,0.003-0.19,0.033-0.259
		s0.068-0.121,0.115-0.156c0.041-0.03,0.086-0.049,0.135-0.058c0.049-0.009,0.103-0.003,0.161,0.018
		c0.059,0.021,0.12,0.058,0.186,0.111c0.066,0.054,0.134,0.13,0.205,0.228c0.165,0.228,0.29,0.495,0.374,0.8
		s0.132,0.625,0.145,0.958c0.012,0.334-0.007,0.671-0.059,1.013c-0.052,0.341-0.127,0.664-0.226,0.966
		c-0.027,0.083-0.062,0.174-0.103,0.273s-0.089,0.2-0.145,0.3s-0.118,0.196-0.189,0.289c-0.07,0.092-0.148,0.169-0.234,0.231
		c-0.212,0.154-0.443,0.199-0.693,0.137c-0.25-0.062-0.479-0.237-0.688-0.525c-0.096-0.133-0.18-0.289-0.252-0.468
		c-0.072-0.179-0.132-0.373-0.182-0.581c-0.049-0.208-0.088-0.424-0.116-0.65c-0.028-0.226-0.046-0.448-0.053-0.667
		c-0.007-0.219-0.004-0.433,0.01-0.641c0.014-0.208,0.037-0.398,0.071-0.572l0.308-0.014c0.019,0.412,0.056,0.795,0.112,1.153
		s0.124,0.683,0.205,0.977c0.08,0.294,0.168,0.552,0.264,0.774c0.096,0.222,0.194,0.403,0.295,0.542
		c0.117,0.162,0.221,0.261,0.313,0.298c0.092,0.037,0.177,0.027,0.256-0.03c0.076-0.055,0.161-0.159,0.255-0.312
		c0.095-0.153,0.186-0.355,0.273-0.607c0.11-0.321,0.188-0.664,0.236-1.028C21.578,23.02,21.585,22.662,21.552,22.31z
		 M21.532,21.962c-0.04-0.188-0.097-0.372-0.172-0.552s-0.162-0.338-0.26-0.474c-0.068-0.095-0.125-0.157-0.171-0.187
		c-0.045-0.03-0.075-0.044-0.089-0.044c-0.003,0.002-0.009,0.021-0.018,0.056s-0.008,0.087,0,0.155s0.034,0.154,0.077,0.255
		c0.042,0.102,0.113,0.221,0.211,0.357c0.057,0.079,0.124,0.159,0.199,0.24S21.458,21.915,21.532,21.962z"/>
	<path fill="#FFFFFF" d="M25.557,20.432c0.016-0.005,0.03-0.012,0.043-0.02c0.013-0.009,0.028-0.018,0.044-0.029
		c0.092-0.059,0.17-0.122,0.234-0.188c0.064-0.067,0.115-0.141,0.154-0.221c0.039-0.081,0.067-0.172,0.085-0.274
		c0.018-0.102,0.025-0.217,0.022-0.345l0.266,0.024c-0.014,0.325-0.076,0.585-0.187,0.782c-0.11,0.196-0.259,0.354-0.446,0.475
		c-0.069,0.044-0.134,0.077-0.195,0.098c0.011,0.328-0.011,0.626-0.065,0.896c-0.054,0.269-0.131,0.51-0.231,0.723
		c-0.1,0.213-0.217,0.396-0.35,0.549c-0.134,0.153-0.271,0.275-0.413,0.366c-0.145,0.093-0.294,0.154-0.451,0.182
		c-0.156,0.028-0.309,0.023-0.459-0.015c-0.15-0.039-0.292-0.107-0.425-0.207s-0.254-0.232-0.359-0.396
		c-0.106-0.164-0.187-0.349-0.245-0.553c-0.057-0.205-0.095-0.42-0.112-0.646c-0.018-0.226-0.016-0.456,0.005-0.69
		s0.059-0.464,0.114-0.69c0.055-0.225,0.123-0.441,0.204-0.646c0.081-0.206,0.175-0.392,0.282-0.558l0.291,0.105
		c-0.094,0.237-0.169,0.508-0.225,0.813c-0.057,0.306-0.085,0.619-0.085,0.94s0.031,0.634,0.095,0.938
		c0.063,0.305,0.169,0.573,0.317,0.802c0.133,0.207,0.282,0.338,0.447,0.392c0.165,0.054,0.341,0.021,0.528-0.1
		c0.145-0.093,0.268-0.214,0.372-0.364c0.103-0.15,0.189-0.319,0.258-0.508c0.069-0.188,0.122-0.393,0.157-0.613
		c0.035-0.22,0.058-0.445,0.068-0.674c-0.131,0.006-0.263-0.015-0.396-0.063c-0.133-0.047-0.262-0.115-0.389-0.203
		c-0.126-0.088-0.246-0.193-0.359-0.315c-0.114-0.122-0.217-0.255-0.31-0.4c-0.093-0.145-0.163-0.292-0.209-0.444
		c-0.046-0.151-0.069-0.296-0.067-0.434c0.001-0.138,0.027-0.263,0.077-0.374c0.05-0.111,0.125-0.199,0.227-0.265
		c0.092-0.059,0.189-0.088,0.292-0.087s0.206,0.028,0.309,0.08c0.103,0.052,0.205,0.127,0.305,0.225
		c0.1,0.098,0.192,0.213,0.277,0.344c0.063,0.099,0.125,0.212,0.185,0.341c0.06,0.129,0.113,0.264,0.159,0.403
		c0.046,0.14,0.084,0.283,0.115,0.428S25.557,20.302,25.557,20.432z M24.097,19.636c0.062,0.096,0.136,0.194,0.225,0.295
		s0.184,0.192,0.288,0.274c0.104,0.082,0.212,0.15,0.327,0.205c0.114,0.054,0.229,0.082,0.345,0.081
		c-0.015-0.153-0.041-0.303-0.077-0.449c-0.036-0.146-0.076-0.284-0.12-0.414c-0.044-0.13-0.091-0.247-0.142-0.351
		s-0.1-0.193-0.146-0.265c-0.063-0.098-0.13-0.184-0.199-0.255c-0.069-0.072-0.137-0.129-0.205-0.172
		c-0.067-0.042-0.132-0.068-0.195-0.076c-0.063-0.008-0.12,0.004-0.168,0.036c-0.066,0.042-0.112,0.104-0.14,0.184
		s-0.037,0.17-0.029,0.27c0.008,0.099,0.033,0.204,0.074,0.314C23.976,19.423,24.03,19.531,24.097,19.636z"/>
	<path fill="#FFFFFF" d="M28.971,18.798c-0.054,0.272-0.114,0.528-0.181,0.769c-0.066,0.241-0.145,0.459-0.235,0.655
		c-0.09,0.196-0.192,0.367-0.307,0.514s-0.249,0.263-0.402,0.349c-0.129,0.072-0.259,0.115-0.389,0.126
		c-0.13,0.012-0.256-0.002-0.38-0.043c-0.124-0.041-0.239-0.11-0.348-0.208c-0.108-0.098-0.205-0.223-0.289-0.373
		c-0.131-0.235-0.214-0.506-0.25-0.813c-0.035-0.307-0.039-0.623-0.012-0.947c0.027-0.324,0.078-0.645,0.152-0.964
		c0.075-0.319,0.153-0.609,0.236-0.87l0.306,0.031c-0.022,0.249-0.045,0.53-0.069,0.844c-0.024,0.313-0.036,0.629-0.034,0.948
		c0.001,0.319,0.024,0.626,0.068,0.922c0.044,0.295,0.125,0.547,0.241,0.755c0.078,0.14,0.171,0.244,0.279,0.313
		c0.108,0.07,0.237,0.063,0.387-0.021c0.164-0.091,0.307-0.256,0.431-0.496c0.124-0.239,0.23-0.521,0.321-0.844
		c0.09-0.323,0.166-0.673,0.226-1.049c0.061-0.376,0.108-0.749,0.144-1.117c0.036-0.369,0.062-0.717,0.078-1.044
		c0.017-0.327,0.025-0.602,0.025-0.826l0.476-0.024c0.02,0.5,0.032,0.968,0.037,1.406c0.005,0.438,0.012,0.83,0.02,1.177
		c0.008,0.347,0.025,0.643,0.052,0.887s0.073,0.425,0.138,0.541c0.027,0.048,0.059,0.081,0.096,0.101
		c0.038,0.019,0.079,0.017,0.123-0.008c0.128-0.067,0.237-0.199,0.326-0.396s0.163-0.425,0.223-0.682
		c0.06-0.257,0.107-0.529,0.143-0.814c0.035-0.286,0.063-0.551,0.083-0.795l0.264,0.041c-0.001,0.045-0.005,0.139-0.011,0.281
		c-0.006,0.142-0.019,0.308-0.038,0.497c-0.02,0.19-0.048,0.394-0.087,0.613s-0.092,0.428-0.159,0.629
		c-0.067,0.201-0.151,0.382-0.253,0.544c-0.102,0.162-0.225,0.283-0.368,0.363c-0.089,0.049-0.177,0.079-0.264,0.087
		s-0.168,0-0.245-0.024c-0.076-0.024-0.147-0.063-0.212-0.116c-0.065-0.053-0.119-0.117-0.161-0.192
		c-0.05-0.089-0.089-0.194-0.12-0.316C29.004,19.084,28.983,18.948,28.971,18.798z"/>
	<path fill="#FFFFFF" d="M31.305,13.968c-0.01,0.05-0.017,0.106-0.02,0.166c-0.003,0.061,0.001,0.127,0.012,0.199
		c0.012,0.073,0.039,0.153,0.082,0.241c0.036,0.074,0.103,0.165,0.202,0.273s0.209,0.234,0.331,0.376
		c0.122,0.143,0.248,0.301,0.378,0.474s0.245,0.362,0.344,0.565c0.146,0.298,0.234,0.581,0.265,0.849s0.019,0.515-0.036,0.741
		c0.202-0.281,0.367-0.624,0.496-1.028c0.129-0.404,0.223-0.883,0.282-1.438l0.256,0.07c-0.029,0.323-0.08,0.653-0.152,0.991
		s-0.175,0.659-0.308,0.965c-0.133,0.306-0.302,0.584-0.506,0.834c-0.204,0.25-0.454,0.446-0.748,0.59
		c-0.264,0.128-0.516,0.175-0.757,0.138c-0.242-0.036-0.444-0.168-0.608-0.397l0.171-0.13c0.01,0.021,0.037,0.051,0.079,0.089
		c0.042,0.038,0.096,0.069,0.161,0.094c0.064,0.025,0.141,0.038,0.23,0.038c0.089,0,0.187-0.026,0.292-0.077
		c0.141-0.068,0.25-0.162,0.326-0.28c0.077-0.118,0.13-0.25,0.16-0.395c0.029-0.145,0.039-0.298,0.029-0.461
		s-0.033-0.324-0.07-0.484c-0.037-0.16-0.082-0.313-0.134-0.456c-0.053-0.144-0.107-0.271-0.162-0.384
		c-0.055-0.112-0.12-0.234-0.196-0.367s-0.149-0.259-0.221-0.378c-0.071-0.12-0.134-0.224-0.188-0.313
		c-0.054-0.088-0.088-0.147-0.102-0.175l-0.005-0.01c-0.021,0.071-0.041,0.17-0.058,0.295c-0.017,0.125-0.034,0.262-0.051,0.41
		s-0.033,0.297-0.048,0.448c-0.016,0.151-0.029,0.288-0.041,0.411s-0.021,0.224-0.028,0.304c-0.007,0.079-0.009,0.121-0.008,0.124
		l-0.261-0.055c0.001-0.005,0.009-0.102,0.021-0.291s0.032-0.43,0.06-0.724c0.028-0.294,0.063-0.622,0.104-0.983
		s0.091-0.717,0.15-1.068l0.295,0.071C31.321,13.872,31.315,13.917,31.305,13.968z"/>
	<path fill="#FFFFFF" d="M40.381,12.816c-0.024,0.101-0.047,0.234-0.07,0.4c-0.022,0.166-0.053,0.346-0.091,0.542
		c-0.038,0.196-0.085,0.399-0.141,0.609c-0.056,0.209-0.129,0.407-0.22,0.592s-0.202,0.351-0.334,0.497
		c-0.132,0.147-0.291,0.256-0.478,0.327c-0.102,0.039-0.205,0.061-0.308,0.064c-0.103,0.004-0.202-0.014-0.296-0.053
		c-0.094-0.039-0.18-0.099-0.257-0.181c-0.077-0.082-0.141-0.188-0.19-0.319c-0.068-0.179-0.104-0.379-0.107-0.602
		c-0.003-0.223,0.008-0.443,0.033-0.662c0.025-0.218,0.057-0.421,0.094-0.609c0.037-0.188,0.06-0.335,0.069-0.443
		c0.009-0.108,0.001-0.195-0.024-0.26c-0.018-0.047-0.049-0.083-0.094-0.108c-0.045-0.024-0.097-0.045-0.156-0.063
		c-0.059-0.017-0.12-0.036-0.184-0.055s-0.123-0.05-0.177-0.092c-0.035,0.181-0.072,0.364-0.11,0.55
		c-0.035,0.16-0.072,0.338-0.11,0.534s-0.073,0.389-0.106,0.577l-0.255-0.078L37.34,11.7l0.19,0.021
		c0.001,0.024,0.002,0.064,0.004,0.118c0.001,0.054,0.013,0.108,0.034,0.163c0.015,0.04,0.037,0.077,0.064,0.11
		c0.027,0.033,0.067,0.059,0.12,0.077c0.196,0.076,0.35,0.133,0.461,0.172c0.111,0.04,0.194,0.073,0.248,0.1
		s0.091,0.053,0.111,0.077s0.038,0.058,0.055,0.102c0.017,0.044,0.029,0.1,0.039,0.167c0.009,0.068,0.013,0.152,0.012,0.253
		c-0.001,0.101-0.009,0.222-0.024,0.363s-0.038,0.309-0.069,0.5c-0.019,0.116-0.036,0.232-0.052,0.349
		c-0.016,0.117-0.026,0.233-0.03,0.347c-0.004,0.115-0.001,0.226,0.011,0.334s0.036,0.208,0.07,0.299
		c0.026,0.069,0.058,0.121,0.094,0.155s0.075,0.056,0.116,0.065c0.041,0.009,0.082,0.011,0.124,0.003
		c0.041-0.007,0.08-0.018,0.116-0.032c0.121-0.046,0.227-0.127,0.318-0.243c0.091-0.117,0.173-0.253,0.245-0.41
		c0.072-0.157,0.134-0.328,0.187-0.514c0.053-0.185,0.1-0.371,0.141-0.559c0.042-0.187,0.078-0.365,0.11-0.534
		s0.061-0.317,0.087-0.444L40.381,12.816z"/>
	<path fill="#FFFFFF" d="M40.796,13.403c0.007,0.047,0.016,0.093,0.026,0.139s0.023,0.091,0.038,0.136
		c0.043,0.134,0.104,0.254,0.182,0.363c0.079,0.108,0.17,0.195,0.276,0.261c0.106,0.066,0.224,0.107,0.354,0.123
		s0.268-0.001,0.413-0.048c0.487-0.158,0.903-0.476,1.249-0.954c0.346-0.478,0.627-1.148,0.844-2.011l0.244,0.105
		c-0.113,0.488-0.25,0.914-0.411,1.276c-0.162,0.362-0.339,0.672-0.534,0.928c-0.194,0.256-0.399,0.462-0.615,0.619
		c-0.216,0.157-0.434,0.271-0.653,0.341c-0.16,0.052-0.336,0.084-0.529,0.098c-0.192,0.013-0.381-0.008-0.565-0.063
		s-0.354-0.154-0.509-0.297c-0.155-0.143-0.275-0.344-0.359-0.604c-0.09-0.279-0.13-0.563-0.119-0.852
		c0.011-0.289,0.056-0.569,0.136-0.842s0.188-0.533,0.326-0.78c0.137-0.248,0.286-0.47,0.446-0.666s0.325-0.361,0.495-0.497
		c0.169-0.135,0.329-0.227,0.477-0.275c0.097-0.031,0.2-0.048,0.31-0.051s0.215,0.014,0.315,0.051
		c0.101,0.038,0.192,0.1,0.276,0.188c0.084,0.088,0.149,0.204,0.197,0.349c0.064,0.197,0.078,0.396,0.043,0.599
		c-0.035,0.203-0.105,0.402-0.209,0.598c-0.105,0.196-0.238,0.385-0.401,0.567s-0.34,0.35-0.533,0.502
		c-0.192,0.153-0.393,0.29-0.6,0.411C41.198,13.24,40.995,13.334,40.796,13.403z M40.762,13.149
		c0.241-0.107,0.458-0.235,0.652-0.384c0.194-0.149,0.363-0.31,0.509-0.482c0.145-0.172,0.268-0.349,0.367-0.529
		s0.175-0.354,0.228-0.523c0.052-0.169,0.083-0.325,0.094-0.468c0.011-0.143,0-0.265-0.032-0.365
		c-0.033-0.1-0.085-0.171-0.159-0.213s-0.147-0.051-0.221-0.027c-0.164,0.053-0.329,0.171-0.495,0.355
		c-0.167,0.183-0.318,0.411-0.456,0.684c-0.138,0.272-0.251,0.578-0.341,0.915C40.819,12.447,40.77,12.793,40.762,13.149z
		 M41.838,9.196l-0.385,0.125l0.641-1.403l0.697-0.226L41.838,9.196z"/>
	<path fill="#FFFFFF" d="M45.346,8.725c-0.02,0.048-0.037,0.101-0.051,0.16c-0.015,0.059-0.023,0.125-0.025,0.198
		c-0.002,0.073,0.009,0.157,0.035,0.251c0.021,0.079,0.07,0.181,0.146,0.306c0.077,0.125,0.161,0.269,0.254,0.432
		c0.092,0.163,0.187,0.342,0.282,0.537s0.172,0.401,0.231,0.62c0.087,0.32,0.12,0.615,0.1,0.884s-0.079,0.509-0.175,0.721
		c0.251-0.238,0.479-0.543,0.681-0.916s0.385-0.826,0.548-1.359l0.238,0.118c-0.089,0.312-0.202,0.626-0.336,0.944
		c-0.134,0.318-0.296,0.614-0.484,0.89c-0.188,0.275-0.406,0.517-0.654,0.723c-0.248,0.207-0.53,0.353-0.846,0.438
		c-0.283,0.077-0.54,0.074-0.77-0.007c-0.23-0.081-0.404-0.25-0.522-0.505l0.193-0.095c0.006,0.022,0.026,0.057,0.061,0.102
		c0.035,0.045,0.081,0.086,0.14,0.123c0.058,0.037,0.131,0.064,0.219,0.081s0.188,0.01,0.301-0.021
		c0.151-0.041,0.275-0.112,0.374-0.213c0.098-0.102,0.175-0.221,0.231-0.357c0.056-0.137,0.095-0.286,0.116-0.447
		s0.029-0.324,0.022-0.489c-0.006-0.164-0.021-0.322-0.046-0.473c-0.025-0.151-0.053-0.287-0.086-0.408s-0.074-0.253-0.123-0.397
		s-0.098-0.282-0.145-0.413s-0.089-0.245-0.126-0.342s-0.059-0.161-0.067-0.191l-0.003-0.011c-0.035,0.066-0.072,0.159-0.113,0.279
		c-0.04,0.12-0.083,0.251-0.127,0.393s-0.089,0.285-0.132,0.431c-0.043,0.145-0.083,0.277-0.118,0.396s-0.063,0.216-0.084,0.293
		c-0.021,0.077-0.032,0.117-0.031,0.121l-0.247-0.104c0.002-0.004,0.028-0.099,0.076-0.281c0.047-0.183,0.113-0.416,0.196-0.7
		c0.083-0.283,0.179-0.599,0.288-0.946c0.108-0.347,0.225-0.687,0.349-1.02l0.277,0.125C45.38,8.634,45.366,8.678,45.346,8.725z"/>
	<path fill="#FFFFFF" d="M47.975,11.285c0.002,0.048,0.006,0.095,0.013,0.141c0.006,0.047,0.014,0.093,0.024,0.139
		c0.03,0.138,0.079,0.264,0.146,0.379c0.067,0.116,0.15,0.211,0.249,0.288c0.099,0.077,0.212,0.129,0.34,0.157
		c0.128,0.028,0.266,0.026,0.415-0.007c0.5-0.109,0.946-0.384,1.337-0.826c0.392-0.441,0.737-1.081,1.039-1.918l0.232,0.129
		c-0.16,0.475-0.338,0.885-0.535,1.229c-0.196,0.345-0.404,0.635-0.622,0.871c-0.219,0.236-0.443,0.42-0.674,0.555
		c-0.23,0.134-0.458,0.226-0.684,0.275c-0.164,0.036-0.342,0.051-0.536,0.045s-0.379-0.045-0.557-0.118
		c-0.178-0.073-0.337-0.188-0.478-0.346c-0.14-0.157-0.239-0.37-0.298-0.637c-0.063-0.286-0.074-0.572-0.035-0.859
		c0.039-0.287,0.112-0.562,0.219-0.825c0.106-0.263,0.24-0.511,0.401-0.744c0.161-0.233,0.331-0.439,0.51-0.618
		s0.359-0.328,0.542-0.445s0.35-0.193,0.502-0.227c0.099-0.022,0.204-0.029,0.313-0.021c0.11,0.008,0.213,0.036,0.309,0.083
		S50.33,8.104,50.404,8.2c0.075,0.095,0.129,0.218,0.161,0.366c0.044,0.203,0.039,0.402-0.016,0.601
		c-0.055,0.198-0.144,0.389-0.268,0.574s-0.275,0.36-0.455,0.525c-0.18,0.166-0.374,0.314-0.58,0.448
		c-0.207,0.133-0.419,0.25-0.638,0.349C48.392,11.162,48.18,11.236,47.975,11.285z M47.967,11.029
		c0.25-0.083,0.479-0.188,0.686-0.318s0.392-0.272,0.554-0.43c0.162-0.157,0.301-0.32,0.418-0.49
		c0.117-0.17,0.209-0.336,0.278-0.499c0.068-0.163,0.115-0.315,0.14-0.457c0.025-0.142,0.026-0.264,0.004-0.367
		s-0.068-0.179-0.137-0.228c-0.068-0.049-0.141-0.065-0.217-0.048c-0.168,0.037-0.344,0.138-0.527,0.304
		c-0.184,0.167-0.357,0.378-0.521,0.636c-0.164,0.258-0.307,0.55-0.429,0.876S48.01,10.676,47.967,11.029z"/>
	<path fill="#FFFFFF" d="M55.219,9.202c-0.043,0.095-0.093,0.221-0.148,0.378c-0.055,0.158-0.121,0.329-0.197,0.514
		c-0.076,0.185-0.163,0.375-0.259,0.568c-0.097,0.194-0.208,0.373-0.333,0.537c-0.125,0.163-0.267,0.304-0.426,0.421
		c-0.159,0.118-0.336,0.193-0.533,0.225c-0.108,0.018-0.213,0.019-0.314,0.002c-0.102-0.017-0.195-0.054-0.28-0.111
		c-0.085-0.057-0.157-0.133-0.216-0.229s-0.101-0.212-0.124-0.351c-0.031-0.189-0.026-0.393,0.014-0.611
		c0.041-0.219,0.096-0.433,0.164-0.642c0.068-0.209,0.139-0.402,0.213-0.579c0.074-0.176,0.125-0.317,0.156-0.421
		s0.04-0.191,0.028-0.26c-0.008-0.05-0.032-0.091-0.071-0.125s-0.086-0.064-0.14-0.093c-0.054-0.028-0.111-0.059-0.169-0.09
		c-0.059-0.032-0.11-0.074-0.155-0.126c-0.071,0.17-0.143,0.343-0.217,0.517c-0.066,0.15-0.138,0.317-0.214,0.502
		c-0.076,0.185-0.149,0.366-0.218,0.544l-0.235-0.127l0.915-2.142l0.182,0.059c-0.004,0.024-0.01,0.063-0.02,0.116
		c-0.009,0.053-0.008,0.108,0.001,0.167c0.007,0.042,0.021,0.083,0.041,0.121c0.02,0.039,0.054,0.071,0.103,0.099
		c0.177,0.113,0.316,0.2,0.417,0.26c0.101,0.06,0.175,0.109,0.223,0.147s0.079,0.07,0.094,0.097c0.014,0.027,0.025,0.064,0.033,0.11
		c0.007,0.046,0.009,0.104,0.004,0.171c-0.004,0.068-0.018,0.151-0.039,0.25c-0.021,0.099-0.053,0.216-0.096,0.352
		c-0.042,0.136-0.099,0.294-0.167,0.476c-0.041,0.11-0.081,0.221-0.12,0.332c-0.039,0.111-0.072,0.223-0.099,0.334
		c-0.027,0.112-0.045,0.222-0.055,0.33s-0.006,0.211,0.009,0.307c0.012,0.073,0.033,0.13,0.062,0.171
		c0.028,0.041,0.062,0.07,0.101,0.087c0.038,0.018,0.079,0.027,0.12,0.028c0.042,0.001,0.082-0.002,0.121-0.008
		c0.127-0.021,0.247-0.08,0.36-0.176c0.113-0.096,0.22-0.213,0.321-0.353s0.197-0.295,0.285-0.466
		c0.088-0.171,0.171-0.344,0.249-0.52c0.078-0.175,0.149-0.342,0.214-0.501c0.064-0.16,0.123-0.299,0.174-0.418L55.219,9.202z"/>
	<path fill="#FFFFFF" d="M58.038,8.655c-0.078-0.129-0.142-0.265-0.192-0.409c-0.05-0.144-0.084-0.295-0.103-0.454
		c-0.024-0.206-0.025-0.381-0.005-0.527c0.021-0.146,0.053-0.266,0.097-0.359c0.044-0.094,0.096-0.164,0.156-0.21
		c0.06-0.046,0.118-0.073,0.176-0.079c0.05-0.006,0.099-0.001,0.146,0.015c0.047,0.017,0.091,0.048,0.132,0.094
		c0.041,0.046,0.076,0.109,0.107,0.188s0.053,0.179,0.067,0.299c0.032,0.28,0.01,0.573-0.066,0.881
		C58.477,8.401,58.362,8.704,58.21,9s-0.335,0.582-0.547,0.854c-0.212,0.272-0.436,0.517-0.67,0.732
		c-0.064,0.058-0.138,0.121-0.223,0.188c-0.085,0.066-0.176,0.13-0.273,0.19c-0.097,0.061-0.199,0.114-0.306,0.159
		c-0.107,0.046-0.212,0.075-0.317,0.087c-0.26,0.03-0.484-0.043-0.671-0.22s-0.302-0.442-0.342-0.795
		c-0.019-0.163-0.016-0.34,0.009-0.532c0.025-0.191,0.067-0.39,0.126-0.595c0.059-0.206,0.131-0.414,0.217-0.624
		s0.179-0.413,0.281-0.607s0.209-0.379,0.322-0.553c0.114-0.174,0.228-0.329,0.342-0.464l0.275,0.139
		c-0.186,0.368-0.341,0.721-0.467,1.06c-0.126,0.339-0.226,0.657-0.3,0.952c-0.074,0.295-0.124,0.564-0.149,0.805
		c-0.025,0.241-0.028,0.446-0.008,0.617c0.023,0.198,0.065,0.335,0.127,0.413c0.063,0.077,0.142,0.11,0.239,0.099
		c0.093-0.011,0.218-0.06,0.375-0.146c0.157-0.087,0.335-0.219,0.535-0.395c0.253-0.226,0.489-0.486,0.709-0.781
		C57.712,9.287,57.894,8.978,58.038,8.655z M58.19,8.342c0.058-0.184,0.098-0.372,0.121-0.565s0.025-0.374,0.005-0.541
		c-0.014-0.116-0.033-0.199-0.058-0.247c-0.025-0.048-0.044-0.075-0.057-0.082c-0.004,0-0.018,0.014-0.042,0.04
		s-0.05,0.072-0.076,0.136s-0.045,0.151-0.059,0.26c-0.013,0.11-0.01,0.248,0.01,0.415c0.011,0.097,0.03,0.199,0.056,0.306
		C58.116,8.172,58.149,8.264,58.19,8.342z"/>
	<path fill="#FFFFFF" d="M59.622,9.408c-0.005,0.047-0.008,0.094-0.009,0.141c-0.001,0.047,0,0.094,0.003,0.141
		c0.008,0.14,0.037,0.272,0.085,0.397c0.049,0.124,0.116,0.231,0.202,0.322c0.085,0.091,0.189,0.16,0.312,0.207
		c0.122,0.047,0.259,0.066,0.411,0.057c0.511-0.031,0.994-0.234,1.448-0.61c0.455-0.375,0.895-0.954,1.321-1.735l0.209,0.164
		c-0.231,0.444-0.471,0.822-0.718,1.132c-0.248,0.311-0.497,0.565-0.749,0.765c-0.252,0.199-0.502,0.347-0.751,0.444
		c-0.249,0.098-0.488,0.153-0.718,0.167c-0.167,0.01-0.347-0.002-0.537-0.038c-0.19-0.035-0.367-0.103-0.532-0.203
		c-0.165-0.099-0.304-0.238-0.418-0.415c-0.114-0.177-0.18-0.402-0.196-0.675C58.968,9.377,59,9.093,59.083,8.815
		c0.083-0.277,0.197-0.537,0.343-0.781c0.146-0.244,0.316-0.468,0.511-0.674c0.195-0.206,0.395-0.383,0.599-0.532
		c0.204-0.149,0.405-0.268,0.604-0.356c0.198-0.088,0.375-0.137,0.531-0.147c0.101-0.006,0.206,0.003,0.313,0.028
		c0.107,0.025,0.205,0.068,0.292,0.129s0.162,0.145,0.221,0.251c0.06,0.106,0.094,0.235,0.103,0.387
		c0.012,0.207-0.024,0.404-0.108,0.591s-0.202,0.362-0.353,0.526c-0.15,0.164-0.327,0.313-0.53,0.449s-0.417,0.253-0.642,0.353
		c-0.225,0.1-0.453,0.182-0.684,0.247C60.052,9.351,59.832,9.392,59.622,9.408z M59.653,9.154c0.26-0.043,0.502-0.113,0.727-0.208
		s0.43-0.209,0.614-0.339c0.184-0.13,0.346-0.271,0.488-0.42s0.259-0.299,0.352-0.45s0.162-0.294,0.209-0.43
		c0.046-0.136,0.066-0.256,0.06-0.362c-0.006-0.105-0.04-0.187-0.1-0.246c-0.061-0.059-0.129-0.086-0.208-0.082
		c-0.171,0.01-0.361,0.083-0.568,0.219s-0.411,0.318-0.612,0.548c-0.202,0.229-0.388,0.496-0.559,0.8
		C59.884,8.488,59.75,8.812,59.653,9.154z"/>
	<path fill="#FFFFFF" d="M71.383,2.105c0.137,0.004,0.25,0.042,0.34,0.111s0.133,0.192,0.127,0.368
		c-0.004,0.121-0.033,0.265-0.088,0.431c-0.055,0.167-0.127,0.347-0.217,0.541c-0.092,0.194-0.197,0.398-0.316,0.611
		c-0.121,0.213-0.25,0.424-0.389,0.635c-0.137,0.21-0.281,0.415-0.43,0.613s-0.297,0.381-0.443,0.548
		c-0.293,0.338-0.545,0.623-0.758,0.854s-0.396,0.428-0.549,0.588c-0.154,0.161-0.283,0.292-0.389,0.392s-0.197,0.186-0.279,0.257
		c-0.08,0.072-0.154,0.137-0.223,0.195c-0.068,0.059-0.139,0.124-0.211,0.195c-0.037,0.147-0.057,0.289-0.059,0.423
		s-0.006,0.259-0.01,0.372c-0.01,0.339,0.036,0.593,0.14,0.761c0.104,0.167,0.255,0.254,0.454,0.261
		c0.133,0.004,0.268-0.025,0.404-0.089c0.139-0.064,0.275-0.148,0.41-0.253c0.137-0.105,0.27-0.225,0.398-0.359
		c0.131-0.135,0.254-0.271,0.369-0.41c0.115-0.139,0.221-0.273,0.314-0.403c0.096-0.13,0.176-0.243,0.246-0.338l0.211,0.171
		c-0.012,0.016-0.053,0.076-0.119,0.181c-0.068,0.105-0.158,0.232-0.268,0.381c-0.111,0.149-0.242,0.308-0.391,0.477
		c-0.15,0.169-0.313,0.325-0.484,0.468c-0.174,0.143-0.354,0.26-0.543,0.352s-0.379,0.134-0.57,0.128
		c-0.16-0.005-0.313-0.041-0.456-0.106c-0.145-0.065-0.271-0.165-0.378-0.3c-0.106-0.134-0.191-0.304-0.252-0.509
		c-0.062-0.206-0.088-0.451-0.078-0.735c0.012-0.355,0.065-0.726,0.163-1.112c0.097-0.386,0.224-0.772,0.381-1.16
		c0.157-0.388,0.34-0.77,0.547-1.146c0.209-0.376,0.428-0.733,0.66-1.072c0.232-0.338,0.473-0.65,0.723-0.938
		c0.25-0.287,0.494-0.534,0.734-0.741c0.238-0.208,0.469-0.368,0.688-0.482C71.012,2.154,71.209,2.1,71.383,2.105z M67.681,7.928
		c0.343-0.333,0.675-0.67,0.997-1.014s0.625-0.683,0.908-1.02c0.281-0.336,0.543-0.664,0.779-0.983
		c0.236-0.318,0.439-0.62,0.609-0.903c0.17-0.283,0.305-0.543,0.402-0.778c0.098-0.235,0.148-0.439,0.154-0.611
		c0-0.031-0.014-0.074-0.043-0.127s-0.066-0.081-0.109-0.083c-0.121-0.004-0.283,0.071-0.488,0.224
		c-0.203,0.154-0.426,0.364-0.668,0.632c-0.24,0.268-0.492,0.581-0.752,0.939c-0.26,0.359-0.506,0.744-0.738,1.154
		s-0.441,0.835-0.629,1.275C67.918,7.074,67.777,7.505,67.681,7.928z"/>
	<path fill="#FFFFFF" d="M70.577,9.28c-0.012,0.046-0.021,0.092-0.028,0.139s-0.014,0.093-0.018,0.14
		c-0.012,0.14-0.002,0.275,0.029,0.405c0.03,0.13,0.081,0.246,0.153,0.347c0.072,0.102,0.165,0.185,0.28,0.25
		c0.114,0.064,0.247,0.102,0.398,0.115c0.511,0.041,1.017-0.092,1.521-0.4c0.503-0.308,1.021-0.818,1.553-1.532l0.185,0.191
		c-0.292,0.408-0.582,0.748-0.871,1.02s-0.571,0.489-0.85,0.651c-0.277,0.162-0.546,0.273-0.806,0.334
		c-0.26,0.061-0.505,0.082-0.734,0.063c-0.167-0.014-0.343-0.051-0.525-0.113c-0.184-0.062-0.35-0.154-0.498-0.275
		c-0.149-0.122-0.268-0.278-0.355-0.47c-0.089-0.191-0.122-0.423-0.1-0.696c0.023-0.292,0.097-0.569,0.218-0.832
		s0.271-0.504,0.449-0.725s0.379-0.419,0.602-0.595c0.222-0.176,0.444-0.323,0.668-0.442c0.223-0.119,0.438-0.208,0.647-0.268
		s0.391-0.083,0.547-0.07c0.101,0.008,0.203,0.032,0.306,0.072c0.103,0.04,0.192,0.096,0.271,0.169
		c0.078,0.073,0.139,0.167,0.183,0.28s0.06,0.246,0.047,0.397c-0.017,0.207-0.08,0.396-0.19,0.569
		c-0.109,0.173-0.251,0.331-0.423,0.471c-0.172,0.141-0.368,0.264-0.589,0.37c-0.22,0.105-0.448,0.192-0.685,0.259
		c-0.237,0.067-0.475,0.117-0.712,0.148C71.012,9.284,70.788,9.293,70.577,9.28z M70.645,9.033c0.263-0.006,0.513-0.041,0.749-0.104
		s0.455-0.146,0.655-0.25c0.2-0.104,0.381-0.219,0.543-0.347c0.161-0.128,0.298-0.26,0.411-0.396
		c0.112-0.136,0.202-0.268,0.268-0.396c0.064-0.128,0.102-0.245,0.11-0.35S73.368,7,73.316,6.934
		C73.265,6.867,73.2,6.83,73.123,6.824c-0.172-0.014-0.369,0.032-0.594,0.137c-0.224,0.105-0.452,0.257-0.684,0.456
		S71.392,7.853,71.18,8.13C70.967,8.407,70.789,8.708,70.645,9.033z"/>
	<path fill="#FFFFFF" d="M81.527,8.264c0.022-0.123-0.009-0.229-0.094-0.318c-0.085-0.089-0.232-0.153-0.444-0.191
		c-0.173-0.031-0.354-0.026-0.542,0.017s-0.375,0.115-0.561,0.216s-0.364,0.229-0.538,0.384c-0.173,0.155-0.33,0.329-0.471,0.521
		c-0.14,0.193-0.262,0.402-0.364,0.627s-0.176,0.458-0.22,0.695c-0.035,0.192-0.044,0.359-0.025,0.502
		c0.018,0.142,0.057,0.262,0.118,0.361s0.143,0.176,0.243,0.232c0.102,0.056,0.219,0.096,0.354,0.121
		c0.265,0.048,0.533,0.036,0.805-0.038c0.271-0.074,0.537-0.185,0.797-0.334c0.26-0.149,0.506-0.324,0.739-0.523
		c0.232-0.2,0.442-0.399,0.63-0.6l0.185,0.201c-0.271,0.312-0.549,0.578-0.831,0.798c-0.282,0.221-0.563,0.397-0.841,0.529
		s-0.553,0.219-0.822,0.261s-0.525,0.041-0.768-0.003c-0.192-0.035-0.37-0.098-0.535-0.187c-0.164-0.089-0.302-0.205-0.413-0.347
		c-0.111-0.141-0.189-0.312-0.234-0.51S77.65,10.254,77.696,10c0.055-0.3,0.149-0.575,0.285-0.826
		c0.135-0.251,0.296-0.477,0.481-0.678c0.186-0.2,0.389-0.375,0.61-0.523c0.222-0.148,0.447-0.267,0.676-0.356
		s0.454-0.148,0.676-0.177s0.425-0.027,0.609,0.007c0.188,0.035,0.337,0.088,0.446,0.162s0.192,0.153,0.248,0.239
		c0.057,0.085,0.089,0.171,0.1,0.256c0.01,0.085,0.01,0.156-0.001,0.214c-0.017,0.092-0.048,0.188-0.094,0.286
		c-0.046,0.099-0.101,0.188-0.164,0.265c-0.064,0.078-0.137,0.139-0.219,0.184c-0.081,0.044-0.165,0.059-0.249,0.043
		c-0.085-0.015-0.152-0.057-0.204-0.124c-0.051-0.067-0.069-0.143-0.054-0.227c0.001-0.004,0.008-0.026,0.021-0.068
		c0.014-0.041,0.04-0.083,0.079-0.125c0.04-0.042,0.095-0.077,0.165-0.104s0.164-0.03,0.279-0.009l0.068,0.013
		C81.491,8.396,81.516,8.333,81.527,8.264z"/>
	<path fill="#FFFFFF" d="M84.264,11.394c-0.188,0.126-0.375,0.241-0.561,0.342s-0.365,0.185-0.538,0.251
		c-0.173,0.066-0.338,0.111-0.494,0.135c-0.157,0.024-0.302,0.02-0.435-0.013c-0.148-0.036-0.275-0.097-0.381-0.181
		c-0.106-0.084-0.189-0.188-0.249-0.312c-0.061-0.124-0.096-0.261-0.107-0.413c-0.011-0.151,0.005-0.313,0.047-0.483
		c0.056-0.228,0.161-0.453,0.316-0.676c0.155-0.223,0.337-0.433,0.544-0.629c0.207-0.197,0.429-0.376,0.664-0.54
		c0.235-0.163,0.459-0.299,0.67-0.408l0.203,0.23c-0.062,0.054-0.146,0.127-0.254,0.222c-0.107,0.094-0.225,0.205-0.353,0.333
		s-0.26,0.267-0.396,0.418c-0.136,0.152-0.265,0.309-0.385,0.473c-0.121,0.164-0.228,0.331-0.319,0.501s-0.157,0.335-0.197,0.495
		c-0.019,0.076-0.029,0.15-0.033,0.224c-0.004,0.073,0.003,0.141,0.022,0.202s0.052,0.113,0.098,0.156
		c0.045,0.043,0.11,0.076,0.193,0.096c0.133,0.033,0.288,0.027,0.466-0.016c0.177-0.043,0.367-0.115,0.571-0.215
		c0.204-0.101,0.417-0.224,0.641-0.371c0.223-0.146,0.446-0.307,0.67-0.481s0.443-0.356,0.659-0.547s0.419-0.381,0.611-0.571
		c0.17-0.171,0.342-0.343,0.513-0.516c0.171-0.173,0.341-0.342,0.51-0.505l0.234,0.202c-0.006,0.007-0.059,0.069-0.157,0.188
		c-0.1,0.119-0.233,0.279-0.399,0.481s-0.359,0.437-0.58,0.702c-0.22,0.266-0.453,0.548-0.699,0.848
		c-0.247,0.299-0.498,0.607-0.755,0.922s-0.506,0.622-0.748,0.92c0.607-0.165,1.179-0.396,1.713-0.695
		c0.534-0.299,1.011-0.633,1.431-1l0.172,0.211c-0.454,0.423-0.979,0.789-1.572,1.095c-0.595,0.306-1.285,0.57-2.071,0.791
		c-0.48,0.598-0.94,1.139-1.379,1.623c-0.438,0.483-0.857,0.887-1.257,1.211s-0.777,0.558-1.132,0.702
		c-0.355,0.144-0.688,0.178-1,0.102c-0.204-0.05-0.358-0.161-0.461-0.331c-0.104-0.17-0.124-0.382-0.062-0.636
		c0.053-0.213,0.153-0.419,0.304-0.62c0.149-0.201,0.336-0.393,0.558-0.578c0.223-0.185,0.476-0.36,0.76-0.525
		s0.587-0.317,0.908-0.456s0.654-0.264,0.998-0.376c0.343-0.113,0.688-0.209,1.033-0.289c0.12-0.147,0.249-0.302,0.386-0.463
		c0.136-0.162,0.269-0.318,0.398-0.469c0.13-0.151,0.254-0.294,0.373-0.427C84.075,11.592,84.179,11.481,84.264,11.394z
		 M82.401,13.573c-0.502,0.162-0.978,0.35-1.427,0.564c-0.448,0.213-0.847,0.435-1.195,0.666c-0.348,0.23-0.632,0.457-0.852,0.681
		s-0.353,0.426-0.397,0.608c-0.029,0.121-0.019,0.227,0.034,0.316s0.134,0.147,0.244,0.175c0.147,0.036,0.313,0.023,0.495-0.039
		c0.182-0.062,0.373-0.161,0.573-0.296s0.407-0.303,0.621-0.502c0.214-0.199,0.429-0.416,0.646-0.65s0.431-0.481,0.644-0.741
		C82,14.095,82.204,13.834,82.401,13.573z"/>
	<path fill="#FFFFFF" d="M90.668,10.675c0.037-0.12,0.019-0.229-0.055-0.327c-0.074-0.099-0.213-0.18-0.418-0.244
		c-0.168-0.052-0.349-0.068-0.541-0.048s-0.387,0.069-0.582,0.147c-0.196,0.078-0.39,0.184-0.58,0.317
		c-0.191,0.133-0.368,0.287-0.53,0.461c-0.163,0.174-0.309,0.367-0.438,0.579c-0.13,0.211-0.23,0.433-0.302,0.664
		c-0.059,0.187-0.087,0.352-0.087,0.495c0.001,0.144,0.025,0.268,0.074,0.373c0.05,0.105,0.121,0.192,0.214,0.26
		c0.094,0.068,0.206,0.122,0.336,0.163c0.258,0.08,0.525,0.1,0.804,0.06c0.278-0.04,0.556-0.119,0.831-0.235s0.541-0.26,0.797-0.43
		c0.255-0.17,0.488-0.343,0.698-0.519l0.158,0.221c-0.307,0.277-0.614,0.508-0.921,0.692c-0.307,0.185-0.606,0.326-0.898,0.423
		s-0.574,0.15-0.848,0.16c-0.272,0.009-0.526-0.022-0.762-0.096c-0.187-0.058-0.355-0.142-0.508-0.25
		c-0.152-0.109-0.275-0.24-0.369-0.394c-0.093-0.154-0.15-0.332-0.171-0.535c-0.021-0.203,0.007-0.427,0.084-0.674
		c0.09-0.291,0.218-0.553,0.383-0.786c0.164-0.233,0.351-0.438,0.559-0.614c0.209-0.177,0.432-0.325,0.67-0.445
		c0.237-0.121,0.476-0.211,0.713-0.272c0.238-0.061,0.469-0.093,0.692-0.095s0.425,0.025,0.604,0.081
		c0.183,0.057,0.323,0.128,0.424,0.214c0.1,0.086,0.172,0.176,0.218,0.268c0.045,0.091,0.067,0.18,0.067,0.266
		s-0.009,0.157-0.026,0.213c-0.028,0.089-0.07,0.181-0.128,0.273c-0.058,0.093-0.123,0.174-0.195,0.243
		c-0.073,0.069-0.152,0.122-0.238,0.156c-0.087,0.035-0.171,0.039-0.253,0.014c-0.082-0.026-0.145-0.075-0.188-0.147
		s-0.052-0.15-0.026-0.232c0.001-0.004,0.011-0.025,0.029-0.064c0.019-0.04,0.05-0.078,0.095-0.115
		c0.044-0.037,0.103-0.065,0.176-0.083s0.166-0.01,0.277,0.025l0.067,0.021C90.616,10.802,90.647,10.742,90.668,10.675z"/>
	<path fill="#FFFFFF" d="M97.038,7.89c0.128,0.047,0.224,0.117,0.287,0.211s0.065,0.223,0.005,0.389
		c-0.041,0.114-0.113,0.241-0.217,0.382s-0.229,0.29-0.375,0.446s-0.31,0.317-0.49,0.482c-0.181,0.165-0.369,0.326-0.566,0.483
		c-0.196,0.157-0.396,0.307-0.6,0.449c-0.203,0.142-0.4,0.27-0.592,0.383c-0.383,0.23-0.712,0.422-0.986,0.576
		c-0.274,0.153-0.51,0.283-0.706,0.388c-0.196,0.105-0.359,0.189-0.49,0.251s-0.246,0.115-0.345,0.158s-0.189,0.082-0.272,0.116
		c-0.084,0.034-0.171,0.074-0.263,0.12c-0.08,0.129-0.143,0.257-0.187,0.384c-0.044,0.127-0.086,0.244-0.125,0.351
		c-0.116,0.319-0.15,0.575-0.104,0.766c0.047,0.191,0.164,0.321,0.351,0.39c0.125,0.045,0.263,0.059,0.412,0.041
		c0.15-0.018,0.307-0.056,0.469-0.113c0.162-0.058,0.326-0.13,0.491-0.217c0.164-0.087,0.323-0.179,0.478-0.275
		c0.153-0.096,0.295-0.191,0.425-0.285c0.13-0.094,0.242-0.175,0.338-0.244l0.148,0.228c-0.017,0.011-0.073,0.056-0.171,0.134
		c-0.098,0.079-0.222,0.172-0.373,0.279c-0.151,0.107-0.324,0.218-0.52,0.332s-0.397,0.212-0.606,0.293
		c-0.208,0.082-0.417,0.137-0.624,0.166c-0.208,0.028-0.402,0.009-0.582-0.056c-0.15-0.055-0.284-0.136-0.4-0.243
		c-0.117-0.107-0.206-0.241-0.266-0.402s-0.087-0.349-0.081-0.563c0.005-0.214,0.057-0.455,0.154-0.723
		c0.121-0.334,0.288-0.669,0.5-1.005s0.453-0.665,0.724-0.984c0.27-0.319,0.563-0.625,0.877-0.918
		c0.314-0.292,0.635-0.563,0.961-0.813c0.325-0.249,0.651-0.471,0.979-0.666c0.326-0.195,0.636-0.354,0.928-0.476
		c0.292-0.123,0.56-0.204,0.803-0.244C96.668,7.82,96.872,7.83,97.038,7.89z M91.706,12.271c0.43-0.209,0.851-0.427,1.264-0.652
		c0.412-0.226,0.806-0.455,1.179-0.687c0.374-0.232,0.723-0.462,1.047-0.691c0.325-0.229,0.612-0.452,0.861-0.668
		c0.25-0.216,0.457-0.421,0.623-0.615c0.166-0.193,0.278-0.37,0.338-0.532c0.011-0.029,0.01-0.074-0.001-0.134
		c-0.012-0.061-0.037-0.098-0.078-0.113c-0.113-0.042-0.291-0.021-0.533,0.062c-0.242,0.082-0.52,0.213-0.832,0.392
		s-0.648,0.399-1.007,0.659c-0.359,0.26-0.713,0.549-1.062,0.867c-0.349,0.318-0.68,0.657-0.994,1.016
		C92.197,11.533,91.929,11.899,91.706,12.271z"/>
	<path fill="#FFFFFF" d="M94.045,14.461c-0.025,0.041-0.049,0.082-0.07,0.123c-0.022,0.042-0.042,0.084-0.061,0.127
		c-0.055,0.129-0.087,0.261-0.099,0.394s0.001,0.259,0.038,0.378c0.036,0.119,0.099,0.227,0.188,0.324s0.203,0.175,0.344,0.234
		c0.471,0.199,0.994,0.23,1.568,0.095s1.226-0.459,1.953-0.97l0.115,0.239c-0.404,0.296-0.786,0.528-1.146,0.697
		c-0.359,0.169-0.695,0.287-1.01,0.354s-0.604,0.089-0.87,0.066s-0.505-0.079-0.718-0.168c-0.154-0.065-0.31-0.156-0.464-0.272
		c-0.154-0.116-0.283-0.255-0.387-0.417s-0.167-0.348-0.191-0.558s0.017-0.44,0.123-0.692c0.113-0.27,0.27-0.511,0.466-0.723
		c0.197-0.211,0.415-0.394,0.654-0.548c0.238-0.154,0.49-0.28,0.757-0.377c0.266-0.098,0.522-0.168,0.772-0.212
		c0.249-0.043,0.482-0.061,0.699-0.052c0.217,0.009,0.396,0.043,0.541,0.104c0.094,0.04,0.183,0.094,0.268,0.164
		c0.085,0.069,0.153,0.151,0.205,0.245s0.081,0.201,0.087,0.323c0.006,0.121-0.021,0.252-0.08,0.392
		c-0.08,0.191-0.199,0.352-0.358,0.482c-0.158,0.13-0.342,0.235-0.549,0.315c-0.208,0.08-0.433,0.136-0.675,0.167
		c-0.242,0.032-0.486,0.042-0.731,0.032c-0.246-0.01-0.486-0.038-0.723-0.082C94.457,14.601,94.241,14.54,94.045,14.461z
		 M94.187,14.247c0.251,0.077,0.499,0.122,0.744,0.135c0.244,0.014,0.478,0.003,0.7-0.032s0.431-0.089,0.623-0.16
		c0.193-0.071,0.365-0.154,0.515-0.248s0.275-0.191,0.378-0.292c0.102-0.101,0.173-0.2,0.214-0.297s0.048-0.186,0.02-0.265
		s-0.078-0.135-0.15-0.165c-0.158-0.067-0.36-0.085-0.605-0.055c-0.246,0.03-0.51,0.104-0.792,0.22
		c-0.282,0.117-0.567,0.273-0.855,0.469C94.688,13.753,94.425,13.983,94.187,14.247z"/>
	<path fill="#FFFFFF" d="M107.826,13.141c0.12,0.064,0.205,0.148,0.255,0.25c0.049,0.102,0.032,0.23-0.051,0.385
		c-0.058,0.106-0.147,0.222-0.271,0.347c-0.122,0.125-0.268,0.254-0.435,0.388c-0.168,0.134-0.353,0.27-0.556,0.407
		c-0.202,0.137-0.412,0.27-0.629,0.396s-0.437,0.246-0.658,0.357s-0.436,0.209-0.641,0.294c-0.413,0.173-0.766,0.315-1.06,0.428
		c-0.293,0.113-0.545,0.207-0.754,0.283c-0.21,0.076-0.384,0.135-0.522,0.178c-0.138,0.043-0.26,0.079-0.363,0.107
		s-0.199,0.053-0.287,0.075c-0.087,0.022-0.179,0.049-0.276,0.081c-0.098,0.116-0.178,0.234-0.239,0.354
		c-0.063,0.12-0.12,0.229-0.174,0.329c-0.161,0.299-0.232,0.547-0.214,0.743s0.115,0.342,0.291,0.436
		c0.116,0.063,0.251,0.096,0.401,0.1c0.151,0.003,0.312-0.011,0.48-0.044c0.168-0.034,0.341-0.082,0.517-0.145
		s0.347-0.13,0.512-0.204c0.166-0.072,0.319-0.146,0.462-0.22c0.142-0.075,0.266-0.139,0.37-0.193l0.113,0.247
		c-0.018,0.008-0.081,0.044-0.188,0.108s-0.244,0.138-0.409,0.222s-0.353,0.168-0.562,0.253c-0.21,0.084-0.424,0.152-0.643,0.204
		c-0.218,0.051-0.432,0.076-0.642,0.074s-0.398-0.048-0.567-0.139c-0.141-0.076-0.262-0.175-0.362-0.298
		c-0.1-0.123-0.168-0.268-0.204-0.436s-0.036-0.358,0-0.569c0.036-0.211,0.122-0.443,0.257-0.694
		c0.169-0.313,0.382-0.621,0.641-0.923c0.258-0.303,0.544-0.592,0.857-0.87c0.313-0.277,0.646-0.538,1-0.782
		c0.354-0.245,0.709-0.467,1.067-0.667s0.713-0.373,1.064-0.519c0.352-0.146,0.68-0.258,0.986-0.337
		c0.307-0.079,0.583-0.121,0.83-0.126C107.471,13.019,107.672,13.058,107.826,13.141z M101.92,16.708
		c0.455-0.145,0.903-0.3,1.344-0.464c0.441-0.164,0.863-0.334,1.267-0.51c0.402-0.176,0.781-0.354,1.135-0.533
		c0.354-0.18,0.671-0.359,0.948-0.538c0.278-0.179,0.514-0.352,0.706-0.519c0.191-0.167,0.328-0.327,0.41-0.478
		c0.015-0.027,0.021-0.072,0.019-0.133c-0.003-0.061-0.023-0.102-0.061-0.122c-0.107-0.058-0.286-0.063-0.537-0.017
		c-0.252,0.047-0.545,0.136-0.88,0.269s-0.699,0.301-1.092,0.507c-0.393,0.206-0.784,0.44-1.175,0.705
		c-0.391,0.264-0.768,0.552-1.13,0.862S102.193,16.373,101.92,16.708z"/>
	<path fill="#FFFFFF" d="M105.859,20.454c-0.264,0.086-0.517,0.159-0.76,0.219c-0.242,0.06-0.471,0.099-0.686,0.116
		s-0.414,0.013-0.599-0.016c-0.184-0.028-0.351-0.088-0.501-0.18c-0.127-0.078-0.227-0.17-0.301-0.277
		c-0.074-0.107-0.124-0.225-0.149-0.352c-0.024-0.127-0.021-0.263,0.012-0.405c0.032-0.143,0.093-0.288,0.183-0.434
		c0.141-0.23,0.336-0.436,0.587-0.617c0.25-0.181,0.523-0.339,0.819-0.474c0.295-0.135,0.601-0.249,0.915-0.34
		s0.605-0.165,0.874-0.221l0.123,0.281c-0.229,0.104-0.484,0.221-0.77,0.354c-0.285,0.132-0.566,0.278-0.844,0.436
		s-0.533,0.328-0.77,0.511c-0.235,0.183-0.416,0.376-0.54,0.58c-0.083,0.137-0.129,0.269-0.137,0.397
		c-0.007,0.128,0.063,0.237,0.209,0.327c0.16,0.098,0.374,0.142,0.644,0.133s0.566-0.054,0.893-0.134
		c0.326-0.08,0.668-0.186,1.025-0.317c0.357-0.132,0.706-0.272,1.045-0.422s0.654-0.298,0.947-0.443
		c0.293-0.146,0.537-0.274,0.732-0.383l0.255,0.403c-0.426,0.261-0.828,0.502-1.207,0.721s-0.718,0.417-1.016,0.594
		c-0.299,0.177-0.548,0.337-0.748,0.48c-0.199,0.143-0.334,0.271-0.403,0.385c-0.028,0.047-0.042,0.091-0.04,0.133
		c0.001,0.042,0.023,0.077,0.067,0.103c0.121,0.079,0.289,0.108,0.505,0.089c0.216-0.02,0.45-0.066,0.704-0.14
		c0.253-0.074,0.513-0.166,0.779-0.275c0.267-0.109,0.511-0.215,0.733-0.317l0.094,0.25c-0.04,0.021-0.123,0.063-0.25,0.128
		c-0.126,0.064-0.277,0.135-0.452,0.211s-0.367,0.151-0.576,0.224c-0.21,0.073-0.419,0.13-0.626,0.17
		c-0.208,0.041-0.407,0.056-0.599,0.046s-0.356-0.057-0.497-0.143c-0.086-0.053-0.154-0.115-0.204-0.187
		c-0.051-0.072-0.083-0.147-0.1-0.226c-0.016-0.079-0.017-0.159-0.003-0.242s0.044-0.161,0.089-0.234
		c0.053-0.086,0.125-0.173,0.217-0.259C105.626,20.623,105.734,20.538,105.859,20.454z"/>
	<path fill="#FFFFFF" d="M112.925,23.109c-0.098,0.137-0.221,0.259-0.37,0.366c-0.148,0.107-0.311,0.206-0.484,0.294
		s-0.352,0.172-0.532,0.25c-0.18,0.078-0.353,0.153-0.517,0.228s-0.311,0.153-0.441,0.235c-0.131,0.082-0.23,0.17-0.299,0.266
		c-0.052,0.073-0.071,0.134-0.058,0.182c0.014,0.048,0.039,0.086,0.077,0.113c0.121,0.086,0.299,0.124,0.533,0.111
		s0.493-0.054,0.777-0.124c0.283-0.071,0.578-0.158,0.883-0.262s0.587-0.206,0.848-0.308l0.076,0.256
		c-0.053,0.02-0.153,0.063-0.301,0.127s-0.322,0.134-0.524,0.208c-0.201,0.074-0.42,0.146-0.654,0.215
		c-0.235,0.069-0.47,0.12-0.704,0.152s-0.455,0.038-0.665,0.018c-0.209-0.02-0.388-0.083-0.537-0.19
		c-0.086-0.062-0.153-0.131-0.203-0.21c-0.049-0.079-0.08-0.161-0.093-0.247s-0.009-0.173,0.011-0.262
		c0.021-0.089,0.059-0.171,0.112-0.248c0.089-0.124,0.213-0.238,0.372-0.343s0.334-0.204,0.526-0.297
		c0.191-0.093,0.392-0.182,0.601-0.265s0.404-0.166,0.587-0.246c0.183-0.081,0.345-0.161,0.485-0.24
		c0.141-0.079,0.242-0.162,0.304-0.248c0.07-0.098,0.104-0.2,0.099-0.304c-0.005-0.104-0.055-0.19-0.149-0.259
		c-0.102-0.073-0.25-0.115-0.443-0.126c-0.193-0.011-0.431,0.005-0.712,0.049c-0.281,0.043-0.604,0.114-0.969,0.21
		c-0.365,0.097-0.77,0.214-1.215,0.352c-0.255,0.082-0.503,0.159-0.742,0.232c-0.104,0.031-0.209,0.064-0.315,0.098
		c-0.106,0.035-0.212,0.068-0.317,0.101c-0.105,0.033-0.205,0.064-0.299,0.096c-0.095,0.031-0.178,0.057-0.25,0.077l-0.297-0.472
		l1.107-0.368c0.156-0.051,0.32-0.109,0.491-0.174c0.172-0.064,0.345-0.134,0.521-0.208c0.175-0.074,0.347-0.151,0.516-0.232
		s0.33-0.163,0.484-0.244c0.229-0.125,0.405-0.237,0.53-0.337c0.125-0.1,0.215-0.188,0.27-0.265
		c0.061-0.086,0.086-0.154,0.073-0.204c-0.013-0.049-0.047-0.095-0.104-0.136c-0.061-0.043-0.151-0.062-0.273-0.056
		s-0.26,0.028-0.411,0.066c-0.152,0.038-0.314,0.087-0.486,0.149c-0.171,0.062-0.339,0.126-0.501,0.192
		c-0.163,0.066-0.316,0.129-0.46,0.189c-0.145,0.06-0.263,0.107-0.354,0.143l-0.076-0.256c0.344-0.138,0.657-0.266,0.94-0.382
		s0.54-0.208,0.771-0.272s0.436-0.098,0.612-0.099c0.176-0.001,0.329,0.045,0.459,0.138c0.07,0.05,0.127,0.113,0.172,0.188
		s0.071,0.158,0.081,0.249s0,0.187-0.028,0.286c-0.028,0.1-0.08,0.202-0.155,0.307c-0.059,0.083-0.13,0.162-0.213,0.237
		c0.238-0.037,0.449-0.056,0.633-0.059c0.185-0.002,0.347,0.006,0.485,0.027c0.14,0.021,0.26,0.05,0.361,0.089
		s0.188,0.084,0.258,0.134c0.061,0.043,0.122,0.104,0.186,0.184s0.108,0.174,0.135,0.284c0.027,0.11,0.026,0.236,0,0.378
		C113.119,22.786,113.046,22.941,112.925,23.109z"/>
	<path fill="#FFFFFF" d="M118.003,26.132c-0.104,0.046-0.244,0.102-0.42,0.169c-0.175,0.067-0.366,0.143-0.574,0.227
		c-0.207,0.084-0.421,0.174-0.641,0.271c-0.22,0.097-0.43,0.195-0.628,0.297c-0.199,0.101-0.378,0.204-0.538,0.307
		c-0.16,0.104-0.279,0.203-0.359,0.299s-0.113,0.174-0.1,0.234c0.014,0.06,0.051,0.114,0.11,0.165
		c0.087,0.072,0.198,0.121,0.332,0.146s0.279,0.034,0.436,0.027c0.155-0.007,0.318-0.027,0.487-0.059s0.333-0.069,0.493-0.111
		c0.16-0.042,0.309-0.086,0.447-0.13c0.14-0.044,0.257-0.083,0.354-0.113l0.057,0.261c-0.131,0.054-0.277,0.107-0.438,0.161
		c-0.162,0.054-0.331,0.103-0.507,0.146c-0.177,0.044-0.356,0.079-0.54,0.104s-0.362,0.034-0.536,0.026
		c-0.174-0.007-0.34-0.036-0.497-0.085c-0.157-0.05-0.297-0.125-0.42-0.228c-0.18-0.15-0.268-0.314-0.261-0.492
		c0.006-0.178,0.08-0.353,0.223-0.523c0.01-0.012,0.032-0.038,0.067-0.077s0.065-0.068,0.092-0.087
		c-0.308,0.064-0.581,0.101-0.819,0.11c-0.239,0.009-0.453-0.003-0.641-0.038s-0.353-0.086-0.494-0.157
		c-0.143-0.07-0.268-0.15-0.376-0.24c-0.114-0.095-0.206-0.203-0.275-0.324c-0.069-0.122-0.112-0.25-0.129-0.386
		c-0.016-0.136-0.002-0.274,0.042-0.416s0.123-0.281,0.238-0.419c0.143-0.171,0.344-0.335,0.604-0.492
		c0.261-0.157,0.595-0.282,1.002-0.374c0.348-0.082,0.674-0.123,0.977-0.125c0.304-0.001,0.58,0.024,0.829,0.076
		s0.468,0.124,0.656,0.215c0.188,0.091,0.344,0.188,0.468,0.29c0.275,0.23,0.446,0.45,0.511,0.659
		c0.065,0.209,0.034,0.42-0.094,0.635c0.122-0.025,0.248-0.048,0.377-0.068c0.128-0.02,0.26-0.04,0.394-0.061L118.003,26.132z
		 M115.195,26.692c0.092-0.031,0.207-0.071,0.345-0.121c0.139-0.05,0.282-0.101,0.432-0.152c0.149-0.051,0.294-0.1,0.434-0.146
		c0.141-0.046,0.261-0.083,0.36-0.112c0.022-0.027,0.055-0.074,0.098-0.14c0.042-0.066,0.072-0.144,0.091-0.233
		c0.019-0.089,0.01-0.186-0.024-0.291s-0.116-0.211-0.245-0.319c-0.094-0.077-0.21-0.15-0.349-0.218
		c-0.14-0.067-0.303-0.122-0.489-0.163c-0.187-0.042-0.396-0.064-0.626-0.068s-0.484,0.019-0.76,0.069
		c-0.414,0.077-0.782,0.193-1.104,0.35s-0.565,0.336-0.733,0.537c-0.143,0.171-0.213,0.335-0.213,0.494
		c0.001,0.158,0.073,0.297,0.217,0.417c0.165,0.138,0.351,0.229,0.556,0.276c0.206,0.046,0.42,0.063,0.644,0.052
		c0.224-0.012,0.452-0.042,0.685-0.089C114.744,26.788,114.973,26.74,115.195,26.692z"/>
	<path fill="#FFFFFF" d="M119.661,27.661c-0.106,0.041-0.249,0.091-0.429,0.151c-0.18,0.061-0.376,0.127-0.587,0.202
		c-0.211,0.074-0.43,0.154-0.657,0.239c-0.228,0.086-0.442,0.175-0.646,0.266c-0.204,0.092-0.387,0.186-0.548,0.281
		c-0.162,0.095-0.285,0.189-0.37,0.281c-0.076,0.083-0.111,0.156-0.104,0.218s0.042,0.122,0.105,0.18
		c0.118,0.108,0.269,0.175,0.452,0.201s0.389,0.026,0.614,0.002s0.466-0.067,0.72-0.13c0.255-0.063,0.51-0.128,0.768-0.194
		l0.044,0.263c-0.221,0.073-0.462,0.146-0.723,0.22c-0.261,0.074-0.522,0.124-0.785,0.15s-0.516,0.016-0.759-0.032
		c-0.242-0.048-0.455-0.156-0.64-0.325c-0.173-0.158-0.258-0.332-0.255-0.52c0.003-0.188,0.08-0.364,0.23-0.528
		c0.177-0.193,0.406-0.354,0.688-0.482c0.282-0.128,0.585-0.233,0.907-0.316s0.649-0.147,0.98-0.193
		c0.331-0.046,0.635-0.086,0.909-0.12L119.661,27.661z M121.348,27.443c-0.053,0.058-0.122,0.104-0.207,0.14
		c-0.086,0.036-0.174,0.057-0.263,0.065c-0.09,0.008-0.177,0.002-0.26-0.016c-0.084-0.019-0.153-0.053-0.208-0.103
		c-0.049-0.045-0.069-0.097-0.063-0.157c0.007-0.06,0.034-0.116,0.082-0.167c0.042-0.046,0.101-0.093,0.177-0.14
		c0.075-0.047,0.155-0.083,0.242-0.108c0.086-0.024,0.172-0.035,0.258-0.03c0.086,0.004,0.16,0.036,0.224,0.094
		c0.061,0.055,0.091,0.126,0.092,0.211C121.423,27.319,121.398,27.389,121.348,27.443z"/>
	<path fill="#FFFFFF" d="M121.506,32.067c-0.102,0.02-0.232,0.054-0.393,0.102s-0.337,0.095-0.531,0.142s-0.398,0.088-0.612,0.124
		c-0.214,0.036-0.424,0.051-0.63,0.045c-0.206-0.005-0.402-0.038-0.591-0.098s-0.354-0.159-0.495-0.299
		c-0.078-0.077-0.14-0.162-0.186-0.253c-0.047-0.092-0.071-0.19-0.075-0.292c-0.003-0.102,0.017-0.205,0.059-0.309
		c0.042-0.104,0.112-0.206,0.211-0.306c0.135-0.136,0.303-0.252,0.504-0.347s0.406-0.177,0.615-0.244
		c0.21-0.068,0.407-0.124,0.594-0.167s0.33-0.084,0.433-0.121c0.102-0.037,0.178-0.08,0.227-0.13c0.036-0.036,0.056-0.08,0.06-0.131
		c0.004-0.051,0.001-0.107-0.008-0.168s-0.017-0.124-0.025-0.19s-0.005-0.133,0.011-0.199c-0.179,0.042-0.361,0.085-0.546,0.127
		c-0.16,0.034-0.337,0.075-0.531,0.122c-0.195,0.047-0.385,0.094-0.569,0.143l-0.035-0.265l2.271-0.516l0.06,0.182
		c-0.022,0.011-0.058,0.029-0.105,0.053c-0.048,0.023-0.093,0.056-0.134,0.098c-0.03,0.031-0.055,0.065-0.074,0.104
		c-0.019,0.039-0.025,0.086-0.02,0.141c0.012,0.209,0.023,0.373,0.034,0.491c0.01,0.117,0.015,0.207,0.012,0.267
		c-0.002,0.061-0.01,0.105-0.023,0.133c-0.014,0.027-0.037,0.058-0.07,0.091c-0.033,0.034-0.078,0.068-0.136,0.104
		c-0.059,0.037-0.133,0.075-0.226,0.116c-0.092,0.041-0.206,0.083-0.341,0.128s-0.296,0.093-0.483,0.144
		c-0.113,0.031-0.227,0.063-0.34,0.097c-0.112,0.034-0.223,0.073-0.328,0.116c-0.106,0.043-0.206,0.093-0.3,0.149
		c-0.094,0.056-0.175,0.119-0.243,0.188c-0.052,0.053-0.086,0.103-0.103,0.15c-0.017,0.047-0.021,0.091-0.012,0.132
		c0.009,0.042,0.024,0.08,0.049,0.114c0.023,0.035,0.049,0.065,0.077,0.093c0.092,0.091,0.209,0.153,0.354,0.188
		c0.144,0.035,0.302,0.053,0.475,0.053c0.172,0,0.354-0.014,0.544-0.042c0.19-0.029,0.38-0.063,0.567-0.104
		c0.188-0.04,0.364-0.08,0.531-0.121c0.167-0.042,0.314-0.076,0.441-0.104L121.506,32.067z"/>
	<path fill="#FFFFFF" d="M121.149,32.692c-0.04,0.026-0.079,0.053-0.116,0.082s-0.073,0.059-0.107,0.091
		c-0.104,0.095-0.188,0.2-0.254,0.316c-0.066,0.116-0.107,0.236-0.124,0.359c-0.017,0.124-0.005,0.248,0.036,0.373
		c0.04,0.125,0.111,0.243,0.214,0.355c0.346,0.377,0.808,0.624,1.387,0.741c0.578,0.116,1.305,0.094,2.18-0.067l0.005,0.266
		c-0.49,0.101-0.935,0.152-1.331,0.156c-0.397,0.003-0.753-0.03-1.066-0.101s-0.586-0.171-0.818-0.303
		c-0.231-0.132-0.426-0.283-0.581-0.453c-0.113-0.124-0.217-0.271-0.309-0.44s-0.151-0.35-0.178-0.541s-0.007-0.386,0.059-0.586
		s0.199-0.393,0.401-0.578c0.216-0.198,0.457-0.352,0.725-0.462s0.542-0.185,0.823-0.226c0.28-0.04,0.563-0.049,0.845-0.027
		s0.546,0.065,0.791,0.13c0.244,0.065,0.463,0.146,0.656,0.245c0.193,0.098,0.343,0.205,0.449,0.32
		c0.068,0.075,0.127,0.162,0.175,0.261c0.048,0.099,0.076,0.202,0.084,0.309s-0.011,0.217-0.056,0.329
		c-0.045,0.113-0.124,0.221-0.236,0.324c-0.152,0.14-0.328,0.236-0.526,0.288c-0.199,0.052-0.409,0.071-0.631,0.058
		c-0.223-0.014-0.45-0.057-0.683-0.129c-0.233-0.072-0.46-0.165-0.679-0.276s-0.427-0.237-0.622-0.375
		C121.465,32.991,121.294,32.845,121.149,32.692z M121.366,32.557c0.197,0.174,0.403,0.319,0.62,0.434
		c0.216,0.114,0.433,0.202,0.65,0.263c0.217,0.061,0.428,0.099,0.633,0.115c0.206,0.016,0.396,0.012,0.571-0.011
		c0.175-0.022,0.33-0.059,0.465-0.108s0.241-0.11,0.319-0.181c0.077-0.071,0.12-0.149,0.128-0.233s-0.015-0.155-0.067-0.212
		c-0.116-0.126-0.292-0.228-0.528-0.303c-0.235-0.076-0.506-0.119-0.811-0.131c-0.306-0.012-0.63,0.011-0.974,0.069
		C122.028,32.316,121.693,32.416,121.366,32.557z"/>
	<path fill="#FFFFFF" d="M126.835,40.997c-0.095,0.069-0.201,0.094-0.318,0.075s-0.212-0.077-0.282-0.175
		c-0.066-0.092-0.09-0.196-0.071-0.314c0.019-0.117,0.075-0.21,0.171-0.279c0.092-0.066,0.196-0.09,0.313-0.071
		c0.117,0.019,0.209,0.074,0.275,0.166c0.07,0.098,0.097,0.206,0.078,0.323S126.927,40.931,126.835,40.997z M127.669,40.271
		c0.064-0.104,0.136-0.199,0.214-0.285s0.156-0.157,0.235-0.214c0.226-0.163,0.46-0.258,0.705-0.286
		c0.245-0.027,0.497-0.013,0.755,0.044c0.258,0.057,0.521,0.143,0.791,0.259s0.541,0.237,0.814,0.362s0.549,0.243,0.824,0.355
		c0.276,0.111,0.55,0.191,0.82,0.239c0.271,0.047,0.537,0.051,0.8,0.011c0.262-0.041,0.517-0.15,0.764-0.328
		c0.209-0.151,0.355-0.316,0.438-0.494s0.122-0.359,0.116-0.543c-0.005-0.184-0.045-0.366-0.12-0.546
		c-0.074-0.18-0.166-0.346-0.276-0.498c-0.201-0.279-0.434-0.51-0.696-0.693s-0.53-0.317-0.803-0.399
		c-0.271-0.083-0.536-0.112-0.793-0.088c-0.258,0.024-0.482,0.106-0.676,0.246c-0.11,0.08-0.194,0.168-0.25,0.264
		c-0.056,0.096-0.089,0.194-0.098,0.294c-0.01,0.101,0.003,0.201,0.036,0.3c0.032,0.099,0.08,0.191,0.142,0.277
		c0.105,0.146,0.214,0.269,0.326,0.371s0.216,0.182,0.311,0.239l-0.164,0.184c-0.12-0.072-0.253-0.17-0.399-0.293
		c-0.147-0.123-0.285-0.275-0.416-0.455c-0.104-0.143-0.186-0.289-0.246-0.44c-0.062-0.151-0.091-0.299-0.09-0.444
		c0.001-0.146,0.035-0.286,0.104-0.422c0.067-0.136,0.178-0.259,0.33-0.369c0.237-0.172,0.515-0.262,0.834-0.271
		s0.646,0.048,0.984,0.17c0.337,0.123,0.664,0.304,0.982,0.544c0.318,0.24,0.596,0.524,0.834,0.854
		c0.177,0.244,0.312,0.496,0.405,0.755s0.138,0.514,0.132,0.762c-0.007,0.248-0.066,0.483-0.179,0.704
		c-0.112,0.221-0.285,0.417-0.52,0.586c-0.263,0.19-0.536,0.307-0.82,0.351c-0.284,0.044-0.572,0.041-0.865-0.011
		c-0.292-0.051-0.587-0.137-0.884-0.257c-0.297-0.121-0.59-0.251-0.879-0.391s-0.572-0.278-0.849-0.414
		c-0.276-0.135-0.541-0.243-0.794-0.322c-0.253-0.08-0.492-0.119-0.717-0.118c-0.226,0.001-0.431,0.069-0.614,0.202
		c-0.054,0.039-0.106,0.084-0.158,0.136c-0.052,0.052-0.1,0.113-0.145,0.185L127.669,40.271z"/>
</g>
</svg>
