<?xml version="1.0" encoding="utf-8"?>
<!-- Generator: Adobe Illustrator 16.0.0, SVG Export Plug-In . SVG Version: 6.00 Build 0)  -->
<!DOCTYPE svg PUBLIC "-//W3C//DTD SVG 1.1//EN" "http://www.w3.org/Graphics/SVG/1.1/DTD/svg11.dtd">
<svg version="1.1" id="Calque_1" xmlns="http://www.w3.org/2000/svg" xmlns:xlink="http://www.w3.org/1999/xlink" x="0px" y="0px"
	 width="133.625px" height="44.75px" viewBox="0 0 133.625 44.75" enable-background="new 0 0 133.625 44.75" xml:space="preserve">
<g>
	<path fill="#FFFFFF" d="M10.457,35.363c-0.164,0.194-0.346,0.376-0.547,0.546c-0.202,0.17-0.416,0.333-0.642,0.49
		c-0.226,0.157-0.458,0.309-0.694,0.457s-0.47,0.294-0.698,0.438c-0.055,0.357-0.15,0.699-0.284,1.025
		c-0.134,0.326-0.32,0.631-0.56,0.915c-0.204,0.242-0.403,0.391-0.598,0.447s-0.364,0.023-0.507-0.098
		c-0.188-0.158-0.245-0.385-0.171-0.68c0.074-0.294,0.29-0.654,0.647-1.079c0.156-0.186,0.327-0.361,0.512-0.527
		C7.1,37.133,7.295,36.971,7.5,36.812c-0.006-0.326-0.041-0.662-0.104-1.005c-0.063-0.344-0.145-0.696-0.245-1.056
		c-0.088,0.135-0.182,0.269-0.28,0.4s-0.201,0.262-0.309,0.391c-0.395,0.469-0.803,0.841-1.224,1.114s-0.837,0.455-1.247,0.544
		c-0.41,0.09-0.803,0.09-1.179,0c-0.376-0.089-0.717-0.262-1.022-0.519c-0.358-0.301-0.619-0.638-0.781-1.009
		c-0.163-0.372-0.237-0.757-0.225-1.158c0.013-0.4,0.106-0.805,0.28-1.215s0.418-0.802,0.732-1.176
		c0.199-0.236,0.397-0.436,0.597-0.601c0.199-0.164,0.379-0.299,0.541-0.406c0.162-0.107,0.295-0.184,0.402-0.232
		c0.106-0.048,0.165-0.075,0.176-0.082l0.104,0.286c-0.002,0.003-0.051,0.026-0.146,0.069s-0.214,0.111-0.359,0.204
		s-0.306,0.212-0.485,0.358s-0.353,0.319-0.521,0.519c-0.297,0.353-0.511,0.712-0.643,1.079c-0.132,0.366-0.189,0.721-0.172,1.065
		s0.103,0.668,0.257,0.974s0.367,0.573,0.639,0.802c0.305,0.256,0.637,0.416,0.996,0.478c0.359,0.062,0.721,0.044,1.085-0.052
		c0.364-0.097,0.721-0.265,1.071-0.504c0.35-0.239,0.668-0.531,0.958-0.875c0.118-0.141,0.23-0.283,0.335-0.426
		s0.204-0.292,0.296-0.443c-0.153-0.492-0.324-0.986-0.513-1.484s-0.371-0.989-0.545-1.473S5.64,30.42,5.501,29.962
		c-0.138-0.458-0.23-0.892-0.279-1.302c-0.048-0.411-0.039-0.792,0.026-1.146c0.065-0.354,0.213-0.668,0.445-0.943
		c0.09-0.108,0.192-0.193,0.304-0.257c0.112-0.063,0.232-0.1,0.361-0.11c0.128-0.01,0.262,0.011,0.402,0.063
		s0.282,0.138,0.426,0.258c0.233,0.196,0.441,0.448,0.625,0.755s0.333,0.655,0.448,1.043c0.115,0.388,0.194,0.809,0.238,1.264
		s0.041,0.927-0.008,1.417c-0.049,0.489-0.147,0.989-0.293,1.5s-0.348,1.014-0.608,1.51c0.106,0.426,0.192,0.845,0.256,1.257
		s0.096,0.816,0.094,1.212c0.251-0.177,0.501-0.346,0.752-0.508s0.486-0.317,0.706-0.466c0.22-0.149,0.419-0.292,0.598-0.428
		c0.178-0.136,0.321-0.268,0.429-0.396c0.161-0.191,0.283-0.404,0.367-0.637c0.084-0.233,0.116-0.508,0.097-0.825l0.298-0.063
		c0,0.006,0.005,0.038,0.014,0.097s0.014,0.139,0.013,0.24c-0.001,0.101-0.012,0.22-0.032,0.356s-0.057,0.285-0.111,0.446
		c-0.054,0.161-0.13,0.332-0.228,0.513C10.744,34.99,10.615,35.175,10.457,35.363z M5.955,26.761
		c-0.141,0.167-0.221,0.384-0.239,0.648c-0.019,0.265,0.004,0.567,0.068,0.907c0.064,0.339,0.162,0.711,0.294,1.116
		c0.132,0.404,0.277,0.829,0.437,1.274c0.159,0.445,0.321,0.906,0.487,1.382c0.166,0.477,0.318,0.957,0.457,1.441
		c0.203-0.442,0.362-0.892,0.476-1.349s0.189-0.908,0.225-1.35s0.034-0.87-0.005-1.283c-0.038-0.413-0.109-0.796-0.214-1.152
		c-0.104-0.355-0.237-0.672-0.398-0.951c-0.161-0.278-0.348-0.507-0.561-0.686c-0.11-0.093-0.215-0.158-0.314-0.195
		c-0.099-0.037-0.192-0.053-0.278-0.046c-0.087,0.006-0.167,0.031-0.239,0.074C6.078,26.636,6.013,26.692,5.955,26.761z
		 M6.776,39.066c0.187-0.221,0.332-0.457,0.437-0.705c0.104-0.249,0.181-0.511,0.229-0.787c-0.223,0.149-0.429,0.301-0.62,0.455
		c-0.19,0.154-0.357,0.316-0.501,0.486c-0.171,0.203-0.266,0.377-0.285,0.521c-0.02,0.145,0.01,0.25,0.087,0.315
		c0.024,0.02,0.056,0.035,0.095,0.046c0.04,0.01,0.086,0.007,0.141-0.008s0.116-0.048,0.185-0.097
		C6.613,39.243,6.69,39.167,6.776,39.066z"/>
	<path fill="#FFFFFF" d="M8.693,25.915c0.054-0.166,0.089-0.336,0.107-0.511s0.009-0.316-0.025-0.426
		c-0.107,0.07-0.208,0.097-0.304,0.08C8.375,25.04,8.295,25,8.231,24.938c-0.086-0.085-0.128-0.186-0.125-0.303
		c0.003-0.118,0.044-0.217,0.123-0.298c0.085-0.086,0.186-0.128,0.303-0.125c0.118,0.003,0.217,0.044,0.298,0.123
		c0.089,0.087,0.154,0.196,0.194,0.325s0.061,0.269,0.063,0.418c0.001,0.149-0.014,0.301-0.047,0.454
		c-0.033,0.154-0.078,0.299-0.134,0.435L8.693,25.915z"/>
	<path fill="#FFFFFF" d="M11.504,25.75c0.054,0.056,0.097,0.127,0.127,0.215c0.031,0.088,0.047,0.176,0.05,0.266
		c0.002,0.09-0.008,0.176-0.031,0.259c-0.023,0.083-0.062,0.149-0.115,0.201c-0.047,0.046-0.101,0.064-0.16,0.054
		c-0.059-0.011-0.113-0.042-0.162-0.092c-0.043-0.045-0.087-0.106-0.13-0.184s-0.074-0.161-0.094-0.248s-0.024-0.174-0.015-0.259
		c0.01-0.085,0.045-0.158,0.107-0.218c0.059-0.057,0.131-0.084,0.217-0.08C11.383,25.668,11.452,25.697,11.504,25.75z
		 M11.624,27.447c0.034,0.108,0.076,0.254,0.126,0.437s0.105,0.382,0.167,0.597c0.062,0.215,0.128,0.438,0.201,0.67
		c0.072,0.232,0.148,0.452,0.229,0.66c0.08,0.208,0.163,0.396,0.249,0.563s0.172,0.295,0.259,0.385
		c0.079,0.082,0.149,0.121,0.212,0.117c0.062-0.003,0.124-0.035,0.186-0.095c0.115-0.111,0.19-0.258,0.226-0.44
		c0.036-0.182,0.049-0.386,0.038-0.613c-0.01-0.227-0.04-0.469-0.088-0.726c-0.049-0.258-0.099-0.517-0.15-0.777l0.266-0.029
		c0.06,0.225,0.119,0.47,0.177,0.734c0.059,0.265,0.093,0.529,0.104,0.793c0.011,0.264-0.014,0.516-0.076,0.755
		s-0.182,0.446-0.361,0.62c-0.168,0.164-0.346,0.238-0.534,0.224c-0.188-0.014-0.359-0.101-0.514-0.26
		c-0.182-0.188-0.329-0.426-0.441-0.715c-0.112-0.289-0.2-0.597-0.264-0.924c-0.064-0.327-0.11-0.657-0.137-0.99
		c-0.027-0.333-0.049-0.638-0.067-0.915L11.624,27.447z"/>
	<path fill="#FFFFFF" d="M16.376,24.319c0.11,0.126,0.201,0.274,0.271,0.444c0.07,0.17,0.128,0.35,0.175,0.54
		c0.047,0.19,0.087,0.382,0.121,0.575c0.034,0.193,0.068,0.378,0.104,0.555c0.035,0.177,0.077,0.338,0.127,0.484
		c0.049,0.146,0.113,0.263,0.19,0.352c0.059,0.067,0.114,0.101,0.164,0.098c0.05-0.002,0.093-0.019,0.128-0.049
		c0.112-0.098,0.188-0.262,0.23-0.493s0.062-0.493,0.058-0.785c-0.003-0.292-0.021-0.599-0.052-0.919
		c-0.031-0.321-0.066-0.619-0.105-0.896l0.267-0.015c0.007,0.056,0.026,0.163,0.055,0.321c0.029,0.159,0.057,0.345,0.083,0.558
		c0.025,0.213,0.045,0.442,0.059,0.687c0.014,0.245,0.009,0.484-0.014,0.72s-0.068,0.452-0.136,0.651
		c-0.067,0.199-0.17,0.359-0.309,0.479c-0.08,0.069-0.163,0.119-0.251,0.149c-0.088,0.03-0.175,0.042-0.262,0.034
		c-0.087-0.007-0.171-0.031-0.252-0.071c-0.082-0.041-0.154-0.096-0.215-0.167c-0.1-0.115-0.183-0.261-0.248-0.44
		c-0.065-0.179-0.122-0.372-0.168-0.58s-0.087-0.423-0.12-0.646c-0.033-0.223-0.068-0.432-0.105-0.628
		c-0.036-0.196-0.077-0.372-0.122-0.527c-0.044-0.155-0.102-0.272-0.171-0.352c-0.08-0.091-0.171-0.146-0.273-0.166
		s-0.198,0.01-0.286,0.086c-0.094,0.083-0.169,0.216-0.225,0.402c-0.055,0.186-0.094,0.42-0.116,0.704s-0.028,0.614-0.018,0.991
		c0.01,0.377,0.032,0.798,0.064,1.263c0.021,0.268,0.039,0.526,0.055,0.776c0.006,0.108,0.014,0.218,0.023,0.33
		c0.009,0.111,0.017,0.222,0.025,0.332s0.016,0.214,0.024,0.313c0.009,0.099,0.015,0.186,0.018,0.261l-0.527,0.18l-0.104-1.162
		c-0.014-0.164-0.033-0.337-0.056-0.519c-0.024-0.182-0.051-0.366-0.083-0.554c-0.031-0.188-0.067-0.373-0.107-0.555
		s-0.083-0.358-0.126-0.528c-0.069-0.251-0.138-0.449-0.207-0.593c-0.069-0.145-0.134-0.252-0.196-0.323
		c-0.069-0.08-0.129-0.119-0.181-0.118c-0.051,0.001-0.104,0.024-0.156,0.07c-0.056,0.049-0.095,0.133-0.117,0.254
		c-0.022,0.12-0.032,0.259-0.03,0.415c0.002,0.157,0.013,0.326,0.034,0.507c0.021,0.182,0.045,0.359,0.072,0.532
		c0.027,0.174,0.053,0.337,0.079,0.491c0.025,0.154,0.044,0.28,0.057,0.378l-0.267,0.015c-0.056-0.367-0.107-0.701-0.156-1.003
		c-0.049-0.302-0.078-0.573-0.088-0.813c-0.01-0.24,0.004-0.446,0.044-0.618s0.119-0.311,0.24-0.416
		c0.065-0.057,0.139-0.098,0.223-0.124c0.083-0.026,0.17-0.034,0.261-0.022c0.091,0.012,0.181,0.043,0.272,0.093
		s0.179,0.124,0.263,0.221c0.067,0.077,0.127,0.164,0.182,0.262c0.019-0.24,0.048-0.449,0.088-0.629s0.086-0.335,0.138-0.466
		s0.108-0.241,0.17-0.331s0.125-0.163,0.189-0.22c0.056-0.049,0.129-0.095,0.221-0.139c0.091-0.043,0.194-0.065,0.308-0.066
		c0.113-0.001,0.236,0.028,0.368,0.087C16.106,24.056,16.24,24.163,16.376,24.319z"/>
	<path fill="#FFFFFF" d="M19.941,14.729c0.11-0.082,0.222-0.123,0.335-0.124c0.113-0.001,0.222,0.069,0.327,0.21
		c0.072,0.098,0.139,0.228,0.199,0.392s0.116,0.351,0.166,0.559c0.05,0.208,0.094,0.434,0.131,0.675
		c0.038,0.242,0.068,0.488,0.091,0.738c0.022,0.25,0.037,0.5,0.043,0.748c0.006,0.249,0.004,0.483-0.006,0.705
		c-0.02,0.447-0.041,0.827-0.063,1.141s-0.045,0.581-0.065,0.803s-0.041,0.404-0.061,0.548c-0.02,0.144-0.039,0.269-0.058,0.375
		c-0.019,0.106-0.037,0.203-0.054,0.292c-0.017,0.088-0.032,0.183-0.044,0.284c0.063,0.138,0.136,0.261,0.217,0.368
		c0.082,0.107,0.156,0.207,0.224,0.297c0.203,0.273,0.396,0.443,0.582,0.51c0.185,0.067,0.358,0.041,0.518-0.078
		c0.107-0.079,0.194-0.186,0.262-0.321c0.068-0.135,0.123-0.286,0.164-0.453c0.042-0.167,0.071-0.343,0.089-0.529
		c0.018-0.186,0.029-0.369,0.034-0.55c0.005-0.181,0.004-0.351-0.003-0.511s-0.013-0.299-0.018-0.417l0.272,0.003
		c0.003,0.017,0.01,0.089,0.021,0.214c0.01,0.126,0.019,0.282,0.024,0.467s0.002,0.391-0.01,0.616
		c-0.013,0.226-0.042,0.448-0.089,0.667c-0.047,0.219-0.116,0.423-0.207,0.612c-0.091,0.189-0.214,0.34-0.368,0.454
		c-0.122,0.091-0.258,0.156-0.406,0.195c-0.148,0.04-0.303,0.044-0.463,0.015c-0.16-0.029-0.324-0.098-0.491-0.205
		s-0.332-0.261-0.495-0.461c-0.043,0.231-0.101,0.478-0.175,0.739c-0.074,0.261-0.169,0.519-0.285,0.772s-0.255,0.495-0.416,0.724
		c-0.161,0.229-0.35,0.423-0.566,0.583c-0.047,0.035-0.096,0.067-0.146,0.098c-0.051,0.03-0.105,0.055-0.164,0.074
		c0.125,0.491,0.247,0.964,0.366,1.42c0.119,0.456,0.223,0.861,0.313,1.215c0.089,0.354,0.162,0.639,0.218,0.855
		s0.084,0.329,0.086,0.338l-0.676,0.121c-0.119-0.496-0.231-0.947-0.336-1.355c-0.105-0.408-0.205-0.789-0.298-1.142
		c-0.094-0.354-0.182-0.686-0.264-0.997c-0.082-0.312-0.158-0.616-0.228-0.914c-0.104-0.035-0.193-0.078-0.268-0.13
		s-0.131-0.097-0.17-0.136c-0.06-0.068-0.084-0.143-0.075-0.225c0.01-0.083,0.05-0.15,0.123-0.204c0.06-0.044,0.13-0.064,0.21-0.061
		c-0.073-0.295-0.136-0.556-0.189-0.782c-0.053-0.226-0.097-0.415-0.133-0.568c-0.043-0.177-0.081-0.332-0.111-0.465
		c-0.203-0.846-0.362-1.59-0.476-2.232c-0.113-0.643-0.193-1.201-0.238-1.676c-0.045-0.474-0.061-0.874-0.048-1.197
		c0.014-0.323,0.045-0.591,0.095-0.803s0.114-0.376,0.191-0.495c0.078-0.118,0.159-0.208,0.244-0.271
		c0.138-0.102,0.278-0.158,0.419-0.168c0.141-0.01,0.272,0.055,0.394,0.193c0.12,0.135,0.229,0.336,0.327,0.604
		c0.099,0.268,0.183,0.565,0.254,0.895c0.071,0.329,0.126,0.674,0.164,1.034c0.039,0.36,0.059,0.703,0.061,1.027
		c0.001,0.612-0.021,1.136-0.065,1.572c-0.044,0.436-0.096,0.8-0.157,1.093s-0.122,0.521-0.184,0.687
		c-0.063,0.165-0.111,0.283-0.147,0.353l0.526,2.118c0.06-0.024,0.125-0.063,0.198-0.117c0.216-0.16,0.404-0.362,0.562-0.605
		s0.291-0.5,0.4-0.77c0.108-0.27,0.196-0.54,0.263-0.811c0.067-0.271,0.12-0.515,0.158-0.732c-0.256-0.398-0.473-0.851-0.65-1.356
		s-0.318-1.028-0.421-1.569s-0.169-1.078-0.195-1.613c-0.027-0.534-0.017-1.028,0.03-1.48c0.046-0.452,0.126-0.845,0.24-1.177
		S19.759,14.864,19.941,14.729z M17.895,16.565c-0.042-0.051-0.088-0.089-0.138-0.113c-0.049-0.024-0.105-0.013-0.168,0.033
		c-0.038,0.028-0.08,0.073-0.126,0.134s-0.089,0.15-0.128,0.266c-0.038,0.116-0.067,0.266-0.086,0.45
		c-0.019,0.184-0.022,0.415-0.009,0.692s0.048,0.606,0.104,0.987s0.144,0.827,0.264,1.336c0.071,0.326,0.164,0.718,0.279,1.175
		s0.237,0.954,0.367,1.489c0.071-0.213,0.129-0.457,0.176-0.732c0.046-0.275,0.083-0.567,0.109-0.876
		c0.027-0.309,0.042-0.627,0.046-0.957c0.004-0.329-0.001-0.655-0.017-0.979c-0.016-0.323-0.042-0.637-0.08-0.94
		c-0.038-0.303-0.084-0.583-0.141-0.84c-0.057-0.257-0.123-0.482-0.199-0.677S17.988,16.671,17.895,16.565z M20.655,21.593
		c0.063-0.474,0.113-0.945,0.152-1.414c0.04-0.469,0.065-0.923,0.078-1.362s0.013-0.857,0.001-1.254
		c-0.012-0.397-0.04-0.759-0.083-1.087s-0.1-0.614-0.169-0.859c-0.069-0.245-0.155-0.437-0.258-0.575
		c-0.019-0.025-0.056-0.05-0.112-0.073c-0.057-0.024-0.102-0.023-0.137,0.002c-0.101,0.075-0.182,0.235-0.246,0.481
		c-0.063,0.246-0.106,0.549-0.129,0.908c-0.023,0.36-0.024,0.76-0.003,1.202c0.021,0.441,0.067,0.896,0.138,1.363
		c0.071,0.468,0.17,0.931,0.297,1.392C20.311,20.776,20.468,21.202,20.655,21.593z"/>
	<path fill="#FFFFFF" d="M25.754,19.723c-0.04,0.274-0.086,0.533-0.141,0.777c-0.054,0.244-0.121,0.466-0.2,0.667
		c-0.08,0.2-0.173,0.376-0.28,0.529c-0.107,0.153-0.234,0.276-0.383,0.37c-0.125,0.079-0.253,0.128-0.382,0.147
		c-0.129,0.019-0.256,0.011-0.381-0.023s-0.245-0.097-0.358-0.19c-0.114-0.092-0.216-0.211-0.308-0.356
		c-0.144-0.228-0.241-0.495-0.292-0.799s-0.072-0.62-0.062-0.944c0.01-0.325,0.044-0.648,0.102-0.971
		c0.058-0.322,0.121-0.616,0.189-0.881l0.307,0.014c-0.008,0.25-0.017,0.532-0.024,0.846c-0.008,0.314-0.002,0.631,0.016,0.949
		c0.018,0.318,0.057,0.624,0.117,0.917c0.06,0.292,0.153,0.54,0.28,0.741c0.085,0.136,0.184,0.235,0.295,0.299
		s0.24,0.049,0.386-0.042c0.158-0.1,0.293-0.273,0.404-0.518c0.111-0.245,0.203-0.532,0.275-0.859c0.073-0.328,0.13-0.681,0.17-1.06
		c0.041-0.379,0.069-0.753,0.085-1.124c0.016-0.37,0.023-0.719,0.022-1.046c0-0.327-0.007-0.603-0.018-0.826l0.474-0.05
		c0.046,0.498,0.083,0.965,0.111,1.402s0.056,0.829,0.082,1.174s0.06,0.64,0.099,0.883s0.095,0.42,0.166,0.533
		c0.029,0.046,0.063,0.078,0.102,0.095c0.039,0.017,0.079,0.012,0.122-0.015c0.125-0.074,0.226-0.212,0.304-0.414
		s0.141-0.432,0.187-0.692c0.046-0.26,0.079-0.534,0.099-0.821s0.034-0.553,0.041-0.798l0.266,0.026
		c0.001,0.045,0.002,0.139,0.004,0.281c0.001,0.142-0.002,0.308-0.011,0.499c-0.009,0.191-0.028,0.396-0.055,0.617
		c-0.027,0.22-0.069,0.433-0.125,0.636c-0.056,0.204-0.131,0.39-0.224,0.557c-0.093,0.167-0.209,0.294-0.348,0.382
		c-0.086,0.054-0.172,0.088-0.259,0.101c-0.086,0.013-0.168,0.009-0.246-0.011c-0.078-0.021-0.15-0.056-0.219-0.105
		c-0.068-0.049-0.125-0.11-0.17-0.183c-0.054-0.086-0.1-0.189-0.136-0.309C25.802,20.007,25.774,19.872,25.754,19.723z"/>
	<path fill="#FFFFFF" d="M28.175,18.176c0.016,0.045,0.033,0.089,0.052,0.132s0.04,0.085,0.063,0.126
		c0.067,0.124,0.15,0.231,0.247,0.323c0.097,0.092,0.204,0.16,0.32,0.206c0.116,0.046,0.24,0.064,0.371,0.055
		c0.13-0.009,0.263-0.05,0.396-0.124c0.449-0.246,0.799-0.635,1.05-1.169c0.251-0.534,0.403-1.245,0.456-2.133l0.259,0.059
		c-0.02,0.501-0.076,0.944-0.167,1.331s-0.209,0.723-0.352,1.011s-0.307,0.528-0.49,0.722c-0.184,0.194-0.376,0.346-0.578,0.457
		c-0.147,0.081-0.315,0.145-0.502,0.194c-0.187,0.049-0.376,0.063-0.567,0.043c-0.191-0.02-0.376-0.085-0.555-0.197
		c-0.179-0.111-0.334-0.287-0.465-0.527c-0.141-0.257-0.232-0.528-0.275-0.814c-0.043-0.286-0.05-0.57-0.022-0.853
		c0.028-0.282,0.086-0.558,0.175-0.827s0.194-0.515,0.315-0.737s0.252-0.415,0.394-0.58s0.281-0.284,0.418-0.359
		c0.089-0.049,0.187-0.085,0.295-0.108c0.107-0.023,0.214-0.026,0.319-0.008c0.105,0.018,0.208,0.063,0.307,0.133
		c0.099,0.07,0.185,0.172,0.258,0.306c0.099,0.182,0.15,0.375,0.154,0.581c0.003,0.205-0.028,0.414-0.095,0.626
		c-0.066,0.212-0.163,0.423-0.289,0.632s-0.27,0.407-0.431,0.593c-0.161,0.186-0.332,0.357-0.513,0.515S28.358,18.072,28.175,18.176
		z M28.095,17.933c0.217-0.149,0.406-0.315,0.569-0.498c0.163-0.183,0.3-0.372,0.411-0.568c0.11-0.197,0.198-0.393,0.263-0.588
		c0.064-0.195,0.106-0.381,0.126-0.557c0.02-0.175,0.022-0.334,0.006-0.477c-0.016-0.143-0.049-0.261-0.1-0.353
		c-0.05-0.093-0.116-0.153-0.195-0.18c-0.08-0.028-0.154-0.023-0.222,0.015c-0.151,0.083-0.291,0.229-0.42,0.44
		s-0.236,0.463-0.321,0.756c-0.084,0.293-0.139,0.614-0.165,0.962C28.02,17.232,28.037,17.582,28.095,17.933z"/>
	<path fill="#FFFFFF" d="M35.194,12.734c0.071,0.153,0.116,0.32,0.136,0.502c0.02,0.182,0.026,0.371,0.017,0.567
		c-0.008,0.195-0.023,0.391-0.045,0.585c-0.021,0.195-0.04,0.383-0.056,0.562c-0.016,0.18-0.02,0.347-0.014,0.5
		c0.007,0.154,0.035,0.284,0.084,0.391c0.038,0.082,0.081,0.128,0.13,0.14c0.048,0.012,0.094,0.008,0.137-0.012
		c0.134-0.063,0.254-0.199,0.359-0.409s0.197-0.456,0.275-0.738c0.079-0.282,0.147-0.581,0.208-0.897
		c0.06-0.316,0.11-0.613,0.149-0.889l0.261,0.06c-0.009,0.056-0.021,0.164-0.038,0.324c-0.016,0.16-0.042,0.346-0.077,0.559
		c-0.035,0.212-0.081,0.438-0.136,0.676s-0.126,0.468-0.214,0.687s-0.192,0.415-0.313,0.587s-0.264,0.297-0.431,0.374
		c-0.096,0.044-0.19,0.068-0.283,0.073c-0.093,0.004-0.18-0.009-0.261-0.041c-0.082-0.031-0.156-0.078-0.223-0.139
		c-0.067-0.062-0.121-0.135-0.16-0.22c-0.064-0.138-0.103-0.302-0.115-0.493c-0.013-0.19-0.012-0.391,0.001-0.604
		c0.013-0.213,0.035-0.431,0.065-0.653c0.03-0.223,0.055-0.434,0.075-0.632c0.02-0.199,0.03-0.379,0.03-0.541
		s-0.021-0.29-0.066-0.386c-0.051-0.11-0.123-0.188-0.215-0.236c-0.093-0.047-0.193-0.046-0.299,0.003
		c-0.113,0.052-0.223,0.16-0.328,0.323c-0.105,0.163-0.208,0.377-0.309,0.644c-0.101,0.266-0.199,0.582-0.294,0.947
		c-0.096,0.365-0.193,0.775-0.292,1.23c-0.055,0.262-0.11,0.516-0.165,0.761c-0.024,0.106-0.047,0.213-0.07,0.323
		c-0.022,0.11-0.045,0.218-0.069,0.326c-0.023,0.108-0.044,0.21-0.064,0.308s-0.038,0.182-0.056,0.255l-0.557,0.025l0.226-1.144
		c0.033-0.161,0.063-0.333,0.091-0.514c0.028-0.181,0.054-0.366,0.076-0.555c0.022-0.189,0.04-0.377,0.052-0.563
		s0.021-0.367,0.027-0.542c0.004-0.26-0.007-0.469-0.033-0.627c-0.026-0.158-0.058-0.279-0.098-0.365
		c-0.044-0.096-0.091-0.15-0.141-0.164s-0.106-0.006-0.17,0.024c-0.067,0.031-0.128,0.102-0.183,0.211
		c-0.055,0.109-0.104,0.239-0.146,0.39s-0.079,0.316-0.109,0.496c-0.031,0.18-0.058,0.357-0.081,0.531
		c-0.022,0.174-0.043,0.338-0.062,0.493c-0.019,0.155-0.036,0.281-0.051,0.379l-0.26-0.06c0.049-0.368,0.093-0.703,0.131-1.007
		s0.085-0.572,0.144-0.806c0.058-0.233,0.129-0.427,0.215-0.581c0.086-0.154,0.202-0.264,0.347-0.332
		c0.078-0.036,0.161-0.055,0.248-0.057c0.087-0.001,0.173,0.016,0.257,0.052c0.083,0.037,0.162,0.092,0.235,0.166
		c0.073,0.074,0.136,0.169,0.19,0.286c0.043,0.092,0.077,0.193,0.101,0.302c0.085-0.225,0.172-0.418,0.261-0.58
		s0.176-0.298,0.263-0.409c0.086-0.111,0.171-0.201,0.256-0.271c0.084-0.069,0.165-0.122,0.243-0.158
		c0.067-0.031,0.151-0.055,0.251-0.071s0.205-0.009,0.314,0.022c0.109,0.031,0.219,0.094,0.329,0.187S35.107,12.546,35.194,12.734z"
		/>
	<path fill="#FFFFFF" d="M39.125,10.404c-0.045-0.117-0.127-0.19-0.246-0.222c-0.119-0.032-0.278-0.009-0.479,0.069
		c-0.164,0.063-0.315,0.162-0.454,0.297c-0.138,0.135-0.26,0.294-0.365,0.477c-0.105,0.183-0.191,0.386-0.258,0.608
		s-0.11,0.453-0.129,0.69c-0.019,0.238-0.014,0.479,0.016,0.726c0.03,0.246,0.089,0.482,0.176,0.708
		c0.07,0.183,0.15,0.33,0.24,0.441c0.089,0.112,0.186,0.194,0.29,0.247c0.104,0.052,0.213,0.076,0.329,0.071
		c0.115-0.005,0.237-0.032,0.364-0.081c0.251-0.097,0.474-0.248,0.667-0.452c0.193-0.204,0.362-0.438,0.505-0.701
		s0.263-0.54,0.357-0.832c0.094-0.292,0.169-0.572,0.225-0.841l0.261,0.075c-0.069,0.408-0.166,0.779-0.292,1.114
		s-0.273,0.632-0.442,0.89c-0.168,0.258-0.357,0.475-0.565,0.651c-0.208,0.177-0.427,0.31-0.657,0.398
		c-0.182,0.07-0.367,0.11-0.554,0.12s-0.365-0.018-0.533-0.08c-0.169-0.063-0.324-0.167-0.466-0.313s-0.26-0.339-0.353-0.58
		c-0.11-0.284-0.172-0.569-0.188-0.854c-0.016-0.285,0.003-0.562,0.057-0.829c0.054-0.268,0.136-0.523,0.248-0.765
		c0.112-0.242,0.242-0.461,0.391-0.656c0.148-0.196,0.31-0.364,0.484-0.504c0.174-0.141,0.349-0.245,0.523-0.312
		c0.178-0.069,0.333-0.101,0.466-0.095c0.132,0.006,0.244,0.031,0.336,0.075s0.165,0.1,0.218,0.167s0.09,0.128,0.111,0.183
		c0.034,0.087,0.057,0.185,0.069,0.293c0.013,0.108,0.012,0.212-0.002,0.312c-0.014,0.1-0.044,0.19-0.09,0.271
		c-0.046,0.081-0.11,0.137-0.19,0.167s-0.16,0.031-0.238,0.001s-0.134-0.086-0.165-0.166c-0.001-0.003-0.007-0.026-0.017-0.069
		c-0.01-0.042-0.009-0.091,0.002-0.148c0.012-0.057,0.041-0.115,0.086-0.175c0.046-0.06,0.124-0.11,0.233-0.152l0.066-0.025
		C39.164,10.536,39.151,10.47,39.125,10.404z"/>
	<path fill="#FFFFFF" d="M41.046,12.278c0.007,0.047,0.016,0.093,0.026,0.139s0.023,0.091,0.038,0.136
		c0.043,0.134,0.104,0.254,0.182,0.363c0.079,0.108,0.17,0.195,0.276,0.261c0.106,0.066,0.224,0.107,0.354,0.123
		s0.268-0.001,0.413-0.048c0.487-0.158,0.903-0.476,1.249-0.954c0.346-0.478,0.627-1.148,0.844-2.011l0.244,0.105
		c-0.113,0.488-0.25,0.914-0.411,1.276c-0.162,0.362-0.339,0.672-0.534,0.928c-0.194,0.256-0.399,0.462-0.615,0.619
		c-0.216,0.157-0.434,0.271-0.653,0.341c-0.16,0.052-0.336,0.084-0.529,0.098c-0.192,0.013-0.381-0.008-0.565-0.063
		s-0.354-0.154-0.509-0.297c-0.155-0.143-0.275-0.344-0.359-0.604c-0.09-0.279-0.13-0.563-0.119-0.852
		c0.011-0.289,0.056-0.569,0.136-0.842s0.188-0.533,0.326-0.78c0.137-0.248,0.286-0.47,0.446-0.666S41.61,9.19,41.78,9.055
		c0.169-0.135,0.329-0.227,0.477-0.275c0.097-0.031,0.2-0.048,0.31-0.051s0.215,0.014,0.315,0.051
		c0.101,0.038,0.192,0.1,0.276,0.188c0.084,0.088,0.149,0.204,0.197,0.349c0.064,0.197,0.078,0.396,0.043,0.599
		c-0.035,0.203-0.105,0.402-0.209,0.598c-0.105,0.196-0.238,0.385-0.401,0.567s-0.34,0.35-0.533,0.502
		c-0.192,0.153-0.393,0.29-0.6,0.411C41.448,12.115,41.245,12.209,41.046,12.278z M41.012,12.024
		c0.241-0.107,0.458-0.235,0.652-0.384c0.194-0.149,0.363-0.31,0.509-0.482c0.145-0.172,0.268-0.349,0.367-0.529
		s0.175-0.354,0.228-0.523c0.052-0.169,0.083-0.325,0.094-0.468c0.011-0.143,0-0.265-0.032-0.365
		c-0.033-0.1-0.085-0.171-0.159-0.213s-0.147-0.051-0.221-0.027c-0.164,0.053-0.329,0.171-0.495,0.355
		C41.789,9.57,41.637,9.798,41.5,10.07c-0.138,0.272-0.251,0.578-0.341,0.915C41.069,11.322,41.02,11.668,41.012,12.024z"/>
	<path fill="#FFFFFF" d="M53.108,2.625c-0.029,0.07-0.077,0.186-0.143,0.347c-0.066,0.162-0.143,0.353-0.228,0.574
		c-0.086,0.221-0.178,0.466-0.276,0.733c-0.098,0.268-0.194,0.543-0.29,0.826c-0.095,0.283-0.185,0.568-0.271,0.855
		c-0.086,0.287-0.158,0.56-0.216,0.819c-0.092,0.402-0.163,0.759-0.212,1.07c-0.049,0.312-0.082,0.586-0.098,0.825
		s-0.02,0.444-0.01,0.616c0.009,0.171,0.027,0.316,0.051,0.435c0.045,0.218,0.11,0.362,0.194,0.432
		c0.084,0.07,0.184,0.094,0.299,0.07c0.119-0.024,0.226-0.079,0.322-0.163c0.096-0.083,0.185-0.184,0.267-0.301
		s0.155-0.245,0.219-0.386s0.123-0.281,0.176-0.42c0.053-0.139,0.1-0.27,0.143-0.395c0.042-0.125,0.08-0.23,0.114-0.317l0.24,0.118
		c-0.028,0.077-0.062,0.179-0.101,0.305c-0.04,0.126-0.086,0.264-0.139,0.415c-0.052,0.15-0.116,0.305-0.191,0.461
		c-0.075,0.157-0.163,0.304-0.265,0.441c-0.101,0.137-0.22,0.256-0.356,0.358s-0.292,0.171-0.468,0.208
		c-0.084,0.018-0.176,0.024-0.274,0.021c-0.099-0.004-0.194-0.026-0.286-0.066c-0.092-0.041-0.18-0.105-0.262-0.194
		c-0.083-0.088-0.149-0.209-0.201-0.362c-0.223,0.37-0.454,0.662-0.692,0.877c-0.239,0.215-0.479,0.348-0.72,0.397
		c-0.122,0.025-0.261,0.032-0.417,0.021c-0.156-0.012-0.31-0.056-0.461-0.132c-0.152-0.076-0.289-0.19-0.412-0.342
		c-0.124-0.152-0.211-0.354-0.264-0.606c-0.059-0.283-0.071-0.562-0.036-0.836c0.035-0.274,0.104-0.537,0.208-0.788
		c0.104-0.251,0.233-0.485,0.39-0.703c0.156-0.218,0.326-0.411,0.511-0.579c0.184-0.168,0.375-0.308,0.574-0.421
		c0.198-0.113,0.391-0.188,0.578-0.228c0.249-0.051,0.45-0.062,0.604-0.03c0.154,0.032,0.274,0.071,0.359,0.117
		c0.031-0.118,0.076-0.27,0.133-0.456c0.058-0.186,0.126-0.393,0.206-0.623s0.17-0.476,0.271-0.739
		c0.101-0.262,0.211-0.528,0.331-0.798c0.12-0.271,0.248-0.54,0.386-0.808c0.138-0.268,0.282-0.521,0.432-0.76L53.108,2.625z
		 M50.751,9.524c-0.04-0.287-0.043-0.635-0.01-1.042c0.033-0.408,0.114-0.886,0.244-1.436c-0.07-0.069-0.159-0.116-0.266-0.14
		c-0.106-0.024-0.221-0.023-0.343,0.002c-0.188,0.039-0.37,0.117-0.547,0.233S49.488,7.4,49.337,7.567s-0.286,0.355-0.406,0.566
		c-0.12,0.21-0.217,0.429-0.292,0.656c-0.075,0.227-0.123,0.458-0.144,0.691c-0.021,0.234-0.009,0.458,0.035,0.672
		c0.059,0.287,0.166,0.498,0.32,0.634s0.332,0.182,0.535,0.14c0.096-0.02,0.197-0.061,0.304-0.123s0.219-0.15,0.337-0.265
		c0.118-0.114,0.238-0.255,0.358-0.421C50.505,9.951,50.627,9.753,50.751,9.524z"/>
	<path fill="#FFFFFF" d="M53.721,9.043c-0.001,0.047,0,0.095,0.002,0.142c0.003,0.047,0.007,0.094,0.014,0.14
		c0.02,0.139,0.059,0.269,0.118,0.389c0.058,0.12,0.134,0.222,0.227,0.305s0.202,0.144,0.328,0.181
		c0.126,0.037,0.264,0.045,0.415,0.023c0.506-0.072,0.971-0.313,1.394-0.725c0.423-0.411,0.815-1.023,1.177-1.836l0.222,0.146
		c-0.194,0.462-0.402,0.857-0.624,1.187c-0.221,0.33-0.45,0.604-0.685,0.823c-0.235,0.219-0.473,0.387-0.713,0.504
		c-0.24,0.117-0.474,0.192-0.702,0.224c-0.167,0.024-0.346,0.025-0.538,0.005c-0.192-0.02-0.374-0.073-0.546-0.159
		c-0.172-0.086-0.322-0.212-0.45-0.38c-0.128-0.167-0.212-0.386-0.25-0.657c-0.042-0.29-0.032-0.577,0.028-0.859
		c0.061-0.283,0.153-0.551,0.279-0.806c0.125-0.254,0.277-0.492,0.455-0.713c0.178-0.22,0.362-0.414,0.554-0.579
		c0.191-0.166,0.382-0.3,0.573-0.404s0.363-0.167,0.518-0.189c0.101-0.015,0.206-0.014,0.314,0.002
		c0.109,0.016,0.209,0.051,0.302,0.105c0.092,0.054,0.172,0.131,0.24,0.232c0.067,0.101,0.112,0.227,0.134,0.377
		c0.029,0.205,0.009,0.404-0.06,0.597c-0.069,0.193-0.172,0.378-0.309,0.553s-0.301,0.339-0.492,0.49
		c-0.192,0.151-0.396,0.286-0.611,0.404c-0.216,0.117-0.437,0.218-0.662,0.301C54.146,8.951,53.929,9.01,53.721,9.043z
		 M53.732,8.787c0.255-0.063,0.491-0.152,0.708-0.266s0.411-0.243,0.584-0.388s0.324-0.297,0.453-0.458
		c0.129-0.16,0.234-0.319,0.314-0.477s0.138-0.306,0.173-0.445s0.046-0.261,0.031-0.366c-0.015-0.104-0.055-0.184-0.12-0.237
		s-0.136-0.075-0.213-0.064c-0.17,0.024-0.353,0.112-0.548,0.265c-0.196,0.152-0.384,0.351-0.566,0.596
		c-0.182,0.245-0.347,0.525-0.493,0.842C53.908,8.105,53.8,8.438,53.732,8.787z"/>
	<path fill="#FFFFFF" d="M64.818,0.822c0.137-0.006,0.252,0.021,0.347,0.083s0.146,0.181,0.155,0.356
		c0.006,0.121-0.012,0.267-0.052,0.437c-0.041,0.17-0.099,0.355-0.173,0.557c-0.074,0.201-0.163,0.412-0.266,0.634
		c-0.103,0.222-0.214,0.443-0.335,0.664s-0.247,0.436-0.38,0.646c-0.133,0.209-0.265,0.403-0.397,0.582
		c-0.265,0.36-0.494,0.665-0.687,0.912c-0.194,0.248-0.361,0.458-0.501,0.631c-0.141,0.173-0.259,0.313-0.355,0.421
		c-0.097,0.108-0.182,0.201-0.256,0.279c-0.075,0.078-0.144,0.148-0.207,0.212c-0.063,0.064-0.128,0.134-0.195,0.212
		c-0.024,0.15-0.032,0.292-0.024,0.426c0.008,0.135,0.016,0.258,0.021,0.372c0.016,0.339,0.083,0.588,0.2,0.747
		c0.117,0.159,0.275,0.233,0.474,0.224c0.132-0.006,0.265-0.047,0.396-0.122s0.261-0.17,0.388-0.286
		c0.127-0.115,0.25-0.245,0.369-0.39c0.118-0.145,0.229-0.291,0.334-0.438c0.104-0.147,0.198-0.29,0.282-0.427
		S64.109,7.3,64.171,7.2l0.224,0.153c-0.011,0.017-0.046,0.08-0.105,0.19c-0.06,0.11-0.138,0.244-0.236,0.401
		s-0.215,0.326-0.352,0.506c-0.136,0.181-0.284,0.349-0.445,0.505c-0.161,0.156-0.332,0.288-0.512,0.394
		c-0.181,0.106-0.367,0.165-0.558,0.173c-0.16,0.008-0.314-0.015-0.464-0.069c-0.149-0.054-0.282-0.143-0.4-0.269
		c-0.117-0.125-0.215-0.288-0.293-0.487c-0.078-0.2-0.124-0.442-0.137-0.727c-0.017-0.355,0.007-0.729,0.073-1.121
		c0.065-0.393,0.161-0.788,0.287-1.187c0.125-0.399,0.277-0.794,0.454-1.186c0.177-0.392,0.367-0.765,0.571-1.121
		s0.419-0.687,0.645-0.993s0.45-0.572,0.672-0.797c0.222-0.226,0.438-0.404,0.646-0.535C64.45,0.9,64.643,0.83,64.818,0.822z
		 M61.594,6.923c0.315-0.359,0.62-0.723,0.913-1.091c0.293-0.368,0.567-0.73,0.822-1.089s0.488-0.706,0.698-1.042
		c0.211-0.336,0.39-0.653,0.536-0.95c0.146-0.296,0.259-0.565,0.337-0.808c0.078-0.242,0.113-0.449,0.105-0.621
		c-0.001-0.031-0.019-0.072-0.053-0.124s-0.072-0.076-0.115-0.074c-0.121,0.006-0.277,0.093-0.469,0.263s-0.396,0.397-0.616,0.684
		C63.535,2.358,63.31,2.69,63.08,3.069c-0.23,0.379-0.445,0.782-0.644,1.21S62.063,5.147,61.913,5.6
		C61.762,6.053,61.656,6.494,61.594,6.923z"/>
	<path fill="#FFFFFF" d="M68.865,5.514c-0.053,0.101-0.127,0.232-0.221,0.395c-0.094,0.163-0.195,0.342-0.305,0.538
		c-0.109,0.195-0.219,0.399-0.329,0.613c-0.111,0.213-0.212,0.421-0.304,0.625c-0.091,0.204-0.166,0.396-0.226,0.577
		c-0.06,0.181-0.091,0.333-0.093,0.458s0.021,0.206,0.069,0.244s0.111,0.058,0.189,0.059c0.113,0.002,0.229-0.029,0.351-0.094
		c0.12-0.064,0.238-0.148,0.355-0.252c0.117-0.104,0.23-0.221,0.342-0.352c0.113-0.131,0.217-0.263,0.314-0.396
		s0.188-0.261,0.268-0.382s0.148-0.225,0.205-0.31l0.207,0.167c-0.068,0.124-0.148,0.257-0.24,0.4s-0.193,0.287-0.303,0.432
		c-0.111,0.145-0.229,0.284-0.355,0.419s-0.262,0.253-0.402,0.357c-0.141,0.103-0.287,0.185-0.439,0.245
		c-0.154,0.06-0.311,0.089-0.471,0.086c-0.234-0.004-0.405-0.077-0.512-0.219c-0.107-0.143-0.159-0.325-0.155-0.548
		c0-0.016,0.001-0.05,0.004-0.103c0.003-0.052,0.008-0.094,0.017-0.125c-0.2,0.243-0.389,0.443-0.57,0.6
		c-0.18,0.157-0.354,0.282-0.521,0.373s-0.329,0.154-0.483,0.188c-0.155,0.035-0.303,0.051-0.443,0.048
		c-0.148-0.002-0.288-0.029-0.418-0.08c-0.13-0.051-0.244-0.124-0.342-0.219c-0.098-0.095-0.174-0.212-0.229-0.35
		c-0.054-0.137-0.08-0.296-0.077-0.476c0.003-0.223,0.058-0.477,0.162-0.762c0.104-0.286,0.286-0.592,0.545-0.92
		c0.219-0.282,0.447-0.519,0.683-0.71c0.235-0.191,0.466-0.345,0.693-0.46c0.227-0.115,0.442-0.197,0.646-0.245
		c0.204-0.047,0.386-0.07,0.546-0.067c0.36,0.006,0.629,0.07,0.811,0.192c0.182,0.123,0.29,0.307,0.326,0.553
		c0.078-0.096,0.162-0.192,0.25-0.289s0.178-0.194,0.268-0.295L68.865,5.514z M67.03,7.71c0.052-0.081,0.116-0.185,0.192-0.31
		c0.076-0.126,0.156-0.255,0.24-0.389c0.084-0.134,0.167-0.262,0.247-0.386c0.08-0.124,0.149-0.228,0.21-0.313
		c0-0.035-0.004-0.092-0.012-0.17c-0.009-0.078-0.033-0.158-0.075-0.238c-0.042-0.081-0.108-0.151-0.202-0.211
		c-0.092-0.06-0.223-0.092-0.391-0.094c-0.121-0.002-0.257,0.014-0.408,0.049s-0.312,0.095-0.483,0.18
		c-0.171,0.085-0.348,0.199-0.53,0.34c-0.182,0.142-0.365,0.318-0.548,0.53c-0.275,0.32-0.488,0.642-0.64,0.965
		c-0.152,0.324-0.23,0.616-0.234,0.878c-0.003,0.223,0.044,0.396,0.144,0.518c0.1,0.123,0.243,0.186,0.431,0.188
		c0.215,0.004,0.417-0.041,0.606-0.133c0.189-0.093,0.367-0.214,0.533-0.364c0.167-0.149,0.325-0.316,0.477-0.499
		C66.739,8.068,66.887,7.888,67.03,7.71z"/>
	<path fill="#FFFFFF" d="M77.887,1.614c0.136,0.015,0.246,0.06,0.33,0.136c0.084,0.076,0.116,0.202,0.098,0.376
		c-0.013,0.121-0.053,0.262-0.119,0.423c-0.066,0.162-0.152,0.336-0.257,0.523s-0.225,0.382-0.361,0.586
		c-0.136,0.203-0.28,0.405-0.434,0.604c-0.153,0.2-0.312,0.393-0.475,0.58c-0.164,0.187-0.324,0.358-0.482,0.514
		c-0.317,0.315-0.591,0.581-0.82,0.795s-0.427,0.397-0.592,0.546c-0.166,0.149-0.305,0.27-0.416,0.362
		c-0.112,0.092-0.211,0.171-0.297,0.236s-0.165,0.125-0.237,0.178c-0.072,0.053-0.147,0.113-0.226,0.179
		c-0.047,0.145-0.077,0.284-0.089,0.418c-0.013,0.134-0.025,0.257-0.037,0.37c-0.037,0.338-0.01,0.594,0.082,0.769
		c0.091,0.175,0.235,0.273,0.434,0.294c0.132,0.014,0.269-0.005,0.41-0.059c0.141-0.053,0.283-0.127,0.428-0.222
		c0.144-0.095,0.285-0.204,0.424-0.329c0.14-0.125,0.271-0.251,0.397-0.381c0.127-0.13,0.241-0.256,0.345-0.378
		s0.193-0.229,0.271-0.318l0.197,0.186c-0.013,0.015-0.058,0.072-0.133,0.171c-0.076,0.1-0.174,0.22-0.296,0.36
		c-0.121,0.14-0.263,0.289-0.425,0.446s-0.335,0.301-0.518,0.43c-0.184,0.13-0.372,0.233-0.567,0.311s-0.388,0.105-0.578,0.085
		c-0.159-0.018-0.308-0.064-0.447-0.14c-0.139-0.076-0.257-0.185-0.354-0.327s-0.168-0.318-0.214-0.527
		c-0.047-0.209-0.055-0.456-0.023-0.739c0.038-0.354,0.119-0.719,0.245-1.096c0.125-0.377,0.28-0.754,0.466-1.128
		c0.187-0.375,0.396-0.742,0.632-1.102c0.235-0.36,0.481-0.7,0.738-1.02c0.256-0.32,0.52-0.614,0.79-0.881s0.533-0.496,0.787-0.684
		s0.494-0.332,0.721-0.429C77.511,1.634,77.712,1.595,77.887,1.614z M73.76,7.145c0.366-0.306,0.724-0.619,1.07-0.937
		c0.347-0.318,0.674-0.635,0.98-0.949s0.591-0.622,0.851-0.922c0.261-0.3,0.485-0.585,0.676-0.855
		c0.19-0.271,0.343-0.519,0.458-0.747c0.115-0.227,0.182-0.426,0.2-0.597c0.003-0.031-0.008-0.074-0.033-0.13
		c-0.025-0.056-0.06-0.086-0.103-0.091c-0.12-0.013-0.288,0.049-0.503,0.188c-0.216,0.138-0.453,0.331-0.714,0.58
		c-0.261,0.249-0.534,0.543-0.82,0.881S75.262,4.27,75,4.662c-0.263,0.392-0.503,0.8-0.722,1.225S73.887,6.73,73.76,7.145z"/>
	<path fill="#FFFFFF" d="M78.818,9.128C78.606,9.308,78.4,9.47,78.197,9.617c-0.202,0.147-0.399,0.269-0.591,0.366
		c-0.192,0.097-0.379,0.167-0.561,0.211s-0.358,0.051-0.532,0.022c-0.146-0.024-0.274-0.072-0.383-0.143
		c-0.109-0.071-0.199-0.161-0.271-0.27c-0.071-0.108-0.119-0.235-0.143-0.379s-0.021-0.301,0.006-0.471
		c0.044-0.266,0.147-0.53,0.312-0.792c0.163-0.262,0.356-0.512,0.58-0.748c0.223-0.237,0.462-0.457,0.72-0.66
		c0.257-0.203,0.499-0.381,0.726-0.534l0.22,0.214c-0.172,0.182-0.365,0.387-0.579,0.617c-0.214,0.23-0.42,0.471-0.617,0.721
		c-0.197,0.251-0.37,0.505-0.52,0.764c-0.149,0.259-0.243,0.506-0.282,0.741c-0.025,0.158-0.019,0.298,0.023,0.419
		c0.041,0.122,0.146,0.196,0.316,0.224c0.185,0.03,0.4-0.009,0.646-0.12c0.245-0.11,0.504-0.264,0.775-0.46
		c0.272-0.197,0.549-0.424,0.83-0.68c0.282-0.257,0.552-0.518,0.809-0.785c0.258-0.267,0.495-0.522,0.711-0.768
		c0.217-0.246,0.395-0.456,0.534-0.631l0.388,0.277c-0.295,0.403-0.577,0.777-0.846,1.123c-0.269,0.346-0.508,0.657-0.718,0.933
		c-0.209,0.276-0.38,0.519-0.511,0.727s-0.207,0.378-0.229,0.509c-0.01,0.054-0.005,0.1,0.013,0.139s0.051,0.062,0.101,0.07
		c0.143,0.027,0.31-0.009,0.502-0.108s0.393-0.23,0.6-0.395s0.413-0.347,0.618-0.549c0.205-0.202,0.392-0.392,0.56-0.57l0.182,0.196
		c-0.029,0.035-0.091,0.106-0.184,0.213s-0.206,0.229-0.339,0.366c-0.134,0.137-0.283,0.278-0.45,0.425
		c-0.166,0.146-0.338,0.278-0.516,0.393c-0.177,0.116-0.356,0.205-0.537,0.268c-0.181,0.063-0.352,0.082-0.514,0.056
		c-0.1-0.017-0.187-0.049-0.26-0.096c-0.073-0.048-0.133-0.105-0.177-0.172c-0.045-0.066-0.076-0.141-0.094-0.223
		c-0.019-0.082-0.021-0.166-0.007-0.25c0.017-0.1,0.051-0.207,0.104-0.321C78.666,9.373,78.734,9.253,78.818,9.128z"/>
	<path fill="#FFFFFF" d="M86.351,8.924c-0.039,0.164-0.107,0.323-0.205,0.478c-0.098,0.156-0.21,0.307-0.338,0.456
		c-0.128,0.148-0.261,0.292-0.398,0.431c-0.139,0.14-0.27,0.275-0.393,0.406c-0.124,0.131-0.231,0.259-0.321,0.384
		c-0.091,0.125-0.149,0.245-0.177,0.358c-0.021,0.087-0.016,0.151,0.015,0.19s0.069,0.064,0.114,0.076
		c0.145,0.035,0.323,0.002,0.536-0.098c0.212-0.1,0.437-0.235,0.673-0.408s0.476-0.364,0.72-0.575
		c0.243-0.211,0.466-0.412,0.669-0.604l0.167,0.208c-0.041,0.038-0.118,0.115-0.23,0.231s-0.248,0.246-0.407,0.391
		s-0.334,0.293-0.525,0.446c-0.191,0.153-0.39,0.288-0.595,0.406c-0.205,0.117-0.408,0.206-0.609,0.267
		c-0.201,0.06-0.391,0.069-0.569,0.026c-0.103-0.024-0.191-0.064-0.267-0.118s-0.136-0.119-0.18-0.194s-0.074-0.157-0.088-0.247
		c-0.015-0.09-0.012-0.181,0.011-0.271c0.035-0.148,0.107-0.301,0.215-0.458c0.108-0.157,0.233-0.315,0.376-0.474
		c0.143-0.158,0.295-0.315,0.456-0.472c0.162-0.156,0.313-0.306,0.451-0.449c0.14-0.144,0.259-0.278,0.359-0.405
		s0.163-0.241,0.188-0.344c0.028-0.118,0.021-0.224-0.023-0.319c-0.043-0.095-0.122-0.156-0.236-0.183
		c-0.121-0.029-0.273-0.013-0.458,0.05c-0.184,0.063-0.397,0.167-0.641,0.313c-0.244,0.146-0.518,0.333-0.818,0.56
		c-0.302,0.227-0.633,0.488-0.992,0.783c-0.206,0.172-0.406,0.336-0.602,0.495c-0.084,0.068-0.169,0.138-0.255,0.21
		s-0.171,0.143-0.256,0.213c-0.085,0.07-0.165,0.137-0.241,0.201c-0.075,0.064-0.143,0.119-0.202,0.166l-0.452-0.326l0.887-0.757
		c0.126-0.106,0.256-0.222,0.391-0.346c0.134-0.125,0.269-0.254,0.403-0.388s0.265-0.271,0.391-0.41
		c0.125-0.139,0.244-0.274,0.356-0.408c0.165-0.202,0.286-0.372,0.364-0.512c0.077-0.14,0.128-0.256,0.149-0.347
		c0.024-0.103,0.021-0.175-0.009-0.216c-0.03-0.041-0.079-0.07-0.147-0.086c-0.072-0.018-0.164,0-0.274,0.051
		c-0.111,0.052-0.229,0.124-0.356,0.216c-0.127,0.092-0.258,0.199-0.394,0.321s-0.267,0.244-0.393,0.367
		c-0.125,0.123-0.243,0.239-0.354,0.349c-0.11,0.11-0.202,0.199-0.274,0.266l-0.167-0.208c0.267-0.258,0.509-0.494,0.728-0.708
		c0.218-0.215,0.422-0.396,0.612-0.543c0.189-0.147,0.366-0.254,0.529-0.322c0.162-0.067,0.321-0.082,0.478-0.045
		c0.084,0.02,0.16,0.057,0.229,0.109c0.07,0.053,0.126,0.12,0.169,0.2s0.07,0.173,0.082,0.276c0.011,0.103,0.002,0.217-0.028,0.343
		c-0.023,0.099-0.06,0.199-0.108,0.299c0.207-0.123,0.395-0.221,0.564-0.292s0.323-0.125,0.46-0.158
		c0.137-0.034,0.26-0.051,0.368-0.053c0.109-0.002,0.205,0.007,0.289,0.027c0.072,0.018,0.152,0.051,0.241,0.1
		c0.088,0.049,0.166,0.12,0.232,0.212c0.065,0.092,0.113,0.209,0.142,0.351C86.409,8.552,86.399,8.723,86.351,8.924z"/>
	<path fill="#FFFFFF" d="M87.416,10.993c-0.021,0.042-0.041,0.085-0.059,0.129c-0.018,0.044-0.033,0.088-0.048,0.133
		c-0.042,0.134-0.062,0.268-0.061,0.401s0.025,0.258,0.074,0.373c0.047,0.115,0.12,0.217,0.218,0.304
		c0.097,0.088,0.219,0.154,0.364,0.2c0.488,0.153,1.012,0.134,1.57-0.056s1.176-0.574,1.852-1.153l0.138,0.227
		c-0.374,0.333-0.732,0.601-1.073,0.804c-0.342,0.202-0.666,0.352-0.972,0.448c-0.307,0.097-0.594,0.146-0.86,0.149
		s-0.51-0.03-0.73-0.099c-0.16-0.05-0.322-0.125-0.487-0.226s-0.307-0.227-0.426-0.378c-0.118-0.151-0.199-0.33-0.243-0.537
		c-0.044-0.206-0.025-0.439,0.056-0.701c0.088-0.279,0.22-0.534,0.396-0.763s0.375-0.433,0.598-0.608s0.462-0.325,0.718-0.448
		c0.255-0.123,0.505-0.218,0.748-0.285c0.244-0.067,0.475-0.107,0.691-0.119c0.217-0.012,0.399,0.005,0.549,0.051
		c0.097,0.03,0.19,0.076,0.282,0.137c0.091,0.062,0.167,0.136,0.228,0.225c0.061,0.089,0.1,0.193,0.117,0.313
		s0.004,0.253-0.042,0.398c-0.062,0.198-0.165,0.369-0.311,0.514c-0.146,0.145-0.317,0.267-0.517,0.367s-0.417,0.176-0.655,0.231
		s-0.479,0.088-0.726,0.102c-0.245,0.013-0.487,0.009-0.727-0.012S87.618,11.052,87.416,10.993z M87.536,10.766
		c0.258,0.052,0.509,0.073,0.754,0.063c0.244-0.009,0.476-0.042,0.693-0.099c0.219-0.057,0.42-0.13,0.605-0.219
		s0.349-0.188,0.488-0.295c0.141-0.108,0.256-0.217,0.348-0.327c0.092-0.111,0.153-0.216,0.186-0.317
		c0.031-0.101,0.029-0.189-0.007-0.266c-0.035-0.077-0.09-0.126-0.164-0.15c-0.165-0.051-0.367-0.05-0.609,0.003
		c-0.241,0.054-0.497,0.152-0.767,0.294c-0.271,0.143-0.539,0.326-0.808,0.549C87.988,10.226,87.748,10.48,87.536,10.766z"/>
	<path fill="#FFFFFF" d="M97.176,11.131c-0.045,0.025-0.091,0.057-0.138,0.094c-0.048,0.037-0.095,0.084-0.142,0.141
		c-0.048,0.057-0.09,0.13-0.128,0.22c-0.031,0.076-0.056,0.186-0.072,0.332c-0.017,0.146-0.039,0.312-0.066,0.497
		c-0.026,0.186-0.063,0.384-0.107,0.597c-0.045,0.212-0.111,0.422-0.198,0.631c-0.129,0.306-0.284,0.559-0.465,0.758
		c-0.182,0.199-0.375,0.353-0.582,0.461c0.345-0.033,0.711-0.134,1.101-0.304c0.389-0.169,0.812-0.414,1.269-0.735l0.115,0.239
		c-0.263,0.191-0.544,0.37-0.846,0.538c-0.302,0.168-0.611,0.303-0.93,0.404c-0.317,0.102-0.638,0.158-0.96,0.168
		s-0.635-0.047-0.938-0.174c-0.27-0.114-0.471-0.273-0.603-0.479c-0.132-0.206-0.165-0.446-0.102-0.72l0.211,0.044
		c-0.01,0.022-0.014,0.061-0.015,0.118c-0.001,0.057,0.011,0.118,0.034,0.183s0.064,0.131,0.123,0.198
		c0.059,0.067,0.143,0.123,0.25,0.168c0.145,0.061,0.286,0.081,0.426,0.061c0.14-0.02,0.273-0.066,0.402-0.139
		c0.128-0.073,0.25-0.167,0.366-0.281c0.115-0.115,0.222-0.238,0.317-0.372c0.097-0.133,0.182-0.267,0.255-0.402
		c0.073-0.134,0.135-0.259,0.183-0.374c0.049-0.115,0.098-0.245,0.147-0.39c0.051-0.144,0.097-0.282,0.14-0.415
		s0.08-0.249,0.111-0.348s0.053-0.163,0.064-0.192l0.005-0.011c-0.068,0.031-0.155,0.081-0.261,0.151
		c-0.105,0.07-0.22,0.147-0.342,0.231c-0.122,0.084-0.245,0.17-0.369,0.258c-0.124,0.088-0.235,0.168-0.336,0.24
		s-0.183,0.132-0.247,0.179c-0.064,0.047-0.097,0.072-0.099,0.076l-0.131-0.233c0.005-0.002,0.083-0.061,0.232-0.176
		c0.15-0.115,0.345-0.259,0.585-0.431s0.51-0.362,0.809-0.569s0.6-0.403,0.902-0.59l0.141,0.269
		C97.259,11.08,97.221,11.105,97.176,11.131z"/>
	<path fill="#FFFFFF" d="M99.722,15.815c-0.254,0.111-0.498,0.208-0.734,0.291c-0.235,0.083-0.46,0.143-0.672,0.181
		s-0.41,0.052-0.597,0.042s-0.358-0.054-0.517-0.131c-0.133-0.065-0.242-0.147-0.326-0.247s-0.145-0.212-0.182-0.336
		s-0.046-0.259-0.027-0.404c0.019-0.146,0.065-0.295,0.141-0.45c0.118-0.242,0.293-0.465,0.525-0.67
		c0.231-0.204,0.488-0.388,0.77-0.55s0.574-0.305,0.879-0.426c0.304-0.121,0.587-0.223,0.849-0.304l0.149,0.268
		c-0.218,0.125-0.461,0.267-0.732,0.426c-0.271,0.159-0.537,0.331-0.798,0.514s-0.5,0.378-0.717,0.583
		c-0.218,0.205-0.378,0.415-0.482,0.629c-0.07,0.144-0.103,0.28-0.098,0.409s0.084,0.23,0.239,0.305
		c0.168,0.082,0.386,0.105,0.653,0.07c0.267-0.035,0.559-0.108,0.875-0.219c0.316-0.11,0.646-0.249,0.99-0.414
		c0.344-0.166,0.677-0.339,1-0.52c0.322-0.182,0.623-0.359,0.9-0.532c0.278-0.173,0.509-0.324,0.692-0.452l0.293,0.377
		c-0.399,0.301-0.776,0.579-1.133,0.833s-0.675,0.484-0.955,0.688c-0.279,0.205-0.513,0.388-0.697,0.55
		c-0.186,0.162-0.308,0.302-0.365,0.422c-0.024,0.049-0.033,0.095-0.027,0.137c0.006,0.042,0.031,0.074,0.077,0.096
		c0.128,0.067,0.299,0.081,0.511,0.041c0.213-0.04,0.442-0.108,0.688-0.206s0.495-0.214,0.75-0.349
		c0.254-0.134,0.487-0.263,0.699-0.386l0.118,0.24c-0.038,0.025-0.117,0.076-0.237,0.152s-0.263,0.161-0.43,0.253
		s-0.351,0.186-0.553,0.278c-0.201,0.093-0.404,0.169-0.606,0.229c-0.203,0.06-0.4,0.094-0.592,0.103
		c-0.19,0.009-0.36-0.022-0.508-0.094c-0.091-0.044-0.165-0.1-0.222-0.167c-0.057-0.067-0.097-0.139-0.12-0.215
		c-0.023-0.077-0.032-0.157-0.026-0.241s0.028-0.165,0.065-0.242c0.045-0.091,0.108-0.184,0.191-0.278S99.606,15.911,99.722,15.815z
		"/>
	<path fill="#FFFFFF" d="M105.487,18.055c-0.094,0.046-0.211,0.114-0.352,0.203c-0.142,0.088-0.3,0.181-0.475,0.278
		c-0.175,0.097-0.361,0.191-0.558,0.282c-0.196,0.092-0.395,0.162-0.595,0.211s-0.398,0.07-0.596,0.063s-0.383-0.06-0.557-0.157
		c-0.096-0.053-0.178-0.119-0.247-0.195c-0.069-0.077-0.119-0.164-0.149-0.262s-0.039-0.202-0.026-0.313
		c0.014-0.111,0.055-0.229,0.123-0.352c0.093-0.167,0.225-0.323,0.393-0.468c0.169-0.145,0.345-0.278,0.528-0.399
		c0.185-0.121,0.36-0.227,0.528-0.319c0.167-0.092,0.296-0.169,0.384-0.231c0.089-0.062,0.15-0.124,0.185-0.186
		c0.024-0.044,0.032-0.091,0.022-0.142s-0.027-0.104-0.052-0.16c-0.024-0.056-0.05-0.115-0.076-0.176
		c-0.025-0.062-0.04-0.126-0.042-0.195c-0.161,0.089-0.325,0.178-0.492,0.269c-0.146,0.075-0.306,0.162-0.48,0.258
		s-0.345,0.193-0.51,0.289l-0.104-0.246l2.053-1.102l0.105,0.16c-0.019,0.017-0.048,0.043-0.088,0.079s-0.074,0.079-0.104,0.13
		c-0.021,0.038-0.035,0.078-0.043,0.12c-0.009,0.042-0.002,0.089,0.019,0.141c0.067,0.199,0.122,0.354,0.163,0.464
		s0.068,0.195,0.083,0.254c0.014,0.059,0.018,0.104,0.012,0.134s-0.02,0.066-0.043,0.107c-0.022,0.041-0.058,0.086-0.104,0.137
		s-0.107,0.107-0.186,0.171c-0.078,0.063-0.177,0.135-0.295,0.214c-0.118,0.08-0.261,0.168-0.428,0.268
		c-0.102,0.06-0.201,0.122-0.302,0.184c-0.1,0.063-0.195,0.129-0.285,0.199c-0.091,0.07-0.174,0.145-0.249,0.224
		c-0.076,0.079-0.138,0.161-0.185,0.246c-0.036,0.065-0.057,0.122-0.06,0.172s0.005,0.093,0.024,0.131s0.045,0.07,0.077,0.097
		c0.031,0.027,0.064,0.05,0.099,0.069c0.112,0.063,0.243,0.092,0.391,0.087c0.148-0.004,0.306-0.029,0.472-0.075
		c0.167-0.045,0.338-0.107,0.514-0.186s0.349-0.162,0.52-0.25c0.17-0.088,0.33-0.175,0.479-0.259
		c0.15-0.084,0.282-0.156,0.397-0.218L105.487,18.055z"/>
	<path fill="#FFFFFF" d="M110.936,21.353c0.025-0.148,0.067-0.292,0.125-0.434c0.057-0.141,0.131-0.277,0.222-0.409
		c0.118-0.17,0.232-0.304,0.344-0.4c0.112-0.096,0.215-0.165,0.311-0.206c0.095-0.041,0.18-0.06,0.255-0.055
		c0.075,0.005,0.137,0.023,0.186,0.057c0.041,0.029,0.074,0.065,0.1,0.108c0.024,0.043,0.037,0.096,0.037,0.157
		c0,0.062-0.015,0.133-0.044,0.212c-0.028,0.08-0.077,0.169-0.146,0.269c-0.159,0.231-0.37,0.438-0.63,0.618
		c-0.261,0.181-0.546,0.333-0.856,0.456c-0.311,0.123-0.635,0.216-0.974,0.281c-0.34,0.065-0.668,0.101-0.987,0.109
		c-0.087,0.001-0.184,0-0.291-0.006c-0.108-0.005-0.219-0.018-0.331-0.036c-0.113-0.019-0.225-0.046-0.335-0.082
		c-0.111-0.036-0.21-0.084-0.296-0.144c-0.216-0.149-0.336-0.352-0.36-0.608c-0.024-0.256,0.064-0.531,0.267-0.823
		c0.094-0.135,0.213-0.267,0.357-0.394c0.146-0.127,0.308-0.249,0.487-0.365s0.371-0.225,0.574-0.326
		c0.203-0.102,0.407-0.192,0.612-0.272c0.204-0.08,0.406-0.147,0.606-0.204c0.2-0.056,0.389-0.098,0.563-0.124l0.115,0.287
		c-0.382,0.154-0.731,0.317-1.05,0.489s-0.603,0.345-0.854,0.518c-0.25,0.173-0.464,0.343-0.642,0.507
		c-0.178,0.165-0.315,0.317-0.414,0.459c-0.112,0.164-0.172,0.295-0.176,0.395c-0.005,0.099,0.033,0.176,0.114,0.232
		c0.077,0.053,0.203,0.099,0.378,0.137c0.176,0.039,0.396,0.057,0.663,0.056c0.34-0.003,0.688-0.043,1.048-0.12
		C110.273,21.614,110.614,21.501,110.936,21.353z M111.256,21.218c0.164-0.1,0.318-0.215,0.464-0.346
		c0.145-0.13,0.265-0.265,0.359-0.403c0.067-0.096,0.106-0.171,0.119-0.224c0.013-0.053,0.017-0.086,0.012-0.099
		c-0.003-0.002-0.022-0.001-0.059,0.002c-0.036,0.003-0.085,0.021-0.146,0.052c-0.062,0.031-0.134,0.083-0.215,0.157
		c-0.082,0.074-0.171,0.18-0.267,0.318c-0.056,0.081-0.108,0.169-0.16,0.267C111.313,21.042,111.276,21.133,111.256,21.218z"/>
	<path fill="#FFFFFF" d="M114.058,24.52c0.01,0.012,0.021,0.023,0.033,0.033c0.013,0.009,0.026,0.021,0.042,0.032
		c0.086,0.067,0.172,0.12,0.256,0.158s0.171,0.062,0.26,0.072s0.184,0.006,0.286-0.011s0.213-0.048,0.333-0.094l0.065,0.259
		c-0.311,0.095-0.577,0.123-0.799,0.084c-0.223-0.039-0.421-0.126-0.598-0.263c-0.064-0.05-0.116-0.101-0.156-0.151
		c-0.306,0.119-0.594,0.198-0.866,0.236c-0.272,0.039-0.525,0.046-0.759,0.023c-0.234-0.023-0.446-0.073-0.635-0.148
		c-0.189-0.075-0.35-0.164-0.482-0.267c-0.136-0.105-0.243-0.227-0.322-0.364c-0.078-0.138-0.124-0.284-0.139-0.438
		c-0.014-0.154,0.004-0.311,0.054-0.47c0.05-0.159,0.135-0.316,0.254-0.47c0.12-0.154,0.267-0.292,0.44-0.415
		s0.364-0.229,0.571-0.321c0.207-0.091,0.425-0.166,0.653-0.224c0.228-0.058,0.457-0.099,0.688-0.122
		c0.231-0.023,0.457-0.031,0.678-0.023c0.222,0.008,0.428,0.035,0.62,0.081l-0.003,0.31c-0.254-0.01-0.535,0.01-0.842,0.058
		c-0.308,0.048-0.612,0.126-0.915,0.232c-0.303,0.106-0.587,0.241-0.854,0.402s-0.483,0.35-0.651,0.566
		c-0.15,0.194-0.224,0.378-0.221,0.552c0.004,0.173,0.094,0.329,0.27,0.465c0.136,0.105,0.292,0.182,0.468,0.229
		s0.364,0.072,0.564,0.075c0.201,0.002,0.411-0.017,0.63-0.057c0.22-0.04,0.438-0.094,0.658-0.16
		c-0.049-0.122-0.072-0.253-0.072-0.394s0.021-0.285,0.063-0.434s0.101-0.297,0.178-0.444s0.169-0.289,0.274-0.425
		s0.222-0.251,0.349-0.345c0.128-0.094,0.257-0.163,0.388-0.208s0.257-0.062,0.378-0.052s0.229,0.052,0.324,0.126
		c0.087,0.067,0.146,0.149,0.18,0.247c0.033,0.097,0.042,0.203,0.027,0.318s-0.052,0.235-0.11,0.363
		c-0.06,0.127-0.137,0.252-0.232,0.376c-0.072,0.092-0.159,0.188-0.261,0.288c-0.102,0.099-0.211,0.193-0.327,0.283
		c-0.117,0.09-0.239,0.173-0.365,0.25C114.305,24.416,114.18,24.476,114.058,24.52z M114.322,22.878
		c-0.069,0.09-0.137,0.193-0.203,0.31c-0.065,0.117-0.12,0.238-0.163,0.363c-0.042,0.125-0.07,0.25-0.084,0.376
		s-0.001,0.243,0.038,0.352c0.14-0.065,0.272-0.139,0.398-0.221s0.242-0.167,0.351-0.251c0.107-0.084,0.202-0.168,0.283-0.25
		c0.082-0.083,0.148-0.158,0.201-0.226c0.072-0.093,0.13-0.184,0.175-0.272c0.044-0.089,0.075-0.172,0.094-0.25
		c0.018-0.077,0.021-0.147,0.007-0.209c-0.014-0.063-0.043-0.112-0.09-0.147c-0.062-0.048-0.135-0.071-0.22-0.07
		c-0.085,0-0.172,0.021-0.264,0.063c-0.091,0.041-0.182,0.099-0.272,0.174C114.482,22.692,114.399,22.779,114.322,22.878z"/>
	<path fill="#FFFFFF" d="M117.891,23.489c0.073-0.025,0.201-0.067,0.383-0.127c0.183-0.06,0.39-0.122,0.622-0.185
		s0.474-0.12,0.725-0.169s0.48-0.079,0.688-0.086l0.097,0.292c-0.308,0.102-0.63,0.212-0.965,0.334
		c-0.336,0.121-0.677,0.252-1.023,0.392l1.449,1.244l-0.287,0.155l-1.48-1.271c-0.362,0.152-0.716,0.311-1.06,0.474
		c-0.343,0.164-0.662,0.327-0.957,0.491c-0.295,0.164-0.558,0.329-0.787,0.495c-0.229,0.166-0.411,0.326-0.543,0.48
		c-0.165,0.192-0.239,0.369-0.224,0.53c0.017,0.161,0.09,0.297,0.221,0.409c0.116,0.099,0.265,0.166,0.445,0.201
		c0.182,0.035,0.377,0.049,0.585,0.042c0.209-0.006,0.421-0.028,0.635-0.065c0.215-0.038,0.411-0.077,0.59-0.12
		c0.178-0.042,0.33-0.083,0.456-0.122s0.203-0.063,0.233-0.074l0.058,0.266c-0.252,0.083-0.525,0.165-0.82,0.246
		c-0.296,0.081-0.594,0.135-0.894,0.164c-0.3,0.029-0.59,0.017-0.869-0.035c-0.28-0.052-0.528-0.171-0.744-0.356
		c-0.134-0.114-0.229-0.238-0.288-0.371s-0.086-0.271-0.082-0.414c0.005-0.143,0.039-0.287,0.104-0.432s0.156-0.286,0.273-0.422
		c0.076-0.089,0.198-0.203,0.366-0.342c0.168-0.139,0.382-0.291,0.643-0.457c0.26-0.165,0.566-0.338,0.92-0.519
		s0.755-0.356,1.204-0.526l-0.738-0.633l0.287-0.155L117.891,23.489z"/>
	<path fill="#FFFFFF" d="M120.274,29.444c-0.102,0.022-0.231,0.06-0.39,0.112c-0.159,0.052-0.335,0.104-0.527,0.157
		c-0.193,0.052-0.396,0.099-0.609,0.141s-0.422,0.063-0.628,0.063s-0.403-0.027-0.594-0.082c-0.189-0.055-0.357-0.15-0.503-0.286
		c-0.079-0.075-0.144-0.158-0.192-0.249c-0.049-0.091-0.076-0.188-0.082-0.29c-0.007-0.102,0.01-0.206,0.05-0.311
		c0.039-0.105,0.106-0.209,0.203-0.312c0.13-0.14,0.295-0.26,0.493-0.361s0.401-0.188,0.609-0.261
		c0.207-0.073,0.403-0.134,0.588-0.184c0.186-0.049,0.328-0.093,0.43-0.132c0.101-0.04,0.175-0.085,0.223-0.136
		c0.035-0.037,0.054-0.081,0.056-0.132c0.003-0.051-0.001-0.107-0.012-0.167c-0.01-0.061-0.021-0.124-0.031-0.189
		c-0.011-0.066-0.009-0.133,0.006-0.199c-0.178,0.047-0.358,0.095-0.542,0.143c-0.159,0.038-0.335,0.083-0.528,0.136
		s-0.382,0.104-0.564,0.158l-0.042-0.264l2.256-0.578l0.064,0.18c-0.021,0.012-0.057,0.03-0.104,0.056
		c-0.048,0.025-0.092,0.059-0.132,0.102c-0.029,0.032-0.053,0.067-0.071,0.106c-0.018,0.04-0.023,0.086-0.016,0.142
		c0.018,0.209,0.034,0.373,0.048,0.49c0.013,0.117,0.02,0.206,0.019,0.267c0,0.061-0.007,0.105-0.021,0.133
		c-0.013,0.028-0.035,0.06-0.066,0.094c-0.032,0.034-0.077,0.07-0.134,0.108c-0.057,0.038-0.131,0.078-0.222,0.122
		c-0.091,0.043-0.204,0.089-0.338,0.138s-0.293,0.101-0.479,0.157c-0.112,0.034-0.225,0.069-0.336,0.106
		c-0.112,0.037-0.221,0.079-0.325,0.125c-0.105,0.046-0.204,0.099-0.296,0.157c-0.092,0.058-0.171,0.123-0.238,0.194
		c-0.05,0.054-0.083,0.105-0.098,0.152c-0.016,0.048-0.019,0.092-0.009,0.133c0.01,0.041,0.027,0.078,0.052,0.112
		c0.024,0.034,0.051,0.064,0.08,0.091c0.094,0.088,0.213,0.147,0.358,0.179c0.145,0.031,0.303,0.044,0.476,0.04
		s0.354-0.023,0.543-0.058s0.378-0.073,0.564-0.119c0.187-0.045,0.362-0.09,0.528-0.136c0.165-0.045,0.312-0.084,0.438-0.116
		L120.274,29.444z"/>
	<path fill="#FFFFFF" d="M119.933,30.078c-0.039,0.027-0.077,0.055-0.113,0.085s-0.071,0.061-0.104,0.094
		c-0.102,0.098-0.184,0.206-0.246,0.323s-0.101,0.239-0.113,0.363c-0.014,0.124,0.002,0.248,0.045,0.372
		c0.044,0.124,0.118,0.24,0.225,0.35c0.355,0.368,0.824,0.602,1.405,0.703s1.308,0.059,2.178-0.126l0.013,0.266
		c-0.488,0.114-0.931,0.177-1.327,0.191c-0.397,0.014-0.753-0.009-1.068-0.071c-0.315-0.062-0.591-0.155-0.826-0.281
		s-0.434-0.271-0.594-0.437c-0.116-0.121-0.224-0.265-0.32-0.432s-0.16-0.346-0.192-0.536c-0.031-0.189-0.017-0.386,0.043-0.587
		c0.061-0.202,0.188-0.398,0.385-0.588c0.211-0.204,0.448-0.364,0.713-0.481c0.264-0.117,0.536-0.2,0.815-0.248
		c0.28-0.048,0.562-0.064,0.845-0.05c0.282,0.015,0.547,0.051,0.794,0.108c0.246,0.058,0.467,0.133,0.663,0.227
		c0.196,0.093,0.349,0.195,0.457,0.308c0.07,0.073,0.131,0.158,0.183,0.256c0.051,0.098,0.081,0.2,0.092,0.306
		s-0.005,0.217-0.047,0.331c-0.042,0.114-0.117,0.224-0.227,0.33c-0.149,0.144-0.322,0.245-0.52,0.302
		c-0.196,0.058-0.406,0.083-0.629,0.075c-0.222-0.008-0.45-0.045-0.686-0.111s-0.464-0.152-0.686-0.258
		c-0.223-0.106-0.434-0.225-0.633-0.358S120.082,30.227,119.933,30.078z M120.146,29.937c0.201,0.169,0.412,0.308,0.631,0.417
		c0.22,0.108,0.438,0.19,0.657,0.245s0.431,0.087,0.637,0.098c0.205,0.01,0.396,0.001,0.57-0.026
		c0.174-0.027,0.328-0.068,0.462-0.121c0.133-0.053,0.238-0.116,0.313-0.189c0.076-0.073,0.116-0.152,0.122-0.236
		c0.006-0.084-0.019-0.154-0.073-0.21c-0.119-0.124-0.298-0.22-0.536-0.289c-0.237-0.069-0.509-0.105-0.814-0.108
		c-0.305-0.004-0.629,0.028-0.971,0.096C120.802,29.679,120.47,29.787,120.146,29.937z"/>
	<path fill="#FFFFFF" d="M127.496,37.288c0.068-0.134,0.15-0.26,0.247-0.378c0.096-0.118,0.206-0.227,0.332-0.326
		c0.162-0.128,0.311-0.222,0.445-0.282c0.135-0.059,0.254-0.095,0.357-0.106c0.103-0.012,0.189-0.004,0.26,0.022
		s0.124,0.063,0.16,0.108c0.031,0.04,0.053,0.084,0.064,0.133c0.011,0.048,0.007,0.103-0.011,0.162
		c-0.019,0.059-0.053,0.122-0.104,0.19c-0.052,0.068-0.124,0.139-0.22,0.214c-0.22,0.174-0.481,0.31-0.783,0.407
		c-0.302,0.097-0.619,0.159-0.952,0.185s-0.671,0.021-1.014-0.016c-0.344-0.038-0.668-0.099-0.976-0.185
		c-0.083-0.023-0.176-0.054-0.277-0.091c-0.101-0.037-0.203-0.081-0.306-0.132c-0.103-0.051-0.201-0.109-0.296-0.176
		c-0.096-0.067-0.176-0.142-0.241-0.224c-0.162-0.206-0.218-0.435-0.166-0.687s0.218-0.489,0.496-0.709
		c0.129-0.102,0.281-0.192,0.457-0.272c0.177-0.08,0.367-0.148,0.573-0.206c0.205-0.058,0.42-0.106,0.645-0.144
		c0.224-0.038,0.445-0.064,0.664-0.081s0.433-0.022,0.641-0.017s0.399,0.02,0.574,0.046l0.026,0.308
		c-0.41,0.035-0.792,0.089-1.146,0.16c-0.355,0.071-0.678,0.153-0.968,0.246c-0.29,0.092-0.545,0.191-0.763,0.296
		c-0.218,0.105-0.395,0.211-0.529,0.318c-0.156,0.124-0.251,0.232-0.284,0.326c-0.033,0.093-0.02,0.178,0.041,0.255
		c0.059,0.074,0.166,0.154,0.322,0.242s0.362,0.17,0.618,0.248c0.325,0.096,0.671,0.16,1.037,0.192
		C126.787,37.344,127.146,37.336,127.496,37.288z M127.843,37.253c0.186-0.048,0.367-0.113,0.544-0.195
		c0.177-0.082,0.33-0.175,0.462-0.279c0.092-0.073,0.152-0.133,0.18-0.18c0.027-0.046,0.041-0.077,0.04-0.091
		c-0.003-0.003-0.021-0.008-0.057-0.015s-0.087-0.005-0.155,0.007s-0.152,0.041-0.252,0.087c-0.101,0.046-0.216,0.122-0.348,0.226
		c-0.077,0.061-0.153,0.13-0.231,0.209C127.948,37.101,127.888,37.178,127.843,37.253z"/>
	<path fill="#FFFFFF" d="M130.4,38.435c-0.111,0.019-0.262,0.039-0.45,0.063s-0.394,0.05-0.614,0.081
		c-0.222,0.031-0.453,0.065-0.692,0.104c-0.239,0.039-0.469,0.083-0.686,0.132c-0.218,0.049-0.416,0.105-0.593,0.166
		c-0.178,0.062-0.317,0.129-0.418,0.202c-0.092,0.066-0.141,0.131-0.146,0.193s0.017,0.128,0.067,0.197
		c0.094,0.13,0.229,0.225,0.403,0.287c0.175,0.061,0.375,0.103,0.602,0.125c0.226,0.022,0.47,0.027,0.731,0.016
		s0.525-0.024,0.79-0.038l-0.009,0.267c-0.23,0.028-0.481,0.052-0.752,0.072c-0.27,0.02-0.536,0.017-0.8-0.01
		c-0.263-0.026-0.508-0.087-0.736-0.182c-0.229-0.095-0.416-0.244-0.563-0.446c-0.138-0.19-0.187-0.376-0.146-0.56
		c0.041-0.184,0.151-0.341,0.331-0.472c0.212-0.153,0.469-0.265,0.771-0.334c0.302-0.07,0.619-0.113,0.952-0.13s0.666-0.016,1,0.005
		c0.333,0.021,0.639,0.042,0.915,0.063L130.4,38.435z M132.097,38.558c-0.063,0.046-0.14,0.078-0.23,0.095s-0.182,0.021-0.271,0.012
		c-0.09-0.01-0.173-0.033-0.252-0.067c-0.078-0.035-0.139-0.082-0.183-0.142c-0.039-0.054-0.049-0.109-0.03-0.167
		s0.057-0.106,0.113-0.147c0.051-0.037,0.118-0.071,0.201-0.103c0.083-0.031,0.17-0.051,0.259-0.058s0.176,0.001,0.259,0.022
		s0.15,0.067,0.2,0.137c0.049,0.066,0.064,0.142,0.049,0.226C132.195,38.45,132.157,38.514,132.097,38.558z"/>
	<path fill="#FFFFFF" d="M128.946,40.785c-0.044,0.02-0.086,0.041-0.127,0.063c-0.041,0.023-0.081,0.047-0.12,0.073
		c-0.117,0.078-0.218,0.169-0.301,0.273c-0.083,0.104-0.143,0.217-0.178,0.336s-0.043,0.244-0.022,0.374s0.072,0.258,0.157,0.385
		c0.283,0.426,0.701,0.742,1.254,0.946c0.554,0.205,1.275,0.295,2.165,0.272l-0.037,0.263c-0.5,0.023-0.946,0.005-1.339-0.053
		c-0.394-0.058-0.739-0.146-1.038-0.264s-0.552-0.26-0.761-0.426c-0.209-0.167-0.377-0.345-0.505-0.537
		c-0.093-0.14-0.172-0.301-0.236-0.483s-0.095-0.369-0.092-0.562c0.004-0.192,0.054-0.382,0.149-0.57
		c0.096-0.188,0.257-0.357,0.484-0.508c0.244-0.162,0.507-0.277,0.788-0.344c0.281-0.067,0.564-0.099,0.848-0.095
		c0.284,0.004,0.563,0.039,0.84,0.104c0.275,0.065,0.529,0.149,0.761,0.25c0.231,0.102,0.436,0.216,0.611,0.343
		s0.307,0.256,0.394,0.386c0.056,0.085,0.1,0.18,0.133,0.285c0.032,0.105,0.044,0.211,0.035,0.318
		c-0.01,0.107-0.045,0.212-0.106,0.317c-0.063,0.104-0.156,0.199-0.283,0.283c-0.173,0.115-0.361,0.183-0.565,0.203
		c-0.204,0.021-0.415,0.007-0.632-0.041c-0.218-0.048-0.436-0.125-0.654-0.233c-0.22-0.107-0.429-0.233-0.628-0.378
		s-0.385-0.3-0.557-0.467C129.212,41.128,129.066,40.958,128.946,40.785z M129.182,40.684c0.168,0.203,0.35,0.378,0.546,0.524
		c0.195,0.146,0.396,0.267,0.601,0.36c0.205,0.093,0.408,0.164,0.608,0.211s0.389,0.073,0.565,0.078s0.336-0.007,0.477-0.035
		c0.141-0.028,0.255-0.071,0.343-0.129c0.088-0.058,0.143-0.128,0.163-0.21s0.01-0.155-0.034-0.22
		c-0.095-0.143-0.253-0.271-0.475-0.381c-0.221-0.111-0.481-0.196-0.781-0.255c-0.299-0.059-0.623-0.086-0.972-0.082
		C129.873,40.55,129.526,40.596,129.182,40.684z"/>
</g>
</svg>
