<svg xmlns="http://www.w3.org/2000/svg" width="35" height="44.99" viewBox="0 0 35 44.99"><path fill="#FFF" d="M32.566.5H2.434A1.45 1.45 0 0 0 .976 1.943v41.102a1.45 1.45 0 0 0 1.458 1.445H24.79c.358 0 .707-.132.976-.37l7.774-6.892c.31-.274.483-.666.483-1.075V1.943c0-.797-.649-1.443-1.457-1.443zm-1.455 34.845h-6.784v6.173l-.091.081H3.894V3.389h27.217v31.956zm-10.935-9.169h-7.411a.761.761 0 0 0-.762.758v7.338c0 .42.339.756.762.756h7.411a.76.76 0 0 0 .762-.756v-7.338a.761.761 0 0 0-.762-.758zm-.759 7.341h-5.889v-5.83h5.889v5.83zm1.425-18.516v-.054a.67.67 0 0 0-.674-.667H12.77a.67.67 0 0 0-.673.667v7.326c0 .37.303.668.673.668h7.4a.671.671 0 0 0 .674-.668v-2.611l-1.189 1.178c-.045.044-.104.065-.157.104v.665h-6.053v-5.997h6.053v.721l1.344-1.332zm1.388-.434l-3.752 3.715-1.437-1.423a.994.994 0 0 0-1.401 0 .97.97 0 0 0 0 1.386l2.138 2.118a.991.991 0 0 0 1.401 0l4.452-4.409a.97.97 0 0 0 0-1.388.999.999 0 0 0-1.401.001zm4.997-7.029H7.774v2.013h19.453V7.538z"/></svg>