<svg xmlns="http://www.w3.org/2000/svg" width="45.5" height="44.99" viewBox="0 0 45.5 44.99"><path fill="#FFF" d="M38.372 22.723h-2.216c0-7.23-5.887-13.117-13.117-13.117V7.391c8.46-.001 15.333 6.879 15.333 15.332zM23.039 11.217v2.217c5.125 0 9.291 4.164 9.291 9.29h2.216c-.001-6.349-5.16-11.507-11.507-11.507zM22.596.763C10.61.763.865 10.508.865 22.495c0 11.986 9.745 21.73 21.731 21.73.742 0 1.337-.597 1.337-1.338s-.596-1.345-1.337-1.345C12.091 41.545 3.547 33 3.547 22.496c0-10.507 8.545-19.051 19.049-19.051 10.505 0 19.048 8.543 19.048 19.051 0 4.392-2.332 8.744-5.678 10.582a8.214 8.214 0 0 1-3.938 1.015 6.361 6.361 0 0 0 2.117-2.032c.104-.164.248-.309.318-.481.436-1.046.475-2.242.734-3.354.324-1.41-6.198-4.179-6.764-2.409-.201.655-.521 2.721-.93 3.267-.37.487-1.267.259-1.832-.222-1.488-1.267-3.145-3.132-4.601-4.6l-.123-.123c-.038-.04-.085-.084-.124-.123-1.468-1.455-3.333-3.111-4.601-4.601-.48-.564-.708-1.468-.22-1.832.547-.416 2.612-.721 3.268-.928 1.768-.566-1-7.089-2.416-6.764-1.104.261-2.301.298-3.347.733-.181.078-.318.215-.481.318-3.722 2.357-4.203 8.095-.563 12.364a99.428 99.428 0 0 0 4.312 4.755l-.007.008c.04.04.085.077.125.123a.72.72 0 0 1 .116.125l.014-.007c1.54 1.485 3.371 3.678 6.339 5.655 6.264 4.179 11.066 3.018 13.892 1.464 4.886-2.689 7.068-8.433 7.068-12.929C44.329 10.509 34.577.763 22.596.763z"/></svg>