<svg xmlns="http://www.w3.org/2000/svg" width="27.075" height="27.755" viewBox="0 0 27.075 27.755"><path fill="#FFF" d="M26.086 14.742a9.047 9.047 0 0 0-2.92-5.903 11.632 11.632 0 0 0-3.393-2.132c-.16.241-.345.468-.555.675-.277.275-.589.51-.928.698a9.35 9.35 0 0 1 1.035.406.626.626 0 0 1 .281.885.64.64 0 0 1-.822.255c-2.259-1.056-4.782-.857-5.889-.692a.635.635 0 0 1-.713-.473v-.003a.631.631 0 0 1 .523-.771c.201-.031.445-.062.717-.087a4.206 4.206 0 0 1-1.218-1.724c-.337.056-.671.126-.997.208-1.896-1.092-4.172-1.095-5.526-.963a.84.84 0 0 0-.68 1.205l1.147 2.326C4.874 9.75 3.911 11.094 3.37 12.593l-1.398-.006a.846.846 0 0 0-.853.841v3.104c0 .313.176.6.456.745l1.815.936c.759 2.07 2.331 3.848 4.403 5.072v2.748c0 .541.444.98.991.98h2.543c.394 0 .75-.232.909-.588l.637-1.449a13.992 13.992 0 0 0 4.295-.142v1.199c0 .541.444.98.991.98h2.531a.993.993 0 0 0 .875-.519c1.348-2.505 2.813-5.018 3.894-7.64a8.776 8.776 0 0 0 .627-4.112zm-18.131-.689a1.266 1.266 0 0 1-1.274-1.261c0-.697.569-1.261 1.274-1.261s1.274.563 1.274 1.261-.569 1.261-1.274 1.261zm6.991-6.511a3.464 3.464 0 0 0 1.892.177 3.413 3.413 0 0 0 2.118-1.32c.416-.56.662-1.252.662-2.003.003-1.869-1.528-3.382-3.415-3.382-1.889 0-3.417 1.513-3.417 3.382 0 .484.102.944.289 1.361a3.411 3.411 0 0 0 1.871 1.785z"/></svg>