<?xml version="1.0" encoding="utf-8"?>
<!-- Generator: Adobe Illustrator 17.0.0, SVG Export Plug-In . SVG Version: 6.00 Build 0)  -->
<svg version="1.2" baseProfile="tiny" id="Calque_1"
	 xmlns="http://www.w3.org/2000/svg" xmlns:xlink="http://www.w3.org/1999/xlink" x="0px" y="0px" width="198.425px"
	 height="198.425px" viewBox="0 0 198.425 198.425" xml:space="preserve">
<g>
	<g>
		<polygon fill="#2A2A2A" stroke="#2A2A2A" stroke-width="1.5" stroke-miterlimit="10" points="16.99,61.222 75.357,20.914 
			98.534,35.351 99.07,35.685 99.601,35.345 122.477,20.715 181.134,61.222 182.894,61.222 122.498,19.513 99.063,34.503 
			75.329,19.718 15.231,61.222 		"/>
	</g>
	<g>
		<path fill="#2A2A2A" stroke="#2A2A2A" stroke-width="1.5" stroke-miterlimit="10" d="M57.006,115.549H55.16
			c-0.219,0-0.397-0.059-0.538-0.176c-0.14-0.116-0.249-0.268-0.327-0.455l-3.88-9.607H34.171l-3.881,9.607
			c-0.063,0.172-0.171,0.319-0.327,0.444c-0.155,0.124-0.343,0.187-0.561,0.187h-1.823l13.533-33.073h2.36L57.006,115.549z
			 M49.69,103.536l-6.731-16.712c-0.233-0.546-0.46-1.2-0.678-1.964c-0.094,0.374-0.195,0.729-0.304,1.063
			c-0.109,0.335-0.226,0.643-0.351,0.924l-6.731,16.688H49.69z"/>
		<path fill="#2A2A2A" stroke="#2A2A2A" stroke-width="1.5" stroke-miterlimit="10" d="M78.555,86.497
			c-0.14,0.265-0.343,0.396-0.607,0.396c-0.202,0-0.464-0.144-0.783-0.432c-0.319-0.288-0.752-0.608-1.297-0.959
			c-0.546-0.351-1.228-0.674-2.045-0.97c-0.818-0.296-1.827-0.444-3.027-0.444c-1.2,0-2.255,0.172-3.167,0.515
			c-0.911,0.343-1.675,0.811-2.29,1.402c-0.616,0.593-1.084,1.277-1.402,2.057c-0.32,0.779-0.479,1.598-0.479,2.454
			c0,1.122,0.237,2.05,0.713,2.781c0.475,0.733,1.103,1.356,1.882,1.87c0.778,0.515,1.663,0.947,2.652,1.298
			c0.989,0.351,2.006,0.697,3.051,1.04c1.043,0.343,2.061,0.721,3.05,1.133c0.989,0.413,1.873,0.932,2.653,1.555
			c0.778,0.623,1.405,1.391,1.881,2.303c0.476,0.911,0.713,2.045,0.713,3.4c0,1.387-0.237,2.692-0.713,3.915
			c-0.476,1.224-1.165,2.287-2.068,3.191c-0.904,0.904-2.01,1.617-3.319,2.139c-1.309,0.522-2.805,0.783-4.487,0.783
			c-2.182,0-4.06-0.386-5.633-1.157c-1.574-0.771-2.953-1.826-4.138-3.167l0.655-1.028c0.186-0.233,0.404-0.351,0.654-0.351
			c0.14,0,0.319,0.094,0.537,0.28c0.218,0.188,0.483,0.417,0.795,0.689c0.311,0.273,0.685,0.569,1.122,0.889
			c0.436,0.319,0.942,0.615,1.52,0.888c0.576,0.273,1.238,0.503,1.986,0.689c0.748,0.188,1.597,0.281,2.548,0.281
			c1.309,0,2.478-0.199,3.506-0.597c1.028-0.397,1.896-0.938,2.606-1.624c0.709-0.686,1.25-1.5,1.624-2.442
			c0.374-0.943,0.562-1.952,0.562-3.027c0-1.169-0.238-2.131-0.713-2.887c-0.476-0.756-1.103-1.387-1.882-1.893
			c-0.779-0.507-1.664-0.932-2.653-1.274c-0.989-0.343-2.006-0.678-3.05-1.005c-1.044-0.327-2.061-0.693-3.051-1.099
			c-0.989-0.405-1.873-0.923-2.652-1.555c-0.779-0.631-1.406-1.417-1.882-2.36c-0.476-0.942-0.713-2.123-0.713-3.541
			c0-1.106,0.211-2.174,0.631-3.202c0.421-1.028,1.036-1.937,1.847-2.723c0.811-0.787,1.812-1.418,3.004-1.894
			c1.191-0.476,2.551-0.713,4.078-0.713c1.714,0,3.253,0.272,4.616,0.818c1.363,0.545,2.606,1.379,3.729,2.501L78.555,86.497z"/>
		<path fill="#2A2A2A" stroke="#2A2A2A" stroke-width="1.5" stroke-miterlimit="10" d="M109.011,84.509H97.395v31.04h-2.408v-31.04
			H83.3v-2.033h25.711V84.509z"/>
		<path fill="#2A2A2A" stroke="#2A2A2A" stroke-width="1.5" stroke-miterlimit="10" d="M137.386,115.549h-2.057
			c-0.265,0-0.487-0.043-0.666-0.129c-0.18-0.085-0.347-0.245-0.503-0.479l-10.611-13.417c-0.125-0.171-0.253-0.318-0.386-0.443
			c-0.133-0.125-0.28-0.223-0.444-0.293c-0.163-0.069-0.358-0.12-0.584-0.151c-0.226-0.031-0.503-0.047-0.83-0.047h-4.323v14.959
			h-2.408V82.476h8.462c3.802,0,6.649,0.736,8.543,2.209c1.893,1.472,2.84,3.634,2.84,6.485c0,1.263-0.219,2.416-0.655,3.46
			c-0.436,1.044-1.064,1.959-1.881,2.746c-0.818,0.787-1.808,1.43-2.969,1.929c-1.161,0.498-2.466,0.833-3.915,1.005
			c0.374,0.233,0.709,0.545,1.005,0.935L137.386,115.549z M122.708,98.814c1.465,0,2.778-0.176,3.938-0.526
			c1.161-0.351,2.143-0.853,2.945-1.507c0.803-0.654,1.414-1.441,1.835-2.361c0.421-0.919,0.631-1.955,0.631-3.108
			c0-2.352-0.768-4.098-2.302-5.235c-1.535-1.138-3.775-1.706-6.72-1.706h-6.054v14.444H122.708z"/>
		<path fill="#2A2A2A" stroke="#2A2A2A" stroke-width="1.5" stroke-miterlimit="10" d="M172.167,99.001
			c0,2.557-0.382,4.874-1.146,6.954c-0.764,2.08-1.839,3.856-3.226,5.329c-1.387,1.473-3.05,2.61-4.99,3.412
			c-1.939,0.803-4.078,1.204-6.416,1.204c-2.337,0-4.473-0.401-6.404-1.204c-1.933-0.802-3.592-1.939-4.979-3.412
			c-1.387-1.473-2.462-3.249-3.226-5.329c-0.764-2.08-1.146-4.397-1.146-6.954c0-2.539,0.382-4.85,1.146-6.93
			c0.764-2.08,1.839-3.856,3.226-5.329s3.046-2.614,4.979-3.425c1.932-0.81,4.067-1.215,6.404-1.215
			c2.338,0,4.477,0.401,6.416,1.203c1.94,0.803,3.604,1.944,4.99,3.425c1.387,1.48,2.462,3.261,3.226,5.341
			C171.785,94.151,172.167,96.462,172.167,99.001z M169.689,99.001c0-2.306-0.319-4.378-0.959-6.217
			c-0.639-1.839-1.542-3.396-2.711-4.675c-1.169-1.277-2.571-2.256-4.207-2.934c-1.637-0.678-3.444-1.017-5.423-1.017
			c-1.963,0-3.763,0.339-5.399,1.017c-1.636,0.678-3.042,1.656-4.219,2.934c-1.177,1.278-2.088,2.836-2.734,4.675
			c-0.648,1.839-0.97,3.911-0.97,6.217c0,2.322,0.322,4.398,0.97,6.229c0.646,1.831,1.558,3.386,2.734,4.663
			c1.177,1.277,2.583,2.252,4.219,2.922c1.637,0.67,3.437,1.005,5.399,1.005c1.979,0,3.786-0.335,5.423-1.005
			c1.636-0.67,3.038-1.645,4.207-2.922c1.169-1.277,2.072-2.832,2.711-4.663C169.37,103.399,169.689,101.323,169.689,99.001z"/>
	</g>
	<g>
		<path fill="#2A2A2A" stroke="#2A2A2A" stroke-miterlimit="10" d="M98.834,58.436v14.699H97.91V60.607
			c0-0.18,0.01-0.37,0.031-0.571L92.156,70.31c-0.098,0.18-0.236,0.27-0.416,0.27h-0.166c-0.182,0-0.318-0.09-0.416-0.27
			l-5.942-10.295c0.021,0.208,0.031,0.405,0.031,0.592v12.528h-0.936V58.436h0.738c0.097,0,0.173,0.011,0.229,0.031
			c0.055,0.021,0.11,0.076,0.166,0.166l5.933,10.222c0.104,0.194,0.193,0.402,0.27,0.624c0.041-0.111,0.086-0.22,0.135-0.327
			c0.049-0.107,0.1-0.21,0.156-0.307l5.766-10.212c0.055-0.09,0.111-0.146,0.172-0.166c0.059-0.021,0.135-0.031,0.232-0.031H98.834z
			"/>
		<path fill="#2A2A2A" stroke="#2A2A2A" stroke-miterlimit="10" d="M107.716,67.079v6.057h-1.06v-6.057l-5.443-8.643h0.935
			c0.097,0,0.177,0.022,0.239,0.067c0.063,0.045,0.114,0.109,0.155,0.192l4.208,6.752c0.09,0.159,0.173,0.313,0.249,0.463
			c0.076,0.148,0.142,0.296,0.197,0.441c0.056-0.146,0.117-0.293,0.187-0.441c0.069-0.149,0.149-0.304,0.239-0.463l4.207-6.752
			c0.035-0.076,0.085-0.139,0.151-0.188c0.066-0.048,0.147-0.072,0.244-0.072h0.935L107.716,67.079z"/>
	</g>
	<polygon fill="#2A2A2A" stroke="#2A2A2A" stroke-width="1.5" stroke-miterlimit="10" points="8.413,106.082 3.573,98.814 
		8.413,91.545 13.253,98.814 	"/>
	<polygon fill="#2A2A2A" stroke="#2A2A2A" stroke-width="1.5" stroke-miterlimit="10" points="190.641,106.082 185.802,98.814 
		190.641,91.545 195.481,98.814 	"/>
	<g>
		
			<rect x="8.413" y="65.407" fill="#2A2A2A" stroke="#2A2A2A" stroke-width="1.5" stroke-miterlimit="10" width="67.307" height="1"/>
	</g>
	<g>
		
			<rect x="122.806" y="65.407" fill="#2A2A2A" stroke="#2A2A2A" stroke-width="1.5" stroke-miterlimit="10" width="67.378" height="1"/>
	</g>
	<g>
		
			<rect x="8.413" y="131.2" fill="#2A2A2A" stroke="#2A2A2A" stroke-width="1.5" stroke-miterlimit="10" width="182.12" height="1"/>
	</g>
	<g>
		<polygon fill="#2A2A2A" points="79.321,16.347 99.057,2.842 118.35,16.347 		"/>
		<g>
			<path fill="#2A2A2A" d="M99.052,3.755l16.918,11.843H81.745L99.052,3.755 M99.062,1.93L76.896,17.097h43.833L99.062,1.93
				L99.062,1.93z"/>
		</g>
	</g>
	<g>
		<polygon fill="#2A2A2A" stroke="#2A2A2A" stroke-width="1.5" stroke-miterlimit="10" points="181.134,137.638 122.767,177.947 
			99.59,163.509 99.054,163.175 98.523,163.515 75.647,178.146 16.991,137.638 15.23,137.638 75.627,179.347 99.062,164.358 
			122.796,179.142 182.894,137.638 		"/>
	</g>
	<g>
		<polygon fill="#2A2A2A" points="79.776,182.797 118.804,182.797 99.067,196.301 		"/>
		<g>
			<path fill="#2A2A2A" d="M116.381,183.547l-17.309,11.843l-16.917-11.843H116.381 M121.229,182.047H77.396l21.666,15.167
				L121.229,182.047L121.229,182.047z"/>
		</g>
	</g>
</g>
</svg>
