<?xml version="1.0" encoding="iso-8859-1"?>
<!-- Generator: Adobe Illustrator 17.0.0, SVG Export Plug-In . SVG Version: 6.00 Build 0)  -->
<!DOCTYPE svg PUBLIC "-//W3C//DTD SVG 1.1//EN" "http://www.w3.org/Graphics/SVG/1.1/DTD/svg11.dtd">
<svg version="1.1" id="Layer_1" xmlns="http://www.w3.org/2000/svg" xmlns:xlink="http://www.w3.org/1999/xlink" x="0px" y="0px"
	 width="96px" height="96px" viewBox="0 0 96 96" style="enable-background:new 0 0 96 96;" xml:space="preserve">
<path style="fill:#EDC805;" d="M82.021,23.326c-1.547-7.971-10.422-6.894-12.158-6.216c1.013-1.872,1.11-3.804,0.685-5.766
	c-0.433-1.998-1.39-3.727-2.889-5.119c-2.002-1.859-4.365-2.561-7.047-1.854c-2.358,0.622-4.273,2.019-5.834,3.876
	c-1.337,1.591-2.059,3.5-2.616,5.468c-0.939,3.318-1.321,6.727-1.743,10.13c-0.379,3.057-0.788,6.11-1.191,9.164
	c-0.054,0.407-0.151,0.808-0.226,1.212c-0.035,0.189-0.065,0.378-0.097,0.567c-0.052-0.006-0.104-0.011-0.156-0.017
	c-0.014-1.133-0.074-2.268-0.035-3.4c0.104-3.037,0.256-6.073,0.379-9.11c0.122-2.999,0.203-5.999-0.175-8.982
	c-0.238-1.878-0.644-3.711-1.576-5.376c-0.346-0.618-1.751-2.295-1.846-2.38c-0.588-0.524-1.158-1.08-1.803-1.528
	c-1.734-1.206-3.662-1.726-5.783-1.31c-2.461,0.483-4.292,1.925-5.684,3.958c-1.371,2.001-1.996,4.196-1.596,6.612
	c0.065,0.393,0.182,0.778,0.28,1.19c-0.083-0.017-0.125-0.014-0.155-0.033c-1.292-0.811-2.721-1.118-4.237-1.114
	c-0.117,0-1.263,0.1-2.304,0.364c-0.933,0.236-1.775,0.638-1.832,0.665c-0.957,0.458-1.825,1.048-2.599,1.785
	c-2.274,2.165-3.053,5.322-1.979,8.2c1.206,3.23,3.352,5.572,6.546,6.935c2.147,0.916,4.387,1.522,6.661,2.027
	c0.048,0.011,0.581,0.156,1.034,0.23c2.31,0.381,4.617,0.778,6.915,1.22c2.422,0.466,4.833,0.989,7.248,1.489
	c0.111,0.023,0.218,0.068,0.327,0.103c-0.007,0.031-0.014,0.062-0.022,0.093c-0.43-0.002-0.863,0.021-1.291-0.011
	c-3.723-0.276-7.447-0.551-11.168-0.848c-3.037-0.242-6.074-0.447-9.125-0.161c-1.722,0.162-3.424,0.48-4.982,1.264
	c-1.98,0.997-3.605,2.439-4.789,4.331c-1.371,2.191-1.617,4.511-0.654,6.888c0.803,1.981,2.205,3.472,4.038,4.55
	c0.464,0.273,4.968,1.467,6.769,0.954c-0.11,0.182-0.159,0.269-0.214,0.353c-0.539,0.832-0.919,1.728-1.097,2.703
	c-0.424,2.33-0.013,4.523,1.093,6.57c0.929,1.719,2.261,3.05,4.108,3.779c2.033,0.803,4.058,0.615,6.061-0.221
	c2.823-1.178,4.936-3.108,6.321-5.857c1.191-2.363,2.03-4.848,2.688-7.391c0.882-3.411,1.694-6.84,2.542-10.26
	c0.149-0.599,0.326-1.191,0.491-1.787c0.069,0.17,0.047,0.317,0.03,0.466c-0.573,4.797-1.385,9.556-2.414,14.282
	c-0.893,4.099-1.972,8.147-3.326,12.123c-1.569,4.607-3.448,9.077-6.129,13.177c-1.792,2.741-3.893,5.192-6.58,7.116
	c-0.552,0.395-0.996,0.96-1.428,1.498c-0.206,0.257,0.577,3.054,1.605,3.391c0.753,0.247,1.444,0.159,2.114-0.317
	c1.336-0.949,2.495-2.08,3.52-3.35c1.983-2.454,3.52-5.179,4.848-8.025c1.978-4.241,3.448-8.66,4.683-13.158
	c1.308-4.766,2.352-9.59,3.127-14.463c0.632-3.969,1.138-7.957,1.7-11.937c0.024-0.168,0.045-0.335,0.067-0.503
	c0.089,0.088,0.113,0.172,0.12,0.258c0.27,3.561,0.525,7.123,0.813,10.682c0.206,2.555,0.511,5.098,1.15,7.584
	c0.422,1.643,0.964,3.244,1.931,4.647c1.282,1.86,2.985,3.239,5.068,4.111c2.445,1.024,4.839,0.849,7.08-0.645
	c2.389-1.592,3.757-3.877,4.276-6.666c0.296-1.591,0.146-3.144-0.544-4.618c-0.033-0.07-0.031-0.156-0.05-0.266
	c0.092,0.015,0.144,0.012,0.186,0.032c1.668,0.775,3.407,0.825,5.174,0.4c1.999-0.481,3.686-1.503,5.131-2.99
	c2.051-2.109,3.175-5.688,2.049-8.329c-0.148-0.65-0.767-1.901-1.389-2.751c-0.586-0.8-2.812-2.587-5.039-3.499
	c-2.53-1.036-5.124-1.158-6.422-1.277c-3.679-0.339-7.373-0.526-11.057-0.815c-2.32-0.182-4.634-0.431-6.95-0.653
	c-0.09-0.009-0.176-0.047-0.265-0.072c0.753-0.177,1.498-0.317,2.247-0.357c2.378-0.13,4.757-0.241,7.137-0.325
	c3.726-0.132,7.456-0.176,11.153-0.788c1.806-0.299,3.579-0.732,5.233-1.555c2.143-1.066,3.722-2.741,4.934-4.769
	C82.268,25.274,82.097,23.632,82.021,23.326z"/>
</svg>
