<?xml version="1.0" encoding="iso-8859-1"?>
<!-- Generator: Adobe Illustrator 19.0.0, SVG Export Plug-In . SVG Version: 6.00 Build 0)  -->
<svg version="1.1" id="Objects" xmlns="http://www.w3.org/2000/svg" xmlns:xlink="http://www.w3.org/1999/xlink" x="0px" y="0px"
	 viewBox="0 0 700 700" style="enable-background:new 0 0 700 700;" xml:space="preserve">
<g>
	<radialGradient id="SVGID_1_" cx="355.7931" cy="296.8828" r="360.2896" gradientUnits="userSpaceOnUse">
		<stop  offset="0" style="stop-color:#E5174C"/>
		<stop  offset="1" style="stop-color:#5F1D2D"/>
	</radialGradient>
	<path style="fill:url(#SVGID_1_);" d="M692.056,404.725c-1.88,0.802-3.735-3.209-1.329-4.412c2.406-1.203,1.003-9.023,0-10.628
		c-1.002-1.604-2.005,0.4-4.211,2.406c-2.206,2.005-4.412,1.403-4.211,0c0.2-1.403,2.607-2.006,5.614-4.211
		c3.009-2.206,1.604-3.009,0-5.415c-1.604-2.406-2.005-2.206-2.275-2.206s-5.345,2.206-9.556,5.014
		c-4.211,2.808-3.811-1.203-1.805-3.208c2.005-2.006,5.816-1.605,10.026-4.412c4.211-2.808-2.606-4.011-5.815-7.42
		c-3.209-3.409-3.409-3.409-7.477-6.217c-4.066-2.807-4.556,1.404-10.17,4.814c-2.76,1.675-4.347,2.307-5.919,3.241
		c0.018-0.349,0.019-0.709,0.005-1.078c2.351-1.679,5.214-4.033,10.325-6.775c8.222-4.412,5.815-5.615,3.811-8.021
		c-2.006-2.406-3.008-5.214-4.612-7.42c-1.605-2.206-3.209-2.406-4.412-1.604c-1.203,0.803-7.62,6.217-14.639,11.23
		c-1.463,1.044-2.468,1.763-3.157,2.247c-0.459,0.277-0.916,0.565-1.364,0.861c-0.179-0.008,0.523-0.794,0.109-1.103
		c-0.568-0.427,0.379-1.562,2.26-3.469c1.447-0.426,3.086-0.97,4.802-2.114c1.67-1.112,1.389-1.942,0.313-2.788
		c3.315-2.818,7.434-5.511,12.077-8.072c5.815-3.209-1.604-2.607-2.808-4.412c-1.203-1.805-2.808-2.206-5.414-4.211
		c-2.607-2.006-3.81,2.808-6.818,5.414c-1.11,0.962-3.262,2.446-5.853,4.274c-0.78-0.605-1.703-1.219-3.293-2.316
		c4.189-3.729,7.622-6.794,8.544-7.574c2.607-2.205,4.011-3.81,4.211-5.013s-2.607-5.214-5.414-8.223
		c-2.808-3.008-9.426-5.013-11.431-7.018c-2.006-2.005,0.401-4.411,0-7.219c-0.401-2.808-2.006-2.808-4.412-4.813
		c-2.406-2.006-4.011-3.209-6.417-6.936c-2.406-3.727,0-1.486,0-5.497c0-4.011-3.208-4.412-3.609-5.615
		c-0.401-1.204-5.214-3.61-6.818-5.615c-1.604-2.005-4.412-4.011-7.219-8.823c-2.808-4.813-2.808-4.011-4.412-8.021
		c-1.604-4.011-2.808-4.011-7.219-6.818c-4.412-2.807,0-2.406-8.423-6.417c-8.423-4.011-3.609-3.61-3.609-9.625
		c0-6.016-32.62-34.893-34.625-36.898c-2.006-2.005-9.091-9.091-9.76-10.161c-0.669-1.068-1.337-1.872-5.214-4.545
		c-3.878-2.674-2.808-2.005-6.417-5.348c-3.61-3.342-2.139-4.145-5.348-8.288c-3.208-4.145-4.946-3.343-6.952-4.145
		c-2.005-0.802-7.688-5.715-7.888-6.217c-0.201-0.501-6.217-4.913-6.217-4.913l-5.715-4.211c0,0-1.505-1.504-3.811-2.506
		c-2.306-1.003-4.312-3.208-5.214-4.011c-0.902-0.802-6.217-1.905-7.521-3.911c-1.303-2.005-1.203-1.404-3.709-1.604
		c-2.507-0.201-5.114-2.106-6.317-3.81c-1.203-1.705-1.604-1.003-4.211-0.502c-2.607,0.502-5.415-1.504-7.62-2.908
		c-2.206-1.404-2.708-0.501-4.212,1.003c-1.504,1.504-1.203,1.103-4.512,1.805c-1.261,0.268-2.242,0.419-3.039,0.598
		c-1.178-0.408-1.689,0.302-2.767,1.379c-1.338,1.338-1.07,0.981-4.014,1.606c-0.506,0.107-0.945,0.19-1.358,0.267
		c-0.545-0.552-0.874-0.917-1.757-1.043c-1.036-0.148-4.839,2.107-6.818,0.702c-3.108-2.206-1.805-0.301-4.913,0.802
		c-2.826,1.003-6.552,2.239-6.918,2.106c-2.206-0.802-2.406,2.105-4.812,0.702c-2.407-1.404-2.808,0.201-4.713,1.203
		c-1.905,1.003-6.785,1.671-9.592,0.869c-2.808-0.802-4.412-2.005-6.952-0.935c-2.54,1.07-6.149-0.535-7.754-1.872
		c-1.605-1.336-2.14-0.802-6.149-2.407c-4.012-1.604-4.145-1.203-6.418-2.673c-2.271-1.47-2.54-1.337-5.881-2.272
		c-3.342-0.936-3.879-1.471-6.285-3.61c-2.406-2.138-2.539-2.406-5.614-3.476c-3.075-1.069-5.749-1.872-8.823-3.877
		c-3.076-2.005-13.102-4.679-15.508-7.085c-2.406-2.407-12.567-1.137-14.171-2.136c-1.604-0.998-13.035-0.004-15.642,1.719
		c-2.607,1.723-8.021,0.082-10.628,1.887c-2.607,1.805-9.024,3.008-11.631,4.211c-2.607,1.203-10.227,3.61-11.832,5.214
		c-1.604,1.604-6.417,3.208-7.821,2.808c-1.404-0.401-8.222,5.214-11.832,5.615c-3.609,0.401-15.04,6.016-16.845,7.821
		c-1.805,1.805-3.61,3.008-7.821,4.211c-4.211,1.203-6.618,5.214-10.428,6.217c-3.811,1.002-4.011,0.802-6.217,2.607
		c-2.206,1.805-12.232,6.417-13.436,7.62c-1.204,1.203-7.019,5.548-10.628,6.752c-3.61,1.203-2.808,1.604-5.08,4.278
		c-2.273,2.674-1.604,2.54-6.417,4.412c-4.813,1.872-30.014,19.252-34.425,19.853c-4.412,0.602-18.048,12.233-19.051,14.84
		c-1.003,2.607-12.032,8.823-13.235,10.227c-1.203,1.404-20.053,10.161-24.064,13.903c-4.011,3.745-6.952,4.546-5.481,6.016
		c1.469,1.471,3.476,5.081,1.47,3.877c-2.005-1.203-3.61-2.005-6.016-2.139c-2.406-0.134-7.085,4.011-11.364,6.684
		c-4.277,2.674-7.186,7.654-8.589,10.161c-1.404,2.507,2.105,4.312,5.715,7.32c1.012,0.843,2.294,1.901,3.651,3.028
		c-0.681,0.619-1.087,1.512-0.594,2.521c0.183,0.374,0.356,0.722,0.531,1.074c-2.202-1.966-5.363-4.296-7.499-6.723
		c-2.206-2.506-3.609-4.111-4.211-4.011c-0.602,0.101-2.407,1.805-3.509,3.209c-1.103,1.403-2.507,2.005-1.404,3.008
		c1.103,1.002,6.216,9.024,5.414,9.024c-0.802,0-7.62-8.422-9.325-9.525c-1.705-1.103-1.303-0.902-2.306,0
		c-1.002,0.902-0.902,3.108,0.201,4.211c1.103,1.103,4.612,4.813,6.016,7.987c1.404,3.174-1.404,0.736-2.407,0
		c-1.002-0.736-4.412-7.185-5.214-8.087c-0.802-0.902-1.203-1.103-2.005,0c-0.802,1.103-6.317,5.816-6.317,5.816
		s1.705,1.303,2.808,2.607c1.103,1.303,3.911,5.614,4.312,7.52c0.401,1.905-2.206,0.702-3.309-0.701
		c-1.103-1.404-4.713-5.114-5.916-5.716c-1.203-0.602-4.709,1.261-3.509,3.71c4.712,9.626,6.918,12.634,12.935,18.249
		c6.016,5.614,6.417,4.011,7.019,2.406c0.602-1.605-2.005-5.615-5.013-10.026c-3.008-4.412,0.401-3.009,2.807-1.204
		c2.407,1.806,3.409,8.021,6.618,13.837c3.209,5.815,7.019,6.618,18.65,9.426c11.631,2.808,14.038,0.802,15.04-1.605
		c1.002-2.406-1.203-3.609-4.612-8.823c-3.409-5.214-7.42-8.223-12.634-14.038s2.005-2.205,5.615,0.803
		c3.609,3.008,22.66,30.28,27.072,30.08c4.412-0.201,6.618,1.203,8.222-4.612c1.604-5.815-0.401-4.211-3.409-13.637
		c-0.901-2.825-1.188-4.292-1.102-4.884c0.335,0.074,0.664,0.145,0.98,0.209c0.815,0.886,1.956,2.699,2.729,4.073
		c1.805,3.209,1.203,7.62,2.808,13.637c1.604,6.016,3.81,5.614,7.42,4.612c3.609-1.003,11.029,0.602,20.254,1.403
		c4.17,0.363,6,0.274,6.758,0.069c1.177-0.029,2.338-0.344,4.015-0.829c1.797,0.763,3.705-1.053,8.278-0.443
		c6.016,0.802,9.826-0.602,18.449-1.203c3.061-0.213,4.222-0.655,4.587-1.315c3.399-1.189,14.259-3.9,20.152-7.61
		c6.75-4.25,13.878-3.316,16.647-3.241c0,0,0,0,0.001,0c0.501,0.098,0.891,0.109,1.216,0.037c6.076,0.172,30.094,0.484,45.886-8.212
		c17.25-9.5,37.716-1.901,51.333-10.167c4.478-2.718,10.228-2.233,16.178-0.3c0.334,0.248,0.674,0.492,1.018,0.728
		c2.349,1.615,4.056,1.94,6.61,2.392c9.573,4.621,18.477,11.118,22.195,12.18c4.621,1.32,23.327,2.917,39.362,1.081
		c1.145-0.131,2.273-0.282,3.385-0.449c5.213-0.584,11.94-0.68,19.92,2.702c9.834,4.167,15.271,8.413,27.969,15.123
		c1.096,0.692,2.351,1.323,3.799,1.867c12.776,5.947,30.988,11.202,41.722,14.756c4.623,2.495,8.214,5.039,11.388,8.78
		c0,0.001,0,0.001,0.001,0.001c0.43,1.853,2.965,3.771,6.137,6.942c2.384,2.384,28.523,18.866,34.091,21.457
		c0.77,0.577,2.524,1.482,4.619,2.434c7.882,4.579,14.033,10.239,19.646,11.805c2.686,0.749,14.135,8.001,15.241,8.623
		c0,0,3.246,1.787,3.264,1.78c2.733,1.429,12.55,5.35,14.183,5.84c1.123,0.337,1.617,0.423,2.751,0.679
		c0.006,0.002,0.012,0.003,0.017,0.004c0.89,0.202,2.173,0.509,4.451,1.122c5.214,1.404,13.436,5.014,15.441,2.607
		c2.006-2.407,5.214-2.607,5.214-1.003c0,1.604-1.805,3.609-0.802,6.054c1.003,2.442,4.411-0.64,8.222-0.84
		c3.811-0.2,4.412-0.802,8.423-3.209c4.011-2.406,6.617-4.011,11.831-7.019c5.214-3.008,7.019-3.008,11.631-6.217
		c4.612-3.208,9.225-4.211,17.046-6.817c7.82-2.607,0.802,2.406-2.206,3.208c-3.008,0.803-18.851,8.824-22.861,10.829
		s-14.237,9.626-12.633,10.026c1.604,0.401,11.029-2.606,20.254-3.81c9.225-1.203,18.048-5.815,25.267-9.826
		c7.22-4.011,10.428-4.612,11.029-6.017C697.745,405.326,693.935,403.922,692.056,404.725z M76.27,271.865
		c-0.298,0-1.536-1.315-2.982-2.911c0.395-0.378,1.021-0.301,1.93,0.434C76.02,270.77,76.549,271.865,76.27,271.865z
		 M94.111,271.509c0.49,0.544,0.553,0.938,0.371,1.213c-0.182-0.279-0.369-0.557-0.544-0.838c-0.3-0.481-0.5-0.868-0.642-1.198
		C93.631,271.005,93.908,271.283,94.111,271.509z M92.045,289.8c1.122,0.175,2.529,0.927,3.396,1.322
		c1.663,0.759,2.225,2.032,2.653,5.125C96.302,294,94.314,292.099,92.045,289.8z M116.419,276.18
		c-0.764-1.27-0.787-2.563,0.183-3.741c0.151,0.408,0.269,0.765,0.345,1.031C117.158,274.208,117.336,276.158,116.419,276.18z
		 M119.812,279.316c-0.004-0.017-0.007-0.031-0.011-0.048c-0.999-4.079,2.251-2.436,4.017-1.592c0.177,0.912,0.369,1.866,0.6,2.851
		C125.831,286.565,123.662,282.109,119.812,279.316z M137.82,279.894c-3.212-6.244-3.212-3.211-6.244-7.314
		c-3.033-4.104-6.245-7.851-8.742-11.852c-1.691-2.711-0.354-2.61,1.404-1.214c2.914,6.17,2.132,5.804,7.399,10.903
		c5.749,5.565,6.417,6.101,6.952,9.977c0.056,0.407,0.073,0.775,0.07,1.124C138.402,281.022,138.129,280.494,137.82,279.894z
		 M149.185,270.384c-0.148-0.385-0.309-0.784-0.503-1.221c-1.277-2.873-2.666-6.195-3.959-9.283
		c0.289-0.157,0.599-0.311,0.946-0.459c2.974-1.264,2.974,3.405,4.282,8.995C150.695,271.595,150.323,271.503,149.185,270.384z
		 M163.629,287.803c-1.378-3.904-2.282-5.782-2.905-7.379c1.466,2.661,3.189,5.234,5.438,7.199c0.165,0.722,0.342,1.48,0.559,2.321
		C167.792,294.107,166.484,295.891,163.629,287.803z M199.013,291.846c-1.6-1.263-2.647-2.33-4.053-3.664
		c-0.815-0.883-1.331-1.356-2.261-2.06c-1.274-1.108-2.887-2.425-5.104-4.088c-3.005-2.254-4.423-3.842-5.437-5.34
		c-0.223-0.734-0.477-1.621-0.789-2.718c-2.18-7.676-5.27-15.509-2.454-12.213c2.216,4.178,4.396,9.878,8.537,13.264
		c1.063,2.958,0.519,3.632,4.946,6.369c2.809,1.736,3.952,1.94,4.822,2.475c0.412,0.407,0.822,0.815,1.232,1.225
		c0.447,0.621,0.983,1.521,1.768,2.918c2.191,3.902,4.006,5.7,4.714,7.087C202.926,294.007,200.463,292.992,199.013,291.846z
		 M313.29,261.923c-0.176-0.567-0.328-1.241-0.637-2.786c-0.127-0.634-0.267-1.412-0.408-2.276c0.455,0.607,0.878,2.574,1.363,3.867
		c0.15,0.4,0.299,0.83,0.447,1.287C313.806,261.979,313.551,261.948,313.29,261.923z M321.637,162.633
		c-1.508,2.376-2.856,4.353-4.032,6.058c-0.786-3.296,1.587-4.165,4.033-6.059C321.637,162.632,321.637,162.632,321.637,162.633z
		 M337.276,157.151c0.243-0.68,0.636-0.908,1.099-0.825c1.34,1.812,2.624,4.699,3.022,7.41c0.487,3.322-0.21,5.689-0.814,7.021
		c-0.79-0.869-1.963-2.3-3.306-4.506C334.778,162.146,335.947,160.87,337.276,157.151z M339.457,195.666
		c-0.634-1.254-1.361-4.187-2.181-8.398c-1.489-7.641-1.201-4.891-0.238-7.18c0.872,1.109,1.726,3.316,2.153,5.452
		C339.91,189.142,340.143,191.456,339.457,195.666z M350.446,232.081c-0.389,7.85-2.465,8.386-6.57,19.981
		c-3.512,9.928-2.189,9.268-2.407,12.79c-3.273,9.886-0.968,7.656-2.079,14.137c-0.566,3.306-0.377,6.032-0.186,8.663
		c-1.369-1.169-2.585-2.337-3.698-3.496c-0.121-0.991-0.242-2.083-0.194-3.192c0.032-0.73,0.058-1.414,0.089-2.079
		c0.659-2.523,0.711-3.948,0.544-5.228c0.271-1.512,0.682-3.223,1.329-5.358c1.784-5.888,0.535-6.066,0.179-10.17
		c-0.19-2.186,0.13-5.34,0.817-9.099c0.23-0.898,0.468-1.805,0.718-2.728c2.607-9.625,3.208-8.222,4.612-14.037
		c1.404-5.815,1.003-7.621,3.811-12.233c2.753-4.522,2.807,3.097,3.754,5.854C350.871,227.439,350.578,229.415,350.446,232.081z
		 M354.126,199.422c-0.016,0.183-0.031,0.365-0.048,0.547c-0.682,7.314-4.136,9.098-5.741,6.629
		c-0.289-0.444-0.482-0.786-0.601-1.087c0.324-0.913,0.691-2.061,1.081-3.587c0.255-0.999,0.429-1.868,0.559-2.65
		c0.07-0.254,0.14-0.505,0.211-0.786c0.888-3.483,0.757-5.316,0.883-6.837c0.239-0.506,0.556-1.044,1.004-1.659
		C353.515,187.192,354.342,192.749,354.126,199.422z M354.682,237.171c0.609-1.112,1.424-2.117,1.954-4.238
		c0.333-1.331,0.718-2.308,1.16-3.091c-0.16,1.161-0.323,2.79-1.134,5.553c-1.288,4.389-0.553,5.248,0.444,6.788
		c-0.102,0.389-0.209,0.789-0.337,1.226c-0.92,3.134-0.92,4.665-0.512,5.81c-0.351-0.572-0.699-1.205-1.023-1.854
		C353.419,243.73,355.713,243.119,354.682,237.171z M356.489,263.377c0.7-0.91,1.467-1.178,2.572,0.202
		C358.1,263.534,357.248,263.468,356.489,263.377z M355.166,256.864c-0.168-0.336-0.296-0.644-0.405-0.939
		c1.221-1.889,1.978-4.437,3.522-3.044c0.415,0.955,0.791,2.203,1.028,3.983C360.379,264.886,357.305,261.142,355.166,256.864z
		 M362.609,185.339c-1.428,4.817-3.746,8.14-5.352,1.929c-0.617-2.384-1.06-4.035-1.19-5.43c0.109-1.87,0.899-3.523,2.726-6.124
		c1.817-2.59,3.665-3.638,5.05-3.698c0.732,0.285,1.171,0.986,1.13,1.905C364.749,178.912,364.036,180.523,362.609,185.339z
		 M387.386,241.223c-1.47,6.818-4.946,13.636-1.337,10.695c0.171-0.139,0.339-0.274,0.506-0.409
		c-0.094,0.126-0.177,0.245-0.276,0.376c-3.619,4.75-3.805,10.418-7.289,9.09c1.05-1.63,1.097-2.04-2.748-3.843
		c-0.783-0.368-1.498-0.676-2.153-0.95c0.115-0.556,0.33-1.218,0.653-2.037c1.784-4.52,4.314-4.163-0.757-6.541
		c-0.38-0.178-0.738-0.338-1.085-0.49c1.371-2.196,2.68-3.237,4.325,0.659c2.541,6.016,3.367,10.138,4.357,7.409
		c0.991-2.729,1.281-0.189,0-7.141c-1.22-6.621-1.028-13.83,2.109-13.695c-1.392,5.746-4.034,11.107-0.981,8.618
		c2.016-1.643,3.766-2.973,4.897-2.814C387.541,240.486,387.469,240.838,387.386,241.223z M403.161,273.294
		c-2.808,4.292-6.217,10.508-8.022,7.901c-0.083-0.12-0.162-0.226-0.241-0.333c1.194-2.373,2.859-5.305,5.058-8.878
		c5.427-8.818,4.136-9.167,7.494-18.62c0.181,0.874,0.324,1.999,0.324,3.566C407.773,263.348,405.968,269.003,403.161,273.294z
		 M412.448,238.373c0.489-2.435,0.522-4.479,0.114-6.827c-0.326-1.878,0.468-3.896,1.605-5.89c0.108,0.124,0.216,0.269,0.32,0.455
		C416.101,228.968,414.537,233.879,412.448,238.373z M424.315,245.807c-0.232,3.279-0.799,6.72-1.276,10.075
		c-1.492-3.41-2.108-3.839-0.248-10.014c1.428-4.742,2.428-5.524,3.514-7.244C428.081,239.152,424.728,239.979,424.315,245.807z
		 M429.679,226.979c0.221-3.937-0.581-6.253,1.141-9.963c0.633,0.402,1.084,1.209,1.084,2.549
		C431.904,223.42,430.922,225.4,429.679,226.979z M432.974,270.634c-0.124-0.386-0.246-0.744-0.367-1.088
		c0.595-0.674,1.095-1.267,1.365-1.605c0.169-0.211,0.48-0.769,0.86-1.499C434.881,271.969,434.802,276.3,432.974,270.634z
		 M444.92,277.755c1.379-2.705,3.333-6.875,3.762-7.589c0.188-0.315,0.971-1.104,1.998-2.07c1.186-0.793,2.688-1.779,4.699-3.01
		c8.742-5.353,4.461-3.925,6.602-6.245c1.902-2.06,2.681-2.008,4.583-1.971c-1.583,2.045-2.938,3.891-2.842,4.472
		c0.114,0.685,0.163,2.214-0.075,3.516c-3.12,1.89-5.988,3.778-6.958,4.747C454.461,271.834,453.373,276.593,444.92,277.755z
		 M466.511,285.411c-0.401,0.284-0.794,0.585-1.141,0.906c-1.27,1.172-2.383,2.026-3.976,3.229
		c-1.524,0.698-3.414,1.249-5.827,1.542c-0.494,0.06-0.98,0.144-1.465,0.231c3.056-3.537,3.126-2.742,6.985-6.252
		c3.773-3.43,3.765-1.426,6.928-1.741C467.552,283.974,467.072,284.684,466.511,285.411z M470.884,225.474
		c1.107-1.521,2.706-3.54,5.072-6.415c6.065-7.375,3.296-6.537,5.472-10.348c0.414-0.726,0.665-0.471,1.761,1.192
		c-0.204,0.37-0.435,0.738-0.717,1.106c-2.606,3.409-1.103,0.702-4.211,5.815c-3.108,5.114-0.902,5.314-4.311,7.019
		C472.908,224.363,471.821,225.005,470.884,225.474z M476.975,240.943c-0.372-1.47-1.474-2.566-1.439-4.044
		c0.686,0.459,1.511,0.977,2.022,1.182c0.639,0.255,1.52,0.997,2.076,1.503C478.406,241.53,477.397,242.602,476.975,240.943z
		 M479.607,300.103c0.013-0.018,0.022-0.033,0.035-0.051c1.147-1.606,2.065-2.422,2.978-2.848
		C485.851,296.758,482.198,298.061,479.607,300.103z M484.477,198.776c-0.027,0.375-0.048,0.737-0.064,1.093
		c-0.485-1.24-0.372-2.204,0.098-3.043C484.548,197.269,484.543,197.888,484.477,198.776z M485.348,195.74
		c0.661-0.693,1.499-1.352,2.319-2.088C486.783,194.646,486.005,195.444,485.348,195.74z M530.526,311.344
		c0.202,0.373-0.102,0.772-0.779,1.168C529.776,312.189,530.021,311.797,530.526,311.344z M488.695,235.59
		c1.678-3.332,4.625-5.353,6.291-10.824c1.417-4.655,2.41-6.213,4.576-9.14c0.401,0.614,0.881,1.344,1.46,2.2
		c2.349,3.472,1.108,3.126-1.395,6.221c-0.693,0.534-1.377,1.095-2.025,1.688c-4.269,3.904-2.718,4.902-3.311,6.833
		c-1.372,1.781-2.47,2.493-4.063,4.444C488.647,237.943,487.639,237.689,488.695,235.59z M495.941,246.55
		c-1.423,0.281-1.122,0.041-2.829,1.053c-2.284,1.353-1.038,2.064,0.39,2.515c-0.678,0.656-1.208,0.656-1.494-0.473
		c-0.452-1.785-1.85-3.081-1.573-4.958c0.382,0.529,1.284,0.675,3.302-0.118c4.996-1.962,2.319-1.784,3.033-3.924
		c0.504-1.514-0.324-1.784-0.288-2.944c3.808-3.33,5.331-4.994,7.214-9.313c0.135-0.308,0.276-0.607,0.423-0.9
		c0.283-0.251,0.553-0.491,0.858-0.759c4.281-3.747,1.605-1.25,1.427,0.356c-0.179,1.605-5.709,8.832-6.513,10.615
		c-0.436,0.969-0.312,1.691,0.028,2.144c-0.729,1.061-1.321,2.105-2.373,3.918C497.003,244.697,496.463,245.655,495.941,246.55z
		 M510.99,234.699c0.065,0.573-1.108,2.271-1.108,3.18c0,1.517-0.535,0.982-4.103,5.441c-0.364,0.456-0.666,0.811-0.936,1.117
		c0.08-0.239,0.183-0.5,0.338-0.809C506.693,240.626,509.121,238.566,510.99,234.699z M500.694,299.162
		c-0.634,0.06-1.229,0.148-1.804,0.255c-0.258-1.143,0.002-2.549,1.463-4.185c0.105-0.119,0.205-0.224,0.309-0.335
		c0.472-0.011,0.957-0.018,1.459-0.018c8.207,0,8.207-0.357,9.1,0.892C512.112,297.021,506.403,298.626,500.694,299.162z
		 M514.453,262.897c-0.933,0.451-2.523,0.254-4.567-0.082c0.621-0.842,1.238-1.678,1.845-2.5c1.334,0.441,2.979,1.108,3.26,1.772
		C514.819,262.339,514.641,262.605,514.453,262.897z M526.86,248.197c-2.429,3.852-2.378,2.141-5.59,6.779
		c-0.011,0.015-0.019,0.026-0.029,0.041c-0.811-0.037-1.671-0.767-4.679,0.108c-0.488,0.142-0.901,0.255-1.283,0.357
		c0.669-0.917,1.291-1.775,1.829-2.529C520.676,247.959,530.309,242.727,526.86,248.197z M529.596,341.68
		c-0.287,0.026-0.517,0.022-0.715-0.001c1.576-0.194,2.728-0.414,3.975-0.809C532.044,341.334,530.95,341.558,529.596,341.68z
		 M555.743,301.55c1.858-3.012,0.876-1.515,7.786-8.609c0.442-0.375,0.912-0.772,1.438-1.214c7.207-6.066,8.516-7.967,10.656-9.871
		c2.141-1.903,6.81-2.379,4.951,1.428c-0.148,0.305-0.206,0.481-0.234,0.601c-0.084,0.085-0.162,0.164-0.249,0.252
		c-5.41,5.463-7.15,7.15-9.326,9.39c-0.773,0.649-1.725,1.405-3.229,2.602c-4.639,3.688-4.163,5.115-7.732,6.66
		C556.91,304.043,555.112,303.418,555.743,301.55z M553.18,328.021c3.185-2.125,5.441-2.486,8.003-4.081
		c0.291-0.073,0.579-0.147,0.883-0.218c7.137-1.665-0.476,1.784-5.828,6.223c-0.647,0.537-1.197,0.986-1.68,1.37
		C551.496,331.512,549.764,330.3,553.18,328.021z M553.858,357.856c-2.249,1.204-3.122,1.722-3.778,2.171
		c0.052-0.124,0.101-0.244,0.139-0.356c0.354-1.035,1.07-2.808,4.278-3.743c1.238-0.361,1.896-0.221,2.21,0.215
		C556.207,356.514,555.398,357.031,553.858,357.856z M566.882,351.256c-2.318,1.248-2.854,1.248-6.779,2.855
		c-0.184,0.075-0.34,0.142-0.496,0.208c0.623-0.708,1.402-1.504,2.377-2.401c3.535-3.255,4.802-2.431,5.112-0.774
		C567.02,351.182,566.961,351.213,566.882,351.256z M566.871,319.44c-0.032-0.271-0.01-0.462,0.074-0.617
		c0.186-0.158,0.372-0.308,0.558-0.455c0.704-0.365,2.047-0.833,4.302-2.406c1.414-0.388,2.374-0.08,2.38,1.112
		c-2.335,2.716-1.918,3.329-5.102,4.913C565.157,323.94,567.015,320.678,566.871,319.44z M578.428,381.061
		c-5.14,2.753-3.909,2.323-7.197,4.535c-0.056-0.582-0.025-1.359,0.112-2.407c0.164-1.251,0.362-2.358,0.59-3.337
		c2.137-1.399,4.228-2.681,6.572-4.042c1.776,0.613,3.739,0.284,4.248,2.384C582.076,378.719,581.912,379.195,578.428,381.061z
		 M582.513,344.174c1.518-0.536,3.215-1.033,5.14-1.482c0.15-0.035,0.283-0.064,0.422-0.095
		C586.239,344.492,584.139,344.306,582.513,344.174z M602.892,295.634c2.406-2.14,7.654-2.674,5.565,1.605
		c-0.807,1.651,0.769-0.023-3.198,3.921c-1.529-0.762-2.882-1.47-3.589-2.177c-0.472-0.471-0.664-0.968-0.706-1.489
		C601.64,296.81,602.232,296.221,602.892,295.634z M592.993,338.687c0.053-0.304,0.086-0.585,0.06-0.807
		c-0.142-1.213,0.648-1.026,3.171-2.42c-0.207,0.21-0.42,0.42-0.619,0.631C594.516,337.249,593.67,338.078,592.993,338.687z
		 M600.686,369.229c-1.203,0.803-1.403,1.003-3.008,2.006c-0.386,0.241-0.701,0.423-0.995,0.582
		c-0.872-0.539-1.218-1.39-1.397-2.677c2.605-1.009,4.741-2.532,6.002-3.319c1.604-1.003,2.006,0.802,2.006,0.802
		S601.891,368.428,600.686,369.229z M613.446,321.997c-1.476,1.279-5.015,3.592-8.849,6.423c1.939-2.005,4.178-4.177,7.653-6.45
		c1.263-0.826,2.224-1.48,2.993-2.021C614.719,320.671,614.137,321.399,613.446,321.997z M621.816,318.754
		c-0.657-0.415-1.414-0.889-2.305-1.574c-0.096-0.074-0.187-0.122-0.278-0.176c0.701-0.468,1.611-1.009,3.178-1.852
		C625.484,313.498,624.19,315.93,621.816,318.754z M624.216,385.474c-0.031-0.212-0.034-0.391-0.052-0.586
		c0.989-0.513,2.052-1.135,3.375-2.056c1.261-0.877,2.523-1.567,3.866-2.172c1.505-0.105,2.582,0.47,3.35,1.53
		c-3.307,1.56-7.267,3.521-10.314,5.043C624.378,386.672,624.307,386.093,624.216,385.474z M631.369,398.174
		c-3.477,5.482-2.273,0-4.68-1.337c-0.726-0.403-1.144-0.98-1.407-1.772c0.633-0.1,1.267-0.194,1.901-0.277
		c2.81-0.366,5.575-1.094,8.259-2.028C634.56,394.012,633.163,395.345,631.369,398.174z M643.974,378.055
		c-0.092-0.23-0.21-0.439-0.373-0.603c-0.273-0.273-0.505-0.517-0.712-0.744C647.307,375.264,646.078,376.711,643.974,378.055z"/>
	<radialGradient id="SVGID_2_" cx="356.0119" cy="296.8824" r="360.0885" gradientUnits="userSpaceOnUse">
		<stop  offset="0" style="stop-color:#E5174C"/>
		<stop  offset="1" style="stop-color:#5F1D2D"/>
	</radialGradient>
	<path style="fill:url(#SVGID_2_);" d="M618.737,467.68c-5.213-8.531-0.803-14.094-5.213-16.32
		c-4.412-2.227-2.006-3.338-4.412-2.227c-2.406,1.113-4.412,0.371-7.621,6.678c-0.087,0.17-0.159,0.317-0.24,0.479
		c-3.323-7.881-0.042-13.078-4.06-15.271c-4.412-2.406-2.006-3.609-4.412-2.406c-2.406,1.203-4.412,0.401-7.62,7.22
		c-3.209,6.818-2.406,6.417-1.604,11.229c0.802,4.814,0,7.355-1.604,1.739c-1.604-5.615-4.813-16.578-4.813-16.578
		s-2.175-0.996-3.215,0.31c-1.676-3.083-3.61-6.302-4.784-8.11c-2.406-3.709-7.754-9.645-10.428-11.623
		c-2.672-1.978-6.684-5.193-8.555-4.451c-0.088,0.035-0.177,0.086-0.266,0.137c-2.548-3.355-5.667-6.871-7.513-8.349
		c-2.673-2.139-6.684-5.615-8.556-4.813c-0.425,0.182-0.862,0.578-1.271,1.11c-3.398-5.459-9.922-16.566-13.411-18.502
		c-1.961-1.088-4.373-1.938-7.071-2.728c-3.214-5.494-6.921-11.364-9.263-12.769c-4.011-2.406-9.894-3.743-16.311-5.615
		c-6.417-1.87-6.149-4.277-12.032-2.673c-5.883,1.605-12.032,5.348-12.032,5.348l-2.903,2.903
		c-2.903,2.903-21.349,12.817-24.849,13.941h-1.393c0,0-1.729,0.073-2.173,0.863c-1.974,0.398-3.799,0.792-5.233,1.789
		c-0.227,0.069-0.41,0.189-0.522,0.375c-2.28,1.982-12.596,1.516-14.464,2.319c-1.868,0.804-8.632-1.179-12.032-0.602
		c-1.906,0.286-3.313,0.167-4.61,0.327c-6.239,0.184-16.024-0.18-17.381-2.132c-0.268-1.604-3.476-1.871-4.278-1.337
		c-0.602,0.401-1.505,0.953-2.596,1.656c-1.291,0.694-2.82,1.599-4.659,2.704c-0.422,0.23-0.839,0.465-1.238,0.698
		c-3.815,1.982-2.78-0.48-1.639-2.552c0.786-0.968,1.193-1.618,1.132-2.021c0.004-0.009,0.01-0.02,0.014-0.028
		c0.417-0.945-3.649-1.676-6.075-2.023c-0.588-0.183-0.981-0.307-0.981-0.307s-0.292,0.025-0.753,0.082h-0.003
		c0,0-1.469-0.021-3.419,0.618c-2.636,0.638-5.572,1.801-5.719,3.845c-2.145,2.539-3.805,1.84-5.245,0.366
		c-0.239-0.846-0.534-1.438-0.904-1.702c-0.974-0.695-1.374-1.675-2.244-2.046c-0.004-0.004-0.008-0.008-0.012-0.012
		c-2.256-2.058-14.238-3.006-21.539,0.453c-5.395,2.556-7.788,0.876-9.418-1.453l-0.744-1.487c0,0-0.004-0.831-0.799-1.067
		c-1.851-3.171-11.905-3.618-12.892-3.144c-0.001,0.001-0.004,0.001-0.005,0.001c-0.08-0.005-0.169,0.022-0.264,0.067
		c-1.089,0.246-3.504-0.49-5.606-2.756c-0.055-0.443-0.116-0.763-0.512-0.561c-1.039-1.286-2.595-2.511-4.131-3.494
		c0.027-0.265-0.04-0.356-0.268-0.166c-1.881-1.172-3.684-1.968-4.407-2.048c-0.003,0-0.01-0.002-0.014-0.002
		c-0.04-0.033-0.111-0.046-0.219-0.034c-1.727-0.29-8.371-2.161-12.714-5.617c-0.124-0.341-0.319-0.564-0.682-0.564
		c-2.121-1.887-6.216-5.327-10.055-8.766c-0.564-1.07-1.618-1.912-2.816-2.575c-3.092-2.895-5.567-5.495-5.97-6.789l-0.008,0.003
		c-0.037-0.713-0.146-1.511-0.401-2.5c-0.802-3.113-5.08-4.642-7.486-5.476c-2.407-0.835-5.08-2.107-7.219-3.81
		c-2.14-1.703-3.208-0.971-4.546-3.377c-1.337-2.406-4.278-1.069-9.091,0c-4.813,1.069-1.337,0.268-5.08,1.337
		c-3.744,1.069-4.651,2.095-9.432,2.04c-1.273-1.107-3.005-2.735-6.344-4.714c-7.219-4.278-5.882-0.268-11.765,1.872
		c-5.881,2.139-6.952,7.485-8.824,6.652c-1.871-0.835-2.339-4.915-4.946-3.11c-2.607,1.805-8.422,6.618-13.035,12.927
		c-4.612,6.311-1.891,3.255-0.487-1.207c1.403-4.462-2.005,0.011-5.615,1.31c-1.128,0.406-2.13,0.725-3.087,1.016
		c-0.813-3.109,0.115-4.535,1.369-8.843c1.403-4.824-2.005,0.012-5.615,1.416c-1.816,0.706-3.319,1.182-4.803,1.647
		c0.632-1.955,0.232-2.931-0.612-3.052c-1.403-0.2-7.62,2.206-11.029,3.686c-3.409,1.479-7.019,3.133-9.625,5.739
		c-1.948,1.949-5.52,6.08-7.87,9.007c-0.352-0.632-1.132-1.142-1.757-2.607c-1.303-3.061-2.005-0.649-6.618-1.483
		c-4.343-0.786-3.887-0.173-5.745,1.372c-0.16-0.277-0.32-0.594-0.47-0.975c-1.303-3.309-2.005-0.702-6.618-1.604
		c-4.612-0.902-3.81-0.1-6.116,1.805c-2.306,1.905-2.105,3.71-4.412,7.018c-2.306,3.31-0.902,2.608-1.905,8.322
		c-1.002,5.716-2.105,3.911-4.311,6.818c-2.436,2.667-8.181,2.414-6.628,6.543c-0.38,0.698-0.039,1.201,0.788,1.524
		c0.311,0.491,0.689,1.023,1.162,1.614c3.946,4.933,6.049,8.672,7.456,11.936c0.088,0.651,0.315,1.236,0.677,1.66
		c0.416,1.083,0.775,2.126,1.117,3.153c1.5,4.5,11.5,19.5,17.75,24.5c2.63,2.104,6.717,6.206,10.834,10.549
		c0.233,0.313,0.521,0.602,0.835,0.884c5.384,5.715,10.656,11.642,12.625,13.854c0.002,0.002,0.003,0.003,0.005,0.005
		c0.096,0.378,0.285,0.732,0.604,1.06c1.805,1.853,4.531,6.49,7.279,0c2.747-6.492,6.357-12.984,6.959-18.176
		c0.273-2.361,1.146-5.235,1.727-7.4c1.012-1.109,2.013-2.112,2.799-2.911c0.776-0.79,1.701-1.467,2.544-2.056
		c-1.232,7.067-5.544,15.193-8.273,22.999c-3.208,9.178-3.81,11.878-6.016,15.889c0,0-0.401,1.003,3.409,5.214
		c3.81,4.212,3.609,2.607,6.079,4.212c2.471,1.603,3.948,1.805,6.956,4.211c3.008,2.406,2.406,3.811,4.211,7.42
		c1.805,3.609,4.612,3.81,4.612,3.81l5.816,4.011l3.008,3.209c0.361,3.343,2.223,13.832,20.163,20.096c0,0,0,0,0,0
		c0.211,0.124,0.303,0.156,0.33,0.116c16.33,5.72,15.356,6.703,22.098,8.537c0.612,0.196,1.197,0.35,1.673,0.434
		c0.631,0.156,1.21,0.381,1.754,0.652c-0.394,1.654,0.253,3.12,1.843,3.12c2.42,0,3.387,8.485,7.634,8.249
		c2.934,3.84,6.968,7.755,13.992,10.389c17,6.375,36.75,13.75,41.625,15.625c4.859,1.869,33.289,8.047,42.273,9.095
		c0.014,0.006,0.039,0.008,0.068,0.009c0.008,0.001,0.017,0.002,0.024,0.003c8.885,1.018,11.758,2.858,14.572,3.688
		c2.814,0.83,35.939,4.501,61.105,2.437c8.601-0.705,19.134-1.777,29.935-3.315c0.13,0.018,0.262,0.002,0.396-0.056
		c10.967-1.571,81.182-24.105,81.182-24.105s23.377-9.103,23.835-9.353c5.423-1.703,19.974-8.231,31.33-15.044
		c0.358-0.106,0.729-0.249,1.118-0.454c2.807-1.484,21.739-6.933,25.668-12.242c5.213-7.047,14.84-9.643,15.24-13.354
		c0.4-3.709,8.021-9.273,12.834-10.385c4.813-1.113,7.621,1.482,11.631-3.711c4.012-5.191,9.225,4.082,4.012-5.191
		C621.143,472.131,623.952,476.211,618.737,467.68z M97.967,381.376c-0.78,0.704-1.403,1.228-1.926,1.634
		c0.166-0.833,0.335-1.681,0.516-2.553c0.122-0.587,0.237-1.126,0.347-1.64c0.835-0.861,1.744-1.726,2.86-2.538
		c1.06-0.771,1.941-1.606,2.711-2.485C101.651,376.185,100.435,379.149,97.967,381.376z M118.28,363.438
		c-0.35,0.391-0.682,0.767-1.001,1.13C117.406,363.737,117.779,363.404,118.28,363.438z M108.393,389.808
		c-0.1,0.357-0.219,0.689-0.339,1.002C107.92,390.242,108.063,389.901,108.393,389.808z M109.517,422.707
		c-0.313,0.266-0.591,0.48-0.832,0.64c-0.188-0.22-0.378-0.465-0.568-0.711c0.438-0.707,1.397-1.75,2.504-2.891
		C110.248,420.745,109.881,421.734,109.517,422.707z M118.887,397.939c-0.724-0.67-1.454-1.342-2.063-2.035
		c-0.686-0.78-1.102-1.429-1.315-1.938c0.926,0.342,1.727,0.403,2.204-0.072c0.062-0.062,0.126-0.15,0.19-0.235
		c0.554,0.402,1.211,0.864,1.908,1.309C119.509,395.966,119.2,396.956,118.887,397.939z M125.813,375
		c-0.363-0.746-0.699-1.672-0.967-2.89c-0.011-0.052-0.015-0.09-0.026-0.141c0.77,0.634,1.315,0.159,1.315-2.324
		c0-0.364,0.042-0.759,0.104-1.167c0.336,0.156,0.696,0.399,1.06,0.726C126.856,371.384,126.373,373.373,125.813,375z
		 M214.597,433.099c-0.653,0.071-1.313,0.2-1.956,0.427c-0.214,0.075-0.46,0.175-0.722,0.287c0.161-0.916,0.229-1.634,0.228-2.204
		c1.453-1.141,1.862-1.848,2.549-3.031C214.675,430.066,214.644,431.592,214.597,433.099z M292.477,438.821
		c0,0,0.843,5.065,1.189,9.696c-0.121,0.352-0.242,0.702-0.364,1.059c-1.081,3.164-1.308,5.093-0.608,6.548
		c-0.775,0.62-1.768-0.122-2.356-2.33c-0.238-0.894-0.369-1.371-0.471-1.572c-0.191-0.997-0.397-2.213-0.551-3.565
		c0.323-1.301,0.583-3.628,1.289-7.161C291.943,434.81,292.477,438.821,292.477,438.821z M282.585,434.81
		c1.337-4.546,3.208-8.823,5.08-12.834c0.811-1.738,1.521-1.717,2.066-1.136c-0.462,1.653-0.896,3.282-1.241,4.747
		c-1.229,5.23-4.267,6.708-6.827,11.572C281.981,436.544,282.295,435.794,282.585,434.81z M289.119,453.438
		c-0.42,0.88-1.144,2.045-2.523,3.031c-0.642,0.459-1.151,0.725-1.577,0.858c-0.099-0.272-0.2-0.542-0.272-0.829
		c-0.648-2.596-1.47-0.998-1.762-0.288c-0.448-0.845-0.876-1.982-1.737-2.95c-0.141-0.159-0.279-0.28-0.418-0.419
		c0.117-0.748,0.38-1.548,0.976-2.126c1.895-1.839,2.741-2.473,3.653-1.907c0.472,1.358,0.72,1.32,1.082,1.111
		C287.295,450.884,288.318,452.352,289.119,453.438z M281.004,438.508c-0.832,1.866-1.482,3.475-1.92,4.954
		c-0.01-0.397-0.006-0.791,0.025-1.164c0.199-2.384,1.283-2.853,2.375-4.799C281.322,437.821,281.161,438.155,281.004,438.508z
		 M274.319,447.596c0.536-3.955,1.337-7.664,1.337-9.586c0-1.92,1.337-7.971,1.337-12.174c0-3.239,2.06-6.179,3.006-7.36
		c0.078,2.663,0.178,6.43,0.178,8.108c0,2.737-1.604,7.425-3.208,12.506c-1.604,5.08-1.337,7.219,1.069,9.101
		c0.172,0.135,0.318,0.228,0.451,0.299c0.094,1.012,0.335,2.04,0.723,3.134c-1.359-0.692-2.677-0.595-4.114-0.235
		c-2.139,0.536,0,0-0.268,2.406c-0.205,1.838-1.498,2.579-2.218,1.877C272.574,451.096,273.882,450.829,274.319,447.596z
		 M260.66,413.421c0-1.376,0.321-2.702,0.766-3.884c0.093-0.123,0.162-0.219,0.189-0.27c0,0,2.812,0.494,2.812,1.978
		c0,1.422-1.479,3.993-4.431,9.653C260.328,418.443,260.66,415.685,260.66,413.421z M248.764,430.507
		c0.733-1.022,1.78-2.313,3.339-3.923c6.417-6.62,1.872,1.275,2.406,4.216c0.037,0.205,0.059,0.421,0.07,0.643
		c-0.915,1.656-2.093,3.71-3.79,6.567c-3.829,6.449-2.56,6.49-1.28,6.492c-0.593,1.241-0.882,2.398-1.008,3.47
		c-1.07-1.751-2.46,3.011-1.989,6.056c0.096,0.624,0.103,1.397,0.04,2.263c-1.93,1.047-4.676,1.046-4.876,0.446
		c-0.267-0.802,1.604-2.406,3.605-5.349c2.001-2.94-0.664-5.347,0-9.357c0.117-0.706,0.126-1.334,0.07-1.896
		c0.916-3.187,1.942-6.993,2.766-8.363C248.308,431.453,248.528,431.014,248.764,430.507z M231.056,437.51
		c-0.686,1.229-1.189,4.215-0.878,6.393c0.534,3.743-1.604,12.298-4.011,16.738c-2.406,4.439-0.802,10.801,2.941,12.405
		c0.385,0.165,0.719,0.265,1.027,0.329c0.061,1.383,0.119,2.753,0.171,4.088c-1.298-0.795-2.519-1.59-3.337-2.23
		c-2.674-2.091-5.081,1.29-6.008,3.149c-0.927,1.861-4.152,8.189-3.083,14.717c0.782,4.772-0.436,1-1.043-2.004
		c0.295-6.003,1.671-13.613,1.368-17.61c0.802-2.66,2.909-6.43,4.074-7.925c1.458-1.872,2.018-9.894,3.088-12.834
		c1.069-2.94-0.802-6.953-1.07-10.161c-0.267-3.209,2.139-6.684,3.208-8.823c1.07-2.139,2.941-11.497,4.279-13.903
		c1.336-2.406,4.01-10.695,4.545-12.201c0.536-1.505,8.556-11.328,8.953-12.131c0,0,2.812,0.534,2.812,2.139
		s-1.604,4.547-4.813,11.23c-2.407,5.014-3.008,6.718-5.528,11.57c-2.315,2.153-6.35,6.114-6.581,8.041
		C231.054,429.47,231.092,433.129,231.056,437.51z M259.346,493.344c-0.268,1.732-3.209,10.633-3.476,15.826
		c-0.267,5.193-0.802-1.73-1.336-2.967c-0.536-1.236-2.674-3.463-2.941-4.578c-0.066-0.275-0.132-0.682-0.174-1.165
		c-0.004-0.678-0.002-1.367,0.017-2.088c0.102-1.066,0.37-2.177,0.959-3.05c1.337-1.978,0.535-6.924,0.535-6.924
		s-0.238-0.119-0.639-0.322c0.452-5.901-1.922-1.438-3.395-1.929c-0.198-0.066-0.433-0.14-0.692-0.216
		c-1.83-0.996-3.755-2.102-4.899-2.93c-2.674-1.934-5.081,1.193-6.008,2.912c-0.184,0.342-0.46,0.852-0.773,1.487
		c0.649-2.473,0.073-6.334,0.073-6.334s-0.642-0.346-1.602-0.881c0.975-2.286,2.634-4.961,3.618-6.13
		c0.477-0.566,0.856-1.745,1.19-3.163c0.012,0.189,0.002,0.317,0.002,0.317s0.452,0.665,1.564,2.645
		c0,2.995,1.438,5.884,3.799,6.991c0.587,0.979,0.462,0.513,0.298,0.142c2.318,0.909,3.093,0.009,4.251-1.156
		c2.03-0.689,3.993-1.45,3.993-1.45s0.138-0.378,0.354-0.987c2.262-0.273,2.076,1.889,2.076,1.889s1.069,1.449,4.011,6.631
		c0.203,0.357,0.377,0.66,0.539,0.938c0.264,1.67,0.696,3.779,1.077,5.533C260.537,492.296,259.479,492.483,259.346,493.344z
		 M260.015,462.944c-0.052,0.436-0.104,0.878-0.157,1.326c-0.089,0.744-0.163,1.396-0.227,1.994
		c-0.868,0.026-1.528-0.108-1.622-0.368C257.817,465.362,258.74,464.434,260.015,462.944z M261.516,453.31
		c0.01-0.327,0.035-0.662,0.098-1.015c0.664-3.709-2.001-5.193-2.001-5.193s-1.188,2.061-2.787,6.077
		c-0.081-1.105-0.179-2.239-0.296-3.396c-0.198-1.95-0.263-3.439-0.246-4.646c0.855-1.105,1.08-1.292,2.794-3.229
		c2.406-2.719,0.802,0.99,2.941,2.227c1.146,0.662,1.072,0.604,1.734-0.522c1.024,2.528,0.43,0.749,0.778-1.213
		c0.72-1.025,1.88-2.45,3.86-4.346c0.376-0.03,0.718,0.128,1.091,0.5c0.312,0.313,0.832,1.04,1.408,1.888
		c-0.093,0.551-0.128,1.061-0.048,1.467c0.335,1.702-0.377,4.083-1.678,6.777c-0.307-0.661-0.578-1.356-0.751-2.11
		c-0.802-3.475-1.872,0-1.872,0s-2.139,2.406-3.744,4.011C262.27,451.114,261.86,452.055,261.516,453.31z M269.483,504.864
		c-1.07-2.94,1.872-6.15,2.673-13.102c0.613-5.311-1.894-0.169-3.707,4.701c1.033-7.771-1.624-2.876-3.221-3.368
		c-0.363-0.111-0.853-0.248-1.391-0.374c0.218-0.493,0.421-0.939,0.565-1.227c0.392-0.783,0.645-1.575,2.011-4.354
		c1.894-0.604,3.628-1.227,3.628-1.227s0.486-1.235,1.069-2.818c0.217,1.177,0.442,2.417,1.046,2.518
		c1.605,0.268,1.069-2.14,3.209-7.232c0.104-0.247,0.208-0.475,0.313-0.7c-0.131,1.985-0.023,2.922-0.023,5.32
		c0,2.294,0.301,4.539,0.656,6.673c-1.261,4.085-3.188,11.222-4.06,13.586C270.474,508.073,270.553,507.806,269.483,504.864z
		 M278.759,558.474c0.026-0.086,0.08-0.262,0.158-0.486l1.122,0.89C279.612,558.744,279.185,558.609,278.759,558.474z
		 M283.818,505.2c-0.155,0.448-0.293,0.87-0.407,1.249c-0.109,0.364-0.218,0.717-0.327,1.064c0.011-0.26,0.023-0.519,0.036-0.777
		c0.268-5.079-1.872-9.191-1.872-9.191s-1.465,5.794-2.563,10.329c-0.213-0.856-0.355-1.628-0.355-2.165
		c0-2.227-2.589-4.945-2.589-4.945s-0.62,3.709-0.085,7.912c0.23,1.81-0.036,4.955-0.478,8.597c-1.442,2.184-3.022,4.24-3.022,3.367
		c0-1.604,0-3.477,4.011-25.135c0.23-1.242,0.425-2.324,0.591-3.274c0.082,0.46,0.161,0.914,0.235,1.359
		c0.534,3.217,1.871,8.41,1.871,8.41s1.337-2.969,1.872-3.957c0.536-0.99,0.802-1.978,4.011-7.666s2.139,1.978,3.743,2.226
		c0.018,0.003,0.032,0.001,0.049,0.003c-1.21,1.917-2.56,4.745-3.548,7.712C284.473,501.874,284.097,503.541,283.818,505.2z
		 M292.444,502.034c0.019-0.097,0.037-0.187,0.057-0.284c4.011-20.029-2.139,2.723-3.915,7.174
		c-1.489,3.728-1.678,4.151-2.327,2.596c1.825-6.237,4.74-14.921,5.15-19.223c0.218-2.283-0.405-2.577-1.382-1.637
		c0.315-1.11,0.739-2.691,1.673-4.746c0.652-1.436,1.329-2.474,1.985-3.27c3.541-0.111,2.327,5.747,2.804,8.851
		C296.93,494.371,294.263,498.893,292.444,502.034z M299.474,517.007c-0.104,2.397-0.027,4.196-0.004,4.657
		c-0.04-0.742-0.263-5.231-0.017-9.527c0.042-0.748,0.02-1.469-0.042-2.159c0.065-0.134,0.129-0.264,0.185-0.377
		c0.242-0.483,0.695-1.138,1.249-1.891c-0.78,2.723-1.149,5.659-1.31,8.144C299.413,516.108,299.383,516.457,299.474,517.007z
		 M301.057,531.922c0,0-0.698-5.172,0.079-9.884c0.495,1.228,1.04,2.437,1.603,3.609
		C301.767,529.204,301.057,531.922,301.057,531.922z M302.929,465.648c-2.246,1.483-2.951,0.915-3.619-0.254
		c-0.313-5.361-0.566-12.061-0.247-15.418c0.156-1.636,0.721-4.887,1.469-8.721c1.065-2.602,2.258-5.111,3.466-7.508
		c1.872-3.709,3.208,1.236,3.208,1.236s-2.673,10.387-5.08,15.73c-2.407,5.342-1.604,4.053-0.535,7.277
		c1.069,3.225,1.07,0.732,2.674,1.473c1.512,0.699,1.362-1.239,2.459-6.639c-0.458,4.106-0.641,7.601-0.176,9.183
		c0.146,0.496,0.259,1.12,0.349,1.833c-0.08-0.204-0.155-0.425-0.225-0.666C305.603,459.465,306.672,463.176,302.929,465.648z
		 M307.693,535.322c0.053,0.122,0.091,0.227,0.136,0.34C307.671,535.849,307.636,535.705,307.693,535.322z M310.293,498.371
		c-2.106,3.979-3.496,6.575-4.572,8.55c0.997-3.195,1.818-6.166,2.021-8.138c0.225-2.18-0.447-2.395-1.479-1.421
		c-0.149-1.445-0.639-3.643-1.285-6.147c0.987-0.293,2.152-0.629,3.566-1.087c0.458-0.148,0.849-0.217,1.211-0.253
		c0.709,1.862,1.517,3.975,2.288,6.049C311.592,496.23,311.02,496.998,310.293,498.371z M357.375,452.227
		c-0.729,3.369-2.077,8.576-2.863,13.744c-0.082-14.776-0.029-29.073,0.396-30.433c0.176-0.559,0.314-1.739,0.445-3.121
		c0.976-0.876,1.955-1.439,2.603-3.1c0.064,0.358,0.13,0.732,0.197,1.14c1.005,6.032,1.306,10.703,1.262,14.809
		C358.647,447.727,357.823,450.151,357.375,452.227z M374.486,470.029c-0.135,1.493-0.276,3.444-0.417,5.688
		c-0.94-4.043-1.356-8.09-0.274-10.835c0.963-2.445,1.451-8.114,1.807-14.625C376.152,458.134,375.093,463.31,374.486,470.029z
		 M461.257,424.823c-2.045-4.142-3.482-7.123-3.906-10.943c0-0.001,0-0.001,0-0.002c1.744,2.952,4.168,6.426,4.168,7.251
		C461.518,421.721,461.46,423.203,461.257,424.823z M479.298,439.613c-1.902-3.681-3.467-6.325-4.48-8.94
		c0.883,1.306,1.84,2.836,2.586,4.328c0.9,1.8,1.983,4.153,2.868,6.322C479.956,440.823,479.635,440.265,479.298,439.613z
		 M499.176,479.772c-0.072-0.417-0.114-0.653-0.114-0.653s-0.412-1.223-1.527,1.21c-0.087,0.031-0.175,0.059-0.262,0.091
		c-0.065-0.352-0.16-0.688-0.326-0.994c-1.336-2.473-4.545,1.978-4.277-6.182c0.266-8.16,1.336-5.934,1.603-10.139
		c0.268-4.203,2.139-0.988-0.268-5.441c-2.406-4.451-0.268-3.215-5.08-8.16c-1.963-2.016-3.433-3.085-4.689-4.031
		c-1.018-2.11-1.958-4.016-2.821-6.46c-1.603-4.545-7.753-16.309-6.417-17.379c0.729-0.583,2.253-1.556,3.79-1.46
		c2.494,5.166,2.845,6.938,4.257,9.549c1.869,3.461,5.613,8.902,5.613,8.902s0.068,0.08,0.182,0.215
		c0.192,0.482,0.39,0.98,0.597,1.511c4.116,10.517,7.643,21.809,9.248,26.2c-0.103,0.566-0.23,1.147-0.399,1.748
		c-1.605,5.688,1.336,9.795,1.336,9.795s0.569,0.585,1.306,1.171C500.339,479.421,499.756,479.591,499.176,479.772z
		 M508.153,466.554c0.938-0.506,1.933-1.312,2.892-2.354c1.198,3.238,2.233,6.123,3.039,8.307
		C508.682,470.049,505.255,468.114,508.153,466.554z M527.123,478.951c-0.073-0.014-0.146-0.028-0.221-0.042
		c-3.167-1.55-4.609-2.841-2.415-3.933c1.253-0.625,2.609-1.738,3.846-3.224c1.692,1.832,3.463,3.355,3.463,3.355
		S528.455,476.238,527.123,478.951z M527.724,447.118c2.409,2.015,4.552,3.945,3.974,6.638c-0.332-0.351-0.725-0.769-1.195-1.283
		C526.761,448.383,527.058,452.027,527.724,447.118z M541.308,469.925c-1.872,3.314-3.477,5.452-4.011,6.788
		c-0.382,0.953-1.028,2.719-1.372,4.333c-0.992-0.284-1.986-0.559-2.986-0.813c0.665-1.35,1.149-2.431,1.149-2.718
		c0-0.803,2.675-3.953,2.139-7.591c-0.534-3.64-1.336-7.916-2.139-10.057c-0.802-2.139-0.535-6.417-1.604-12.834
		c-1.07-6.417,0.802-8.556-2.407-18.716c-3.208-10.161-3.744-16.577-4.546-18.449c-0.471-1.098-2.229-4.678-4.142-8.313
		c0.066-2.056,0.423-2.658,1.491,0.47c2.406,7.049,5.615,15.209,7.621,19.66c2.004,4.451,0,4.08,2.807,12.611
		c1.023,3.105,1.778,6.011,2.481,8.633c-0.165,2.326-0.23,4.646-0.098,5.709c0.267,2.14,1.872,7.753,2.94,9.091
		c1.07,1.337,2.675,2.675,2.675,5.348C541.308,465.751,543.179,466.611,541.308,469.925z M548.028,463.162
		c-0.063,0.262-0.154,0.529-0.279,0.809c-0.554,1.229-1.323,2.486-2.128,3.718c0.238-2.239,0.124-4.957-0.971-9.023
		c-0.146-0.541-0.288-1.043-0.429-1.537C546.57,458.951,548.611,460.717,548.028,463.162z M553.875,475.911
		c-0.302,1.005-0.754,2.009-1.25,3.001c-0.004-0.27-0.02-0.542-0.063-0.818c-0.535-3.367-1.336-7.322-2.139-9.301
		c-0.803-1.978-0.535-5.936-1.603-11.869c-1.07-5.935,0.801-7.914-2.408-17.31c-0.681-1.994-1.235-3.823-1.704-5.499
		c1.261-2.56,2.245-3.437,2.751-1.92c0.802,2.406,0.18,5.214,3.698,18.048c0.338,1.23,0.638,2.412,0.919,3.567
		c-0.128,1.911-0.168,3.718-0.049,4.597c0.208,1.537,1.222,5.003,2.164,7.058C554.695,470.235,554.517,473.768,553.875,475.911z
		 M570.208,483.629c-0.708,2.186-2.247,4.369-3.231,6.401c-1.193-0.913-4.709-12.944-4.961-16.88
		c0.048-0.222,0.096-0.448,0.148-0.714c1.068-5.349,1.87-16.579,1.87-16.579s-1.571-6.813-2.515-11.725
		c1.03-1.694,1.833-2.153,2.272-0.934c0.801,2.225,0.18,4.822,3.697,16.691c0.37,1.247,0.698,2.443,1.001,3.607
		c-1.096,2.199-1.973,5.251-0.711,8.402c1.106,2.768,2.139,6.316,2.917,9.251C570.593,482.121,570.428,482.951,570.208,483.629z
		 M575.556,498.467c0,1.238-3.475-1.484-2.941-3.461c0.079-0.292,0.136-0.57,0.184-0.844c0.988,0.322,1.994,0.725,2.959,1.098
		C575.562,496.796,575.556,497.886,575.556,498.467z M578.272,481.403c0.068-0.286,0.142-0.602,0.225-0.987
		c0.72-3.334,1.319-9.134,1.633-12.564c0.289,0.691,0.552,1.384,0.75,2.073c1.338,4.649,4.278,13.205,4.278,13.205l-0.803,3.209
		c0,0-2.406,4.813-4.545-0.803C579.316,484.239,578.794,482.83,578.272,481.403z M584.915,497.478c-0.563,0-2.303-1.093-3.481-2.512
		c0.051-0.182,0.092-0.379,0.114-0.606c0.239-2.394-1.227-2.929-1.517-3.228c-0.008-0.05-0.016-0.1-0.023-0.15
		c0.112-0.132,0.634-0.276,1.94-0.633c2.117-0.577,3.86-1.246,5.105-1.787c0.712,2.49,1.207,4.486,1.335,4.959
		C588.657,494.512,585.716,497.478,584.915,497.478z M600.688,493.273c0,0-2.406,4.451-4.545-0.742
		c-1.13-2.741-2.406-6.015-3.479-8.813c0.501-0.224,1.066-0.426,1.719-0.589c1.666-0.416,3.089-0.354,4.407-0.324
		c1.306,3.743,2.701,7.501,2.701,7.501L600.688,493.273z"/>
</g>
</svg>
