<?xml version="1.0" encoding="utf-8"?>
<!-- Generator: Adobe Illustrator 16.0.0, SVG Export Plug-In . SVG Version: 6.00 Build 0)  -->
<!DOCTYPE svg PUBLIC "-//W3C//DTD SVG 1.1//EN" "http://www.w3.org/Graphics/SVG/1.1/DTD/svg11.dtd">
<svg version="1.1" id="Calque_3" xmlns="http://www.w3.org/2000/svg" xmlns:xlink="http://www.w3.org/1999/xlink" x="0px" y="0px"
	 width="185px" height="185px" viewBox="0 0 185 185" enable-background="new 0 0 185 185" xml:space="preserve">
<g>
	<path fill="#454545" d="M92.5,165.73H36.516c0,0-30.535-16.965-31.667-37.885C3.718,106.922,28.6,49.808,28.6,49.808h63.9h63.898
		c0,0,24.884,57.114,23.752,78.038c-1.131,20.922-31.666,37.887-31.666,37.887H92.5V165.73z"/>
	<g>
		<polygon fill="#454545" points="133.075,44.718 57.298,44.718 64.649,37.932 133.075,37.932 		"/>
		<circle fill="#454545" cx="59.242" cy="26.585" r="7.317"/>
		<polygon fill="#454545" points="66.557,41.854 58.075,29.555 63.165,24.465 74.086,39.416 		"/>
	</g>
	<g>
		<polygon fill="#454545" points="51.925,44.718 127.702,44.718 120.352,37.932 51.925,37.932 		"/>
		<circle fill="#454545" cx="125.757" cy="26.585" r="7.317"/>
		<polygon fill="#454545" points="118.441,41.854 126.925,29.555 121.836,24.465 110.913,39.416 		"/>
	</g>
</g>
</svg>
