<?xml version="1.0" encoding="utf-8"?>
<!-- Generator: Adobe Illustrator 16.0.0, SVG Export Plug-In . SVG Version: 6.00 Build 0)  -->
<!DOCTYPE svg PUBLIC "-//W3C//DTD SVG 1.1//EN" "http://www.w3.org/Graphics/SVG/1.1/DTD/svg11.dtd">
<svg version="1.1" id="Calque_2" xmlns="http://www.w3.org/2000/svg" xmlns:xlink="http://www.w3.org/1999/xlink" x="0px" y="0px"
	 width="185px" height="185px" viewBox="0 0 185 185" enable-background="new 0 0 185 185" xml:space="preserve">
<path fill="#FFFFFF" d="M155.463,45.813h-29.306V21.187c0,0-3.078-9.018-13.198-8.798c-10.119,0.219-20.458,0-20.458,0
	s-10.339,0.219-20.458,0c-10.119-0.22-13.198,8.798-13.198,8.798V45.81H29.538C18.985,45.239,11.717,49.083,8.03,59.149
	c0,33.438,0,66.875,0,100.31c4.293,9.923,12.021,13.227,22.552,13.154c41.276-0.288,82.563-0.288,123.836,0
	c10.533,0.072,18.26-3.231,22.553-13.154c0-33.438,0-66.873,0-100.31C173.283,49.083,166.016,45.232,155.463,45.813z M73.802,45.811
	V28.006h37.396v17.805H73.802z"/>
</svg>
