<svg xmlns="http://www.w3.org/2000/svg" viewBox="0 0 40 40"><path d="M27.094 4.514a1.5 1.5 0 1 0 0 3h3.271l-7.356 7.357a11.405 11.405 0 0 0-6.994-2.384c-3.072 0-5.96 1.196-8.132 3.368a11.425 11.425 0 0 0-3.368 8.132c0 3.071 1.196 5.959 3.368 8.131a11.425 11.425 0 0 0 8.132 3.368c3.071 0 5.96-1.196 8.131-3.368a11.424 11.424 0 0 0 3.368-8.131c0-2.565-.844-4.996-2.384-6.995l7.356-7.357v3.27a1.5 1.5 0 1 0 3 0V4.514h-8.392zm-5.07 25.483a8.44 8.44 0 0 1-6.01 2.489 8.449 8.449 0 0 1-6.011-2.489c-3.314-3.314-3.314-8.706 0-12.021a8.447 8.447 0 0 1 6.011-2.489c2.27 0 4.405.884 6.01 2.489 3.314 3.314 3.314 8.706 0 12.021z" fill="#80b5d5"/></svg>