<?xml version="1.0" encoding="iso-8859-1"?>
<!-- Generator: Adobe Illustrator 17.0.0, SVG Export Plug-In . SVG Version: 6.00 Build 0)  -->
<!DOCTYPE svg PUBLIC "-//W3C//DTD SVG 1.1//EN" "http://www.w3.org/Graphics/SVG/1.1/DTD/svg11.dtd">
<svg version="1.1" id="Layer_1" xmlns="http://www.w3.org/2000/svg" xmlns:xlink="http://www.w3.org/1999/xlink" x="0px" y="0px"
	 width="100px" height="100px" viewBox="0 0 100 100" style="enable-background:new 0 0 100 100;" xml:space="preserve">
<g>
	<path style="fill:#006832;" d="M98.295,60.34c-3.298-1.659-9.333-10.694-10.63-12.676c4.743-4.107,7.332-9.38,7.332-15.486
		c0-13.244-14.466-23.981-32.311-23.981c-10.271,0-19.417,3.561-25.335,9.107c0.325-0.006,0.648-0.019,0.975-0.019
		c21.261,0,38.496,13.28,38.496,29.661c0,2.48-0.401,4.888-1.145,7.19c0.847-0.276,1.663-0.575,2.459-0.888
		C83.551,58.222,102.911,62.662,98.295,60.34z"/>
	<path style="fill:#006832;" d="M37.35,19.809C17.275,19.809,1,32.348,1,47.816c0,10.752,7.867,20.083,19.404,24.777
		c-2.25,5.375-6.805,15.53-10.139,18.182C4.664,95.23,28.889,84.277,35.643,75.79c0.566,0.02,1.134,0.033,1.707,0.033
		c20.076,0,36.35-12.539,36.35-28.007C73.7,32.348,57.426,19.809,37.35,19.809z"/>
</g>
</svg>
