<?xml version="1.0" encoding="iso-8859-1"?>
<!-- Generator: Adobe Illustrator 17.0.0, SVG Export Plug-In . SVG Version: 6.00 Build 0)  -->
<!DOCTYPE svg PUBLIC "-//W3C//DTD SVG 1.1//EN" "http://www.w3.org/Graphics/SVG/1.1/DTD/svg11.dtd">
<svg version="1.1" id="Layer_1" xmlns="http://www.w3.org/2000/svg" xmlns:xlink="http://www.w3.org/1999/xlink" x="0px" y="0px"
	 width="938px" height="1248px" viewBox="0 0 938 1248" style="enable-background:new 0 0 938 1248;" xml:space="preserve">
<path style="opacity:0.4;fill:#4C8230;" d="M933.25,287.334c-21.11-108.771-142.217-94.074-165.906-84.822
	c13.823-25.545,15.147-51.909,9.347-78.682c-5.909-27.264-18.968-50.858-39.423-69.853c-27.319-25.368-59.564-34.947-96.162-25.299
	c-32.177,8.488-58.309,27.551-79.61,52.891c-18.244,21.711-28.097,47.76-35.698,74.615c-12.813,45.277-18.026,91.796-23.785,138.232
	c-5.172,41.715-10.753,83.376-16.252,125.05c-0.737,5.554-2.061,11.026-3.084,16.539c-0.478,2.579-0.887,5.158-1.324,7.737
	c-0.71-0.082-1.419-0.15-2.129-0.232c-0.191-15.461-1.01-30.949-0.478-46.396c1.419-41.442,3.493-82.871,5.172-124.313
	c1.665-40.924,2.77-81.861-2.388-122.567c-3.248-25.627-8.788-50.64-21.506-73.36c-4.721-8.433-23.894-31.317-25.19-32.477
	c-8.024-7.15-15.802-14.737-24.603-20.851C386.568,7.089,360.259-0.007,331.316,5.67c-33.582,6.591-58.568,26.268-77.563,54.01
	c-18.708,27.305-27.237,57.258-21.779,90.226c0.887,5.363,2.484,10.616,3.821,16.239c-1.133-0.232-1.706-0.191-2.115-0.45
	c-17.63-11.067-37.13-15.256-57.817-15.201c-1.597,0-17.235,1.365-31.44,4.967c-12.732,3.22-24.221,8.706-24.999,9.074
	c-13.059,6.25-24.904,14.301-35.465,24.358c-31.031,29.543-41.661,72.623-27.005,111.896c16.457,44.076,45.741,76.035,89.326,94.634
	c29.298,12.5,59.864,20.769,90.895,27.66c0.655,0.15,7.928,2.129,14.11,3.139c31.522,5.199,63.003,10.616,94.361,16.648
	c33.05,6.359,65.95,13.496,98.905,20.319c1.515,0.314,2.975,0.928,4.462,1.406c-0.096,0.423-0.191,0.846-0.3,1.269
	c-5.868-0.027-11.776,0.287-17.617-0.15c-50.803-3.766-101.62-7.519-152.397-11.572c-41.442-3.302-82.885-6.1-124.518-2.197
	c-23.498,2.211-46.723,6.55-67.983,17.248c-27.019,13.605-49.193,33.282-65.35,59.1c-18.708,29.898-22.065,61.556-8.924,93.992
	c10.958,27.032,30.089,47.378,55.102,62.089c6.332,3.725,67.792,20.018,92.369,13.018c-1.501,2.484-2.17,3.671-2.92,4.817
	c-7.355,11.353-12.541,23.58-14.969,36.885c-5.786,31.795-0.177,61.72,14.915,89.653c12.677,23.457,30.853,41.62,56.057,51.568
	c27.742,10.958,55.375,8.392,82.707-3.016c38.522-16.075,67.356-42.411,86.255-79.924c16.252-32.245,27.701-66.155,36.68-100.856
	c12.034-46.547,23.115-93.338,34.686-140.007c2.033-8.174,4.449-16.252,6.7-24.385c0.942,2.32,0.641,4.326,0.409,6.359
	c-7.819,65.459-18.899,130.4-32.941,194.89c-12.185,55.934-26.909,111.172-45.385,165.428
	c-21.41,62.866-47.051,123.863-83.635,179.811c-24.453,37.403-53.123,70.849-89.79,97.104c-7.532,5.39-13.591,13.1-19.486,20.441
	c-2.811,3.507,7.874,41.674,21.902,46.273c10.275,3.371,19.705,2.17,28.847-4.326c18.231-12.95,34.046-28.383,48.033-45.714
	c27.06-33.487,48.033-70.672,66.155-109.508c26.991-57.872,47.051-118.173,63.903-179.552
	c17.849-65.036,32.095-130.863,42.67-197.36c8.624-54.16,15.529-108.58,23.198-162.89c0.327-2.292,0.614-4.571,0.914-6.864
	c1.214,1.201,1.542,2.347,1.637,3.521c3.684,48.593,7.164,97.199,11.094,145.765c2.811,34.865,6.973,69.566,15.693,103.49
	c5.759,22.42,13.155,44.267,26.35,63.412c17.494,25.381,40.733,44.199,69.157,56.098c33.364,13.973,66.032,11.585,96.612-8.802
	c32.6-21.724,51.267-52.905,58.35-90.963c4.039-21.711,1.992-42.902-7.423-63.016c-0.45-0.955-0.423-2.129-0.682-3.63
	c1.255,0.205,1.965,0.164,2.538,0.437c22.761,10.576,46.491,11.258,70.604,5.458c27.278-6.564,50.298-20.51,70.017-40.801
	c27.988-28.779,43.326-77.617,27.96-113.656c-2.02-8.87-10.466-25.941-18.954-37.54c-7.996-10.917-38.372-35.302-68.761-47.747
	c-34.524-14.137-69.921-15.802-87.633-17.426c-50.203-4.626-100.611-7.178-150.882-11.121c-31.658-2.484-63.235-5.881-94.839-8.911
	c-1.228-0.123-2.402-0.641-3.616-0.982c10.275-2.415,20.441-4.326,30.662-4.872c32.45-1.774,64.913-3.289,97.39-4.435
	c50.844-1.801,101.743-2.402,152.192-10.753c24.644-4.08,48.838-9.989,71.409-21.219c29.243-14.546,50.79-37.403,67.328-65.077
	C936.62,313.917,934.286,291.51,933.25,287.334z"/>
</svg>
