<?xml version="1.0" encoding="iso-8859-1"?>
<!-- Generator: Adobe Illustrator 17.0.0, SVG Export Plug-In . SVG Version: 6.00 Build 0)  -->
<!DOCTYPE svg PUBLIC "-//W3C//DTD SVG 1.1//EN" "http://www.w3.org/Graphics/SVG/1.1/DTD/svg11.dtd">
<svg version="1.1" id="Layer_1" xmlns="http://www.w3.org/2000/svg" xmlns:xlink="http://www.w3.org/1999/xlink" x="0px" y="0px"
	 width="265px" height="265px" viewBox="0 0 265 265" style="enable-background:new 0 0 265 265;" xml:space="preserve">
<path style="fill:#006832;" d="M231.209,124.569c-0.003-10.488-3.715-15.515-14.004-18.252c-3.414-0.908-4.589-2.651-4.507-5.973
	c0.123-4.992-0.074-9.992,0.046-14.984c0.605-25.067-8.9-45.805-27.345-62.383c-12.025-10.808-25.727-18.375-42.591-18.195
	c-2.521-0.285-5.117,0.594-7.578-0.516c-2,0-4,0-5.999,0c-2.288,1.094-4.716,0.258-7.065,0.515
	C116.65,4.687,111.251,5.339,106,7.134C74.878,17.774,50.82,49.462,51.859,83.78c0.176,5.81-0.051,11.632,0.053,17.445
	c0.054,3.022-1.199,4.356-4.14,5.108c-10.922,2.793-13.988,6.981-14.014,18.418c0,39.964,0.001,79.938,0.001,119.917
	c0.459,10.394,4.883,15.997,13.228,16.009c56.779,0.079,113.558,0.03,170.337,0.059c4.771,0.002,8.238-2.082,10.881-5.919
	c2.374-3.447,3.043-7.247,3.038-11.362C231.195,203.826,231.22,164.197,231.209,124.569z M150.421,180.656
	c-1.802,2.507-2.368,4.883-2.342,7.78c0.088,9.481,0.082,18.963,0.017,28.444c-0.048,7.004-2.646,9.58-9.641,9.682
	c-4.49,0.065-8.986,0.118-13.473-0.021c-5.768-0.178-8.441-2.856-8.601-8.691c-0.146-5.319-0.031-10.645-0.032-15.968
	c-0.001-2.828-0.048-5.657,0.009-8.483c0.107-5.287-0.322-10.052-3.482-14.975c-5.615-8.749-2.381-20.917,6.014-27.117
	c8.227-6.076,21.207-5.323,28.577,1.658C155.142,160.235,156.581,172.085,150.421,180.656z M174.653,107.616
	c-14.142-0.155-28.286-0.067-42.429-0.067s-28.288-0.091-42.429,0.069c-3.193,0.036-4.392-0.7-4.237-4.115
	c0.511-11.245-0.931-22.591,2.616-33.645c6.702-20.884,26.708-33.641,46.804-32.323c24.951,1.635,41.981,22.194,43.403,42.547
	c0.547,7.823,0.111,15.635,0.523,23.433C179.087,106.955,177.822,107.65,174.653,107.616z"/>
</svg>
