<?xml version="1.0" encoding="iso-8859-1"?>
<!-- Generator: Adobe Illustrator 17.0.0, SVG Export Plug-In . SVG Version: 6.00 Build 0)  -->
<!DOCTYPE svg PUBLIC "-//W3C//DTD SVG 1.1//EN" "http://www.w3.org/Graphics/SVG/1.1/DTD/svg11.dtd">
<svg version="1.1" id="Layer_1" xmlns="http://www.w3.org/2000/svg" xmlns:xlink="http://www.w3.org/1999/xlink" x="0px" y="0px"
	 width="34.016px" height="34.016px" viewBox="0 0 34.016 34.016" style="enable-background:new 0 0 34.016 34.016;"
	 xml:space="preserve">
<path style="fill:#8DBADB;" d="M24.102,1.522c-0.829,0-1.5,0.671-1.5,1.5c0,0.829,0.671,1.5,1.5,1.5h3.271l-7.356,7.357
	c-1.999-1.54-4.43-2.384-6.994-2.384c-3.072,0-5.96,1.196-8.132,3.368c-2.172,2.172-3.368,5.06-3.368,8.132
	c0,3.071,1.196,5.959,3.368,8.131c2.172,2.172,5.06,3.368,8.132,3.368c3.071,0,5.959-1.196,8.131-3.368
	c2.172-2.172,3.368-5.06,3.368-8.131c0-2.565-0.844-4.996-2.384-6.995l7.356-7.357v3.271c0,0.829,0.671,1.5,1.5,1.5
	s1.5-0.671,1.5-1.5V1.522H24.102z M19.032,27.005c-1.605,1.605-3.74,2.489-6.01,2.489c-2.271,0-4.405-0.884-6.011-2.489
	c-3.314-3.314-3.314-8.707,0-12.021c1.606-1.605,3.74-2.489,6.011-2.489c2.27,0,4.405,0.884,6.01,2.489
	C22.346,18.298,22.346,23.69,19.032,27.005z"/>
</svg>
