<?xml version="1.0" encoding="iso-8859-1"?>
<!-- Generator: Adobe Illustrator 17.0.0, SVG Export Plug-In . SVG Version: 6.00 Build 0)  -->
<!DOCTYPE svg PUBLIC "-//W3C//DTD SVG 1.1//EN" "http://www.w3.org/Graphics/SVG/1.1/DTD/svg11.dtd">
<svg version="1.1" id="Layer_1" xmlns="http://www.w3.org/2000/svg" xmlns:xlink="http://www.w3.org/1999/xlink" x="0px" y="0px"
	 width="257px" height="257px" viewBox="0 0 257 257" style="enable-background:new 0 0 257 257;" xml:space="preserve">
<g>
	<path style="fill:#006832;" d="M244.582,12.321c8.394,1.852,12.746,6.921,12.862,15.272c0.105,7.497-0.098,14.999,0.074,22.493
		c0.086,3.727-1.752,5.101-5.083,5.255c-0.998,0.046-1.999,0.014-2.999,0.014c-79.813,0-159.627-0.013-239.44,0.049
		c-3.281,0.003-6.204-0.353-8.496-2.91c0-9.999,0-19.998,0-29.996c2.773-8.129,5.98-10.414,14.723-10.482
		c74.307-0.003,148.604-0.004,222.901,0.012C240.943,12.029,242.789,11.745,244.582,12.321z"/>
	<path style="fill:#006832;" d="M244.582,12.321c-2.323,0.059-4.646,0.17-6.969,0.17c-73.082,0.01-146.164,0.01-219.246,0.003
		c-1.325,0-2.649-0.109-3.974-0.167c-0.24-0.218-0.304-0.413-0.193-0.585c0.104-0.161,0.203-0.242,0.299-0.242
		c76.657,0,153.314,0,229.971,0C244.545,11.769,244.582,12.042,244.582,12.321z"/>
	<path style="fill:#006832;" d="M14.498,11.5c-0.055,0.273-0.091,0.549-0.106,0.827C7.84,12.86,4.643,17.645,1.5,22.498
		c0-3.666-1.431-8.763,0.402-10.596S8.832,11.5,12.498,11.5C13.165,11.5,13.832,11.5,14.498,11.5z"/>
	<path style="fill:#006832;" d="M5.168,197.992c1.79-1.372,1.056-3.324,1.072-5.003c0.077-7.997,0.077-15.995,0.018-23.993
		c-0.022-2.921,0.258-5.776,2.486-7.833c2.854-2.635,3.244-5.956,3.487-9.516c2.013-29.427,25.535-51.523,54.613-51.378
		c29.071,0.145,52.406,22.335,54.297,51.819c0.222,3.459,0.73,6.478,3.259,9.057c2.355,2.402,2.726,5.556,2.709,8.808
		c-0.049,9.33,0.128,18.664-0.079,27.99c-0.092,4.143,0.976,5.877,5.572,5.855c36.156-0.172,72.312-0.065,108.469-0.119
		c10.583-0.016,16.371-5.839,16.383-16.378c0.038-34.323,0.024-68.647,0.006-102.971c-0.003-6.51-1.755-8.325-8.324-8.327
		c-80.144-0.026-160.288-0.015-240.431-0.022c-2.707,0-5.345,0.115-7.204,2.51c0,38.329,0,76.657,0,114.986
		C3.488,194.325,3.254,196.981,5.168,197.992z M232.497,174.752c-0.069,4.964-1.944,6.757-7.04,6.82
		c-5.66,0.07-11.322,0.016-16.982,0.017c-5.494,0.001-10.99-0.073-16.483,0.024c-4.547,0.08-6.852-2.037-6.878-6.558
		c-0.038-6.493,0.005-12.987-0.024-19.48c-0.021-4.613,2.464-6.671,6.84-6.685c11.322-0.036,22.644-0.062,33.965,0.022
		c4.389,0.032,6.721,2.25,6.65,6.86C232.446,162.098,232.584,168.427,232.497,174.752z M135.56,116.125
		c14.977-0.069,29.955-0.024,44.933-0.023c14.645,0.001,29.29-0.025,43.935,0.014c5.916,0.016,8.007,1.723,8.088,6.341
		c0.086,4.942-2.123,6.874-8.143,6.879c-29.456,0.024-58.913,0.028-88.369-0.003c-5.641-0.006-7.859-1.986-7.848-6.676
		C128.166,118.072,130.194,116.15,135.56,116.125z"/>
	<path style="fill:#006832;" d="M113.527,171.086c-0.001-1.775,0.54-4.15-1.78-4.666c-3.657-0.814-3.363-3.289-3.398-6.006
		c-0.039-2.986-0.29-5.989-0.718-8.946c-2.241-15.462-10.864-26.42-24.976-32.373c-14.341-6.05-28.386-4.248-41.002,5.136
		c-12.009,8.934-16.797,21.419-16.871,36.065c-0.009,1.779,1.132,4.384-1.564,5.138c-3.403,0.952-3.659,3.28-3.654,6.142
		c0.042,23.16,0.093,46.32-0.038,69.479c-0.024,4.305,1.514,5.917,5.833,5.865c13.661-0.165,27.324-0.061,40.987-0.06
		c13.829,0,27.66-0.104,41.487,0.062c4.323,0.052,5.809-1.505,5.779-5.858C113.453,217.74,113.542,194.413,113.527,171.086z
		 M76.482,216.22c-0.422,5.107-4.554,8.958-9.475,9.19c-4.666,0.22-9.343-3.048-10.043-7.939c-1.012-7.065-1.02-14.275-0.012-21.335
		c0.75-5.249,5.268-8.184,10.491-7.803c4.875,0.356,8.605,3.893,9.033,8.965c0.264,3.133,0.049,6.306,0.052,9.461
		C76.529,209.914,76.74,213.086,76.482,216.22z M90.085,165.594c-7.81,0-15.62,0-23.43,0c-8.807,0-17.614,0.017-26.421-0.015
		c-1.74-0.006-3.745,0.49-3.971-2.396c-1.287-16.398,5.807-29.464,20.888-34.529c19.985-6.711,38.932,7.519,39.936,29.633
		C97.419,165.593,97.419,165.593,90.085,165.594z"/>
</g>
</svg>
