<?xml version="1.0" encoding="utf-8"?>
<!-- Generator: Adobe Illustrator 16.0.0, SVG Export Plug-In . SVG Version: 6.00 Build 0)  -->
<!DOCTYPE svg PUBLIC "-//W3C//DTD SVG 1.1//EN" "http://www.w3.org/Graphics/SVG/1.1/DTD/svg11.dtd">
<svg version="1.1" id="Calque_1" xmlns="http://www.w3.org/2000/svg" xmlns:xlink="http://www.w3.org/1999/xlink" x="0px" y="0px"
	 width="160px" height="160px" viewBox="0 0 160 160" enable-background="new 0 0 160 160" xml:space="preserve">
<g>
	<path fill="#3FB3AE" d="M133.014,26.976c-29.304-29.304-76.783-29.304-106.057,0c-28.181,28.181-29.242,73.26-3.148,102.719
		l0.779,0.627c-2.837,6.107-7.701,13.652-15.432,17.455c-2.556,1.25-1.964,5.054,0.842,5.49c8.448,1.307,20.575-0.158,31.891-8.699
		l0.157,0.123c28.744,16.896,66.339,13.031,91.032-11.659C162.318,103.758,162.318,56.25,133.014,26.976z M104.709,112.084
		c-1.652,1.682-3.4,3.243-4.96,4.986c-2.272,2.558-5.142,3.369-8.386,3.182c-4.736-0.249-9.131-1.843-13.341-3.896
		c-9.384-4.553-17.395-10.881-24.098-18.86c-4.958-5.896-9.04-12.313-11.753-19.578c-1.31-3.523-2.244-7.107-1.964-10.912
		c0.186-2.338,1.061-4.333,2.774-5.987c1.871-1.775,3.615-3.615,5.455-5.423c2.401-2.369,5.394-2.339,7.795,0
		c1.497,1.465,2.93,2.931,4.396,4.396c1.433,1.434,2.867,2.836,4.27,4.27c2.495,2.525,2.495,5.455,0,7.98
		c-1.777,1.809-3.554,3.617-5.392,5.361c-0.469,0.469-0.53,0.844-0.283,1.436c1.187,2.866,2.931,5.421,4.865,7.794
		c3.896,4.802,8.323,9.07,13.622,12.375c1.122,0.718,2.37,1.216,3.557,1.869c0.592,0.343,1.028,0.22,1.494-0.278
		c1.778-1.84,3.618-3.647,5.426-5.455c2.399-2.37,5.395-2.37,7.762,0c2.933,2.897,5.832,5.798,8.729,8.728
		C107.17,106.629,107.17,109.62,104.709,112.084z M77.055,63.637l0.935-6.671c6.455,0.904,12.316,3.835,16.928,8.448
		c4.395,4.396,7.264,9.914,8.291,15.993l-6.639,1.153c-0.809-4.708-3.023-8.979-6.422-12.375
		C86.563,66.599,82.045,64.324,77.055,63.637z M114.061,81.407c-1.496-8.729-5.612-16.648-11.879-22.944
		c-6.606-6.609-14.994-10.788-24.252-12.097l0.935-6.671c10.695,1.496,20.42,6.328,28.058,13.997
		c7.266,7.264,12.032,16.46,13.778,26.562L114.061,81.407z"/>
</g>
</svg>
