<?xml version="1.0" encoding="utf-8"?>
<!-- Generator: Adobe Illustrator 16.0.0, SVG Export Plug-In . SVG Version: 6.00 Build 0)  -->
<!DOCTYPE svg PUBLIC "-//W3C//DTD SVG 1.1//EN" "http://www.w3.org/Graphics/SVG/1.1/DTD/svg11.dtd">
<svg version="1.1" id="Calque_1" xmlns="http://www.w3.org/2000/svg" xmlns:xlink="http://www.w3.org/1999/xlink" x="0px" y="0px"
	 width="35px" height="44.99px" viewBox="0 0 35 44.99" enable-background="new 0 0 35 44.99" xml:space="preserve">
<g>
	<g>
		<path fill="#FFF" d="M32.567,0.5H2.434c-0.807,0-1.458,0.646-1.458,1.443v41.102c0,0.798,0.651,1.445,1.458,1.445H24.79
			c0.359,0,0.707-0.132,0.975-0.37l7.775-6.892c0.309-0.274,0.484-0.666,0.484-1.075V1.943C34.024,1.146,33.374,0.5,32.567,0.5z
			 M31.112,35.345h-6.785v6.173l-0.09,0.081H3.894V3.389h27.218V35.345z M20.176,26.176h-7.411c-0.422,0-0.762,0.341-0.762,0.757
			v7.338c0,0.42,0.339,0.756,0.762,0.756h7.411c0.42,0,0.762-0.339,0.762-0.756v-7.338C20.94,26.517,20.596,26.176,20.176,26.176z
			 M19.417,33.517h-5.889v-5.83h5.889V33.517z M20.842,15.001v-0.054c0-0.369-0.301-0.667-0.674-0.667H12.77
			c-0.371,0-0.673,0.298-0.673,0.667v7.326c0,0.37,0.303,0.668,0.673,0.668h7.4c0.371,0,0.674-0.298,0.674-0.668v-2.611
			l-1.189,1.178c-0.045,0.044-0.105,0.065-0.158,0.104v0.665h-6.053v-5.997h6.053v0.721L20.842,15.001z M22.231,14.567l-3.752,3.715
			l-1.437-1.423c-0.388-0.385-1.013-0.385-1.401,0c-0.388,0.384-0.388,1.005,0,1.386l2.138,2.118c0.192,0.192,0.448,0.289,0.7,0.289
			c0.255,0,0.51-0.097,0.701-0.289l4.452-4.409c0.389-0.384,0.389-1.004,0-1.388C23.245,14.184,22.618,14.184,22.231,14.567z
			 M27.227,7.538H7.774v2.013h19.453V7.538z"/>
	</g>
</g>
</svg>
