<?xml version="1.0" encoding="utf-8"?>
<!-- Generator: Adobe Illustrator 16.0.0, SVG Export Plug-In . SVG Version: 6.00 Build 0)  -->
<!DOCTYPE svg PUBLIC "-//W3C//DTD SVG 1.1//EN" "http://www.w3.org/Graphics/SVG/1.1/DTD/svg11.dtd">
<svg version="1.1" id="Calque_1" xmlns="http://www.w3.org/2000/svg" xmlns:xlink="http://www.w3.org/1999/xlink" x="0px" y="0px"
	 width="200px" height="55px" viewBox="0 0 200 55" enable-background="new 0 0 200 55" xml:space="preserve">
<g>
	<path d="M24.999,2.5c-13.593,0-24.653,11.214-24.653,25c0,13.784,11.06,25,24.653,25c13.595,0,24.655-11.216,24.655-25
		C49.654,13.714,38.594,2.5,24.999,2.5z M31.131,28.38H27.12c0,6.498,0,14.497,0,14.497h-5.943c0,0,0-7.922,0-14.497h-2.825v-5.124
		h2.825v-3.314c0-2.373,1.111-6.082,5.998-6.082l4.402,0.016v4.974c0,0-2.677,0-3.196,0c-0.521,0-1.259,0.265-1.259,1.396v3.011
		h4.528L31.131,28.38z"/>
</g>
<g>
	<path d="M75.001,2.5c-13.617,0-24.655,11.193-24.655,25c0,13.809,11.038,25,24.655,25c13.614,0,24.653-11.191,24.653-25
		C99.654,13.693,88.615,2.5,75.001,2.5z M89.168,20.132c0.015,0.318,0.022,0.638,0.022,0.959c0,9.797-7.354,21.093-20.801,21.093
		c-4.129,0-7.971-1.228-11.207-3.33c0.573,0.067,1.154,0.103,1.744,0.103c3.425,0,6.578-1.186,9.079-3.174
		c-3.198-0.06-5.898-2.203-6.828-5.148c0.445,0.087,0.903,0.132,1.376,0.132c0.665,0,1.313-0.089,1.925-0.258
		c-3.345-0.682-5.865-3.678-5.865-7.27c0-0.032,0-0.062,0.002-0.093c0.985,0.556,2.112,0.89,3.312,0.927
		c-1.963-1.329-3.254-3.598-3.254-6.17c0-1.358,0.361-2.632,0.99-3.728c3.606,4.486,8.992,7.438,15.07,7.746
		c-0.126-0.543-0.19-1.108-0.19-1.688c0-4.094,3.273-7.414,7.311-7.414c2.104,0,4.003,0.9,5.336,2.34
		c1.665-0.332,3.23-0.949,4.644-1.797c-0.546,1.729-1.706,3.183-3.214,4.1c1.478-0.179,2.887-0.578,4.197-1.167
		C91.836,17.78,90.598,19.087,89.168,20.132z"/>
</g>
<g>
	<g>
		<g>
			<path d="M125,32.505c2.721,0,4.938-2.245,4.938-5.005c0-1.089-0.353-2.096-0.935-2.917c-0.897-1.261-2.355-2.087-4.002-2.087
				c-1.648,0-3.105,0.826-4.004,2.086c-0.586,0.822-0.933,1.828-0.936,2.917C120.063,30.26,122.279,32.505,125,32.505z
				 M135.778,21.377v-4.819l-0.62,0.001l-4.135,0.013l0.018,4.82L135.778,21.377z M125.002,2.5c-13.597,0-24.657,11.214-24.657,25
				c0,13.784,11.061,25,24.657,25c13.593,0,24.653-11.216,24.653-25C149.655,13.714,138.595,2.5,125.002,2.5z M139.023,36.224
				c0,3.032-2.431,5.495-5.419,5.495h-17.207c-2.988,0-5.419-2.463-5.419-5.495V18.778c0-3.031,2.431-5.495,5.419-5.495h17.205
				c2.99,0,5.421,2.464,5.421,5.495V36.224z M132.671,27.5c0,4.287-3.44,7.776-7.669,7.776c-4.23,0-7.669-3.489-7.669-7.776
				c0-1.031,0.201-2.018,0.563-2.917h-4.187v11.641c0,1.504,1.204,2.723,2.688,2.723h17.203c1.483,0,2.688-1.219,2.688-2.723V24.583
				h-4.186C132.464,25.482,132.671,26.469,132.671,27.5z"/>
		</g>
	</g>
</g>
<g>
	<g>
		<g>
			<path d="M168.752,23.119c0,0,6.976-0.003,6.991-0.003c1.615,0,2.938-1.2,2.962-2.843c0.027-1.659-1.279-3.145-2.915-3.172
				l-6.944,0.008c-1.639-0.016-2.983,1.298-3.009,2.958C165.811,21.726,167.117,23.092,168.752,23.119z M181.897,30.878h-13.887
				c-1.637,0-2.964,1.346-2.964,3.007c0,1.659,1.327,3.003,2.964,3.003h13.887c1.638,0,2.964-1.344,2.964-3.003
				C184.861,32.224,183.535,30.878,181.897,30.878z M175,2.5c-13.616,0-24.655,11.192-24.655,25c0,13.808,11.039,25,24.655,25
				s24.655-11.192,24.655-25C199.655,13.692,188.616,2.5,175,2.5z M189.075,41.896c-1.904,1.99-4.595,3.056-7.778,3.082h-12.445
				c-0.077,0-0.156,0.002-0.233,0.002c-3.568,0-6.323-1.02-8.185-3.031c-1.864-2.014-2.462-4.735-2.462-8.518
				c0.004-0.26-0.021-0.514-0.005-0.766l0.006-13.293c0.154-3.298,1.607-5.336,2.7-6.503c1.768-1.887,4.266-2.844,7.426-2.844h0.089
				l8.127-0.006l0.075,0.001c5.313,0.149,9.143,3.899,9.181,9.116c0.139,1.568,0.052,3.016-0.249,4.324
				c1.785,0.053,3.99,0.37,5.418,2.241c1.261,1.653,1.269,3.531,1.28,6.13c0.003,0.532,0.017,1.888,0.017,1.888
				C192.002,37.085,190.978,39.913,189.075,41.896z"/>
		</g>
	</g>
</g>
</svg>
