<svg xmlns="http://www.w3.org/2000/svg" width="96" height="96" viewBox="0 0 96 96"><path d="M82.021 23.326c-1.547-7.971-10.422-6.894-12.158-6.216 1.013-1.872 1.11-3.804.685-5.766-.433-1.998-1.39-3.727-2.889-5.119-2.002-1.859-4.365-2.561-7.047-1.854-2.358.622-4.273 2.019-5.834 3.876-1.337 1.591-2.059 3.5-2.616 5.468-.939 3.318-1.321 6.727-1.743 10.13-.379 3.057-.788 6.11-1.191 9.164-.054.407-.151.808-.226 1.212-.035.189-.065.378-.097.567l-.156-.017c-.014-1.133-.074-2.268-.035-3.4.104-3.037.256-6.073.379-9.11.122-2.999.203-5.999-.175-8.982-.238-1.878-.644-3.711-1.576-5.376-.346-.618-1.751-2.295-1.846-2.38-.588-.524-1.158-1.08-1.803-1.528-1.734-1.206-3.662-1.726-5.783-1.31-2.461.483-4.292 1.925-5.684 3.958-1.371 2.001-1.996 4.196-1.596 6.612.065.393.182.778.28 1.19-.083-.017-.125-.014-.155-.033-1.292-.811-2.721-1.118-4.237-1.114-.117 0-1.263.1-2.304.364-.933.236-1.775.638-1.832.665a9.996 9.996 0 0 0-2.599 1.785c-2.274 2.165-3.053 5.322-1.979 8.2 1.206 3.23 3.352 5.572 6.546 6.935 2.147.916 4.387 1.522 6.661 2.027.048.011.581.156 1.034.23 2.31.381 4.617.778 6.915 1.22 2.422.466 4.833.989 7.248 1.489.111.023.218.068.327.103a3.129 3.129 0 0 1-.022.093c-.43-.002-.863.021-1.291-.011-3.723-.276-7.447-.551-11.168-.848-3.037-.242-6.074-.447-9.125-.161-1.722.162-3.424.48-4.982 1.264-1.98.997-3.605 2.439-4.789 4.331-1.371 2.191-1.617 4.511-.654 6.888.803 1.981 2.205 3.472 4.038 4.55.464.273 4.968 1.467 6.769.954-.11.182-.159.269-.214.353A7.378 7.378 0 0 0 24 56.432c-.424 2.33-.013 4.523 1.093 6.57.929 1.719 2.261 3.05 4.108 3.779 2.033.803 4.058.615 6.061-.221 2.823-1.178 4.936-3.108 6.321-5.857 1.191-2.363 2.03-4.848 2.688-7.391.882-3.411 1.694-6.84 2.542-10.26.149-.599.326-1.191.491-1.787.069.17.047.317.03.466a151.638 151.638 0 0 1-2.414 14.282c-.893 4.099-1.972 8.147-3.326 12.123-1.569 4.607-3.448 9.077-6.129 13.177-1.792 2.741-3.893 5.192-6.58 7.116-.552.395-.996.96-1.428 1.498-.206.257.577 3.054 1.605 3.391.753.247 1.444.159 2.114-.317 1.336-.949 2.495-2.08 3.52-3.35 1.983-2.454 3.52-5.179 4.848-8.025 1.978-4.241 3.448-8.66 4.683-13.158a134.371 134.371 0 0 0 3.127-14.463c.632-3.969 1.138-7.957 1.7-11.937.024-.168.045-.335.067-.503a.378.378 0 0 1 .12.258c.27 3.561.525 7.123.813 10.682.206 2.555.511 5.098 1.15 7.584.422 1.643.964 3.244 1.931 4.647a11.399 11.399 0 0 0 5.068 4.111c2.445 1.024 4.839.849 7.08-.645 2.389-1.592 3.757-3.877 4.276-6.666.296-1.591.146-3.144-.544-4.618-.033-.07-.031-.156-.05-.266.092.015.144.012.186.032 1.668.775 3.407.825 5.174.4 1.999-.481 3.686-1.503 5.131-2.99 2.051-2.109 3.175-5.688 2.049-8.329-.148-.65-.767-1.901-1.389-2.751-.586-.8-2.812-2.587-5.039-3.499-2.53-1.036-5.124-1.158-6.422-1.277-3.679-.339-7.373-.526-11.057-.815-2.32-.182-4.634-.431-6.95-.653-.09-.009-.176-.047-.265-.072.753-.177 1.498-.317 2.247-.357 2.378-.13 4.757-.241 7.137-.325 3.726-.132 7.456-.176 11.153-.788 1.806-.299 3.579-.732 5.233-1.555 2.143-1.066 3.722-2.741 4.934-4.769 1.181-3.63 1.01-5.272.934-5.578z" fill="#53FD19"/></svg>