<svg id="Calque_1" xmlns="http://www.w3.org/2000/svg" width="105" height="110" viewBox="-2.5 -4 105 110"><path fill="#2C647E" d="M37.733 101.925C16.64 101.925-.52 84.764-.52 63.669c0-21.092 17.16-38.251 38.253-38.251 9.439 0 18.447 3.458 25.482 9.759L88.28 7.075H63.799v-7h36.721v37.532h-7v-25.89L68.008 40.322a38.315 38.315 0 0 1 7.979 23.347c-.001 21.095-17.161 38.256-38.254 38.256zm0-69.507C20.5 32.418 6.48 46.437 6.48 63.669c0 17.234 14.02 31.256 31.253 31.256s31.253-14.021 31.253-31.256c0-17.232-14.019-31.251-31.253-31.251z"/></svg>