<svg id="Calque_1" xmlns="http://www.w3.org/2000/svg" width="75" height="115" viewBox="-2.5 -2.5 75 115"><path fill="#FC2C93" d="M38.499 109.959H31.5v-25.59H10.913v-7H31.5V66.572C14.682 64.805 1.641 50.412 1.641 33.403 1.641 15.007 16.607.041 35.003.041c18.393 0 33.356 14.966 33.356 33.362 0 17.013-13.042 31.406-29.86 33.17v10.796h20.59v7h-20.59v25.59zM35.003 7.041c-14.536 0-26.362 11.826-26.362 26.362 0 14.537 11.826 26.363 26.362 26.363 14.533 0 26.356-11.826 26.356-26.363 0-14.536-11.823-26.362-26.356-26.362z"/></svg>