<?xml version="1.0" encoding="utf-8"?>
<!-- Generator: Adobe Illustrator 16.0.0, SVG Export Plug-In . SVG Version: 6.00 Build 0)  -->
<!DOCTYPE svg PUBLIC "-//W3C//DTD SVG 1.1//EN" "http://www.w3.org/Graphics/SVG/1.1/DTD/svg11.dtd">
<svg version="1.1" id="Calque_1" xmlns="http://www.w3.org/2000/svg" xmlns:xlink="http://www.w3.org/1999/xlink" x="0px" y="0px"
	 width="81.999px" height="118.999px" viewBox="0 0 81.999 118.999" enable-background="new 0 0 81.999 118.999"
	 xml:space="preserve">
<g>
	<g>
		<path fill="#FFFFFF" d="M35.417,31.264c1.779,0.677,3.679,1.021,5.582,1.021c4.47,0,8.794-1.951,11.761-5.299
			c2.994-3.379,4.399-7.968,3.83-12.448c-0.559-4.395-3.015-8.418-6.648-10.94C46.217,1.014,41.454,0.169,37.067,1.3
			c-4.259,1.097-7.932,4.018-9.983,7.911c-2.116,4.018-2.379,8.883-0.715,13.107C27.98,26.407,31.314,29.704,35.417,31.264z
			 M79.788,0.695c-0.239-0.167-0.363-0.253-0.404-0.281C79.435,0.451,79.598,0.564,79.788,0.695z M79.993,0.838
			C80.484,1.18,80.938,1.496,79.993,0.838c-0.002-0.002-0.003-0.002-0.004-0.003c-2.121-1.473-5.032-0.946-6.505,1.176
			c0,0-14.598,22.287-19.604,28.256c-3.736,4.453-7.295,5.697-12.657,4.955c-2.648-0.367-35.461-8.536-35.461-8.536
			c-2.302-0.557-4.719,0.766-5.504,3.002c-0.757,2.157,0.204,4.623,2.226,5.69c0.185,0.098,0.375,0.182,0.571,0.254l35.59,13.117
			c0.203,0.614,1.948,5.343,2.938,10.291c0.63,3.148,0.897,6.356,1.079,9.559c0.127,2.246,0.093,4.493,0.066,6.74
			c-0.025,2.316,0.354,4.582,1.27,6.719c-0.078,2.925-0.229,5.85-0.478,8.766c-0.271,3.191-0.771,6.362-1.292,9.524
			c-0.658,3.995-1.689,5.53-1.759,5.635c-1.277,0.484-2.823,0.318-4.145,0.145c-1.58-0.208-3.136-0.581-4.664-1.029
			c-1.343-0.394-2.667-0.85-3.973-1.354c-1.038-0.401-2.048-0.858-3.071-1.293c-0.476-0.202-0.949-0.427-1.472-0.54
			c-0.538-0.117-1.092-0.154-1.641-0.112c-1.086,0.083-2.142,0.48-3.013,1.137c-1.818,1.37-2.659,3.765-2.104,5.973
			c0.393,1.563,1.445,2.908,2.866,3.663c4.563,2.499,9.442,4.643,14.541,5.75c2.761,0.6,5.625,0.896,8.436,0.49
			c2.92-0.42,5.697-1.646,7.817-3.728c0.503-0.493,0.968-1.036,1.386-1.604c0.229-0.377,0.514-0.724,0.753-1.095
			c0.414-0.64,0.795-1.3,1.148-1.976c0.706-1.352,1.311-2.756,1.848-4.183c1.079-2.863,1.914-5.817,2.63-8.791
			c0.47-1.952,0.89-3.916,1.269-5.888c0.794-0.035,1.58-0.128,2.359-0.28c1.41,2.886,2.717,5.824,3.826,8.841
			c-2.969,1.159-4.422,4.66-3.16,7.59c0.855,1.983,1.893,3.879,3.35,5.49c1.585,1.752,3.591,3.112,5.881,3.743
			c1.252,0.345,2.566,0.462,3.853,0.263c2.582-0.405,4.743-2.418,5.204-5.141c0.994-5.864,0.045-11.858-1.301-17.59
			c-0.729-3.106-1.617-6.175-2.607-9.206c-0.648-1.985-1.32-3.973-2.1-5.911c-0.154-0.385-0.302-0.772-0.466-1.153
			c0.192-1.288,0.208-2.582,0.102-3.878c-0.106-1.297-0.195-2.598-0.329-3.892c-0.316-3.062-0.742-6.12-1.317-9.144
			c-1.199-6.299-2.885-12.522-5.363-18.444c-0.673-1.608-1.396-3.194-2.202-4.74l16.64-31.207
			C82.553,4.822,81.96,2.209,79.993,0.838z M79.788,0.695c0.061,0.042,0.124,0.086,0.201,0.14c0.001,0,0.001,0,0.002,0.001
			C79.922,0.789,79.853,0.741,79.788,0.695z M51.435,113.476c-0.001,0.002-0.002,0.003-0.003,0.004
			c-0.004,0.006-0.009,0.012-0.013,0.019C51.425,113.491,51.43,113.483,51.435,113.476z"/>
	</g>
</g>
</svg>
