<?xml version="1.0" encoding="utf-8"?>
<!-- Generator: Adobe Illustrator 16.0.0, SVG Export Plug-In . SVG Version: 6.00 Build 0)  -->
<!DOCTYPE svg PUBLIC "-//W3C//DTD SVG 1.1//EN" "http://www.w3.org/Graphics/SVG/1.1/DTD/svg11.dtd">
<svg version="1.1" id="Calque_1" xmlns="http://www.w3.org/2000/svg" xmlns:xlink="http://www.w3.org/1999/xlink" x="0px" y="0px"
	 width="122.981px" height="181.125px" viewBox="0 0 122.981 181.125" enable-background="new 0 0 122.981 181.125"
	 xml:space="preserve"  preserveAspectRatio="xMidYMid">
<g>
	<g>
		<path fill="#FFFFFF" d="M75.602,27.638c3.459,0,6.625,1.299,9.41,3.862c3.959,3.642,5.546,8.939,4.467,14.915
			c-0.291,1.611-0.783,3.211-1.418,4.794c0.153,0.063,0.3,0.132,0.452,0.194l0.099,0.385c26.97-10.923,37.361-36.767,25.483-47.69
			C102.22-6.826,88.612,7.548,88.612,7.548h-0.099c0,0-13.608-14.374-25.484-3.451c-6.94,6.384-6.264,17.734,0.874,28.245
			C66.619,30.191,70.835,27.638,75.602,27.638z M63.013,70.168l0.077-0.116c11.486-4.653,19.093-12.536,22.115-20.111
			c2.493-6.25,1.868-12.29-2.306-16.129c-2.412-2.218-4.915-3.038-7.299-3.038c-3.936,0-7.533,2.232-9.851,4.092
			c-1.653,1.323-2.66,2.458-2.66,2.458h-0.077c0,0-5.772-6.551-12.511-6.552c-2.383,0-4.887,0.819-7.298,3.037
			C33.972,42.303,42.048,61.676,63.013,70.168z M33.083,80.947c6.261-0.024,11.315-5.099,11.29-11.335
			c-0.024-6.235-5.119-11.271-11.38-11.246s-11.315,5.1-11.29,11.335C21.727,75.937,26.822,80.971,33.083,80.947z M77.988,69.48
			c0.024,6.236,5.12,11.271,11.379,11.246c6.263-0.024,11.316-5.099,11.292-11.335s-5.118-11.271-11.382-11.246
			C83.019,58.169,77.962,63.245,77.988,69.48z M120.628,111.176c-8.182-5.818-14.889-13.077-19.547-21.97
			c-0.292-0.549-0.626-1-1-1.371c-0.905-1.673-2.666-2.82-4.706-2.813l-11.227,0.044c-1.718,0.007-3.229,0.838-4.2,2.098
			c-0.768,0.432-1.457,1.122-1.976,2.133c-4.042,7.855-9.676,14.456-16.509,19.937c-6.879-5.427-12.566-11.982-16.666-19.807
			c-0.289-0.549-0.626-1-0.998-1.371c-0.907-1.673-2.665-2.82-4.706-2.813L27.87,85.288c-1.719,0.007-3.23,0.838-4.201,2.098
			c-0.771,0.432-1.457,1.124-1.977,2.133c-4.593,8.929-11.241,16.238-19.373,22.122c-5.522,3.996-0.158,13.218,5.431,9.173
			c5.522-3.995,10.539-8.501,14.864-13.605l0.093,23.439c0,0.017,0.004,0.035,0.004,0.048c-1.457,15.068-2.406,30.165-2.395,45.303
			c0.006,6.866,10.695,6.82,10.689-0.042c-0.012-13.373,0.727-26.712,1.902-40.025l1.371-0.006c1.27,13.236,2.107,26.498,2.201,39.8
			c0.047,6.865,10.736,6.823,10.69-0.042c-0.105-14.781-1.132-29.513-2.644-44.211c0.051-0.297,0.089-0.601,0.088-0.912
			l-0.091-22.847c3.823,4.346,8.17,8.232,12.897,11.736c0.956,1.359,2.43,2.262,4.09,2.136c1.658,0.113,3.124-0.799,4.068-2.166
			c4.908-3.699,9.403-7.813,13.31-12.426l0.094,23.438c0,0.017,0.004,0.035,0.004,0.049c-1.453,15.067-2.407,30.164-2.396,45.303
			c0.01,6.865,10.697,6.819,10.693-0.042c-0.011-13.374,0.728-26.713,1.904-40.026l1.371-0.006
			c1.273,13.236,2.108,26.498,2.201,39.8c0.049,6.866,10.735,6.824,10.689-0.042c-0.104-14.781-1.129-29.513-2.643-44.211
			c0.048-0.297,0.089-0.601,0.088-0.912l-0.091-22.852c4.247,4.828,9.121,9.104,14.46,12.902
			C120.888,124.392,126.179,115.13,120.628,111.176z"/>
	</g>
</g>
</svg>
