<?xml version="1.0" encoding="utf-8"?>
<!-- Generator: Adobe Illustrator 16.0.0, SVG Export Plug-In . SVG Version: 6.00 Build 0)  -->
<!DOCTYPE svg PUBLIC "-//W3C//DTD SVG 1.1//EN" "http://www.w3.org/Graphics/SVG/1.1/DTD/svg11.dtd">
<svg version="1.1" id="Calque_1" xmlns="http://www.w3.org/2000/svg" xmlns:xlink="http://www.w3.org/1999/xlink" x="0px" y="0px"
	 width="122.98px" height="181.125px" viewBox="0 0 122.98 181.125" enable-background="new 0 0 122.98 181.125"
	 xml:space="preserve">
<g>
	<g>
		<path fill="#E72D4B" d="M75.602,27.638c3.459,0,6.625,1.299,9.41,3.862c3.959,3.642,5.546,8.939,4.467,14.915
			c-0.291,1.611-0.783,3.211-1.418,4.794c0.152,0.063,0.3,0.132,0.452,0.194l0.099,0.385c26.971-10.923,37.361-36.767,25.483-47.69
			c-11.875-10.924-25.483,3.45-25.483,3.45h-0.099c0,0-13.608-14.374-25.484-3.451c-6.939,6.384-6.264,17.734,0.874,28.245
			C66.619,30.191,70.835,27.638,75.602,27.638z M63.013,70.168l0.076-0.116c11.486-4.653,19.094-12.536,22.115-20.111
			c2.493-6.25,1.868-12.29-2.307-16.129c-2.412-2.218-4.915-3.038-7.299-3.038c-3.937,0-7.533,2.232-9.852,4.092
			c-1.652,1.323-2.66,2.458-2.66,2.458H63.01c0,0-5.771-6.551-12.511-6.552c-2.383,0-4.887,0.819-7.298,3.037
			C33.972,42.303,42.048,61.676,63.013,70.168z M33.083,80.947c6.261-0.024,11.314-5.099,11.29-11.335
			c-0.023-6.235-5.119-11.271-11.38-11.246c-6.262,0.025-11.314,5.1-11.29,11.335C21.727,75.937,26.822,80.971,33.083,80.947z
			 M77.988,69.48c0.024,6.236,5.12,11.271,11.38,11.246c6.263-0.024,11.315-5.099,11.292-11.335
			c-0.024-6.236-5.118-11.271-11.383-11.246C83.019,58.169,77.962,63.245,77.988,69.48z M120.628,111.176
			c-8.183-5.818-14.89-13.076-19.547-21.97c-0.292-0.549-0.626-1-1-1.371c-0.905-1.673-2.666-2.82-4.706-2.813l-11.228,0.044
			c-1.718,0.007-3.229,0.838-4.199,2.098c-0.769,0.432-1.457,1.122-1.977,2.133c-4.042,7.855-9.677,14.456-16.51,19.938
			c-6.879-5.428-12.565-11.981-16.666-19.806c-0.289-0.549-0.626-1-0.998-1.371c-0.906-1.673-2.665-2.82-4.706-2.813L27.87,85.288
			c-1.72,0.007-3.229,0.838-4.201,2.098c-0.771,0.432-1.457,1.124-1.978,2.133c-4.593,8.928-11.24,16.238-19.373,22.122
			c-5.521,3.996-0.157,13.219,5.432,9.174c5.521-3.996,10.539-8.502,14.864-13.604l0.093,23.438c0,0.018,0.004,0.035,0.004,0.047
			c-1.457,15.068-2.405,30.166-2.396,45.305c0.006,6.866,10.694,6.818,10.688-0.042c-0.012-13.373,0.728-26.712,1.902-40.024
			l1.37-0.007c1.271,13.236,2.106,26.498,2.201,39.802c0.047,6.863,10.735,6.821,10.689-0.043
			c-0.104-14.781-1.132-29.514-2.645-44.211c0.052-0.298,0.09-0.602,0.088-0.912l-0.091-22.848c3.822,4.348,8.17,8.23,12.896,11.736
			c0.956,1.357,2.431,2.262,4.09,2.136c1.658,0.113,3.124-0.799,4.068-2.166c4.907-3.698,9.402-7.813,13.31-12.426l0.095,23.438
			c0,0.018,0.004,0.034,0.004,0.049c-1.452,15.066-2.406,30.164-2.396,45.304c0.011,6.864,10.697,6.819,10.693-0.042
			c-0.012-13.374,0.728-26.713,1.903-40.026l1.371-0.006c1.272,13.235,2.107,26.498,2.2,39.8c0.05,6.866,10.735,6.824,10.688-0.041
			c-0.104-14.781-1.129-29.514-2.644-44.212c0.049-0.297,0.09-0.601,0.089-0.911l-0.092-22.853
			c4.247,4.827,9.121,9.104,14.46,12.901C120.888,124.393,126.179,115.13,120.628,111.176z"/>
	</g>
</g>
</svg>
