<?xml version="1.0" encoding="utf-8"?>
<!-- Generator: Adobe Illustrator 16.0.0, SVG Export Plug-In . SVG Version: 6.00 Build 0)  -->
<!DOCTYPE svg PUBLIC "-//W3C//DTD SVG 1.1//EN" "http://www.w3.org/Graphics/SVG/1.1/DTD/svg11.dtd">
<svg version="1.1" id="Objects" xmlns="http://www.w3.org/2000/svg" xmlns:xlink="http://www.w3.org/1999/xlink" x="0px" y="0px"
	 width="352.667px" height="151.355px" viewBox="0 0 352.667 151.355" enable-background="new 0 0 352.667 151.355"
	 xml:space="preserve">
<path fill="#FFFFFF" d="M11.471,146.009c0.752-0.962,0.137-0.205,0.873-1.021c1.194-1.325,2.46-2.585,3.756-3.81
	c4.626-4.373,9.75-8.175,15.129-11.567c19.544-12.323,42.422-18.204,65.314-19.73c35.541-2.371,71.639,6.013,104.706,18.509
	c6.928,2.618,14.447,5.385,20.46,9.835c1.227,0.907,2.89,2.511,3.299,3.373c0.218,0.457,0.286,1.349,0.304,1.076
	c-0.055,0.833,0.139,0.264-0.385,0.94c0.524-0.678-0.017-0.02-0.21,0.142c0.785-0.656,0.002-0.022-0.235,0.119
	c-0.653,0.387,0.685-0.302-0.272,0.12c-0.795,0.35-0.722,0.278-0.503,0.207c-2.321,0.752-2.197,0.644-4.759,0.932
	c-4.018,0.452-8.49,0.358-13.215-0.131c-3.412-0.352-8.638-1.362-11.846-2.663c-1.508-0.61-2.963-1.433-3.769-2.166
	c-0.906-0.826-1.33-1.8-1.316-2.336c0.036-1.456,0.739-2.125,1.531-2.905c1.42-1.398,3.474-2.644,5.461-3.664
	c8.69-4.465,18.325-7.163,27.706-9.72c17.369-4.732,34.961-8.174,51.999-14.116c14.301-4.987,28.292-11.418,40.771-20.06
	c14.956-10.357,29.136-25.466,31.146-44.355c1.271-11.945-3.156-24.509-13.264-31.457c-9.546-6.562-23.461-4.725-31.373,3.689
	c-2.873,3.055-5.539,6.328-8.027,9.699c-3.223,4.365-7.191,9.945-7.327,15.591c-0.194,8.044,10.032,9.191,15.075,5.346
	c5.182-3.952,5.496-11.789,3.904-17.536c-2.939-10.614-12.894-17.501-22.596-21.375c-9.539-3.811-22.146-7.37-32.178-3.165
	c-6.184,2.594-9.717,8.271-11.137,14.611c-1.802,8.04-0.736,16.742,0.813,24.727c2.017,10.391,5.497,20.496,9.631,30.222
	c8.241,19.389,19.682,39.01,35.661,53.046c11.224,9.856,26.039,15.861,40.069,7.952c0.957-0.539,1.929-1.972,0.55-2.665
	c-1.446-0.729-3.354-0.149-4.663,0.59c-14.098,7.945-30.64-8.071-39.279-18.082c-14.368-16.646-24.821-37.179-31.532-58.034
	c-2.929-9.102-5.138-18.602-5.493-28.186c-0.229-6.184,0.348-14.023,4.713-18.871c1.875-2.082,3.672-2.838,5.776-3.147
	c5.576-0.819,11.787,1.114,17.074,2.634c10.831,3.112,22.221,9.732,25.876,21.048c1.078,3.34,1.271,6.903,0.392,10.305
	c-0.318,1.235-0.834,2.357-1.554,3.409c-0.307,0.45-0.465,0.603-0.911,1.003c-0.145,0.129-0.408,0.195-0.038,0.087
	c0.421-0.122,0.553-0.023,0.243-0.086c-0.276-0.055-0.709-0.269-1.179-0.55c-1.462-0.876-2.405-2.377-2.614-4.036
	c-0.68-5.392,4.791-11.873,7.769-15.837c2.161-2.876,4.439-5.87,7.118-8.297c1.845-1.672,4.489-3.142,5.819-3.577
	c2.019-0.664,3.858-0.846,5.759-0.604c2.444,0.312,4.473,1.057,6.631,2.232c10.342,5.629,14.696,18.525,13.745,29.687
	c-1.636,19.177-16.665,34.078-31.919,44.064c-13.402,8.773-28.482,14.859-43.709,19.647c-16.252,5.11-33.055,8.109-49.394,12.916
	c-8.665,2.551-17.479,5.391-25.384,9.84c-3.092,1.74-7.836,4.656-8.24,8.634c-0.738,7.235,12.643,9.216,17.429,9.925
	c8.639,1.277,19.145,1.971,27.347-1.646c2.543-1.121,5.844-3.458,4.69-6.68c-1.428-3.994-6.666-6.52-10.105-8.348
	c-8.983-4.774-18.78-8.094-28.405-11.296c-19.146-6.367-38.794-11.049-58.85-13.37c-42.796-4.953-92.35,2.633-124.484,33.831
	c-1.584,1.538-3.156,3.147-4.519,4.889c-0.999,1.278,0.842,2,1.81,2.034C8.722,147.886,10.476,147.28,11.471,146.009L11.471,146.009
	z"/>
</svg>
