<?xml version="1.0" encoding="utf-8"?>
<!-- Generator: Adobe Illustrator 16.0.0, SVG Export Plug-In . SVG Version: 6.00 Build 0)  -->
<!DOCTYPE svg PUBLIC "-//W3C//DTD SVG 1.1//EN" "http://www.w3.org/Graphics/SVG/1.1/DTD/svg11.dtd">
<svg version="1.1" id="Calque_1" xmlns="http://www.w3.org/2000/svg" xmlns:xlink="http://www.w3.org/1999/xlink" x="0px" y="0px"
	 width="75px" height="115px" viewBox="-2.5 -2.5 75 115" enable-background="new -2.5 -2.5 75 115" xml:space="preserve">
<g>
	<path fill="#FC2C93" d="M38.499,109.959H31.5v-25.59H10.913v-7H31.5V66.572C14.682,64.805,1.641,50.412,1.641,33.403
		c0-18.396,14.966-33.362,33.362-33.362c18.393,0,33.356,14.966,33.356,33.362c0,17.013-13.042,31.406-29.86,33.17v10.796h20.59v7
		h-20.59V109.959z M35.003,7.041c-14.536,0-26.362,11.826-26.362,26.362c0,14.537,11.826,26.363,26.362,26.363
		c14.533,0,26.356-11.826,26.356-26.363C61.359,18.867,49.536,7.041,35.003,7.041z"/>
</g>
</svg>
