<?xml version="1.0" encoding="utf-8"?>
<!-- Generator: Adobe Illustrator 16.0.0, SVG Export Plug-In . SVG Version: 6.00 Build 0)  -->
<!DOCTYPE svg PUBLIC "-//W3C//DTD SVG 1.1//EN" "http://www.w3.org/Graphics/SVG/1.1/DTD/svg11.dtd">
<svg version="1.1" id="Calque_1" xmlns="http://www.w3.org/2000/svg" xmlns:xlink="http://www.w3.org/1999/xlink" x="0px" y="0px"
	 width="105px" height="110px" viewBox="-2.5 -4 105 110" enable-background="new -2.5 -4 105 110" xml:space="preserve">
<g>
	<path fill="#2C647E" d="M37.733,101.925c-21.093,0-38.253-17.161-38.253-38.256c0-21.092,17.16-38.251,38.253-38.251
		c9.439,0,18.447,3.458,25.482,9.759L88.28,7.075H63.799v-7h36.721v37.532h-7v-25.89L68.008,40.322
		c5.151,6.669,7.979,14.926,7.979,23.347C75.986,84.764,58.826,101.925,37.733,101.925z M37.733,32.418
		C20.5,32.418,6.48,46.437,6.48,63.669c0,17.234,14.02,31.256,31.253,31.256c17.233,0,31.253-14.021,31.253-31.256
		C68.986,46.437,54.967,32.418,37.733,32.418z"/>
</g>
</svg>
