<?xml version="1.0" standalone="no"?>
<!DOCTYPE svg PUBLIC "-//W3C//DTD SVG 20010904//EN"
 "http://www.w3.org/TR/2001/REC-SVG-20010904/DTD/svg10.dtd">
<svg version="1.0" xmlns="http://www.w3.org/2000/svg"
 width="486.000000pt" height="486.000000pt" viewBox="0 0 486.000000 486.000000"
 preserveAspectRatio="xMidYMid meet">
<metadata>
Created by potrace 1.11, written by Peter Selinger 2001-2013
</metadata>
<g transform="translate(0.000000,486.000000) scale(0.100000,-0.100000)"
fill="#000000" stroke="none">
<path d="M2406 4150 c-136 -28 -140 -28 -165 -11 -49 34 -65 34 -199 -8 -128
-41 -172 -49 -172 -33 0 5 -16 14 -36 20 -34 10 -46 7 -170 -45 -73 -30 -139
-53 -146 -49 -7 3 -26 15 -43 25 -36 23 -73 26 -100 7 -19 -13 -40 -24 -206
-115 -46 -25 -89 -41 -110 -41 -27 0 -64 -21 -171 -96 -75 -52 -224 -143 -331
-202 -242 -133 -237 -130 -246 -171 -6 -30 -24 -46 -146 -132 -146 -103 -166
-126 -157 -187 3 -20 502 -722 585 -822 7 -8 45 -60 84 -115 40 -55 183 -251
318 -435 135 -184 316 -432 403 -552 86 -119 168 -222 182 -228 40 -20 96 -22
128 -6 17 9 99 65 185 125 85 60 163 113 173 118 11 6 63 8 117 7 116 -4 370
-66 477 -118 36 -17 202 -112 369 -210 331 -195 353 -203 416 -163 20 14 88
114 208 311 98 160 208 341 246 401 141 229 513 834 727 1184 123 200 224 375
224 387 0 53 -22 73 -184 169 -152 89 -161 96 -163 126 -1 18 -11 42 -22 53
-12 12 -90 51 -176 86 -127 53 -155 69 -155 85 0 41 -37 83 -82 95 -244 65
-242 64 -249 100 -4 18 -18 44 -32 58 -25 24 -103 42 -340 76 -28 4 -47 12
-46 19 4 31 -3 48 -32 76 -30 31 -31 31 -147 32 -211 2 -195 -1 -205 41 -5 23
-22 49 -40 64 -29 24 -36 26 -101 20 -39 -3 -108 -9 -153 -13 l-82 -6 -7 27
c-5 23 -67 78 -84 75 -3 0 -68 -14 -144 -29z"/>
</g>
</svg>
